<svg enable-background="new 0 0 223 209.6" viewBox="0 0 223 209.6" xmlns="http://www.w3.org/2000/svg" xmlns:xlink="http://www.w3.org/1999/xlink"><linearGradient id="a" gradientTransform="matrix(.9984 -.0561 .0561 .9984 -3.1608 -610.1073)" gradientUnits="userSpaceOnUse" x1="23.2079" x2="23.2079" y1="669.8582" y2="658.5402"><stop offset="0" stop-color="#2e33a0"/><stop offset="1" stop-color="#0665a5"/></linearGradient><linearGradient id="b" gradientUnits="userSpaceOnUse" x1="65.4168" x2="65.4168" y1="189.7375" y2="174.4784"><stop offset="0" stop-color="#836ceb"/><stop offset="1" stop-color="#c3a4eb"/></linearGradient><linearGradient id="c"><stop offset="0" stop-color="#ccedff"/><stop offset="1" stop-color="#755cbb"/></linearGradient><linearGradient id="d" gradientUnits="userSpaceOnUse" x1="122.55" x2="122.55" xlink:href="#c" y1="124.5" y2="78.8"/><linearGradient id="e"><stop offset=".0159875" stop-color="#ffc2a9"/><stop offset="1" stop-color="#ff9595"/></linearGradient><linearGradient id="f" gradientUnits="userSpaceOnUse" x1="150.5843" x2="150.5843" xlink:href="#e" y1="177.377" y2="68.3645"/><linearGradient id="g"><stop offset="0" stop-color="#ff7c7c"/><stop offset=".984" stop-color="#ff9e8b"/></linearGradient><linearGradient id="h" gradientUnits="userSpaceOnUse" x1="127.3488" x2="172.694" xlink:href="#g" y1="131.8469" y2="131.8469"/><linearGradient id="i" gradientUnits="userSpaceOnUse" x1="60.05" x2="60.05" xlink:href="#e" y1="195.0703" y2="94.3"/><linearGradient id="j" gradientUnits="userSpaceOnUse" x1="147.6659" x2="156.0659" xlink:href="#g" y1="96.55" y2="96.55"/><linearGradient id="k" gradientUnits="userSpaceOnUse" x1="154.468" x2="163.0833" xlink:href="#g" y1="96.6918" y2="96.6918"/><linearGradient id="l" gradientUnits="userSpaceOnUse" x1="32.3" x2="67.1" y1="134.15" y2="134.15"><stop offset=".0159875" stop-color="#ff9e8b"/><stop offset="1" stop-color="#ff7c7c"/></linearGradient><linearGradient id="m" gradientUnits="userSpaceOnUse" x1="68.45" x2="68.45" xlink:href="#c" y1="142.5482" y2="118.8295"/><path d="m43.5 47.3-5.5-.7c-3.1-1.2-6.6-2.7-9.3-5-6.5-5.7-9-11.6-8.6-12.9s9.3.1 15.4 4.4c5.7 4.1 7.6 11.5 8 14.2z" fill="#0848b3"/><path d="m54 57.6s-.7-4.3.5-6.9 5.5-5.2 6.1-4.8c.5.5-6.6 11.7-6.6 11.7z" fill="url(#a)"/><path d="m20 28.7s12.6 5.1 16.5 9.3c3.9 4.1 5.9 8.4 5.9 8.4s-15.3-.3-22.4-17.7z" fill="#28274e" opacity=".82"/><path d="m59.5 56.3c-2.4 2.9-4.8 4.9-6.3 6l-1.2-.2.4-.4s-3.4-3-3.1-10.1c.3-7 8-18.9 10.2-17.6 1.9 1.2 3.9 17.4 0 22.3z" fill="#0848b3"/><path d="m53.1 61.2s1.3-18.9 5.8-27c-.1.1 8.3 18.7-5.8 27z" fill="#28274e" opacity=".82"/><path d="m197 164c-2.8 5.6-6.2 10.3-9.9 13.7-1.1 1-2.2 1.9-3.4 2.6-1.1.7-2.2 1.3-3.4 1.8-16.9 7-34.3-8.9-53.6-7-16.2 1.6-27.9 10.6-38.3 18.2-3.7 2.7-7.2 5.2-10.6 7.1-1 .5-2 1-2.9 1.5-1.1.5-2.2.9-3.4 1.3-15 5.1-40.4 5-51.6-6.1-11.8-11.6-26-49.2 6.3-97.6 35.9-53.8 134.1-61.3 160.4-43.5 27 18.3 26 77 10.4 108z" fill="#f3f8ff"/><path d="m68.6 174.5s-7.8 4.1-6.5 15.3c0-.1 8.4-4.4 6.5-15.3z" fill="url(#b)"/><path d="m62.7 166.5s7.9-4.2 9.5-12.1c1.6-7.8-7.9-23.4-7.9-23.4l-12.9-20.6s-7.6 6.9-9.2 14 7.2 26.1 7.2 26.1z" fill="#fe8883"/><g fill="#fff"><path d="m129.1 165.1c-2-1.6-4.5-2.8-7-3.3-.4-.1-.8-.2-1.2-.1-.8.2-1.4.9-1.6 1.7-.7 1.9.1 4.1 1.6 5.4s3.7 1.6 5.6 1c1-.3 2.1-.9 2.6-1.9s.3-2.3-.5-2.9c-.3.1-.5.6-.2.8z"/><path d="m121.2 166.4c-.3-1-1.1-1.9-2.1-2.2-.8.7-1.3 1.8-1.1 2.9.2 1 1.3 1.9 2.3 1.7 1-.3 1.4-1.9.5-2.5z"/><path d="m112.7 162.1c.2-.5.1-1-.1-1.4-.2.1-.4.2-.5.4s-.2.4-.1.6c.1.3.5.3.8.3-.1.1-.1.1-.2.2z"/><path d="m114.5 162.6c.1 0 .3.1.4.3-.3.2-.8 0-1.1-.2-.2-.1-.4-.3-.4-.5 0-.1.1-.3.2-.4.1-.3.1-.7.3-.8s.3.1.4.2c.1.2.1.3.1.5v1.1z"/><path d="m91 153.9c-.1-.3-.6-.1-.7.2s.1.6.3.8c.4-.2.6-.7.5-1.1z" opacity=".5"/><path d="m86 163.8c0 .1-.1.3-.2.3s-.3 0-.4-.1c-.1 0-.1-.1-.2-.2-.1-.2 0-.4.2-.5s.4 0 .5.2 0 .4-.2.5z"/><path d="m108.5 164.3c.3 0 .5-.4.4-.7-.2 0-.3 0-.5.1-.1.1-.2.3-.1.4s.3.2.4.1z"/><path d="m115.5 163.8c.2-.3.3-.7.3-1.1-.3.1-.6.2-.9.3-.1 0-.3.1-.4.2-.2.2-.1.6.2.7.2.2.6.1.8-.1z"/><path d="m90.1 162.9c-.1 0-.2.1-.3.1 0 .2.1.4.2.4s.4 0 .4-.2c.1-.2-.1-.4-.3-.3z" opacity=".5"/><path d="m110.7 163.7c-.1.2.2.4.4.3s.4-.1.6-.2c.2 0 .4 0 .6.1.1.1.2.2.2.3s-.1.1-.1.2c-.3.3-.6.6-1 .7s-.8 0-1.1-.3c-.2-.2-.2-.5-.1-.8.1-.1.3-.3.5-.3z"/><path d="m113.8 159.2c.1-.2.1-.5-.1-.7s-.5-.1-.7 0c-.1.1-.2.2-.2.3s.1.1.2.1c.2.2.5.3.8.3z"/><path d="m102.3 156.3c-.1.5-.7.9-1.2.6.1-.4.2-.8.5-1.1s.8-.3 1 0c0 .2-.1.5-.1.7z"/><path d="m139.2 171.5c.1 0 .2.2.2.3s-.1.2-.2.3-.2.1-.3.1c-.2 0-.4-.1-.4-.3-.1-.2 0-.4.1-.5s.1-.1.2-.1.2.1.2.2z"/><path d="m106.9 161.9c0-.1-.1-.2-.1-.3-.2 0-.3 0-.5.2-.1.1-.1.4.1.4.1 0 .1 0 .2-.1.2-.1.3-.2.5-.3z"/><path d="m101.2 160.9c-.1-.2-.3-.5-.5-.6-.2-.2-.5-.2-.7-.1-.1.1-.2.2-.2.3-.1.4.1.8.5 1 .4.1.8-.2.9-.6z"/><path d="m99.8 158.5c-.2-.1-.3-.2-.5-.3-.1.1-.2.2-.2.4.2.2.5.2.7-.1z"/><path d="m115 150.4c-1-.2-2.1-.3-3.1 0-.2 0-.3.1-.5.2-.3.2-.3.6-.3.9.1.8.7 1.5 1.5 1.7s1.6-.1 2.2-.6c.3-.3.6-.7.6-1.1s-.3-.9-.7-1c-.1.1-.1.3.1.3z"/><path d="m115.5 172c-.1-.5-.5-.9-1-1.1-.1.2-.2.4-.2.6s.1.5.3.6c.3.1.6-.1.8-.3 0 .1 0 .2.1.2z"/><path d="m112 172.1c-.1-.1-.2-.2-.3-.2s-.3 0-.4.1c-.3.2-.7.3-1 .4.5.3 1.1.5 1.6.8 0 0 .1 0 .1.1.1.1 0 .3 0 .5s.3.4.6.4c1.7-.1-.1-1.6-.6-2.1z"/><path d="m118.9 171.6c0-.4-.1-.8-.4-1-.2.2-.4.5-.5.7-.1.1-.2.2-.2.4 0 .3.3.5.6.5.1 0 .4-.3.5-.6z"/><path d="m136.4 176.9c-.1 0-.2.1-.3.1 0 .2.1.4.2.4.2.1.4 0 .4-.2.1-.2-.1-.4-.3-.3z"/><path d="m114.7 169c0-.3-.3-.5-.5-.4-.3 0-.5.2-.6.4 0 .1-.1.2 0 .3h.2c.4-.1.7-.1.9-.3z"/><path d="m117.5 165.6c-.1-.2-.3-.5-.5-.6-.2-.2-.5-.2-.7-.1-.1.1-.2.2-.2.3-.1.4.1.8.5 1 .3.1.8-.2.9-.6z"/><path d="m107.4 156.7c-.3 0-.4.3-.5.6s-.2.6-.4.6c-.1 0-.2 0-.2 0-.1-.1 0-.3 0-.5 0-.1 0-.3 0-.5 0-.4.2-.7.6-.8.2 0 .4.2.4.3.1.2 0 .4-.2.5z"/><path d="m101.2 159c-.3 0-.4.3-.5.6s-.2.6-.4.6c-.1 0-.2 0-.2 0-.1-.1 0-.3 0-.5 0-.1 0-.3 0-.5 0-.4.2-.7.6-.8.2 0 .4.2.4.3.1.2 0 .4-.2.5z"/><path d="m96.8 156.6c-.2-.1-.4-.2-.6-.3h-.1c-.1 0-.1.1-.1.1-.1.2 0 .3.2.4.1.1.3.1.5.1.1 0 .2-.1.2-.2 0 0-.1-.1-.1-.1-.1-.1-.1 0 0 0z"/><path d="m126 169c-.1-.5-.5-.9-1-1.1-.1.2-.2.4-.2.6s.1.5.3.6c.3.1.6-.1.8-.3 0 .1 0 .2.1.2z"/><path d="m124 173.2c.3-.2.2-.6-.1-.7-.1.1-.3.2-.3.4s0 .3.1.4.4 0 .4-.2z"/><path d="m118.3 167.1c.3-.2.2-.6-.1-.7-.1.1-.3.2-.3.4s0 .3.1.4.4 0 .4-.2z"/><path d="m125.4 171.4c.1.2.4.2.5.1.2-.1.2-.3.4-.5.1-.2.3-.2.6-.2.1 0 .3 0 .3.2v.2c0 .4-.1.8-.4 1.1-.2.3-.7.5-1 .4s-.5-.3-.6-.6 0-.6.2-.7z"/><path d="m105.5 158.7c.1.2.4.2.5.1.2-.1.2-.3.4-.5.1-.2.3-.2.6-.2.1 0 .3 0 .3.2v.2c0 .4-.1.8-.4 1.1-.2.3-.7.5-1 .4s-.5-.3-.6-.6c0-.3.1-.6.2-.7z"/><path d="m106.6 156.3c.1.2.4.2.5.1s.2-.3.4-.5c.1-.2.3-.2.6-.2.1 0 .3 0 .3.2v.2c0 .4-.1.8-.4 1.1-.2.3-.7.5-1 .4s-.5-.3-.6-.6 0-.6.2-.7z"/><path d="m109.9 158.7c.1.2.4.2.5.1.2-.1.2-.3.4-.5.1-.2.3-.2.6-.2.1 0 .3 0 .3.2v.2c0 .4-.1.8-.4 1.1-.2.3-.7.5-1 .4s-.5-.3-.6-.6 0-.6.2-.7z"/><path d="m89 177.9c.1.2.4.2.5.1.2-.1.2-.3.4-.5.1-.2.3-.2.6-.2.1 0 .3 0 .3.2v.2c0 .4-.1.8-.4 1.1-.2.3-.7.5-1 .4s-.5-.3-.6-.6 0-.6.2-.7z"/><path d="m121.3 172.3c-.1-.1-.2-.1-.3-.2-.1.1-.2.2-.3.4 0 .2.2.3.3.2.1 0 .1-.1.1-.2.1-.2.2-.4.2-.6z"/><path d="m100.1 170.7c-.1-.2-.3-.5-.5-.6-.2-.2-.5-.2-.7-.1-.1.1-.2.2-.2.3-.1.4.1.8.5 1 .3 0 .7-.2.9-.6z"/><path d="m121.3 164.1c.4.1.4.7.1.9-.2 0-.4-.1-.6-.2.1-.2.2-.4.5-.7z"/><path d="m98.1 167.9c-.1-.1-.2-.2-.3-.3s-.3-.1-.4 0c-.2.2-.1.5-.2.7s-.4.4-.4.6.3.4.5.3.4-.3.6-.5c.1-.2.3-.4.3-.6s-.1-.5-.3-.5z" opacity=".5"/><path d="m110.3 161.8c.4-1 .3-2.2-.4-3-1.1.1-2.1.7-2.6 1.6s-.1 2.3.8 2.7c1 .4 2.3-.7 1.9-1.7z"/><path d="m122.4 161.9c0 .1-.2.2-.4.1-.1-.1-.2-.2-.3-.3 0-.1 0-.2 0-.3 0-.2.3-.3.5-.3.2.1.3.3.3.5-.1.2-.3.3-.5.3z"/><path d="m116.5 161.9c-.2.1-.3.4-.3.7s0 .6-.2.7c-.1 0-.1.1-.2 0-.2-.1-.1-.3-.2-.5 0-.2-.1-.3-.2-.4-.1-.3 0-.7.3-1 .2 0 .4 0 .5.2s.1.4 0 .5z"/><path d="m108.6 165.2c-.1 0-.2-.1-.3-.1-.1.1-.2.3-.1.5.1.1.3.2.4.1.2-.2.2-.4 0-.5z"/><path d="m114.5 164.9c.1.1.1.2 0 .3s-.2.1-.3.1-.2 0-.3-.1c-.2-.1-.2-.3-.2-.5.1-.2.2-.3.4-.3.1 0 .2 0 .3.1s.1.2 0 .2z"/><path d="m113 173.7c1-.5 1.6-1.5 1.7-2.5-.9-.6-2-.9-3-.5s-1.6 1.7-1.1 2.6 2.2 1 2.5 0z"/><path d="m120.8 170.7c-.1-.3-.6-.1-.7.2s.1.6.3.8c.4-.2.6-.7.5-1.1z"/><path d="m119.9 159.4c-.1 0-.2-.1-.3-.1-.1.1-.2.3-.1.5.1.1.3.2.4.1.2-.2.2-.4 0-.5z"/><path d="m116.9 164.2c-.9-.7-1.9-1.3-3-1.5-.2 0-.4-.1-.5 0-.3.1-.6.4-.7.7-.3.8 0 1.8.6 2.3.7.6 1.6.7 2.4.5.5-.1.9-.4 1.1-.8s.2-1-.2-1.3c-.1 0-.2.3-.1.4z"/><path d="m104.1 177.7c-.3-1-1.1-1.9-2.1-2.2-.8.7-1.3 1.8-1.1 2.9.2 1 1.3 1.9 2.3 1.7 1-.3 1.4-1.9.5-2.5z"/><path d="m97.6 158.7c-.1-.5-.5-.9-1-1.1-.1.2-.2.4-.2.6s.1.5.3.6c.3.1.6-.1.8-.3 0 .1 0 .2.1.2z"/><path d="m94 158.8c-.1-.1-.2-.2-.3-.2s-.3 0-.4.1c-.3.2-.7.3-1 .4.5.3 1.1.5 1.6.8 0 0 .1 0 .1.1.1.1 0 .3 0 .5s.3.3.6.4c1.8-.1-.1-1.6-.6-2.1z"/><path d="m115.6 161.2c-.2-.1-.3-.2-.5-.3-.2.3-.1.8.1 1 .3.2.8.1.8-.3 0-.2 0-.6.2-.6z"/><path d="m100.5 164c.1 0 .3.1.4.3-.3.2-.8 0-1.1-.2-.2-.1-.4-.3-.4-.5 0-.1.1-.3.2-.4.1-.3.1-.7.3-.8s.3.1.4.2c.1.2.1.3.1.5v1.1z"/><path d="m98.4 169.5c-.1-.3-.6-.1-.7.2s.1.6.3.8c.4-.2.6-.7.5-1.1z"/><path d="m94.3 164.3c0 .1-.1.3-.2.3s-.3 0-.4-.1c-.1 0-.1-.1-.2-.2-.1-.2 0-.4.2-.5s.4 0 .5.2 0 .4-.2.5z" opacity=".5"/><path d="m95.6 162.9c.3-.2.2-.6-.1-.7-.1.1-.3.2-.3.4s0 .3.1.4.4 0 .4-.2z"/><path d="m100.9 158.3c0-.4-.1-.8-.4-1-.2.2-.4.5-.5.7-.1.1-.2.2-.2.4 0 .3.3.5.6.5.2 0 .4-.3.5-.6z"/><path d="m94.7 168.7c.1.2 0 .4-.2.6-.2.1-.4.2-.6.1-.1-.1-.2-.2-.1-.4 0 0 .1-.1.2-.1.3-.1.5-.2.8-.3-.1 0-.1 0-.1.1z" opacity=".5"/><path d="m91.5 171.5c-.3 0-.4.3-.5.6s-.2.6-.4.6c-.1 0-.2 0-.2 0-.1-.1 0-.3 0-.5 0-.1 0-.3 0-.5 0-.4.2-.7.6-.8.2 0 .4.2.4.3.1.2 0 .4-.2.5z" opacity=".5"/><path d="m109.2 154.6c-.3 0-.4.3-.5.6s-.2.6-.4.6c-.1 0-.2 0-.2 0-.1-.1 0-.3 0-.5 0-.1 0-.3 0-.5 0-.4.2-.7.6-.8.2 0 .4.2.4.3.1.2 0 .4-.2.5z" opacity=".5"/><path d="m89.7 169.4c-.1-.1-.2-.1-.2-.2-.2.1-.3.2-.2.4 0 .2.2.3.4.2.1 0 .2-.2 0-.4z" opacity=".5"/><path d="m97 161.1c.1.2.4.2.5.1.2-.1.2-.3.4-.5.1-.2.3-.2.6-.2.1 0 .3 0 .3.2v.2c0 .4-.1.8-.4 1.1-.2.3-.7.5-1 .4s-.5-.3-.6-.6c0-.3.1-.6.2-.7z"/><path d="m96.8 155.7c0-.3-.3-.5-.5-.4-.3 0-.5.2-.6.4 0 .1-.1.2 0 .3h.2c.4-.1.7-.1.9-.3z"/><path d="m102.7 168.4c-.1.5-.7.9-1.2.6.1-.4.2-.8.5-1.1s.8-.3 1 0c0 .2-.1.5-.1.7z"/><path d="m92.9 162c-.1-.1-.2-.1-.3-.2-.1.1-.2.2-.3.4 0 .2.2.3.3.2.1 0 .1-.1.1-.2.1-.2.2-.4.2-.6z" opacity=".5"/><path d="m121.1 166.6c-.1-.2-.3-.5-.5-.6-.2-.2-.5-.2-.7-.1-.1.1-.2.2-.2.3-.1.4.1.8.5 1 .3 0 .8-.3.9-.6z"/><path d="m107.3 174.1c-.2-.1-.3-.2-.5-.3-.1.1-.2.2-.2.4.2.2.5.2.7-.1z"/><path d="m133.8 172.5c0 .1-.1.3-.2.3s-.3 0-.4-.1c-.1 0-.1-.1-.2-.2-.1-.2 0-.4.2-.5s.4 0 .5.2 0 .4-.2.5z"/><path d="m105.4 170c-.2-.1-.3-.2-.5-.3-.1.1-.2.2-.2.4.2.2.5.2.7-.1z"/><path d="m112 156.8c0-.2-.3-.3-.5-.2s-.3.3-.5.4-.4.1-.6.1c-.1 0-.2-.1-.2-.2s0-.2 0-.2c.2-.4.4-.7.7-1 .3-.2.8-.3 1.1-.1.2.2.4.4.4.7s-.2.4-.4.5z"/><path d="m116 166.8c.1.1.1.3.2.4s.3.2.4.1c.2-.1.2-.4.4-.6s.5-.3.5-.5c.1-.2-.2-.5-.4-.5s-.5.1-.7.3c-.2.1-.4.3-.4.5-.1.2 0 .5.2.6z"/><path d="m105.8 161.2c.8.4 1.8.5 2.7.4.1 0 .3 0 .4-.1.3-.1.4-.4.4-.7 0-.7-.4-1.4-1.1-1.7-.6-.3-1.4-.2-2 .2-.3.2-.6.5-.7.9s.1.8.5.9c.1-.1.1-.2 0-.3z"/><path d="m110.2 156.2c0-.1.1-.3 0-.4 0-.1-.2-.2-.3-.3-.3-.2-.6-.5-.8-.7 0 .6.1 1.2.1 1.8v.1c-.1.2-.3.2-.4.3-.2.2-.1.5 0 .7.7 1.6 1.1-.8 1.4-1.5z"/><path d="m105.8 161c-.1-.1-.1-.1-.2-.2-.2.1-.3.2-.3.4s.2.3.4.3c.2-.1.2-.4.1-.5z"/><path d="m107.2 156.2c.2-.1.3-.5.1-.7-.1-.2-.4-.3-.7-.3-.1 0-.2.1-.2.2s.1.1.1.2c.3.3.5.5.7.6z"/><path d="m105.6 159.1c.3-.4.5-.9.4-1.4-.2 0-.5 0-.6.1-.2.1-.4.3-.3.5 0 .3.4.5.6.6-.1 0-.2.1-.1.2z"/><path d="m103.6 160.3v.4c-.3-.2-.4-.6-.4-1 0-.2 0-.5.2-.6.1-.1.3 0 .4 0 .3 0 .6-.3.9-.1.1.1.1.3 0 .5-.1.1-.2.2-.4.3-.3.2-.6.4-1 .5z"/><path d="m108.8 157.9c.3-.2.6-.5.6-.9-.3 0-.6-.1-.9-.1-.1 0-.3 0-.4 0-.3.1-.3.5-.1.7.1.3.5.3.8.3z"/><path d="m104.4 155.9c-.1.1 0 .4.2.5s.4 0 .6.1c.2 0 .4.2.5.4.1.1.1.2 0 .3 0 .1-.1.1-.2.1-.4.2-.8.3-1.2.2-.4 0-.8-.3-.9-.7-.1-.3 0-.6.2-.8.3-.1.6-.2.8-.1z"/><path d="m110.8 167.3c.1-.2.3-.5.3-.7 0-.3-.1-.6-.3-.7-.1-.1-.3-.1-.4-.1-.4.1-.7.5-.6.9.2.4.6.7 1 .6z"/><path d="m114.6 162.7c.3-.4.5-.9.4-1.4-.2 0-.5 0-.6.1-.2.1-.4.3-.3.5 0 .3.4.5.6.6-.1 0-.2.1-.1.2z"/><path d="m102.7 160.4c-.3 0-.4.3-.5.5-.1.3-.2.6-.5.6-.1 0-.2 0-.2 0-.1-.1 0-.3.1-.5 0-.1 0-.3 0-.5 0-.4.3-.7.6-.8.2 0 .4.2.4.4s0 .4-.2.5z"/><path d="m118.7 173.6c-.1 0-.2 0-.3 0-.1.1-.1.3 0 .5s.3.1.5 0c.1-.3 0-.5-.2-.5z"/><path d="m109.4 160.3c0-.1 0-.2.1-.3-.2 0-.3-.1-.5 0-.1.1-.2.3-.1.4h.2c.2 0 .4 0 .6-.1z"/></g><path d="m45.1 124s7.2 1 12.1 5.9l.7-2.2-4.1-8.3-3.4 5c-.1-.1-2.3-.8-5.3-.4z" fill="#ec6a6b"/><path d="m33 61.7s-1.8 2.1-1.1 7.4c0 0 20.8 50.3 31.6 70.6 1.3 2.3 4 3.4 6.5 2.5l73-25.7-.6-1.9-74.4 25z" fill="#0848b3"/><path d="m144.7 113.8-74.7 26.5c-2 .7-4.1-.2-5-2.1l-32.4-72.6c-1-2.1.1-4.7 2.3-5.4 20.7-6 36.4-10.4 52.4-14.4h.2c9.6-2.4 19.3-4.6 30.2-6.8 1.5-.3 2.9.5 3.7 1.7.2.2.3.5.4.7 3.3 8.1 13.1 32.4 20.2 52.3v.1c2 5.5 3.7 10.7 5.1 15 .7 2.2-.4 4.3-2.4 5z" fill="#0848b3"/><path d="m35.3 64.6 30.8 70.8 80.1-26-27.8-68.2c-26.7 6-54 13.2-83.1 23.4z" fill="#2bbc7a"/><path d="m88.1 103.2 22.4-7c2.6-.8 5.4.4 6.5 2.9 1.3 2.9-.1 6.3-3.1 7.3l-22.1 7.7c-2.6.9-5.5-.3-6.7-2.9l-.3-.7c-1.3-2.9.2-6.3 3.3-7.3z" fill="#dbd8ff"/><path d="m88.1 102.5 22.2-6.9c2.6-.8 5.3.4 6.4 2.9 1.3 2.9-.1 6.2-3.1 7.3l-21.9 7.6c-2.6.9-5.4-.3-6.6-2.8l-.3-.7c-1.3-3 .2-6.4 3.3-7.4z" fill="#fff"/><path d="m54.3 73.6 57.2-17.2 13 30-56.4 18.3z" fill="#28274e"/><path d="m92.8 105.2c-.2-.5-.2-.9 0-1.2s.5-.6.9-.7c.5-.1.8-.1 1.2 0 .3.2.6.5.7 1l1 3.1c.2.5.2.9 0 1.2s-.5.6-.9.7c-.5.1-.8.1-1.2 0-.3-.2-.6-.5-.7-1zm1.9 2.8c.1.2.2.3.3.4s.2.1.4 0c.1 0 .2-.1.3-.2s.1-.3 0-.5l-1-3.2c-.1-.2-.2-.3-.3-.4s-.2-.1-.4 0c-.1 0-.2.1-.3.2s-.1.3 0 .5z" fill="#0848b3"/><path d="m99.6 107.9s-.1-.1 0 0c-.1-.1-.1-.2-.1-.2s-.1-.1-.1-.2-.1-.2-.1-.3l-.3-.9c-.1-.3-.2-.5-.3-.5-.1-.1-.3-.1-.5 0l-.3.1.8 2.4-.9.3-1.9-5.9 1.4-.5c.5-.2.9-.2 1.2 0s.5.5.7.9l.2.5c.2.6.1 1.1-.2 1.4.3 0 .5.1.6.3.2.2.3.4.4.7l.3.9c0 .1.1.3.1.4s.1.2.2.3zm-2.7-4.7.6 1.8.4-.1c.2-.1.3-.1.4-.3.1-.1.1-.3 0-.5l-.2-.6c-.1-.2-.2-.4-.3-.4-.1-.1-.2-.1-.4 0z" fill="#0848b3"/><path d="m99.1 101.6 1.5-.5c.5-.2.8-.1 1.2 0 .3.2.5.5.7 1l1 3c.2.5.2.9 0 1.2-.1.3-.5.6-.9.7l-1.5.5zm1.2.5 1.4 4.2.5-.2c.1 0 .2-.1.3-.2s0-.3 0-.5l-1-3.1c-.1-.2-.2-.3-.3-.4s-.2-.1-.4 0z" fill="#0848b3"/><path d="m104.3 102.6 1.3-.4.3.8-1.3.4.6 1.7 1.6-.5.3.8-2.5.8-1.9-5.9 2.5-.8.3.8-1.6.5z" fill="#0848b3"/><path d="m109.5 104.7c-.1-.1-.1-.1 0 0-.1-.1-.1-.2-.1-.2s-.1-.1-.1-.2-.1-.2-.1-.3l-.3-.9c-.1-.3-.2-.5-.3-.5-.1-.1-.3-.1-.5 0l-.3.1.8 2.4-.9.3-1.9-5.9 1.2-.5c.5-.2.9-.2 1.2 0s.5.5.7.9l.2.5c.2.6.1 1.1-.2 1.4.3 0 .5.1.6.3.2.2.3.4.4.7l.3.9c0 .1.1.3.1.4s.1.2.2.3zm-2.7-4.7.6 1.8.4-.1c.2-.1.3-.1.4-.3.1-.1.1-.3 0-.5l-.2-.6c-.1-.2-.2-.4-.3-.4-.1-.1-.2-.1-.4 0z" fill="#0848b3"/><path d="m120.3 124.5 1.4-2.5s-5-31.9-11.1-43.2l21.4 15.1 2.5 6.8-3 11.7-2.1 8.9z" fill="url(#d)" opacity=".5"/><path d="m134.5 102s.6 4.5 1.4 8.4 3.9 8.5 6.1 8.9c2.1.4 3.6-2.5 3.6-2.5l-6.4-14.8z" fill="#fe9083"/><path d="m192 161.4c-8.6-6.1-21.4-17.6-21.6-18.9-.7-3.8 3.5-37 2-41.4-.1-.1-.1-.3-.2-.3-2-2.4-8.6-6.2-11.5-6.4-3-.2-6.2.6-6.2.6-2-.5-6.8-.2-6.8-.2s-2.5-.4-4.6-.7c-1.7-.2-4.6.1-4.6.1s-5.4-6.1-6.2-6.9-3.4-3.4-7-6.5-9.5-11.4-11.1-12.1c-1.5-.7-5.7 1.7-5.8 3.7-.1 1.4 1 5.4 5.1 10.7 4.2 5.4 11.4 9.4 12.8 10.8.8.8 3.7 3.5 6.8 7.1-.9 1.4-1.9 3.8-2.8 6.3-1.7 4.9-3.2 10.4-2.9 11.2.4 1.3 3.9 5.2 7.1 10.2s5.5 11.1 8.9 15.2c3.5 4.2 13.5 3.7 13.5 3.7 1 1 2.5 2.6 4.3 4.5l1.2 1.3 1.1 1.2 1.7 1.8 4.4 4.5 2.3 2.4.2.2.1.1.1.1c7.5 7.7 13.9 14 13.9 14 9.7-6.9 5.8-16.3 5.8-16.3zm-56-44.2c.2-.5.5-1 .6-1.4 1.3-3 2-6 2.3-7.6.5.8 1 1.6 1.5 2.3 3.2 5.6 4.8 13.8 5.4 17.2.2 1 .2 1.6.2 1.6-6-2.2-10-12.1-10-12.1z" fill="url(#f)"/><path d="m108.5 71.9s.7 4.3 5.9 10c5.2 5.6 12.4 9.4 14.7 9.7 2.3.4 4.2-1.6 4.2-2.6-.1-.9-12.7-11.6-15.9-16.5-.1.1-4.5-6.4-8.9-.6z" fill="#feb1a8" opacity=".8"/><path d="m172 163-2.3-2.4-4.4-4.5-1.7-1.8-1.1-1.2-1.2-1.3c-1.8-1.9-3.3-3.4-4.3-4.5 0 0-10.1.5-13.5-3.7 2.9-7-.8-13.5-4-18.5s-11.7-5.6-12-6.9c-.2-.8 1.2-6.4 2.9-11.2h.1l6.3 8.7c-.2.5-.9 1.1-.5 2.3 0 0 6.3 14 12.3 16.1 0 0 7-4.9-1.1-24.1-.5-4.7 1.3-6.7 4.5-6.6 2.8.1 3.7-.6 6.9-1.8 3.2-1.3 6.8.2 8.5-.4s4.9-.5 4.9-.5l.2.3c1.5 4.4-2.7 37.7-2 41.4 0 0-6.7 2.8-7.3 6.7-.6 3.4 7 11.9 8.8 13.9z" fill="url(#h)" opacity=".5"/><path d="m87.8 193.3c-4 3.8-20.9.3-20.9.3s-6.3-9.1-12.5-19.6c-2.5-4.3-5-8.8-7-13-7-14.6-15.1-49.7-15.1-49.7 1.1-5 9.7-16.3 10.3-17l4.3 9.9-.2.6c-1.3 3.2-5.5 10.3-5.7 11.4-.2 1.3 1.9 14.9 5.1 21.1s5.6 7.3 5.6 7.3c3-4.7 4.6-15.7 5.8-19.5 1.2-3.9 9.7-15.9 11.7-16.3 2-.3 4.5 1.6 5 2.3.3.4.6 1.1.5 2.5v.2c-.1 1.2-.5 2.8-1.3 4.9-1.2 3-4 6.3-6.2 8.8l-.1.1c-1.4 1.6-2.6 2.9-2.9 3.4-.7 1.3-.7 4.7-.7 4.7s3.7 9.9 3.3 19.8c-.3 9.9-5.2 11.6-5.2 11.6.7 1.2 1.5 2.4 2.4 3.6 9 12.1 23.8 22.6 23.8 22.6z" fill="url(#i)"/><path d="m88.4 193.2c-3.7 2.7-7.2 5.2-10.6 7.1-1 .5-2 1-2.9 1.5-1.1.5-2.2.9-3.4 1.3-1.8-2.3-5.8-7.4-8.3-11.5-.2-.3-.4-.7-.6-1s-.3-.6-.5-.9c0 0 5.1-3.2 6.5-15.3 0 .1 11.8 12.7 19.8 18.8z" fill="#b7c3d2"/><path d="m197 164c-2.8 5.6-6.2 10.3-9.9 13.7-1.1 1-2.2 1.9-3.4 2.6-1.8-1.9-7.1-7.6-11.2-14 0 0-.3-1.7-.2-4.2.1-3.8.9-9.4 4.3-13.9.1 0 13.9 12.1 20.4 15.8z" fill="#b7c3d2"/><path d="m57.5 125.1s.5 2.3 6.2 1.2 11.3-10.8 11.1-12.6-6-4-6-4-9.9 9.6-11.3 15.4z" fill="#feb1a8" opacity=".8"/><path d="m146.2 133.3s-9.7-11.2-10.2-16.1c0 0 4 10 10 12.1 0-.1.5 2.3.2 4z" fill="#ec6a6b"/><path d="m131.5 102.1c1 4.2 2.3 7.2 5.8 12.2l2.3-5.4s-4.3-6-7.2-9.1c0 0-1.1 1.7-.9 2.3z" fill="#fe9083"/><path d="m147.7 94.6s6.3 3 8.4 3.9c0 0-4.1-2.8-6.3-3.9z" fill="url(#j)"/><path d="m154.5 94.9s6.1 1.8 8.6 3.6c0 0-4-3.9-8.6-3.6z" fill="url(#k)"/><path d="m130 108.1s5.1 3.6 6.1 9l1.2-2.9s-4.7-7.4-5.5-10.9z" fill="#ec6a6b"/><path d="m138.4 107.3-1.1 2.6s2.8-.3 3.8 1.7c-.1 0-2.1-3.5-2.7-4.3z" fill="#ec6a6b"/><path d="m139.9 93.9s4.7 5.5 6.6 6.2c1.9.6 9.6-.4 9.8-.8s-8-4.5-8.7-4.6c-.6-.2-6.5-.9-7.7-.8z" fill="#feb1a8"/><path d="m149.8 94.6s6.6 3.8 7.4 4c.9.2 5-.1 5-.1s-6.1-3.4-8-3.7c-1.8-.2-4.4-.2-4.4-.2z" fill="#feb1a8"/><path d="m157 147.4s1.9-.9 3.3.8 3.3 6.1 3.3 6.1-4.4-4.5-6.6-6.9z" fill="#fe9083"/><path d="m109 72.9s1.3 3.8 5.9 6 5.5-2.2 4.9-3.5c-.5-1.3-5.3-5.6-5.3-5.6z" fill="#ff909a"/><path d="m116.9 78.6c-.3 0-.6 0-1-.1-2.4-.5-5.6-3.1-6.5-4.7-.2-.4-.3-.7-.3-.9.7-2.6 5.1-4.4 5.8-3.9l.5.5c1.2 1.4 4 5.1 4.3 5.5.1.1.1.2.1.3.2.9-.4 3.1-2.9 3.3z" fill="#feb8b0"/><path d="m116.9 78.6c-.3 0-.6 0-1-.1s1.1-3.6 3.9-3.1c.2.8-.4 3-2.9 3.2z" fill="#fff" opacity=".5"/><path d="m115.3 69.5c-4.6-.1-5.9 4.2-5.9 4.2l-.1.1c-.2-.4-.3-.7-.3-.9.7-2.6 5.1-4.4 5.8-3.9.1 0 .3.2.5.5z" fill="#fff" opacity=".5"/><path d="m65.8 112.4s-1.9 2-2.1 3.6c-.1 1.6 2.1 3.2 5.1 2.2s3.9-4.6 3.9-4.6z" fill="#ff909a"/><path d="m73.6 111.3c0 .1-.1.4-.2.8-.5 1.6-2.1 5-4.5 5.7 0 0 0 0-.1 0-2.7.7-4.7-.7-4.8-1.9 0-.1 0-.2 0-.3.3-1.5 2.4-4 4.1-5.3.2-.2.5-.3.7-.4 1.8-1.3 4.9.6 4.8 1.4z" fill="#feb8b0"/><path d="m68.8 117.7c-2.7.7-4.7-.7-4.8-1.9.5-.4 1.5-1 2.9-.7 1.5.2 1.8 1.8 1.9 2.6z" fill="#fff" opacity=".5"/><path d="m73.6 111.3c0 .1-.1.4-.2.8-1.9-2.6-4.9-2-5.2-1.9.2-.2.5-.3.7-.4 1.7-1.2 4.8.7 4.7 1.5z" fill="#fff" opacity=".5"/><path d="m63.6 135.7s3.7 9.9 3.3 19.8c-.3 9.9-5.2 11.6-5.2 11.6.7 1.2 1.5 2.4 2.4 3.6-4.4-1-8.3 2.1-9.7 3.3-2.5-4.3-5-8.8-7-13-7-14.6-15.1-49.7-15.1-49.7 1.1-5 9.7-16.3 10.3-17v.1l4.3 9.8-.2.6c-1.3 3.2-5.5 10.3-5.7 11.4 0 .4.1 1.7.4 3.6.7 4.8 2.5 13.1 4.7 17.5 3.2 6.2 5.6 7.3 5.6 7.3s-1.3 3.6-1.3 4.3c.4 8.9 8.6 10.6 11.6 5.3 2.1-3.7 1.2-23.7 1.2-23.7 1.5-.8 3.5-2.5 3.9-2.9-1.4 1.6-2.6 2.9-2.9 3.4-.6 1.4-.6 4.7-.6 4.7z" fill="url(#l)" opacity=".5"/><path d="m46.4 137.8s2.4 7.8 4.2 9.8l2.2-4.9s-3.9 0-6.4-4.9z" fill="#f67c82"/><path d="m61.7 167.1s-4.8-1.5-5.5 0c-.6 1.5 9.8 6.1 9.8 6.1s-3.9-5.2-4.3-6.1z" fill="#fb7d7c"/><path d="m68.1 142.5-1-1.9s3-15.2 6.3-21.8l-9.2 12.2-.7 4.7 1.8 5.9c.1 0 .9 1.2 2.8.9z" fill="url(#m)" opacity=".5"/><path d="m178.1 174s-.8-12.9 5.7-19.7c0 0-6 8.7-4.8 20.8z" fill="#b396c7" opacity=".2"/><path d="m187.1 177.7c-1.1 1-2.2 1.9-3.4 2.6-1.8-1.9-7.1-7.6-11.2-14 0 0-.3-1.7-.2-4.2 0 0 4.7 8.4 12.6 14 .8.6 1.6 1.1 2.2 1.6z" fill="#b7c3d2" opacity=".3"/><path d="m67.1 197.6s4.5-.3 6.9-5.3 1.6-10.6 1.6-10.6 1 7-.9 11.2c-1.8 4.3-7.6 4.7-7.6 4.7z" fill="#b396c7" opacity=".2"/><path d="m77.7 200.3c-1 .5-2 1-2.9 1.5-1.1.5-2.2.9-3.4 1.3-1.9-2.4-6-7.8-8.3-11.5-.2-.3-.4-.7-.6-1s-.3-.6-.5-.9c.1 0 8.3 8.2 15.7 10.6z" fill="#f1f1f1" opacity=".3"/><path d="m73.6 179.6s-1.6-2-1.6 2.1c0 0 3.9.7 1.6-2.1z" fill="#28274e"/><path d="m72 178.4s-.4.1-.6.4c0 0 1.2 2.7 3.2 3.6 0 0 .5-.5.6-.8z" fill="#28274e"/><path d="m74 179.6c.9.9 1.4 1.8 1.1 2-.2.2-1.2-.3-2-1.1-.9-.9-1.4-1.8-1.1-2 .2-.3 1.1.2 2 1.1z" fill="#0848b3"/><path d="m46.9 104.1-.2.6c-1.3 3.2-5.5 10.3-5.7 11.4 0 .4.1 1.7.4 3.6l-1.5-2.9c-2.2-1.4-4.5-4.7-4.6-4.9 1.6 1.5 5.2 2.4 5.2 2.4s3.9-5.9 4.1-8.9-2-11.2-2-11.2h.1z" fill="#ec6a6b" opacity=".2"/><path d="m138.4 94 9 9.4s-3.1-7.1-7.4-9.5c-.1 0-.8-.1-1.6.1z" fill="#ec6a6b"/><path d="m153.9 110.3s2.7 21.1 6.4 29c0 0-1.5-20.6-6.4-29z" fill="#ecc1c9" opacity=".2"/><path d="m163.5 105.6 2.4 23.7c.1-.1.4-16.8-2.4-23.7z" fill="#ecc1c9" opacity=".2"/><path d="m71.9 120.6c2.3-3.7 2.8-6 2.9-6.7-.1 1.2-.5 2.8-1.3 4.9-1.2 3-4 6.3-6.2 8.8l-.1.1c-1.4 1.6-2.6 2.9-2.9 3.4-.7 1.3-.7 4.7-.7 4.7l-.3-5.2c-.1-.1 5.8-5.5 8.6-10z" fill="#ec6a6b"/><path d="m112.6 81.7s6.2 7.2 14.2 11.8c0 0 7.4 7.1 10.5 12.3 0 0-6-7.7-10.7-11.5 0 0-10.1-6.3-14-12.6z" fill="#fe9083"/><path d="m84.2 79.2-.9 3.8 9.1 6.3s.8-13.9 3-25.4c0 0-2.6 3.6-6 18.5z" fill="#fff"/><g fill="#ffaeb0" opacity=".5"><path d="m69 72.9c1-.6 2.2-1 3.3-1.1h.6c.3.1.6.5.6.8.2.9-.3 1.8-1 2.3-.8.5-1.8.5-2.6.1-.5-.2-.9-.5-1.1-1s0-1.1.4-1.3c.1.1.2.3 0 .4z" opacity=".5"/><path d="m83.5 70.9c.2-.5.6-.8 1.1-.9.3.4.5.9.3 1.3-.1.5-.7.8-1.1.6s-.5-.9-.1-1.1z" opacity=".5"/><path d="m76.5 72.5c-.1-.2 0-.5.1-.6.1.1.2.1.2.2.1.1.1.2 0 .3 0 0-.1 0-.3.1.1-.1.1 0 0 0z" opacity=".5"/><path d="m75.7 72.6c-.1 0-.1 0-.2.1.1.1.3 0 .5 0 .1 0 .2-.1.2-.2s-.1-.1-.1-.2 0-.3-.1-.4c-.1 0-.2 0-.2.1s-.1.1-.1.2z" opacity=".5"/><path d="m86.7 69.9c.1-.1.3 0 .3.1s-.1.3-.2.4c-.1-.1-.2-.3-.1-.5z" opacity=".5"/><path d="m76.1 79.9s.1-.1.2-.1.1 0 .2 0c.1.1 0 .2 0 .3s.1.2.1.3-.2.2-.3.1c-.1 0-.2-.1-.2-.2s-.1-.2 0-.4c-.1 0 0-.1 0 0z" opacity=".5"/><path d="m88.5 74.7c0 .1 0 .1.1.2h.2s.1 0 .1-.1c.1-.1 0-.2-.1-.2-.1-.1-.2-.1-.3.1 0 0 .1.1.1.2z" opacity=".5"/><path d="m78.3 73.7c-.1 0-.2-.2-.1-.3.1 0 .1 0 .2.1s.1.1-.1.2z" opacity=".5"/><path d="m75.2 73.1c-.1-.1-.1-.3-.1-.5.1.1.3.1.4.2.1 0 .1.1.2.1.1.1 0 .3-.1.3s-.3 0-.4-.1z" opacity=".5"/><path d="m69 79.6c0 .1 0 .2.1.3s.2.1.3.1.1-.1.1-.2c0 0 0 0-.1-.1-.2 0-.3-.1-.4-.1z" opacity=".5"/><path d="m71.3 79.5c0 .1 0 .2-.1.3s-.2.2-.2.3c0 0 0 .1.1.1s.1-.1.2-.1.1-.1.2-.1c.1-.1.2-.2.2-.4 0-.1-.1-.1-.2-.1s-.2.1-.2.2z" opacity=".5"/><path d="m72.5 79.8s.1 0 0 0c.1.2.1.3 0 .3s-.2 0-.2-.1.1-.2.2-.2z" opacity=".5"/><path d="m86.6 74s.1 0 0 0c.1.2.1.3 0 .3s-.2 0-.2-.1c.1-.1.1-.2.2-.2z" opacity=".5"/><path d="m77.3 73.3c0 .1-.1.2-.2.1-.1 0-.2-.1-.3-.1s-.2 0-.3 0l-.1.1v.1c.1.1.2.3.4.4s.4.1.5-.1c.1-.1.1-.2.1-.3.1-.1 0-.2-.1-.2z" opacity=".5"/><path d="m76.2 71.1c-.1-.1 0-.2.1-.3s.2 0 .3 0l.1.1s-.1 0-.1.1c-.1.1-.3.1-.4.1z" opacity=".5"/><path d="m81.5 70.4c0 .2.3.4.5.3 0-.2-.1-.4-.2-.5s-.4-.2-.5 0v.3z" opacity=".5"/><path d="m64.1 75.3c-.1 0-.1.1 0 0-.1.2-.1.2 0 .2l.1.1c.1 0 .2 0 .2-.1s0-.2 0-.2l-.1-.1c-.1 0-.1 0-.2.1z" opacity=".5"/><path d="m79.1 72.7c.2-.1.3-.1.3 0s0 .2-.1.2h-.1c-.1-.1-.1-.1-.1-.2z" opacity=".5"/><path d="m81.7 72.6c.1-.1.1-.2.2-.3s.2-.1.3 0c0 0 .1.1.1.2 0 .2-.1.4-.3.4 0 0-.2-.2-.3-.3z" opacity=".5"/><path d="m82.5 71.5c.1 0 .2-.1.2-.1 0 .1.1.1.1.2-.1.1-.2.1-.3-.1z" opacity=".5"/><path d="m88.5 71.7c.5-.1 1 0 1.4.2.1 0 .1.1.2.1.1.1.1.3.1.4-.1.4-.4.6-.8.7-.4 0-.7-.1-1-.4-.1-.1-.2-.3-.2-.5s.2-.4.3-.5l.1.2z" opacity=".5"/><path d="m74.7 76.8c.1-.2.3-.4.5-.4 0 .1.1.2.1.3s-.1.2-.2.2-.3-.1-.4-.1c.1-.1.1 0 0 0z" opacity=".5"/><path d="m76.3 77s.1-.1.2-.1.1 0 .2.1.3.2.4.2c-.3.1-.5.2-.8.3 0 0 0 0-.1 0-.1.1 0 .1 0 .2s-.2.1-.3.1c-.8 0 .2-.6.4-.8z" opacity=".5"/><path d="m73.2 79c-.1 0-.1 0-.2.1.1.1.3 0 .5 0 .1 0 .2-.1.2-.2s-.1-.1-.1-.2 0-.3-.1-.4c-.1 0-.2 0-.2.1s-.1.1-.1.2z" opacity=".5"/><path d="m75.9 79.5c0 .1 0 .1.1.2h.2s.1 0 .1-.1c.1-.1 0-.2-.1-.2-.1-.1-.2-.1-.3.1 0 0 .1.1.1.2z" opacity=".5"/><path d="m75.4 78.8c-.1-.1-.1-.3.1-.3.1.1.1.1.1.2s0 .2-.2.1z" opacity=".5"/><path d="m73.3 76.4c0-.2.1-.3.2-.4.1.1.1.2.2.4 0 .1.1.1.1.2s-.2.2-.3.2c-.1-.1-.2-.2-.2-.4z" opacity=".5"/><path d="m65.1 77.8s.1 0 0 0c.1.2.1.3 0 .3s-.2 0-.2-.1.1-.2.2-.2z" opacity=".5"/><path d="m74.8 77.9c0 .1-.2.1-.2 0-.1-.1-.1-.2-.1-.2-.1-.1-.1-.1-.2-.1s-.1 0-.1.1v.1c0 .2 0 .4.1.5.1.2.3.3.4.2.1 0 .2-.1.3-.2-.1-.2-.1-.4-.2-.4z" opacity=".5"/><path d="m75.2 75.5c0-.1.1-.2.3-.2.1 0 .2.1.2.2v.1h-.1c-.1 0-.3-.1-.4-.1z" opacity=".5"/><path d="m71.9 80.8c0 .2.3.4.5.3 0-.2-.1-.4-.2-.5s-.4-.2-.5 0v.3z" opacity=".5"/><path d="m76.7 78.5c.1 0 .2 0 .2.1s-.1.1-.2.1c0 0 0 0 0-.2 0 0-.1-.1-.1-.2z" opacity=".5"/><path d="m74.2 73.8c.1-.1.1-.2.2-.3s.2-.1.3 0c0 0 .1.1.1.2 0 .2-.1.4-.3.4-.1 0-.3-.1-.3-.3z" opacity=".5"/><path d="m79.2 70.4c.1 0 .2.2.2.3s0 .3.2.3h.1c.1 0 0-.2 0-.2 0-.1 0-.1 0-.2 0-.2-.1-.3-.2-.4-.1 0-.2.1-.3.2.1 0 .1.1 0 0z" opacity=".5"/><path d="m81.9 71.7c.1 0 .2.2.2.3s0 .3.2.3h.1c.1 0 0-.2 0-.2 0-.1 0-.1 0-.2 0-.2-.1-.3-.2-.4-.1 0-.2.1-.3.2z" opacity=".5"/><path d="m84 70.8c.1 0 .2-.1.3-.1s0 0 .1.1c0 .1 0 .2-.1.2s-.1 0-.2 0c0 0-.1 0-.1-.2-.1.1 0 0 0 0s0 .1 0 0z" opacity=".5"/><path d="m70.2 74.8c.1-.2.3-.4.5-.4 0 .1.1.2.1.3s-.1.2-.2.2c-.2.1-.3 0-.4-.1 0 0 0 .1 0 0z" opacity=".5"/><path d="m72.6 78s.1-.1.2-.1.1 0 .2.1.3.2.4.2c-.3.1-.5.2-.8.3 0 0 0 0-.1 0-.1.1 0 .1 0 .2s-.2.1-.3.1c-.7 0 .2-.5.4-.8z" opacity=".5"/><path d="m70.5 81c.1 0 .2-.1.2-.1.1.2 0 .3-.1.4s-.4 0-.4-.2c0-.1 0-.3-.1-.3z" opacity=".5"/><path d="m66.4 77.4c-.1.2.1.5.3.5s.4-.3.3-.5-.4-.2-.6 0z" opacity=".5"/><path d="m68.5 77.8c-.2 0-.4.1-.4.3s.2.3.4.3h.2c.1-.2-.2-.4-.2-.6.1 0 0 .1 0 0z" opacity=".5"/><path d="m68.6 77.1c-.1 0-.1 0-.2.1.1.1.3 0 .5 0 .1 0 .2-.1.2-.2s-.1-.1-.1-.2 0-.3-.1-.4c-.1 0-.2 0-.2.1s-.1.1-.1.2z" opacity=".5"/><path d="m69.2 79.7c.1-.1.3 0 .3.1s-.1.3-.2.4c-.1-.2-.2-.4-.1-.5z" opacity=".5"/><path d="m70.9 76.8c-.1-.1-.1-.3.1-.3.1.1.1.1.1.2s0 .2-.2.1c0 .1-.1 0 0 0z" opacity=".5"/><path d="m73.7 74.4c-.1-.1-.1-.3.1-.3.1.1.1.1.1.2s0 .2-.2.1c.1.1 0 0 0 0z" opacity=".5"/><path d="m72.8 81.6c0-.2.1-.3.2-.4.1.1.1.2.2.4 0 .1.1.1.1.2s-.2.2-.3.2c-.1-.1-.2-.3-.2-.4z" opacity=".5"/><path d="m69.6 77.6c0-.2 0-.4.2-.5.1.1.2.2.2.3 0 .2 0 .4-.2.4-.2.1-.4-.1-.2-.2z" opacity=".5"/><path d="m69.1 79.2c-.1.1 0 .2 0 .3.1-.1.2-.1.3-.2s-.1-.2-.3-.1z" opacity=".5"/><path d="m71 79.5c0 .1 0 .2.1.3s.2.1.3.1.1-.1.1-.2c0 0 0 0-.1-.1-.2 0-.3-.1-.4-.1z" opacity=".5"/><path d="m73.3 79.4c0 .1 0 .2-.1.3s-.2.2-.2.3c0 0 0 .1.1.1s.1-.1.2-.1.1-.1.2-.1c.1-.1.2-.2.2-.4 0-.1-.1-.1-.2-.1s-.2.1-.2.2z" opacity=".5"/><path d="m74.5 79.7s.1 0 0 0c.1.2.1.3 0 .3s-.2 0-.2-.1c0-.2.1-.2.2-.2z" opacity=".5"/><path d="m70.3 76c0 .1-.2.1-.2 0-.1-.1-.1-.2-.1-.2-.1-.1-.1-.1-.2-.1s-.1 0-.1.1v.1c0 .2 0 .4.1.5.1.2.3.3.4.2.1 0 .2-.1.3-.2-.1-.2-.1-.4-.2-.4z" opacity=".5"/><path d="m79.9 71.3c0 .1-.2.1-.2 0-.1-.1-.1-.2-.1-.2-.1-.1-.2-.1-.3-.1s-.1 0-.1.1v.1c0 .2 0 .4.1.5.1.2.3.3.4.2.1 0 .2-.1.3-.2 0-.2 0-.3-.1-.4z" opacity=".5"/><path d="m79.6 70.2c0 .1-.2.1-.2 0-.1-.1-.1-.2-.1-.2-.1-.1-.1-.1-.2-.1s-.1 0-.1.1v.1c0 .2 0 .4.1.5.1.2.3.3.4.2.1 0 .2-.1.3-.2-.1-.2-.1-.3-.2-.4z" opacity=".5"/><path d="m78 71.1c0 .1-.2.1-.2 0-.1-.1-.1-.2-.1-.2-.1-.1-.1-.1-.2-.1s-.1 0-.1.1v.1c0 .2 0 .4.1.5.1.2.3.3.4.2.1 0 .2-.1.3-.2-.1-.2-.1-.4-.2-.4z" opacity=".5"/><path d="m90.5 75.8c0 .1-.2.1-.2 0-.1-.1-.1-.2-.1-.2-.1-.1-.1-.1-.2-.1s-.1 0-.1.1v.1c0 .2 0 .4.1.5.1.2.3.3.4.2.1 0 .2-.1.3-.2-.1-.2-.2-.4-.2-.4z" opacity=".5"/><path d="m74.8 80.6c0-.1.1-.2.3-.2.1 0 .2.1.2.2v.1h-.1c-.2.1-.3 0-.4-.1z" opacity=".5"/><path d="m67.4 78.9c0 .2.3.4.5.3 0-.2-.1-.4-.2-.5s-.4-.2-.5 0v.3z" opacity=".5"/><path d="m73 81c-.1 0-.1.1 0 0-.1.2-.1.2 0 .2l.1.1c.1 0 .2 0 .2-.1s0-.2 0-.2l-.1-.1s-.1 0-.2.1z" opacity=".5"/><path d="m72.1 76.6c.1 0 .2 0 .2.1s-.1.1-.2.1c0 0 0 0 0-.2 0 0-.1-.1-.1-.2z" opacity=".5"/><path d="m81.8 77c.1-.1.1-.2.2-.3s.2-.1.3 0c0 0 .1.1.1.2 0 .2-.1.4-.3.4-.1 0-.3-.1-.3-.3z" opacity=".5"/><path d="m72.6 72.9c-.2 0-.2.3-.1.4.1 0 .2 0 .3-.1-.1 0-.1-.1-.2-.3z" opacity=".5"/><path d="m86.8 76.6s.1-.1.2-.1.1 0 .2 0c.1.1 0 .2 0 .3s.1.2.1.3-.2.2-.3.1c-.1 0-.2-.1-.2-.2s-.1-.2-.1-.3.1-.2.1-.1z" opacity=".5"/><path d="m77.6 72.5c-.1-.5 0-1 .3-1.3.5.1.9.4 1.1.9s-.1 1-.5 1.2c-.5.1-1-.4-.9-.8z" opacity=".5"/><path d="m72.2 71.8c0 .1.1.1.2.1s.1-.1.1-.1v-.1c0-.1-.1-.2-.2-.1-.1 0-.2.1-.1.2 0 .1.1.2.2.2z" opacity=".5"/><path d="m74.8 72.2c.1.1.1.2.1.3v.3h.1c.1 0 .1-.1.1-.2s.1-.1.1-.2c.1-.1 0-.3-.1-.5-.1 0-.2 0-.2.1s-.1.2-.1.2z" opacity=".5"/><path d="m78.2 74.1c.2.1.2.2.1.2 0 .1-.2.1-.2 0s0-.2.1-.2z" opacity=".5"/><path d="m75.6 73.6c0 .1.1.1.1.2h.1c.1 0 .1-.1.1-.2s-.1-.1-.2-.2h-.1z" opacity=".5"/><path d="m90.2 74.9c.2-.5.6-.8 1.1-.9.3.4.5.9.3 1.3-.1.5-.7.8-1.1.6s-.5-.9-.1-1.1z" opacity=".5"/><path d="m72.4 75.9c.1-.1.3 0 .3.1s-.1.3-.2.4c-.2-.1-.2-.3-.1-.5z" opacity=".5"/><path d="m74.3 80.1c0 .1-.2.1-.2 0-.1-.1-.1-.1-.2-.2s-.1-.1-.2-.1-.1 0-.1.1v.1c0 .2 0 .4.1.5.1.2.3.3.4.2.1 0 .2-.1.3-.2 0-.2 0-.3-.1-.4z" opacity=".5"/><path d="m73.4 70.9c.2.1.2.2.1.2 0 .1-.2.1-.2 0s0-.2.1-.2z" opacity=".5"/><path d="m74.5 73.2c.4-.3.9-.5 1.4-.5h.2c.2 0 .2.2.3.4.1.4-.1.8-.4 1s-.8.2-1.1.1c-.2-.1-.4-.2-.5-.4s0-.5.1-.6c.2 0 .2.1.1.2z" opacity=".5"/><path d="m79.3 74c.2-.5.6-.8 1.1-.9.3.4.5.9.3 1.3-.1.5-.7.8-1.1.6s-.5-.9-.1-1.1z" opacity=".5"/><path d="m83.5 71.7c.1-.2.3-.4.5-.4 0 .1.1.2.1.3s-.1.2-.2.2c-.1.1-.3 0-.4-.1 0 0 0 .1 0 0z" opacity=".5"/><path d="m85.1 72s.1-.1.2-.1.1 0 .2.1.3.2.4.2c-.3.1-.5.2-.8.3 0 0 0 0-.1 0-.1.1 0 .1 0 .2s-.2.1-.3.1c-.8 0 .1-.6.4-.8z" opacity=".5"/><path d="m75.3 71.9c.1 0 .2-.1.2-.1.1.2 0 .3-.1.4s-.4 0-.4-.2c0-.1 0-.3-.1-.3z" opacity=".5"/><path d="m81.9 74c-.1 0-.1 0-.2.1.1.1.3 0 .5 0 .1 0 .2-.1.2-.2s-.1-.1-.1-.2 0-.3-.1-.4c-.1 0-.2 0-.2.1s-.1.1-.1.2z" opacity=".5"/><path d="m82.5 76.6c.1-.1.3 0 .3.1s-.1.3-.2.4c-.1-.2-.2-.4-.1-.5z" opacity=".5"/><path d="m84.7 74.5c0 .1 0 .1.1.2h.2s.1 0 .1-.1c.1-.1 0-.2-.1-.2-.1-.1-.2-.1-.3.1 0 0 .1.1.1.2z" opacity=".5"/><path d="m84.2 73.7c-.1-.1-.1-.3.1-.3.1.1.1.1.1.2s0 .2-.2.1c0 .1-.1 0 0 0z" opacity=".5"/><path d="m82 71.4c0-.2.1-.3.2-.4.1.1.1.2.2.4 0 .1.1.1.1.2s-.2.2-.3.2c-.1-.1-.2-.2-.2-.4z" opacity=".5"/><path d="m84.3 76.4c0 .1 0 .2.1.3s.2.1.3.1.1-.1.1-.2c0 0 0 0-.1-.1-.2 0-.3-.1-.4-.1z" opacity=".5"/><path d="m85.6 77.8c.1 0 .2.2.2.3s0 .3.2.3h.1c.1 0 0-.2 0-.2 0-.1 0-.1 0-.2 0-.2-.1-.3-.2-.4-.1 0-.2.1-.3.2.1 0 .1.1 0 0z" opacity=".5"/><path d="m86.5 77c.2-.1.2 0 .2.1s-.1.1-.2.1-.1-.1 0-.2z" opacity=".5"/><path d="m83.6 72.9c0 .1-.2.1-.2 0-.1-.1-.1-.2-.1-.2-.1-.1-.1-.1-.2-.1s-.1 0-.1.1v.1c0 .2 0 .4.1.5.1.2.3.3.4.2.1 0 .2-.1.3-.2-.1-.2-.1-.4-.2-.4z" opacity=".5"/><path d="m84 70.5c0-.1.1-.2.3-.2.1 0 .2.1.2.2v.1h-.1c-.2 0-.3-.1-.4-.1z" opacity=".5"/><path d="m80.7 75.8c0 .2.3.4.5.3 0-.2-.1-.4-.2-.5s-.4-.2-.5 0v.3z" opacity=".5"/><path d="m85.4 73.5c.1 0 .2 0 .2.1s-.1.1-.2.1c0 0 0 0 0-.2 0 0-.1-.1-.1-.2z" opacity=".5"/><path d="m72.5 74c.1-.1.1-.2.2-.3s.2-.1.3 0c0 0 .1.1.1.2 0 .2-.1.4-.3.4-.1 0-.2-.1-.3-.3z" opacity=".5"/><path d="m78.3 78.2c.1 0 .2-.1.2-.1 0 .1.1.1.1.2-.1 0-.2 0-.3-.1z" opacity=".5"/><path d="m66.5 76c0 .1 0 .1.1.2h.2s.1 0 .1-.1c.1-.1 0-.2-.1-.2-.1-.1-.2-.1-.3.1 0 0 .1.1.1.2z" opacity=".5"/><path d="m79.4 76.4c.1 0 .2-.1.2-.1 0 .1.1.1.1.2-.1.1-.3.1-.3-.1z" opacity=".5"/><path d="m91.8 72.2c0-.1.1-.1.2-.1s.1.1.2.2.2.1.3.1.1 0 .1-.1v-.1c0-.2-.1-.3-.3-.5-.1-.1-.3-.2-.5-.1-.1.1-.2.2-.2.3.1.2.1.3.2.3z" opacity=".5"/><path d="m74.8 74.4c0 .1-.1.1-.1.2-.1 0-.1.1-.2 0s-.1-.2-.1-.3c-.1-.1-.2-.1-.2-.3 0-.1.1-.2.2-.2s.2.1.3.2l.2.2c-.1.1-.1.2-.1.2z" opacity=".5"/><path d="m79.7 72.5c-.4.1-.8.1-1.2.1-.1 0-.1 0-.2-.1s-.1-.2-.1-.3c0-.3.3-.6.6-.7s.6 0 .9.2c.1.1.2.3.3.4-.1.1-.2.3-.3.4-.1 0-.1-.1 0 0z" opacity=".5"/><path d="m78 69.9c0-.1 0-.1 0-.2s.1-.1.1-.1c.1-.1.3-.2.4-.3-.1.3-.1.5-.2.8v.1s.1.1.2.1c.1.1 0 .2 0 .3-.4.8-.4-.3-.5-.7z" opacity=".5"/><path d="m79.7 72.3c.2-.1.2 0 .2.1s-.1.1-.2.1-.1-.1 0-.2z" opacity=".5"/><path d="m79.3 70.1c-.1-.1-.1-.2 0-.3s.2-.1.3-.1c0 0 .1 0 .1.1 0 0 0 .1-.1.1-.1.1-.2.2-.3.2z" opacity=".5"/><path d="m79.9 71.5c-.1-.2-.2-.4-.1-.6.1 0 .2 0 .3.1s.1.2.1.3-.2.1-.3.2z" opacity=".5"/><path d="m80.7 72.1v.2c.2-.1.2-.3.2-.4s0-.2-.1-.3c-.1 0-.1 0-.2 0s-.3-.2-.4-.1c-.1 0-.1.1 0 .2 0 .1.1.1.2.2s.3.2.3.2z" opacity=".5"/><path d="m78.5 70.8c-.1-.1-.2-.3-.2-.4h.4s.1 0 .2 0c.1.1.1.2 0 .3s-.2.1-.4.1z" opacity=".5"/><path d="m80.6 70.1c.1.1 0 .2-.1.2s-.2 0-.3 0-.2.1-.2.1-.1.1 0 .2c0 0 0 .1.1.1.2.1.3.2.5.2s.4-.1.4-.3c0-.1 0-.3-.1-.4s-.2-.1-.3-.1z" opacity=".5"/><path d="m77.1 74.9c-.1-.1-.1-.2-.1-.3s.1-.3.2-.3.1 0 .2 0c.2.1.3.3.2.4s-.3.3-.5.2z" opacity=".5"/><path d="m75.6 72.7c-.1-.2-.2-.4-.1-.6.1 0 .2 0 .3.1s.1.2.1.3c0 0-.2.1-.3.2 0-.1.1-.1 0 0z" opacity=".5"/><path d="m81.1 72.2c.1 0 .2.2.2.3s.1.3.2.3h.1c.1 0 0-.2 0-.2 0-.1 0-.1 0-.2 0-.2-.1-.3-.2-.4-.1 0-.2.1-.3.2.1 0 .1.1.2.1z" opacity=".5"/><path d="m73.2 77.3c.1.1.1.2.1.2-.1 0-.2 0-.2 0s0-.2.1-.2z" opacity=".5"/><path d="m78.1 71.8c.1-.1.2-.1.2-.1.1 0 .1.2 0 .2l-.2-.1c0 .1-.1.1-.2 0z" opacity=".5"/><path d="m96.9 66.5c-.1-.5.1-1 .4-1.3.5.1.9.5 1 .9.1.5-.1 1-.6 1.1s-1-.5-.7-.9z" opacity=".5"/><path d="m101.8 68.5c0-.1.2-.2.3-.1s.1.3 0 .4c-.2.1-.4-.1-.3-.3z" opacity=".5"/><path d="m103.1 67c0 .1.1.1.2.1s.1-.1.1-.1v-.1c0-.1-.1-.2-.2-.2s-.2.1-.1.3c-.1 0 0 .1 0 0z" opacity=".5"/><path d="m93 70.8c-.1.1-.3-.1-.3-.2.1 0 .1-.1.2 0 .1 0 .2 0 .1.2z" opacity=".5"/><path d="m101.2 67.4c.1.1.2.2.1.2-.1.1-.2.1-.2 0 0 0 0-.1.1-.2z" opacity=".5"/><path d="m95 67.2c.1.2.5.2.6 0-.1-.1-.2-.3-.4-.3s-.4 0-.4.2c.1.1.1.2.2.3z" opacity=".5"/><path d="m93.2 69.5c.1-.1.2-.1.2-.1.1 0 .1.1 0 .2l-.2-.1c0 .1-.1.1-.2.1z" opacity=".5"/><path d="m96.3 68.9c0-.1 0-.2.1-.4.1-.1.2-.2.3-.2s.1 0 .2.1.1.4 0 .5c-.2.1-.5.1-.6 0z" opacity=".5"/><path d="m96.4 67.6c0-.1.1-.1.1-.2.1 0 .1.1.2.1 0 .1-.2.2-.3.1z" opacity=".5"/><path d="m101.5 64.5c.4-.3.8-.5 1.3-.6h.2c.1 0 .2.2.3.3.1.3 0 .7-.3 1-.3.2-.7.3-1 .2-.2-.1-.4-.2-.5-.3-.1-.2-.1-.4 0-.6.2.1.2.2.1.2z" opacity=".5"/><path d="m91.9 67.5c.1 0 .2 0 .3.1s.2.2.3.2c0 0 .1 0 .1-.1s-.1-.1-.1-.2-.1-.1-.1-.2c-.1-.1-.2-.2-.4-.2-.1 0-.1.1-.1.2s.1.2.2.2z" opacity=".5"/><path d="m96 68.1c.1 0 .2 0 .3.1s.2.2.3.2c0 0 .1 0 .1-.1s-.1-.1-.1-.2-.1-.1-.1-.2c-.1-.1-.2-.2-.4-.2-.1 0-.1.1-.1.2s.1.2.2.2z" opacity=".5"/><path d="m97.2 66.2c0-.1.1-.2.2-.2h.1c.1.1.1.1 0 .2 0 .1-.1.1-.3 0 .1.2.1.1 0 0 .1 0 .1 0 0 0z" opacity=".5"/><path d="m94.1 68.9c0 .1-.1.1-.2.1s-.2-.1-.2-.1c-.1 0-.2 0-.3 0l-.1.1v.1c.1.2.2.3.4.4s.4.1.5 0 .1-.2.1-.3c0-.2-.1-.3-.2-.3z" opacity=".5"/><path d="m92.2 67.2c0 .1-.1.1-.2.1s-.2-.1-.2-.1c-.1 0-.2 0-.3 0l-.1.1v.1c.1.2.2.3.4.4s.4.1.5 0 .1-.2.1-.3c0-.2-.1-.3-.2-.3z" opacity=".5"/><path d="m91.3 68.8c0 .1-.1.1-.2.1s-.2-.1-.2-.1c-.1 0-.2 0-.3 0l-.1.1v.1c.1.2.2.3.4.4s.4.1.5 0 .1-.2.1-.3c0-.2-.1-.3-.2-.3z" opacity=".5"/><path d="m105.4 66.8c0 .1-.1.1-.2.1s-.2-.1-.2-.1c-.1 0-.2 0-.3 0l-.1.1v.1c.1.2.2.3.4.4s.4.1.5 0 .1-.2.1-.3c0-.2-.1-.3-.2-.3z" opacity=".5"/><path d="m98.8 72.6c0-.1 0-.2.1-.4.1-.1.2-.2.3-.2s.1 0 .2.1.1.4 0 .5c-.3.2-.5.1-.6 0z" opacity=".5"/><path d="m102.8 69.4c0-.1 0-.1.1-.2 0-.1.1-.1.2-.1s.1.2.2.3.2.1.3.2 0 .2-.2.2c-.1 0-.2 0-.3-.1-.1 0-.2-.1-.2-.2-.1-.1 0-.2 0-.3z" opacity=".5"/><path d="m91.8 70.2c-.4-.3-.6-.8-.5-1.3.5-.2 1-.2 1.4.1s.5.9.2 1.3-1.1.2-1.1-.3z" opacity=".5"/><path d="m93.2 71.2c.2-.1.2 0 .2.1s-.1.1-.2.1c-.1-.1-.1-.2 0-.2z" opacity=".5"/><path d="m104.7 66.2c-.1-.5.1-1 .4-1.3.5.1.9.5 1 .9.1.5-.1 1-.6 1.1s-1-.5-.7-.9z" opacity=".5"/><path d="m95 71.5c-.1-.5.1-1 .4-1.3.5.1.9.5 1 .9.1.5-.1 1-.6 1.1s-1-.5-.7-.9z" opacity=".5"/><path d="m97.3 67.2c0-.2 0-.5.2-.6.1.1.2.1.2.2s.1.2 0 .3-.2.1-.4.1c0 0 .1 0 0 0z" opacity=".5"/><path d="m98.8 66.6c0-.1 0-.1.1-.2h.2c.2 0 .3 0 .5-.1-.2.2-.3.4-.5.7v.1s.1.1.1.2-.1.2-.2.3c-.7.3-.3-.7-.2-1z" opacity=".5"/><path d="m97.2 70s-.1.1-.1.2c.2 0 .3-.1.4-.3.1-.1.1-.2.1-.3s-.1-.1-.2-.1c-.1-.1-.2-.3-.3-.2-.1 0-.1.1-.1.2s0 .1.1.2.2.2.1.3z" opacity=".5"/><path d="m99.2 71.8c0-.1.2-.2.3-.1s.1.3 0 .4c-.2 0-.4-.1-.3-.3z" opacity=".5"/><path d="m99.8 68.9c0 .1.1.1.2.1s.1-.1.1-.1v-.1c0-.1-.1-.2-.2-.2s-.2.1-.1.3c-.1 0 0 .1 0 0z" opacity=".5"/><path d="m99 68.5c-.1 0-.2-.2-.1-.3.1 0 .1 0 .2.1 0 .1.1.1-.1.2.1.1-.1.1 0 0z" opacity=".5"/><path d="m95.9 67.8c-.1-.1-.1-.3 0-.5.1.1.2.1.4.2.1 0 .1.1.2.1.1.1 0 .3-.1.3-.2 0-.4 0-.5-.1z" opacity=".5"/><path d="m100.5 70.7c0 .1.1.2.2.2s.2 0 .3-.1c0-.1 0-.1 0-.2h-.1c-.1 0-.3 0-.4.1z" opacity=".5"/><path d="m102.4 71.2c.1 0 .2 0 .3.1s.2.2.3.2c0 0 .1 0 .1-.1s-.1-.1-.1-.2-.1-.1-.1-.2c-.1-.1-.2-.2-.4-.2-.1 0-.1.1-.1.2s.1.2.2.2z" opacity=".5"/><path d="m102.7 70c.2-.1.3-.1.3 0s0 .2-.1.2c-.2 0-.2-.1-.2-.2z" opacity=".5"/><path d="m98.1 68.1c0 .1-.1.1-.2.1s-.2-.1-.2-.1c-.1 0-.2 0-.3 0l-.1.1v.1c.1.2.2.3.4.4s.4.1.5 0 .1-.2.1-.3c-.1-.2-.2-.3-.2-.3z" opacity=".5"/><path d="m97.1 65.9c0-.1 0-.2.1-.3.1 0 .2 0 .3.1 0 0 .1.1 0 .1h-.1c-.1.1-.2.1-.3.1z" opacity=".5"/><path d="m97.2 72.2c.1.2.5.2.6 0-.1-.1-.2-.3-.4-.3s-.4 0-.4.2c.1.1.1.2.2.3z" opacity=".5"/><path d="m99.9 67.6c.2-.1.3 0 .3 0 0 .1 0 .2-.1.2h-.1c-.1-.1-.1-.1-.1-.2z" opacity=".5"/><path d="m96.5 73.4c0-.1.1-.1.1-.2.1 0 .1.1.2.1-.1.1-.2.2-.3.1z" opacity=".5"/><path d="m106.9 70.4c0-.1.1-.2.2-.2s.2 0 .3.1c.1 0 .2 0 .3-.1l.1-.1s0-.1-.1-.1c-.1-.1-.3-.2-.5-.3-.2 0-.4 0-.5.2-.1.1-.1.3 0 .4 0 .1.1.1.2.1z" opacity=".5"/><path d="m94.5 69.9c-.3.3-.6.6-1 .7-.1 0-.1 0-.2 0s-.2-.1-.3-.2c-.2-.3-.1-.6.1-.9.2-.2.5-.4.9-.3.2 0 .4.1.5.2.1.2.1.5 0 .5s-.2 0 0 0z" opacity=".5"/><path d="m90.7 67.8s-.1-.1-.1-.2 0-.1.1-.2.1-.3.2-.5c.1.3.2.5.3.8v.1c.1.1.1 0 .2 0s.1.2.1.3c.1.9-.5 0-.8-.3z" opacity=".5"/><path d="m94.5 69.8c.1-.1.2-.1.2 0s0 .2-.1.2-.2-.1-.1-.2z" opacity=".5"/><path d="m91.9 67.3c-.1 0-.2-.1-.2-.2s.1-.2.2-.2h.1v.1s0 .2-.1.3z" opacity=".5"/><path d="m94.2 69c-.2-.1-.4-.3-.5-.5.1 0 .2-.1.3-.1s.2.1.2.1c.1.3 0 .4 0 .5z" opacity=".5"/><path d="m95.2 69.1c0 .1.1.1.1.2.1-.2 0-.3 0-.5 0-.1-.1-.2-.2-.2s-.1.1-.2.1c-.1.1-.3 0-.4.1 0 .1 0 .2.1.2s.1 0 .2 0h.5z" opacity=".5"/><path d="m91.6 68.2c-.2 0-.3-.1-.4-.2.1-.1.2-.1.4-.2.1 0 .1-.1.2-.1s.2.1.2.3c-.1.1-.2.2-.4.2z" opacity=".5"/><path d="m94 67.5c.1 0 .1.2 0 .2-.1.1-.2.1-.2.1-.1.1-.1.2-.1.2 0 .1 0 .1.1.1h.1c.2 0 .4 0 .5-.1.2-.1.3-.3.2-.5 0-.1-.1-.2-.2-.3-.2.2-.3.2-.4.3z" opacity=".5"/><path d="m95.6 68.9c.1-.1.2 0 .3.1s.2.2.3.2c0 0 .1 0 .1-.1s-.1-.1-.1-.2-.1-.1-.1-.2c-.1-.1-.3-.2-.4-.2-.1.1-.1.1-.1.2s.1.2.2.2z" opacity=".5"/><path d="m91.8 69.4c0-.2 0-.2.1-.2s.1.1.1.2c0 0 0 0-.2 0 0 0-.1.1-.2.1z" opacity=".5"/></g><g fill="#fff" opacity=".5"><path d="m186.2 157.7c.2-.4.1-.9-.2-1.3-.5.1-.9.3-1.1.7s0 1 .4 1.2 1-.3.8-.7z" opacity=".5"/><path d="m190.2 163.3c.2-.1.3-.3.3-.5-.1 0-.2 0-.3 0s-.2.1-.2.2.1.2.2.3c0-.1 0 0 0 0z" opacity=".5"/><path d="m190.7 163.9c0 .1.1.1.1.2-.2 0-.3-.2-.4-.3 0-.1-.1-.2 0-.3 0 0 .1-.1.2-.1.1-.1.2-.2.3-.2s.1.1.1.2-.1.1-.1.2c-.1.2-.2.3-.2.3z" opacity=".5"/><path d="m184.5 155c0-.1-.2-.2-.3-.1s-.1.2-.1.4c.2 0 .4-.1.4-.3z" opacity=".5"/><path d="m185.8 168.9c0-.1 0-.1 0-.2s-.1-.1-.2-.1-.1.2-.2.2c-.1.1-.2 0-.3.1s0 .2.1.3h.3s.2-.1.2-.1c.1-.1.1-.2 0-.3z" opacity=".5"/><path d="m180.3 157.3c0 .1-.1.1-.2.1s-.1-.1-.1-.1v-.1c0-.1.1-.1.2-.1s.1.1.1.2-.1.1-.2.1z" opacity=".5"/><path d="m188.2 163c.1.1.3 0 .3-.1-.1 0-.1-.1-.2-.1s-.2.1-.1.2c-.1 0 0 .1 0 0z" opacity=".5"/><path d="m190.8 164.6c.2 0 .3-.2.4-.3-.1 0-.3-.1-.4-.1s-.1 0-.2 0-.2.2-.1.3c0 0 .1.1.3.1z" opacity=".5"/><path d="m182 158h-.1c-.1.1-.1.1 0 .2 0 .1.1.1.2 0 0-.1 0-.2-.1-.2z" opacity=".5"/><path d="m189.1 163.4c-.1.1 0 .2 0 .2.1 0 .2 0 .3.1.1 0 .1.1.2.2v.1h-.1c-.2 0-.3.1-.5 0s-.3-.2-.3-.4c0-.1.1-.2.2-.3 0 0 .1 0 .2.1z" opacity=".5"/><path d="m191.3 162.5c.1 0 .2-.2.1-.3 0-.1-.1-.2-.3-.2 0 0-.1 0-.1.1v.1c.1.2.2.3.3.3z" opacity=".5"/><path d="m187.9 158.6c-.1.2-.5.1-.6-.1.1-.1.3-.2.4-.3.2 0 .4.1.4.3-.1.1-.1.1-.2.1z" opacity=".5"/><path d="m188.2 161.8v-.1c-.1 0-.1-.1-.2 0-.1 0-.1.1-.1.2h.1.3z" opacity=".5"/><path d="m186.4 160c0-.1 0-.2 0-.3s-.1-.2-.2-.2-.1 0-.2 0c-.1.1-.2.3-.1.5.1.1.4.1.5 0z" opacity=".5"/><path d="m186.5 158.8c0-.1-.1-.1-.1-.2-.1 0-.1 0-.2.1.1.1.2.2.3.1z" opacity=".5"/><path d="m182.1 155.1c-.3-.3-.7-.6-1.1-.8-.1 0-.1-.1-.2-.1s-.3.1-.3.2c-.2.3-.1.7.1 1s.6.4.9.3c.2 0 .4-.1.5-.2s.2-.3.1-.4c-.2 0-.2 0-.2.1z" opacity=".5"/><path d="m186.2 168.7c0 .1-.1.1-.2.1s-.1-.1-.1-.1v-.1c0-.1.1-.1.2-.1s.1.1.1.2-.1.1-.2.1z" opacity=".5"/><path d="m187 168.5c.1 0 .2-.2.1-.3-.1 0-.1 0-.2.1-.1 0-.1.1-.1.2.1 0 .3.1.2 0z" opacity=".5"/><path d="m189.2 166.3c.1-.1 0-.2-.1-.3s-.2 0-.3 0l-.1.1s0 0 .1.1c.2 0 .3 0 .4.1z" opacity=".5"/><path d="m186.3 167.5v-.1c-.1 0-.1 0-.2.1 0 .1 0 .2.1.2h.1c.1 0 .1-.1.2-.1z" opacity=".5"/><path d="m191 165.7c0-.1 0-.2 0-.3s-.1-.2-.2-.2-.1 0-.2 0c-.1.1-.2.3-.1.5.2.1.4.1.5 0z" opacity=".5"/><path d="m189.7 160.1c-.1-.1-.2 0-.3.1s-.2.2-.3.1c0 0-.1 0-.1-.1s.1-.1.1-.2c0 0 .1-.1.1-.2.1-.1.3-.2.4-.2.1.1.1.1.1.2s-.1.1-.2.1z" opacity=".5"/><path d="m186.9 159.3c-.1-.1-.2 0-.3.1s-.2.2-.3.1c0 0-.1 0-.1-.1s.1-.1.1-.2c0 0 .1-.1.1-.2.1-.1.3-.2.4-.2.1.1.1.1.1.2s-.1.1-.2.1z" opacity=".5"/><path d="m185.9 157.4c0-.1-.1-.2-.1-.2h-.1c-.1 0-.1.1-.1.2s.1.1.2.1c0 0 0 0 .1-.1z" opacity=".5"/><path d="m191 166.5c.1 0 .2-.2.1-.3-.1 0-.1 0-.2.1-.1 0-.1.1-.1.2z" opacity=".5"/><path d="m187.1 172.2c.1-.1.1-.3.1-.5-.1 0-.2.1-.4.1-.1 0-.1 0-.2.1s0 .3.1.3c.1.1.3.1.4 0z" opacity=".5"/><path d="m187.1 169.8h-.1c-.1.1-.1.1 0 .2 0 .1.1.1.2 0 0-.1 0-.2-.1-.2z" opacity=".5"/><path d="m188.5 160.3c0 .1.1.2.2.1.1 0 .2-.1.2-.1.1 0 .2 0 .3.1l.1.1s0 .1-.1.1c-.1.1-.2.3-.4.3-.2.1-.4 0-.5-.1s-.1-.2-.1-.3c.1-.1.2-.2.3-.2z" opacity=".5"/><path d="m189.5 159.7c0 .1.1.2.2.1.1 0 .2-.1.2-.1.1 0 .2 0 .3.1l.1.1s0 .1-.1.1c-.1.1-.2.3-.4.3-.2.1-.4 0-.5-.1s-.1-.2-.1-.3c.1-.1.2-.2.3-.2z" opacity=".5"/><path d="m190.1 161.4c0 .1.1.2.2.1.1 0 .2-.1.2-.1.1 0 .2 0 .3.1l.1.1s0 .1-.1.1c-.1.1-.2.3-.4.3-.2.1-.4 0-.5-.1s-.1-.2-.1-.3.2-.2.3-.2z" opacity=".5"/><path d="m178.1 156.8c0 .1.1.2.2.1.1 0 .2-.1.2-.1.1 0 .2 0 .3.1l.1.1s0 .1-.1.1c-.1.1-.2.3-.4.3-.2.1-.4 0-.5-.1s-.1-.2-.1-.3c.1-.1.2-.2.3-.2z" opacity=".5"/><path d="m186.3 170.3c.1-.1 0-.2-.1-.3s-.2 0-.3 0l-.1.1s0 0 .1.1c.1 0 .3.1.4.1z" opacity=".5"/><path d="m187.3 171.6v.1h-.1-.1c-.1 0-.1-.1-.1-.2s.1-.1.2-.2h.1c-.1.2 0 .2 0 .3z" opacity=".5"/><path d="m183.6 163.2c0-.1 0-.2 0-.3s-.1-.2-.2-.2-.1 0-.2 0c-.1.1-.2.3-.1.5.1.1.3.1.5 0z" opacity=".5"/><path d="m192.8 166.1c.1.1 0 .4-.2.3-.1-.1-.1-.1-.2-.2.1 0 .2 0 .4-.1z" opacity=".5"/><path d="m180.2 159.7c0-.1 0-.1 0-.2s-.1-.1-.2-.1-.1.2-.2.2c-.1.1-.2 0-.3.1s0 .2.1.3h.3s.2-.1.2-.1c.1-.1.1-.2 0-.3z" opacity=".5"/><path d="m186 163.5c.4-.2.6-.7.6-1.2-.4-.2-.9-.3-1.3-.1s-.6.8-.4 1.2c.3.4 1 .3 1.1-.1z" opacity=".5"/><path d="m193.7 165.6c-.1 0-.1 0-.2 0 0-.1 0-.1 0-.2 0 0 0-.1.1-.1.1-.1.2-.1.2 0 .1.1.1.2-.1.3 0 0-.1 0-.2-.1z" opacity=".5"/><path d="m191.6 164.2c-.1 0-.2.1-.3.2s-.1.2-.3.2h-.1c0-.1 0-.1.1-.2 0-.1 0-.1 0-.2 0-.2.2-.3.3-.3s.1.1.1.2 0 .2-.1.2z" opacity=".5"/><path d="m188 163.4s0-.1-.1-.1-.1.1-.1.1c0 .1.1.1.1.1.1 0 .1 0 .1-.1z" opacity=".5"/><path d="m190.2 164.7c0 .1-.1.1 0 0-.1.1-.2.1-.2 0l-.1-.1c0-.1 0-.2.1-.2s.2-.1.2 0c0 0 .1 0 .1.1-.1.1-.1.1-.1.2z" opacity=".5"/><path d="m178.9 156.3c.2-.4.1-.9-.2-1.3-.5.1-.9.3-1.1.7s0 1 .4 1.2 1-.3.8-.7z" opacity=".5"/><path d="m193.4 164.1s0-.1-.1-.1-.1.1-.1.1c0 .1.1.1.1.1s.2 0 .1-.1z" opacity=".5"/><path d="m192.6 169.5c-.1-.5-.4-.9-.7-1.3-.1-.1-.1-.1-.2-.2s-.3 0-.4.1c-.3.2-.4.6-.4 1 .1.4.4.7.7.8.2.1.4.1.6 0 .2 0 .4-.3.4-.4-.1-.1-.2-.1-.2 0z" opacity=".5"/><path d="m195.8 164.2c.2-.4.1-1-.2-1.3-.5.1-.9.3-1.1.7s0 1 .4 1.2 1-.3.8-.7z" opacity=".5"/><path d="m185.7 158.3c.1-.2 0-.4-.1-.6-.1 0-.2.1-.2.2-.1.1-.1.2 0 .3 0 .1.2.1.3.1z" opacity=".5"/><path d="m184.4 157.5c0-.1 0-.1-.1-.2 0 0-.1-.1-.2-.1-.2 0-.3-.1-.5-.1.1.2.3.5.4.7v.1s-.1.1-.1.2 0 .2.1.3c.7.4.4-.6.4-.9z" opacity=".5"/><path d="m191.5 163.7c0-.1-.1-.1-.1-.2-.1.1-.2.2-.2.4s.3.2.4.1.1-.2.2-.2z" opacity=".5"/><path d="m185.4 160.9c0 .1.1.1.1.2-.2 0-.3-.2-.4-.3 0-.1-.1-.2 0-.3 0 0 .1-.1.2-.1.1-.1.2-.2.3-.2s.1.1.1.2-.1.1-.1.2c-.1.1-.2.3-.2.3z" opacity=".5"/><path d="m183.3 162.4c0-.1-.2-.2-.3-.1s-.1.2-.1.4c.2 0 .4-.1.4-.3z" opacity=".5"/><path d="m183.1 159.5c0 .1-.1.1-.2.1s-.1-.1-.1-.1v-.1c0-.1.1-.1.2-.1s.1.1.1.2-.1.1-.2.1z" opacity=".5"/><path d="m183.9 159.3c.1 0 .2-.2.1-.3-.1 0-.1 0-.2.1-.1 0-.1.1-.1.2.2.1.3.1.2 0z" opacity=".5"/><path d="m187 159c.1-.1.1-.3.1-.5-.1 0-.2.1-.4.1-.1 0-.1 0-.2.1s0 .3.1.3c.1.2.2.1.4 0z" opacity=".5"/><path d="m182.2 161.2c0 .1-.1.2-.2.2s-.2 0-.2-.1 0-.1 0-.2h.1c.1 0 .2 0 .3.1 0-.1 0 0 0 0z" opacity=".5"/><path d="m180.3 161.4c-.1-.1-.2 0-.3.1s-.2.2-.3.1c0 0-.1 0-.1-.1s.1-.1.1-.2c0 0 .1-.1.1-.2.1-.1.3-.2.4-.2.1.1.1.1.1.2s-.1.1-.2.1z" opacity=".5"/><path d="m180.2 160.2v-.1c-.1 0-.2 0-.2.1s0 .2.1.2c0 0 .1-.1.1-.2z" opacity=".5"/><path d="m184.9 159.1c0 .1.1.2.2.1.1 0 .2-.1.2-.1.1 0 .2 0 .3.1l.1.1s0 .1-.1.1c-.1.1-.2.3-.4.3-.2.1-.4 0-.5-.1s-.1-.2-.1-.3c.1-.2.2-.2.3-.2z" opacity=".5"/><path d="m186.1 157.1c.1-.1 0-.2-.1-.3s-.2 0-.3 0l-.1.1s0 0 .1.1c.2 0 .3.1.4.1z" opacity=".5"/><path d="m185.1 163c-.1.2-.5.1-.6-.1.1-.1.3-.2.4-.3.2 0 .4.1.4.3-.1.1-.1.1-.2.1z" opacity=".5"/><path d="m183.2 158.3v-.1c-.1 0-.1 0-.2.1 0 .1 0 .2.1.2h.1c.1 0 .1-.1.2-.1z" opacity=".5"/><path d="m185.3 166.2c0-.1-.1-.1-.1-.2-.1 0-.1 0-.2.1 0 .1.2.2.3.1z" opacity=".5"/><path d="m185.6 164.3c0-.1-.1-.1-.1-.2-.1 0-.1 0-.2.1.1.1.2.2.3.1z" opacity=".5"/><path d="m179.4 153.4c.1-.1 0-.2-.1-.2s-.2 0-.3 0-.2-.1-.2-.1-.1-.1 0-.1c0 0 0-.1.1-.1.1-.1.3-.2.5-.2s.4.1.4.2v.3c-.2.2-.3.2-.4.2z" opacity=".5"/><path d="m190.2 165.8v.2c0 .1.1.1.1.1.1 0 .2-.1.3-.1s.2 0 .3 0c.1-.1.1-.2 0-.3s-.2-.1-.3-.1-.2 0-.3.1-.1.2-.1.1z" opacity=".5"/><path d="m188 161.3c.2.3.5.6.9.8.1 0 .1.1.2.1s.2-.1.3-.2c.2-.2.2-.6 0-.9s-.5-.4-.8-.4c-.2 0-.3 0-.5.1-.1.2-.2.4-.1.5s.2 0 .1-.1z" opacity=".5"/><path d="m190.8 160.6.1-.1c0-.1 0-.1 0-.2-.1-.2-.1-.3-.1-.5-.1.2-.3.5-.4.7-.1 0-.1 0-.2 0s-.2.1-.2.2c-.2.8.5 0 .8-.1z" opacity=".5"/><path d="m188 161.2v-.1c-.1 0-.2 0-.2.1s0 .2.1.2c0-.1.1-.1.1-.2z" opacity=".5"/><path d="m189.7 159.9c.1 0 .2-.1.2-.2s-.1-.2-.2-.3h-.1v.1c0 .1.1.2.1.4z" opacity=".5"/><path d="m188.4 160.5c.2 0 .4-.2.5-.4-.1 0-.2-.1-.3-.1s-.2 0-.3.1c0 .1.1.2.1.4 0-.1 0-.1 0 0z" opacity=".5"/><path d="m187.4 160.4c0 .1-.1.1-.1.1-.1-.2 0-.3.1-.5 0-.1.1-.2.2-.1.1 0 .1.1.2.1.1.1.3.1.3.2s0 .1-.1.2c-.1 0-.1 0-.2 0-.2 0-.3 0-.5 0z" opacity=".5"/><path d="m189.9 160.8c.2 0 .3 0 .4-.1-.1-.1-.2-.2-.3-.3 0 0-.1-.1-.2-.1s-.2.1-.2.2c0 .2.1.3.3.3z" opacity=".5"/><path d="m188.8 159c-.1 0-.1.1 0 .2l.2.2c.1.1.1.2.1.2 0 .1 0 .1-.1.1h-.1c-.2 0-.3-.1-.5-.2-.1-.1-.2-.3-.1-.5 0-.1.1-.2.3-.2 0 .1.2.1.2.2z" opacity=".5"/><path d="m188.3 164.7c.1 0 .2-.1.3-.2s.1-.2.1-.3-.1-.1-.1-.1c-.2-.1-.4 0-.4.2-.2.1-.1.3.1.4z" opacity=".5"/><path d="m190.7 164c.2 0 .4-.2.5-.4-.1 0-.2-.1-.3-.1s-.2 0-.3.1c.1.1.1.3.1.4z" opacity=".5"/><path d="m187.1 160.2c-.1-.1-.2 0-.3.1s-.2.1-.3.1c0 0-.1 0-.1-.1s.1-.1.2-.2c.1 0 .1-.1.1-.2.1-.1.3-.2.4-.1s.1.2 0 .2c0 .1-.1.1-.2.1z" opacity=".5"/><path d="m189.5 161.8.1-.1c0-.1-.1-.1-.2-.1s-.2.1-.1.1c0 0 0 0 .2.1l.1.1z" opacity=".5"/></g><g fill="#fff" opacity=".5"><path d="m76.1 190.2c.2-.4.1-.9-.2-1.3-.5.1-.9.3-1.1.7s0 1 .4 1.2 1-.3.8-.7z" opacity=".5"/><path d="m80.1 195.8c.2-.1.3-.3.3-.5-.1 0-.2 0-.3 0s-.2.1-.2.2c0 0 .1.1.2.3 0-.1 0-.1 0 0z" opacity=".5"/><path d="m80.6 196.4c0 .1.1.1.1.2-.2 0-.3-.2-.4-.3 0-.1-.1-.2 0-.3 0 0 .1-.1.2-.1.1-.1.2-.2.3-.2s.1.1.1.2-.1.1-.1.2c-.1.1-.2.3-.2.3z" opacity=".5"/><path d="m74.4 187.5c0-.1-.2-.2-.3-.1s-.1.2-.1.4c.2 0 .4-.1.4-.3z" opacity=".5"/><path d="m75.7 201.4c0-.1 0-.1 0-.2s-.1-.1-.2-.1-.1.2-.2.2c-.1.1-.2 0-.3.1s0 .2.1.3h.3c.1 0 .2-.1.2-.1.1-.1.1-.2 0-.3z" opacity=".5"/><path d="m70.2 189.7c0 .1-.1.1-.2.1s-.1-.1-.1-.1v-.1c0-.1.1-.1.2-.1s.1.1.1.2-.1.1-.2.1z" opacity=".5"/><path d="m78.1 195.5c.1.1.3 0 .3-.1-.1 0-.1-.1-.2-.1s-.2.1-.1.2c-.1 0 0 .1 0 0z" opacity=".5"/><path d="m80.7 197.1c.2 0 .3-.2.4-.3-.1 0-.3-.1-.4-.1s-.1 0-.2 0-.2.2-.1.3c0 0 .1.1.3.1z" opacity=".5"/><path d="m71.9 190.5c-.2.1-.2.1-.1.2 0 .1.1.1.2 0 0-.1 0-.2-.1-.2z" opacity=".5"/><path d="m79 195.9c-.1.1 0 .2 0 .2.1 0 .2 0 .3.1.1 0 .1.1.2.2v.1h-.1c-.2 0-.3.1-.5 0s-.3-.2-.3-.4c0-.1.1-.2.2-.3 0 0 .1 0 .2.1z" opacity=".5"/><path d="m81.2 195c.1 0 .2-.2.1-.3 0-.1-.1-.2-.3-.2 0 0-.1 0-.1.1v.1c.1.1.2.2.3.3z" opacity=".5"/><path d="m77.8 191.1c-.1.2-.5.1-.6-.1.1-.1.3-.2.4-.3.2 0 .4.1.4.3-.1.1-.1.1-.2.1z" opacity=".5"/><path d="m78.1 194.3v-.1c-.1 0-.1-.1-.2 0-.1 0-.1.1-.1.2h.1.3z" opacity=".5"/><path d="m76.3 192.5c0-.1 0-.2 0-.3s-.1-.2-.2-.2-.1 0-.2 0c-.1.1-.2.3-.1.5.1.1.4.1.5 0z" opacity=".5"/><path d="m76.4 191.3c0-.1-.1-.1-.1-.2-.1 0-.1 0-.2.1 0 .1.2.2.3.1z" opacity=".5"/><path d="m72 187.6c-.3-.3-.7-.6-1.1-.8-.1 0-.1-.1-.2-.1s-.3.1-.3.2c-.2.3-.1.7.1 1s.6.4.9.3c.2 0 .4-.1.5-.2s.1-.3.1-.4c-.2 0-.2 0-.2.1z" opacity=".5"/><path d="m76.1 201.2c0 .1-.1.1-.2.1s-.1-.1-.1-.1v-.1c0-.1.1-.1.2-.1s.1.1.1.2-.1.1-.2.1z" opacity=".5"/><path d="m79.5 192.6c-.1-.1-.2 0-.3.1s-.2.2-.3.1c0 0-.1 0-.1-.1s.1-.1.1-.2c0 0 .1-.1.1-.2.1-.1.3-.2.4-.2.1.1.1.1.1.2s-.1.1-.2.1z" opacity=".5"/><path d="m76.7 191.8c-.1-.1-.2 0-.3.1s-.2.2-.3.1c0 0-.1 0-.1-.1s.1-.1.1-.2c0 0 .1-.1.1-.2.1-.1.3-.2.4-.2.1.1.1.1.1.2s-.1.1-.2.1z" opacity=".5"/><path d="m75.8 189.9c0-.1-.1-.2-.1-.2h-.1c-.1 0-.1.1-.1.2s.1.1.2.1c0 0 0 0 .1-.1 0-.1 0 0 0 0z" opacity=".5"/><path d="m92.4 209.8c0 .1.1.1.1.2-.2 0-.3-.2-.4-.3 0-.1-.1-.2 0-.3 0 0 .1-.1.2-.1.1-.1.2-.2.3-.2s.1.1.1.2-.1.1-.1.2c-.1.1-.2.2-.2.3z" opacity=".5"/><path d="m78.4 192.8c0 .1.1.2.2.1.1 0 .2-.1.2-.1.1 0 .2 0 .3.1l.1.1s0 .1-.1.1c-.1.1-.2.3-.4.3-.2.1-.4 0-.5-.1s-.1-.2-.1-.3c.1-.1.2-.2.3-.2z" opacity=".5"/><path d="m79.3 192.2c0 .1.1.2.2.1.1 0 .2-.1.2-.1.1 0 .2 0 .3.1l.1.1s0 .1-.1.1c-.1.1-.2.3-.4.3-.2.1-.4 0-.5-.1s-.1-.2-.1-.3c.1-.1.3-.2.3-.2z" opacity=".5"/><path d="m79.9 193.9c0 .1.1.2.2.1.1 0 .2-.1.2-.1.1 0 .2 0 .3.1l.1.1s0 .1-.1.1c-.1.1-.2.3-.4.3-.2.1-.4 0-.5-.1s-.1-.2-.1-.3c.1-.2.2-.2.3-.2z" opacity=".5"/><path d="m68 189.3c0 .1.1.2.2.1.1 0 .2-.1.2-.1.1 0 .2 0 .3.1l.1.1s0 .1-.1.1c-.1.1-.2.3-.4.3-.2.1-.4 0-.5-.1s-.1-.2-.1-.3c.1-.2.2-.2.3-.2z" opacity=".5"/><path d="m76.2 202.7c.1-.1 0-.2-.1-.3s-.2 0-.3 0l-.1.1s0 0 .1.1.2.1.4.1z" opacity=".5"/><path d="m73.5 195.7c0-.1 0-.2 0-.3s-.1-.2-.2-.2-.1 0-.2 0c-.1.1-.2.3-.1.5.1.1.3.1.5 0z" opacity=".5"/><path d="m70.1 192.1c0-.1 0-.1 0-.2s-.1-.1-.2-.1-.1.2-.2.2c-.1.1-.2 0-.3.1s0 .2.1.3h.3c.1 0 .2-.1.2-.1.1-.1.1-.2 0-.3z" opacity=".5"/><path d="m79.3 195.1c.4-.2.6-.7.6-1.2-.4-.2-.9-.3-1.3-.1s-.6.8-.4 1.2c.3.4 1 .3 1.1-.1z" opacity=".5"/><path d="m81.5 196.7c-.1 0-.2.1-.3.2s-.1.2-.3.2h-.1c0-.1 0-.1.1-.2 0-.1 0-.1 0-.2 0-.2.2-.3.3-.3s.1.1.1.2 0 .2-.1.2z" opacity=".5"/><path d="m77.9 195.9s0-.1-.1-.1-.1.1-.1.1c0 .1.1.1.1.1.1 0 .1-.1.1-.1z" opacity=".5"/><path d="m80 197.2c.1.1 0 .1 0 0-.1.1-.2.1-.2 0l-.1-.1c0-.1 0-.2.1-.2s.2-.1.2 0c0 0 .1 0 .1.1s0 .1-.1.2z" opacity=".5"/><path d="m68.7 188.8c.2-.4.1-.9-.2-1.3-.5.1-.9.3-1.1.7s0 1 .4 1.2 1-.3.8-.7z" opacity=".5"/><path d="m81.1 197.6c-.1-.5-.4-.9-.7-1.3-.1-.1-.1-.1-.2-.2s-.3 0-.4.1c-.3.2-.4.6-.4 1 .1.4.4.7.7.8.2.1.4.1.6 0s.4-.3.4-.4c-.1-.1-.2-.1-.2 0z" opacity=".5"/><path d="m77.1 195.2c.2-.4.1-.9-.2-1.3-.5.1-.9.3-1.1.7s0 1 .4 1.2 1-.3.8-.7z" opacity=".5"/><path d="m75.6 190.8c.1-.2 0-.4-.1-.6-.1 0-.2.1-.2.2-.1.1-.1.2 0 .3 0 .1.2.1.3.1z" opacity=".5"/><path d="m74.3 190c0-.1 0-.1-.1-.2 0 0-.1-.1-.2-.1-.2 0-.3-.1-.5-.1.1.2.3.5.4.7v.1s-.1.1-.1.2 0 .2.1.3c.7.4.4-.6.4-.9z" opacity=".5"/><path d="m81.4 196.2c0-.1-.1-.1-.1-.2-.1.1-.2.2-.2.4s.3.2.4.1.1-.2.2-.2z" opacity=".5"/><path d="m75.3 193.4c0 .1.1.1.1.2-.2 0-.3-.2-.4-.3 0-.1-.1-.2 0-.3 0 0 .1-.1.2-.1.1-.1.2-.2.3-.2s.1.1.1.2-.1.1-.1.2c-.2.1-.2.3-.2.3z" opacity=".5"/><path d="m73.2 194.9c0-.1-.2-.2-.3-.1s-.1.2-.1.4c.2 0 .4-.1.4-.3z" opacity=".5"/><path d="m73 192c0 .1-.1.1-.2.1s-.1-.1-.1-.1v-.1c0-.1.1-.1.2-.1s.1.1.1.2-.1.1-.2.1z" opacity=".5"/><path d="m73.8 191.8c.1 0 .2-.2.1-.3-.1 0-.1 0-.2.1-.1 0-.1.1-.1.2.1 0 .2.1.2 0z" opacity=".5"/><path d="m76.8 191.5c.1-.1.1-.3.1-.5-.1 0-.2.1-.4.1-.1 0-.1 0-.2.1s0 .3.1.3c.2.1.3.1.4 0z" opacity=".5"/><path d="m72 193.6c0 .1-.1.2-.2.2s-.2 0-.2-.1 0-.1 0-.2h.1c.1 0 .3.1.3.1z" opacity=".5"/><path d="m70.2 193.9c-.1-.1-.2 0-.3.1s-.2.2-.3.1c0 0-.1 0-.1-.1s.1-.1.1-.2c0 0 .1-.1.1-.2.1-.1.3-.2.4-.2.1.1.1.1.1.2s-.1.1-.2.1z" opacity=".5"/><path d="m70.1 192.7v-.1c-.1 0-.2 0-.2.1s0 .2.1.2c0-.1.1-.1.1-.2z" opacity=".5"/><path d="m74.8 191.5c0 .1.1.2.2.1.1 0 .2-.1.2-.1.1 0 .2 0 .3.1l.1.1s0 .1-.1.1c-.1.1-.2.3-.4.3-.2.1-.4 0-.5-.1s-.1-.2-.1-.3c.1-.1.2-.2.3-.2z" opacity=".5"/><path d="m76 189.6c.1-.1 0-.2-.1-.3s-.2 0-.3 0l-.1.1s0 0 .1.1c.2 0 .3.1.4.1z" opacity=".5"/><path d="m75 195.5c-.1.2-.5.1-.6-.1.1-.1.3-.2.4-.3.2 0 .4.1.4.3-.1.1-.1.1-.2.1z" opacity=".5"/><path d="m73.1 190.8v-.1c-.1 0-.2 0-.2.1s0 .2.1.2h.1c.1 0 .1-.1.2-.1z" opacity=".5"/><path d="m75.2 198.7c0-.1-.1-.1-.1-.2-.1 0-.1 0-.2.1 0 .1.1.2.3.1z" opacity=".5"/><path d="m75.5 196.8c0-.1-.1-.1-.1-.2-.1 0-.1 0-.2.1.1.1.2.2.3.1z" opacity=".5"/><path d="m69.3 185.9c.1-.1 0-.2-.1-.2s-.2 0-.3 0-.2-.1-.2-.1-.1-.1 0-.1c0 0 0-.1.1-.1.1-.1.3-.2.5-.2s.4.1.4.2v.3c-.2.1-.3.2-.4.2z" opacity=".5"/><path d="m77.8 193.7c.2.3.5.6.9.8.1 0 .1.1.2.1s.2-.1.3-.2c.2-.2.2-.6 0-.9s-.5-.4-.8-.4c-.2 0-.3 0-.5.1 0 .3-.1.5-.1.5.1.1.2 0 .1-.1z" opacity=".5"/><path d="m80.6 193 .1-.1c0-.1 0-.1 0-.2-.1-.2-.1-.3-.1-.5-.1.2-.3.5-.4.7-.1 0-.1 0-.2 0s-.2.1-.2.2c-.1.9.6.1.8-.1z" opacity=".5"/><path d="m77.9 193.7v-.1c-.1 0-.2 0-.2.1s0 .2.1.2c0-.1.1-.1.1-.2z" opacity=".5"/><path d="m79.6 192.3c.1 0 .2-.1.2-.2s-.1-.2-.2-.3h-.1v.1c0 .2 0 .3.1.4z" opacity=".5"/><path d="m78.3 192.9c.2 0 .4-.2.5-.4-.1 0-.2-.1-.3-.1s-.2 0-.3.1c0 .2.1.3.1.4z" opacity=".5"/><path d="m77.3 192.9c0 .1-.1.1-.1.1-.1-.2 0-.3.1-.5 0-.1.1-.2.2-.1.1 0 .1.1.2.1.1.1.3.1.3.2s0 .1-.1.2c-.1 0-.1 0-.2 0-.2 0-.3 0-.4 0z" opacity=".5"/><path d="m79.7 193.3c.2 0 .3 0 .4-.1-.1-.1-.2-.2-.3-.3 0 0-.1-.1-.2-.1s-.2.1-.2.2c.1.1.2.2.3.3z" opacity=".5"/><path d="m78.7 191.5c-.1 0-.1.1 0 .2l.2.2c.1.1.1.2.1.2 0 .1 0 .1-.1.1h-.1c-.2 0-.3-.1-.5-.2-.1-.1-.2-.3-.1-.5 0-.1.1-.2.3-.2 0 .1.1.1.2.2z" opacity=".5"/><path d="m78.1 197.2c.1 0 .2-.1.3-.2s.1-.2.1-.3-.1-.1-.1-.1c-.2-.1-.4 0-.4.2-.1.1 0 .3.1.4z" opacity=".5"/><path d="m80.6 196.5c.2 0 .4-.2.5-.4-.1 0-.2-.1-.3-.1s-.2 0-.3.1c0 .1.1.2.1.4 0-.1 0-.1 0 0z" opacity=".5"/><path d="m77 192.7c-.1-.1-.2 0-.3.1s-.2.1-.3.1c0 0-.1 0-.1-.1s.1-.1.2-.2c.1 0 .1-.1.1-.2.1-.1.3-.2.4-.1s.1.2 0 .2c0 .1-.1.1-.2.1z" opacity=".5"/><path d="m79.4 194.3.1-.1c0-.1-.1-.1-.2-.1s-.2.1-.1.1c0 0 0 0 .2.1l.1.1z" opacity=".5"/></g><path d="m170.8 161.8s1.9-10.1 5.5-13.2c0 0-3.8 4.5-4.1 14.7z" fill="#ec6a6b"/><path d="m130.7 46.8c-.1-1.8-.7-3.6-1.6-5.1-.1-.3-.3-.5-.5-.7-.5-.3-1.1-.3-1.6 0-1.3.5-2.1 2-2 3.3s.9 2.6 2.1 3.3c.6.4 1.4.6 2.2.4.7-.2 1.3-.9 1.2-1.7-.2-.1-.5 0-.5.3z" fill="#0848b3"/><path d="m126.4 43.4c.4-.6.5-1.4.2-2.1-.7 0-1.5.2-2 .8-.4.6-.4 1.6.2 2s1.6-.2 1.5-.9z" fill="#0848b3"/><path d="m124.6 37c.3-.1.6-.4.7-.7-.1-.1-.3-.1-.4-.1-.2 0-.3.1-.4.2-.2.2 0 .4.1.6z" fill="#0848b3"/><path d="m125.2 38.2c0 .1.1.2 0 .3-.3-.1-.4-.4-.4-.6 0-.1-.1-.3.1-.4.1-.1.2 0 .3-.1.2-.1.4-.3.6-.2.1.1.1.2.1.3s-.1.2-.2.3c-.2.2-.4.3-.5.4z" fill="#0848b3"/><path d="m121.6 27.9c.1-.2-.2-.4-.4-.3s-.2.4-.3.6c.3.1.6 0 .8-.2z" fill="#0848b3" opacity=".5"/><path d="m114.2 30c0 .1-.2.1-.3 0s-.1-.2-.1-.3 0-.1 0-.2.2-.2.3-.1.2.2.1.4c-.1.1-.2.2-.4.1z" fill="#0848b3"/><path d="m125 39.3c.3 0 .5-.2.7-.4-.2-.1-.4-.2-.6-.3-.1 0-.2-.1-.3-.1-.2 0-.3.2-.3.4.1.2.3.3.5.4z" fill="#0848b3"/><path d="m116.6 31.7c-.1 0-.1-.1-.2-.1-.1.1-.2.2-.1.3 0 .1.2.2.3.1s.1-.2 0-.3z" fill="#0848b3" opacity=".5"/><path d="m126.5 36.2c.2 0 .3-.2.3-.4s-.2-.3-.3-.4c-.1 0-.2 0-.2 0s0 .1 0 .2c0 .3.1.5.2.6z" fill="#0848b3"/><path d="m132.2 54.9c0 .1 0 .2-.1.2s-.2 0-.2 0c-.1 0-.1 0-.2-.1s-.1-.2-.1-.4c.1-.1.2-.2.3-.2s.1 0 .2.1v.2z" fill="#0848b3"/><path d="m123.3 34.6c0-.1-.1-.2-.1-.4-.1 0-.2 0-.3.1 0 .2.2.4.4.3z" fill="#0848b3"/><path d="m132.8 41.7c-.3-.6-.8-1.2-1.4-1.6-.1-.1-.2-.1-.3-.2-.2 0-.4.1-.6.3-.4.4-.4 1.1-.2 1.5.3.5.8.8 1.3.9.3 0 .6 0 .9-.2.2-.2.3-.6.2-.8-.1 0-.2.1-.1.2z" fill="#0848b3"/><path d="m122.3 42.9c.2-.3.2-.7.1-1-.1 0-.3.1-.4.2s-.2.3-.1.4c0 .2.3.3.4.4z" fill="#0848b3"/><path d="m120.6 41.1c0-.1 0-.2 0-.3s-.1-.1-.2-.2c-.2-.1-.5-.2-.7-.4.1.4.2.8.4 1.2v.1c0 .1-.2.2-.2.2-.1.1 0 .3.1.5.7 1.1.5-.5.6-1.1z" fill="#0848b3"/><path d="m120.6 39.8c.2-.2.3-.4.3-.7-.2 0-.4.1-.6.1-.1 0-.2 0-.3.1-.2.1-.1.4 0 .5s.4.1.6 0z" fill="#0848b3"/><path d="m128.1 56c-.1 0-.1-.1-.2-.1-.1.1-.2.2-.1.3 0 .1.2.2.3.1.1 0 .1-.2 0-.3z" fill="#0848b3"/><path d="m125 41.1c.1-.2.1-.4.1-.5 0-.2-.1-.4-.3-.4-.1 0-.2 0-.3 0-.3.1-.4.4-.3.7.2.2.6.3.8.2z" fill="#0848b3"/><path d="m122.9 32.1c0-.2-.1-.3-.1-.4 0 0 0 0 0-.1h-.1c-.1 0-.2.2-.2.3s.1.2.2.3c.1 0 .1 0 .2-.1 0 .1 0 .1 0 0z" fill="#0848b3"/><path d="m127.3 47c.2-.3.2-.7.1-1-.1 0-.3.1-.4.2s-.2.3-.1.4c0 .2.2.3.4.4 0-.1-.1 0 0 0z" fill="#0848b3"/><path d="m124.2 48c.2.1.4-.2.3-.4-.1 0-.2 0-.3 0s-.2.2-.1.3c0 .1.2.2.3.1z" fill="#0848b3"/><path d="m124.7 42.2c.2.1.4-.2.3-.4-.1 0-.2 0-.3 0s-.2.2-.1.3c0 .1.2.2.3.1z" fill="#0848b3"/><path d="m125.8 47.9c-.1.1.1.3.2.3s.3 0 .4 0 .3.1.4.2.1.2.1.2c0 .1-.1.1-.1.1-.2.2-.5.3-.7.3-.3 0-.6-.1-.7-.3s-.1-.4 0-.5c0-.3.2-.4.4-.3z" fill="#0848b3"/><path d="m108.4 38.1c-.1.1.1.3.2.3s.3 0 .4 0 .3.1.4.2.1.2.1.2c0 .1-.1.1-.1.1-.2.2-.5.3-.7.3-.3 0-.6-.1-.7-.3s-.1-.4 0-.5c.1-.2.3-.3.4-.3z" fill="#0848b3"/><path d="m121.9 40.2c0-.1 0-.1 0-.2-.1 0-.2 0-.3.1s-.1.3 0 .3h.1c.1 0 .3-.1.4-.1z" fill="#0848b3"/><path d="m127.6 42.3c.1.2-.2.5-.4.5-.1-.1-.2-.2-.2-.4.1-.1.3-.1.6-.1z" fill="#0848b3"/><path d="m115.7 15.9c0-.1 0-.2 0-.3s-.1-.2-.2-.2c-.2 0-.3.2-.4.3-.2.1-.4 0-.5.1s-.1.3.1.4c.1.1.3.1.5.1s.3 0 .4-.1.2-.3.1-.3z" fill="#0848b3" opacity=".5"/><path d="m129.2 41.9c-.1 0-.2 0-.2-.1s0-.2 0-.3.1-.1.1-.1c.1-.1.3 0 .4.1s0 .3-.1.4-.3 0-.4-.1z" fill="#0848b3"/><path d="m126.5 38.9c-.2-.1-.4.1-.5.2s-.3.3-.5.3c-.1 0-.1 0-.1-.1-.1-.1.1-.2.2-.3s.1-.2.1-.3c.1-.2.4-.4.6-.3.1.1.2.2.1.4 0 .1-.1.2-.3.3z" fill="#0848b3"/><path d="m124 39.3c0 .1-.1.1-.2.1s-.1-.1-.2-.1c0 0-.1-.1-.1-.2s0-.3.2-.3c.1-.1.3 0 .4.1 0 0 .1.1.1.2s0 .1-.1.1z" fill="#0848b3"/><path d="m122.4 23.3c.7.3 1.5.1 2.1-.3-.1-.7-.5-1.5-1.2-1.8s-1.6-.1-1.9.6.5 1.6 1.2 1.3z" fill="#0848b3"/><path d="m124 45.2c.1-.2-.2-.4-.4-.3s-.2.4-.3.6c.3.1.6 0 .7-.3z" fill="#0848b3"/><path d="m129.3 39.5c0-.1 0-.1-.1-.2-.1 0-.2.1-.3.2 0 .1 0 .2.2.3.2-.1.3-.2.2-.3z" fill="#0848b3"/><path d="m125.5 40.2c0-.8-.2-1.6-.6-2.2-.1-.1-.1-.2-.2-.3-.2-.1-.5-.1-.7 0-.6.2-.9.8-.9 1.4s.4 1.2.9 1.5c.3.2.6.3.9.2s.6-.4.6-.6c-.1-.2-.2-.1-.2 0z" fill="#0848b3"/><path d="m121.1 26.3c.4-.6.5-1.4.2-2.1-.7 0-1.5.2-2 .8-.4.6-.4 1.6.2 2s1.6-.2 1.5-.9z" fill="#0848b3"/><path d="m122.2 33.5c.2-.3.2-.7.1-1-.1 0-.3.1-.4.2s-.2.3-.1.4c0 .2.2.3.4.4z" fill="#0848b3"/><path d="m120.5 31.7c0-.1 0-.2 0-.3s-.1-.1-.2-.2c-.2-.1-.5-.2-.7-.4.1.4.2.8.4 1.2v.1c0 .1-.2.2-.2.2-.1.1 0 .3.1.5.6 1.1.5-.5.6-1.1z" fill="#0848b3"/><path d="m126.4 38.1c0-.1-.1-.2-.1-.4-.2.1-.5.3-.4.5 0 .2.3.5.5.3.1-.1.3-.3.4-.2z" fill="#0848b3"/><path d="m118.9 15.2c0 .1.1.2 0 .3-.3-.1-.4-.4-.4-.6 0-.1-.1-.3.1-.4.1-.1.2 0 .3-.1.2-.1.4-.3.6-.2.1.1.1.2.1.3s-.1.2-.2.3c-.2.2-.4.3-.6.5z" fill="#0848b3"/><path d="m115.1 16.8c.1-.2-.2-.4-.4-.3s-.2.4-.3.6c.3.1.6 0 .8-.2z" fill="#0848b3"/><path d="m117.8 34.5c0 .1-.2.1-.3 0s-.1-.2-.1-.3 0-.1 0-.2.2-.2.3-.1.2.2.1.4c-.1.1-.2.2-.4.1z" fill="#0848b3" opacity=".5"/><path d="m119.1 34.5c.2.1.4-.2.3-.4-.1 0-.2 0-.3 0s-.2.2-.1.3c0 .1.2.2.3.1z" fill="#0848b3"/><path d="m115.7 36.7c-.1.1-.2.2-.4.2-.1 0-.3-.1-.3-.3 0-.1 0-.2.1-.2h.1c.2.1.4.1.5.3z" fill="#0848b3" opacity=".5"/><path d="m112.8 36.4c-.1-.1-.4-.1-.5 0-.2.1-.4.2-.5.1l-.1-.1c0-.1.2-.2.3-.2l.2-.2c.2-.2.5-.2.7-.1.1.1.1.3-.1.5 0 0-.1.1-.2.1z" fill="#0848b3" opacity=".5"/><path d="m113 34.5c0-.1 0-.1 0-.2-.1-.1-.2 0-.3.1s0 .3.1.3c.1.1.2 0 .2-.2z" fill="#0848b3" opacity=".5"/><path d="m120.7 34.4c-.1.1.1.3.2.3s.3 0 .4 0 .3.1.4.2.1.2.1.2c0 .1-.1.1-.1.1-.2.2-.5.3-.7.3-.3 0-.6-.1-.7-.3s-.1-.4 0-.5c.1-.3.3-.4.4-.3z" fill="#0848b3"/><path d="m123.3 31.7c.1-.1.1-.3 0-.5-.1-.1-.3-.1-.5-.1-.1 0-.2.1-.1.2 0 .1.1.1.1.1.2.2.4.3.5.3z" fill="#0848b3"/><path d="m117.7 18.4c-.3.2-.8 0-.9-.3.2-.1.5-.3.8-.2.3 0 .5.3.5.6-.1.1-.3.2-.4.3z" fill="#0848b3"/><path d="m118.3 32.7c0-.1 0-.1 0-.2-.1 0-.2 0-.3.1s-.1.3 0 .3h.1c.1 0 .3-.1.4-.1z" fill="#0848b3" opacity=".5"/><path d="m126.2 43.4c.1-.2.1-.4.1-.5 0-.2-.1-.4-.3-.4-.1 0-.2 0-.3 0-.3.1-.4.4-.3.7.2.2.6.3.8.2z" fill="#0848b3"/><path d="m117.4 39.7c0-.1-.1-.2-.1-.4-.1 0-.2 0-.3.1 0 .2.1.4.4.3z" fill="#0848b3"/><path d="m129.1 52.6c0 .1-.2.1-.3 0s-.1-.2-.1-.3 0-.1 0-.2.2-.2.3-.1.2.2.1.4c-.1.1-.2.2-.4.1z" fill="#0848b3"/><path d="m130.8 52.6c-1.5-1-3.2-1.8-5-2-.3 0-.6-.1-.9 0-.5.1-.9.7-1.1 1.2-.4 1.3.2 2.8 1.3 3.6s2.6 1 3.9.5c.7-.3 1.4-.7 1.7-1.4s.2-1.6-.5-2c-.2.1-.3.4-.1.6z" fill="#0848b3"/><path d="m138 56.6c.1 0 .1.1.1.2s-.1.1-.1.2c-.1 0-.1.1-.2.1s-.3-.1-.3-.2 0-.3.1-.4c0 0 .1-.1.2-.1s.1 0 .1.1z" fill="#0848b3"/><path d="m136.2 60.4c-.1 0-.1 0-.2.1 0 .1 0 .2.2.3.1 0 .3 0 .3-.1 0-.2-.1-.3-.3-.3z" fill="#0848b3"/><path d="m128.7 55.4c-.1-.3-.4-.6-.7-.7-.1.1-.1.3-.1.4 0 .2.1.3.2.4.2 0 .4-.1.6-.1 0-.1 0 0 0 0z" fill="#0848b3"/><path d="m134.2 57.5c0 .1 0 .2-.1.2s-.2 0-.3 0-.1-.1-.1-.1c-.1-.1 0-.3.1-.3.1-.1.3 0 .3.1.1.1 0 .3-.1.4z" fill="#0848b3"/><path d="m118.1 20.6c0-.1-.1-.2-.1-.4-.1 0-.2 0-.3.1 0 .2.1.4.4.3z" fill="#0848b3"/><path d="m123.8 40.9c0 .1-.1.2-.1.3s0 .2.1.3c.2.1.3-.1.5-.1s.4.1.5 0c.2-.1.2-.3.1-.4s-.3-.2-.5-.2-.3 0-.5 0c-.1.1-.3.2-.2.4z" fill="#0848b3"/><path d="m125.2 38.3c.3 0 .7-.1.9-.4-.1-.1-.2-.2-.4-.3-.1-.1-.3 0-.4.1-.1.2-.1.4-.1.6z" fill="#0848b3"/><path d="m120.1 39.5c0-.1-.1-.1-.1-.2-.1 0-.2.1-.2.2s.1.2.2.2c0 0 .1-.1.1-.2z" fill="#0848b3"/><path d="m61.1 184.9s1.2 1.4 3 0c1.9-1.5 4.2-8.9 4.2-8.9s-.9 8.2-5 12.5z" fill="#ec6a6b"/><path d="m159.3 79.5s.2-1.8 1.3-3.1c2.3-2.7 6.6-6.6 8.4-11.4 2.6-7.1 2.1-12.7 1.3-13.5s-7.2 3.9-10.1 9.8-.9 12.8-.2 14.7c0 0-1.4 1.5-2.3 1.8l.5 2.1z" fill="#0848b3"/><path d="m170.3 51.5s-7.6 9.2-8.8 14c-1.3 4.8-1 8.9-1 8.9s11.6-6.5 9.8-22.9z" fill="#28274e" opacity=".82"/><path d="m166.6 50.4c.1-1.1.4-2.1.9-3.1.1-.2.2-.3.3-.4.3-.2.7-.2 1 0 .8.3 1.2 1.2 1.2 2s-.6 1.6-1.3 2c-.4.2-.9.4-1.3.3s-.8-.5-.8-1c.1-.1.3 0 .3.2z" fill="#0848b3"/><path d="m167.5 44.3c-.1-.1-.2-.3-.1-.4 0-.1.1-.2.2-.4.3-.3.5-.6.7-.9.1.6.2 1.3.3 1.9v.1c.1.1.3.1.5.2s.2.4.2.7c-.5 1.8-1.4-.5-1.8-1.2z" fill="#0848b3"/></svg>