<svg enable-background="new 0 0 223 209.6" viewBox="0 0 223 209.6" xmlns="http://www.w3.org/2000/svg" xmlns:xlink="http://www.w3.org/1999/xlink"><linearGradient id="a" gradientTransform="matrix(1 0 0 -1 0 212)" gradientUnits="userSpaceOnUse" x1="63.7" x2="63.7" y1="83.5774" y2="89.9103"><stop offset="0" stop-color="#836ceb"/><stop offset="1" stop-color="#c3a4eb"/></linearGradient><linearGradient id="b" gradientTransform="matrix(1 0 0 -1 0 212)" gradientUnits="userSpaceOnUse" x1="70.6776" x2="70.6776" y1="29.9733" y2="160.563"><stop offset=".0159875" stop-color="#ffc2a9"/><stop offset="1" stop-color="#ff9595"/></linearGradient><linearGradient id="c"><stop offset="0" stop-color="#ff7c7c"/><stop offset=".984" stop-color="#ff9e8b"/></linearGradient><linearGradient id="d" gradientTransform="matrix(1 0 0 -1 0 212)" gradientUnits="userSpaceOnUse" x1="33.6029" x2="74.4029" xlink:href="#c" y1="109.9" y2="109.9"/><linearGradient id="e" gradientTransform="matrix(1 0 0 -1 0 212)" gradientUnits="userSpaceOnUse" x1="71.3061" x2="63.0846" y1="111.9314" y2="180.9472"><stop offset="0" stop-color="#1852a0"/><stop offset="1" stop-color="#067ed3"/></linearGradient><linearGradient id="f" gradientTransform="matrix(.9984 -.0562 -.0562 -.9984 19.0186 194.6354)" gradientUnits="userSpaceOnUse" x1="49.1615" x2="94.1603" y1="86.6227" y2="86.6227"><stop offset="0" stop-color="#0e1b6d"/><stop offset="1" stop-color="#0e4095"/></linearGradient><linearGradient id="g" gradientTransform="matrix(1 0 0 -1 0 212)" gradientUnits="userSpaceOnUse" x1="26.9808" x2="26.9808" y1="106.8898" y2="156.7738"><stop offset="0" stop-color="#ffa9a2"/><stop offset=".984" stop-color="#ffc2a9"/></linearGradient><linearGradient id="h"><stop offset="0" stop-color="#2e33a0"/><stop offset="1" stop-color="#0665a5"/></linearGradient><linearGradient id="i" gradientTransform="matrix(1 0 0 -1 0 212)" gradientUnits="userSpaceOnUse" x1="85.3421" x2="84.2153" xlink:href="#h" y1="145.7794" y2="155.2383"/><linearGradient id="j" gradientTransform="matrix(1 0 0 -1 0 212)" gradientUnits="userSpaceOnUse" x1="69.2429" x2="68.1161" xlink:href="#h" y1="145.5728" y2="155.0316"/><linearGradient id="k" gradientTransform="matrix(1 0 0 -1 0 212)" gradientUnits="userSpaceOnUse" x1="52.0421" x2="50.9153" xlink:href="#h" y1="145.1794" y2="154.6382"/><linearGradient id="l" gradientTransform="matrix(1 0 0 -1 0 212)" gradientUnits="userSpaceOnUse" x1="56.4465" x2="55.3197" xlink:href="#h" y1="136.7927" y2="146.2515"/><linearGradient id="m" gradientTransform="matrix(.9999 .0125 .0125 -.9999 -5.465 216.0392)" gradientUnits="userSpaceOnUse" x1="77.1751" x2="76.0484" xlink:href="#h" y1="142.3262" y2="151.7847"/><linearGradient id="n" gradientTransform="matrix(1 .0067 .0067 -1 -2.1774 213.8835)" gradientUnits="userSpaceOnUse" x1="91.1476" x2="90.0207" xlink:href="#h" y1="140.4957" y2="149.955"/><linearGradient id="o" gradientTransform="matrix(1 0 0 -1 0 212)" gradientUnits="userSpaceOnUse" x1="61.9425" x2="60.8157" xlink:href="#h" y1="127.6765" y2="137.1353"/><linearGradient id="p" gradientTransform="matrix(.9999 .0125 .0125 -.9999 -5.465 216.0392)" gradientUnits="userSpaceOnUse" x1="82.7851" x2="81.6584" xlink:href="#h" y1="133.2796" y2="142.738"/><linearGradient id="q" gradientTransform="matrix(1 .0067 .0067 -1 -2.1774 213.8835)" gradientUnits="userSpaceOnUse" x1="96.7041" x2="95.5773" xlink:href="#h" y1="131.4212" y2="140.8804"/><linearGradient id="r"><stop offset="0" stop-color="#7dffcf"/><stop offset="1" stop-color="#47c7f4"/></linearGradient><radialGradient id="s" cx="92.197" cy="135.5612" gradientTransform="matrix(.9995 .0314 .0314 -.9995 -12.583 221.7691)" gradientUnits="userSpaceOnUse" r="7.2442" xlink:href="#r"/><linearGradient id="t"><stop offset="0" stop-color="#7dffcf"/><stop offset="1" stop-color="#6fcaf4"/></linearGradient><linearGradient id="u" gradientTransform="matrix(1 0 0 -1 0 212)" gradientUnits="userSpaceOnUse" x1="75.4" x2="93.0359" xlink:href="#t" y1="124.25" y2="124.25"/><radialGradient id="v" cx="106.1965" cy="133.5479" gradientTransform="matrix(.9997 .0256 .0256 -.9997 -9.3125 219.569)" gradientUnits="userSpaceOnUse" r="7.253" xlink:href="#r"/><linearGradient id="w" gradientTransform="matrix(1 0 0 -1 0 212)" gradientUnits="userSpaceOnUse" x1="91.8494" x2="109.5166" xlink:href="#t" y1="124.65" y2="124.65"/><linearGradient id="x"><stop offset=".0159875" stop-color="#ff9e8b"/><stop offset="1" stop-color="#ff7c7c"/></linearGradient><linearGradient id="y" gradientTransform="matrix(1 0 0 -1 0 212)" gradientUnits="userSpaceOnUse" x1="19.4823" x2="28.0719" xlink:href="#x" y1="152.3369" y2="152.3369"/><linearGradient id="z" gradientTransform="matrix(1 0 0 -1 0 212)" gradientUnits="userSpaceOnUse" x1="17.8853" x2="33.5487" xlink:href="#x" y1="137.75" y2="137.75"/><linearGradient id="A" gradientTransform="matrix(1 0 0 -1 0 212)" gradientUnits="userSpaceOnUse" x1="38.85" x2="38.85" y1="109.6" y2="164.6"><stop offset="0"/><stop offset="1" stop-color="#6a9bff"/></linearGradient><linearGradient id="B"><stop offset="0" stop-color="#7e9598"/><stop offset="1" stop-color="#755cbb"/></linearGradient><linearGradient id="C" gradientTransform="matrix(1 0 0 -1 0 212)" gradientUnits="userSpaceOnUse" x1="72.0116" x2="76.3283" xlink:href="#B" y1="84.6319" y2="84.6319"/><linearGradient id="D" gradientTransform="matrix(1 0 0 -1 0 212)" gradientUnits="userSpaceOnUse" x1="74.5" x2="96.1455" y1="46.95" y2="46.95"><stop offset="0" stop-color="#9d68c2"/><stop offset="1" stop-color="#ccedff"/></linearGradient><linearGradient id="E" gradientTransform="matrix(1 0 0 -1 0 212)" gradientUnits="userSpaceOnUse" x1="117.6598" x2="129.8852" xlink:href="#B" y1="100.35" y2="100.35"/><linearGradient id="F" gradientTransform="matrix(1 0 0 -1 0 212)" gradientUnits="userSpaceOnUse" x1="154.941" x2="154.941" y1="33.899" y2="116.117"><stop offset=".0159875" stop-color="#ffc2a9"/><stop offset="1" stop-color="#ffa9a2"/></linearGradient><linearGradient id="G" gradientTransform="matrix(1 0 0 -1 0 212)" gradientUnits="userSpaceOnUse" x1="137.9" x2="161.6568" xlink:href="#x" y1="111.4676" y2="111.4676"/><linearGradient id="H" gradientTransform="matrix(1 0 0 -1 0 212)" gradientUnits="userSpaceOnUse" x1="130.6483" x2="168.8939" xlink:href="#x" y1="74.7" y2="74.7"/><linearGradient id="I" gradientTransform="matrix(1 0 0 -1 0 212)" gradientUnits="userSpaceOnUse" x1="143.2441" x2="149.1724" xlink:href="#x" y1="81.7484" y2="81.7484"/><linearGradient id="J" gradientTransform="matrix(1 0 0 -1 0 212)" gradientUnits="userSpaceOnUse" x1="165.9781" x2="167.9026" xlink:href="#x" y1="92.996" y2="92.996"/><linearGradient id="K" gradientTransform="matrix(1 0 0 -1 0 212)" gradientUnits="userSpaceOnUse" x1="138.7" x2="159" xlink:href="#c" y1="55.2" y2="55.2"/><linearGradient id="L" gradientTransform="matrix(1 0 0 -1 0 212)" gradientUnits="userSpaceOnUse" x1="117.6598" x2="129.0779" xlink:href="#x" y1="107.802" y2="107.802"/><linearGradient id="M" gradientTransform="matrix(1 0 0 -1 0 212)" gradientUnits="userSpaceOnUse" x1="162.8307" x2="164.9841" xlink:href="#x" y1="74.7" y2="74.7"/><linearGradient id="N" gradientTransform="matrix(1 0 0 -1 0 212)" gradientUnits="userSpaceOnUse" x1="164.9841" x2="167.9026" xlink:href="#x" y1="78.5498" y2="78.5498"/><linearGradient id="O" gradientTransform="matrix(1 0 0 -1 0 212)" gradientUnits="userSpaceOnUse" x1="157.357" x2="166.812" xlink:href="#x" y1="44.95" y2="44.95"/><path d="m205.3 165.5c-3.6 7.1-7.7 11.4-12.2 13.6-6.9 3.5-14.6 2.1-22.6-.9-.2-.1-.5-.2-.7-.3-1.1-.4-2.2-.9-3.3-1.3-12.5-5.3-25.5-13.4-36.7-12.3-5.1.5-10.7 2.6-16.7 5.4-5.4 2.5-11 5.6-17 8.5-1.1.5-2.1 1-3.2 1.6-2.8 1.3-5.6 2.5-8.5 3.7-16.2 6.4-34.2 9.2-53.6-2.7-13.5-8.3-40.6-55.3-9.6-101.7 34.5-51.6 126.6-50.8 153.2-36.1 47.1 26 45.8 92.8 30.9 122.5z" fill="#f3f8ff"/><path d="m52.1 128s11.3-9.4 23.2-4.6c0 .1-8.5 6.7-23.2 4.6z" fill="url(#a)"/><path d="m110.4 169.4s-19.8 13.3-26 12.6c0 0-28.1-54.3-36.6-63.5-8.5-9.1-15.5-11.8-16.6-14.1-1.2-2.3 2.4-19.4 2.4-19.4l.2-.1c.3-.1.7-.3 1.3-.5 3.8-1.4 13.9-5.6 23.8-11.9 12.5-8 20-19.5 23.2-20.4s4.8-.9 5.7.1.7 5.1-1 7.9c0 0 5.9-7 7.5-7.6s5.7-.4 6.7 2.6c1 2.9-3.8 9.8-3.8 9.8s2.3-2.6 4-3 3.4 1.4 3.6 3.5-3 7-3 7 1.8.5 2.4 2.1-5.2 13.2-12.9 21.3c-4.7 4.9-12.3 10.1-17.6 14-3.3 2.5-5.8 4.5-5.9 5.6 0 .4 1 2.1 2.9 4.6 10.9 15 39.7 49.4 39.7 49.4z" fill="url(#b)"/><path d="m67.9 115.3c0 .4 1 2.1 2.9 4.6-4.1-.2-10.5-5.2-10.5-5.2l-13.7-14.6-4.4-1.5c-7-6.4-8.5-13.7-8.5-13.7l.2-.1 1.3-.5 39.3 22.9-.7 2.4c-3.4 2.6-5.8 4.6-5.9 5.7z" fill="url(#d)"/><path d="m19.9 63.3s-2.4-19.1 1.7-27.3c0 0 25.6-1.9 59.7 1.4 0 0 16.6 21 30.1 61.7l-1.8 13.7-52.4 2z" fill="#0848b3"/><path d="m21.6 36s21.4 30.3 38.6 60.4l52.6-1.2s-13.4-32.4-31.6-57.7c0-.1-42-3.9-59.6-1.5z" fill="url(#e)"/><path d="m30.2 77.5s.4-11-1.4-15.3-3.7-5.7-3.7-5.7l.3 14.5z" fill="#0848b3" opacity=".5"/><path d="m89.5 56.5h-1.4l-48.7.1s-7.6-12.3-11.4-17.1c-.4-.5-.7-.9-1-1.2 0 0 23.6-3 53.5 1.8-.1-.1 4.7 7.5 9 16.4z" fill="#2b717a"/><path d="m88.1 56.5-48.7.1s-7.6-12.3-11.4-17.1c6-.6 26.6-2 51.7 1.9 0 0 4.3 6.9 8.4 15.1z" fill="#2bbc7a"/><path d="m63.1 103.7.1 2.2 44.3-1.1.6-1.9c.1 0-31.9-.9-45 .8z" fill="url(#f)"/><path d="m31.6 105.1s-8.5-12.3-12.5-16.4c-3.9-4.2-6.1-7-6.2-8-.2-1 4.5-13.3 5.3-17.9s.9-7 1.2-7.4c.4-.4 3.6-.1 5.1.8s3.2 4.9 3.5 7.9-5.5 12.9-5.5 12.9 2.9 5.6 11 7.6c0 0 1.4 5.5 7.5 13.1 1 8-9.4 7.4-9.4 7.4z" fill="url(#g)"/><path d="m17.9 64.4s-1.2 4.4.3 4.3c1.5 0 3.7-4.4 4.2-7.9z" fill="#ff909a"/><path d="m113.2 169.8c-5.4 2.5-11 5.6-17 8.5-1.1.5-2.1 1-3.2 1.6-2.8 1.3-5.6 2.5-8.5 3.7-5-9.1-15.9-29-17.9-32.1-2.7-4-14.5-23.4-14.5-23.4s8.2 1.6 23.2-4.6c0 0 2.1 4.1 3.9 6.9 1 1.5 21.6 25.2 34 39.4z" fill="#b7c3d2"/><path d="m22.4 60.8-.2 1.1v.1c0 .1-.1.2-.1.3-.6 1.8-1.6 3.7-2.4 4.7-.7.9-1.4 1.3-1.6.5-.1-.4-.2-1.1-.1-1.8.1-2.7 1.1-6.9 1.6-8.8l.3-1c.3 2.3 2.3 4.6 2.5 4.9z" fill="#fed6d1"/><path d="m75.4 59.8 4.2 5.4h14.7l-.2-2.5-3.8-4.6-14-.4z" fill="url(#i)"/><path d="m76.3 57.7 3.8 4.8 14 .2-4-5z" fill="#0e6aa8"/><path d="m79.6 65.2.5-2.7 14 .2.2 2.5z" fill="#5d656d" opacity=".42"/><path d="m59.3 60 4.3 5.4h14.6l-.2-2.5-3.8-4.6-14-.4z" fill="url(#j)"/><path d="m60.2 57.9 3.9 4.8 13.9.2-3.9-5z" fill="#0e6aa8"/><path d="m63.6 65.4.5-2.7 13.9.2.2 2.5z" fill="#5d656d" opacity=".42"/><path d="m42.1 60.4 3.9 5.9 15-.5-.2-2.5-3.8-4.7-14-.3z" fill="url(#k)"/><path d="m43 58.3 3.8 5.1 14-.1-3.9-5z" fill="#0e6aa8"/><path d="m46 66.3.8-2.9 14-.1.2 2.5z" fill="#5d656d" opacity=".42"/><path d="m46.5 68.8 3.9 5.8 15-.5-.2-2.5-3.8-4.6-14-.3z" fill="url(#l)"/><path d="m50.4 74.6.8-3.2 14 .2.2 2.5z" fill="#5d656d" opacity=".42"/><path d="m47.4 66.7 3.6 5.5 14.2-.6-4-5.3z" fill="#0e6aa8"/><path d="m63.6 68.2 3.8 5.9 15-.4-.1-2.5-3.8-4.6-14-.5z" fill="url(#m)"/><path d="m67.4 74.1.9-3.2 14 .3.1 2.5z" fill="#5d656d" opacity=".42"/><path d="m64.5 66.1 3.6 5.5 14.2-.4-4-5.4z" fill="#0e6aa8"/><path d="m80 67.5 3.9 5.9 15-.4-.2-2.5-3.8-4.6-14-.5z" fill="url(#n)"/><path d="m83.9 73.4.8-3.2 14 .3.2 2.5z" fill="#5d656d" opacity=".42"/><path d="m80.9 65.4 3.6 5.6 14.2-.5-4-5.4z" fill="#0e6aa8"/><path d="m52 77.9 3.9 5.9 15-.5-.2-2.5-3.8-4.7-14-.3z" fill="url(#o)"/><path d="m55.9 83.8.9-3.2 13.9.2.2 2.5z" fill="#5d656d" opacity=".42"/><path d="m52.9 75.8 3.7 5.5 14.1-.5-4-5.4z" fill="#0e6aa8"/><path d="m57.1 114.7 3.1-18.3 53.9-1.3-4.6 17.7z" fill="#0848b3" opacity=".5"/><path d="m69.1 77.3 3.8 5.9 15-.3-.1-2.5-3.8-4.7-14-.5z" fill="url(#p)"/><path d="m72.9 83.2.9-3.2 14 .4.1 2.5z" fill="#5d656d" opacity=".42"/><path d="m70 75.2 3.6 5.6 14.2-.4-4-5.5z" fill="#0e6aa8"/><path d="m85.5 76.7 3.9 5.8 15-.4-.2-2.5-3.8-4.6-13.9-.5z" fill="url(#q)"/><path d="m89.4 82.5.9-3.2 13.9.3.2 2.5z" fill="#5d656d" opacity=".42"/><path d="m86.5 74.5 3.6 5.6 14.1-.5-4-5.4z" fill="#0e6aa8"/><path d="m57.4 87.3 3.8 5.9 14.9-.2-.1-2.5-3.7-4.7-14-.6z" fill="#2b7a7a"/><path d="m61.2 93.2.8-3.1 14 .4.1 2.5z" fill="#2bbc7a" opacity=".42"/><path d="m58.3 85.2 3.5 5.6 14.2-.3-3.9-5.4z" fill="#2bbc7a"/><path d="m74.4 87 3.8 6 15-.1-.2-2.5-3.6-4.7-14-.8z" fill="url(#s)"/><path d="m78.2 93 .9-3.2 13.9.6.2 2.5z" fill="#5d656d" opacity=".42"/><path d="m75.4 84.9 3.5 5.7 14.1-.2-3.8-5.5z" fill="url(#u)"/><path d="m90.9 86.7 3.8 5.9 14.9-.1-.1-2.5-3.7-4.7-14-.7z" fill="url(#v)"/><path d="m94.7 92.6.9-3.2 13.9.6.1 2.5z" fill="#5d656d" opacity=".42"/><path d="m91.8 84.6 3.5 5.6 14.2-.2-3.9-5.5z" fill="url(#w)"/><path d="m28.1 64.1s-3.2-1.1-4.4-2.5-4.2-6.2-4.2-6.2c.4-.4 3.6-.1 5.1.8s3.2 4.8 3.5 7.9z" fill="url(#y)" opacity=".2"/><path d="m24 73c2-3.8 4-9 4-9 .3 3-5.5 12.9-5.5 12.9s2.9 5.6 11 7.6l-15.7-4c2.3-.9 3.7-3.4 3.7-3.4s.5-.2 2.5-4.1z" fill="url(#z)" opacity=".2"/><path d="m70.7 120 3.1 4.1s-8.9 4.1-19.5 4.2c7.2-1.7 12.3-3.5 16.4-8.3z" fill="#ec6a6b"/><path d="m19.7 56-.3 1s.3 4.3 2.6 5.3l.3-1.5c.1 0-2-2-2.6-4.8z" fill="#fff" opacity=".82"/><path d="m19.7 67c-.7.9-1.4 1.3-1.6.5-.1-.4-.2-1.1-.1-1.8.3-.2.7-.4 1-.4.6 0 .7.9.7 1.7z" fill="#fff" opacity=".82"/><path d="m42.1 66.6 6.1 35.8-15.1-20.8-3.6-34.2z" fill="url(#A)" opacity=".2"/><path d="m21.6 36 38.6 60.4s-30.6-51.7-38.6-60.4z" fill="#0e86b7"/><path d="m55.8 134.1s16.2.6 23.4-3.7l2.1 3.2s-15.6 1.6-25.5.5z" fill="#b396c7" opacity=".2"/><path d="m72 128.4s1.7-2.3 4.3-2.2c0 .1-.3 3-4.3 2.2z" fill="url(#C)" opacity=".5"/><path d="m74.2 125.3s-.9 0-1.3.8c0 0-.3 3.2 2.9 3.6 0 0 1-1 1.1-1.3z" fill="#28274e"/><path d="m76.3 126.1c.8.9.9 2.1.3 2.6-.6.6-1.8.3-2.6-.6s-.9-2.1-.3-2.6 1.8-.3 2.6.6z" fill="#0848b3"/><path d="m64.5 127.2 49 43.1-34.2-39.7-3.9-6.9s-7.9 2.9-10.9 3.5z" fill="#f1f1f1" opacity=".3"/><path d="m74.5 150.2c.8 1.3 11.5 17.3 21.6 28.1-1.1.5-2.1 1-3.2 1.6z" fill="url(#D)" opacity=".3"/><path d="m22.5 76.9s-1.1 1.6-1.9 2.2l4.1.6s-1.7-1.8-2.2-2.8z" fill="#ec6a6b"/><path d="m150.7 103.2s-2.6 2.6-4.2 7.2c-1.5 4.5-2.6 10.7-2.4 11.3s3.2.9 4.7 0c0 0 .1 2.7.8 3.6s5.9-1.6 6.7-3.4.4-15.1.4-15.1l-.4-5z" fill="#fe9083"/><path d="m107.9 120.7 33.9-18.6c1-.5 1.4-1.7.9-2.7-3.7-7.9-18.8-40.2-26.8-55.1-.5-1-1.7-1.4-2.7-.9-4.9 2.1-19.1 8.6-36.6 18.1-1 .5-1.4 1.8-.9 2.8 4.4 8.5 22.7 43.8 29.3 55.6.6 1 1.9 1.4 2.9.8z" fill="#0848b3"/><path d="m108.7 120.7 33.9-18.6c1-.5 1.4-1.7.9-2.7-3.7-7.9-18.8-40.2-26.8-55.1-.5-1-1.7-1.4-2.7-.9-4.9 2.1-19.1 8.6-36.6 18.1-1 .5-1.4 1.8-.9 2.8 4.4 8.5 22.7 43.8 29.3 55.6.6 1 1.9 1.4 2.9.8z" fill="#0848b3"/><path d="m117.7 115.9v-8.5l12.2 1.3z" fill="url(#E)" opacity=".5"/><path d="m192.1 178.1s-13.6.1-23.2-1.7c0 0-2.4-2.3-6.5-9-1.2-1.9-2.4-3.7-3.4-5.3-1.3-2-2.3-3.4-2.9-3.9-1.7-1.6-11.2-4-17.4-6.9-2.5-1.1-4.4-2.4-5.1-3.7-.3-.5-.6-2.5-.9-5.1-.5-3.3-1-7.7-1.9-11.5-.3-1.3-.7-2.6-1.1-3.7-.3-.9-.7-1.8-1.1-2.6-3.4-6.6-10.5-16.1-10.8-17.7s3.2-5.8 5.5-5.8c1.1 0 3.6 1.8 5.9 4.2 2 2.1 3.8 4.6 4.6 6.8.1.3.2.7.3 1 .2 1.1.4 2.2.5 3.2.4 3.5.5 6.7 1.3 9.2 1 3.3 6.3 8.3 7.5 8.2s7.6-9.3 8.9-14.5 2.5-15.7 2.5-15.7l-.3.1c-1.5.4-9.6 2.1-16.5 1l4.7-2.6c1-.5 1.4-1.7.9-2.7l-.8-1.7h2.3c1.9 0 4.6-.2 7.4-.5 4.7-.5 8.7-1.3 9.2-1.4s1.1 1.5 1.5 4 0 7.1 0 7.1 1.2 2.9 1.9 5.1.7 4.6 1.1 5.6c.4.8 1.9 3.5 2.4 5.2.1.3.2.6.2.9v.8c-.3 4.3-3.1 22.9-1.5 27.8z" fill="url(#F)"/><path d="m173.6 157.8 19.4 21.3c-8 4-17.2 1.6-26.6-2.5 0-3 .4-11.5 7.2-18.8z" fill="#b7c3d2"/><path d="m80.7 59.7 32 58.4 8.3-4.6-32-58.1z" fill="#28274e" opacity=".42"/><path d="m98.2 60.1 24 43.6 6.2-3.4-24-43.5z" fill="#ffe5ba" opacity=".2"/><path d="m161.7 95.9c-5.2 1.4-7 7.8-7 7.8l-.3.1c-1.5.4-9.6 2.1-16.5 1l4.7-2.6c1-.5 1.4-1.7.9-2.7l-.8-1.7h2.3c1.9 0 4.6-.2 7.4-.5 4.7-.5 8.8-1.3 9.3-1.4z" fill="url(#G)" opacity=".2"/><path d="m168.9 123.8c0-.1 0-.2-.1-.4v-.1c0-.1-.1-.2-.1-.3-.6-1.7-2.1-4.4-2.4-5.2-.4-.9-.4-3.3-1.1-5.6-.7-2.2-1.9-5.1-1.9-5.1s-1.1 10.5-.8 11c-.8 1.8-4.2 7.4-4.9 8.5-3.2 4.7-6.6 8.3-8.2 9.2s-6.1-1.9-6.1-1.9c-1.2.1-6.5-4.8-7.5-8.2-.8-2.6-.9-5.7-1.3-9.2s.4 7-.9 10.2-2.9 4.4-2.9 4.4c.9 3.9 1.5 8.3 1.9 11.5.4 2.6.6 4.5.9 5.1 2.6 4.5 20.2 8.3 22.6 10.6.9.9 3.5 4.8 6.3 9.2.1-4.2.8-11.7 5-15-1.6-4.9 1.2-23.6 1.5-27.8 0-.5 0-.8 0-.9z" fill="url(#H)" opacity=".2"/><path d="m143.2 133.9s.9.1 2.4-.8c1.6-.9 3.5-6.5 3.5-6.5s-4.4 6.5-5.9 7.3z" fill="url(#I)"/><path d="m121.6 113.5s1.9 2.1 3.9 1.4c2.1-.7 2.2-3.8 1.3-6.3-.8-2.1-3.6-4.9-3.6-4.9z" fill="#ff909a"/><path d="m126.6 112c-.2.9-.7 1.8-1.5 2.3-.7.4-1.4.3-2 .1-1-.5-1.8-1.4-1.8-1.4-1.3-1.6-2.4-3.6-3-4.8-.4-.7-.6-1.1-.6-1.1 1.1-3.7 4.8-4.3 4.8-4.3s.4.6 1 1.3c1.1 1.5 2.7 3.8 2.9 4.8.3.8.4 2 .2 3.1z" fill="#fec0b9"/><path d="m123.5 104.1c-3.4.6-5.3 4.1-5.3 4.1-.4-.7-.6-1.1-.6-1.1 1.1-3.7 4.8-4.3 4.8-4.3s.5.5 1.1 1.3z" fill="#fff"/><path d="m126.6 112c-.2.9-.7 1.8-1.5 2.3-.7.4-1.4.3-2 .1 0-.6.2-1.4 1.1-2.1.7-.7 1.7-.6 2.4-.3z" fill="#fff"/><path d="m149 105.5s4.2-.2 4.8.9c.6 1.2-2.1 12.3-4.9 15.3 0 0 .2 2.4.8 3.6 0 0 2-3 2.7-7s2.2-14.5 2.2-14.5-3.8 1-5.1 1z" fill="#ec6a6b"/><path d="m163.2 107s.3 9.6 0 10.6c-.3.9-.8.5-.8.5s.7-9.7.8-11.1z" fill="#ec6a6b"/><path d="m166 116.8s.1 3.8.7 4.2 1.2.1 1.2.1-1.7-3-1.9-4.3z" fill="url(#J)" opacity=".2"/><path d="m159 162.2c-1.3-2-2.4-3.4-2.9-3.9-1.7-1.6-11.2-4-17.4-6.9.8.3 6.9 2.4 12.3 2.8 5.7.5 6.4.3 7 .8.5.3 1 7.2 1 7.2z" fill="url(#K)" opacity=".2"/><path d="m142.3 102.3s.7 2.2 4.2 2.7c0 0-5.8.5-8.6-.2z" fill="#ec6a6b"/><path d="m129.1 105.5c-3.3-2.8-6.6-2.7-6.6-2.7-3.4.9-4.8 4.3-4.8 4.3-.3-1.6 3.2-5.8 5.5-5.8 1.1-.1 3.6 1.7 5.9 4.2z" fill="url(#L)"/><path d="m162.9 123.9s-.8 17.3 2.1 26.8c0 0-1.4-20.2-2.1-26.8z" fill="url(#M)" opacity=".2"/><path d="m167.9 123.9s-2.9 11.5-2.9 19.1c0 .1 2.2-16.5 2.9-19.1z" fill="url(#N)" opacity=".2"/><path d="m179.9 165.5s-6.2 4.8-9.4 12.8c-.2-.1-.5-.2-.7-.3 1.1-3.8 3.6-9.1 9.2-14.3z" fill="#b396c7" opacity=".2"/><path d="m157.4 159.8 9.2 14.5s0-1.3.2-2.6c0 0-4.3-3.9-9.4-11.9z" fill="url(#O)" opacity=".2"/><path d="m165 171.7s2-6.4 5.7-10.2c0 0-3.7 6.2-4.2 12.3z" fill="#ec6a6b"/><path d="m134.9 121.2s.2 5.4.7 6.7 7.2 6 7.2 6-5.3-4.4-6.2-6.3-1.7-6.4-1.7-6.4z" fill="#ec6a6b"/><g fill="#fff" opacity=".5"><path d="m74 137.9c.3-.5.4-1.2.1-1.7-.6 0-1.2.2-1.6.6-.4.5-.3 1.2.2 1.6.5.3 1.3-.1 1.2-.7z" opacity=".5"/><path d="m77.5 145.8c.3-.1.5-.3.5-.6-.1 0-.2-.1-.4-.1-.1 0-.2.1-.3.2 0 .2.1.4.2.5z" opacity=".5"/><path d="m78 146.8v.2c-.2-.1-.3-.3-.4-.5 0-.1-.1-.3 0-.3s.2 0 .2-.1c.2 0 .3-.2.4-.2s.1.2.1.2c0 .1-.1.2-.2.2-.1.1-.3.3-.4.4z" opacity=".5"/><path d="m72.6 134c.1-.2-.2-.3-.3-.2s-.2.3-.2.5c.2.1.5 0 .5-.3z" opacity=".5"/><path d="m70.5 151.6c0-.1 0-.2 0-.2 0-.1-.1-.2-.2-.2s-.2.2-.3.2c-.1.1-.3 0-.4.1s0 .3.1.3c.1.1.3.1.4 0 .1 0 .2 0 .3-.1s.1-.2.1-.3z" opacity=".5"/><path d="m66.7 135.7c0 .1-.1.1-.2 0-.1 0-.1-.1-.1-.2v-.1c0-.1.2-.2.3-.1.1 0 .1.2.1.3s-.2.1-.3.1z" opacity=".5"/><path d="m75 145c.1.1.4.1.4-.1-.1-.1-.1-.1-.2-.1s-.2 0-.2.1z" opacity=".5"/><path d="m77.9 147.6c.2 0 .4-.1.5-.3-.1-.1-.3-.2-.4-.2s-.1-.1-.2-.1c-.2 0-.3.2-.2.3s.1.3.3.3z" opacity=".5"/><path d="m68.7 137.1-.1-.1c-.1 0-.1.2-.1.2 0 .1.1.1.2.1s.1-.2 0-.2z" opacity=".5"/><path d="m76.1 145.6c-.1 0-.1.2 0 .3s.2.1.3.2.2.2.2.3 0 .1-.1.2h-.1c-.2 0-.4 0-.6-.1s-.3-.3-.3-.5.1-.3.3-.3c0-.2.2-.1.3-.1z" opacity=".5"/><path d="m79 145.2c.1 0 .2-.2.2-.3s-.1-.2-.3-.3c-.1 0-.1 0-.2 0v.1c.2.2.2.4.3.5z" opacity=".5"/><path d="m75.9 139.5c-.2.2-.6 0-.7-.2.2-.1.4-.2.6-.2s.4.2.4.4c-.1.1-.2.1-.3.2z" opacity=".5"/><path d="m75.4 143.4c0-.1.1-.1.1-.2-.1-.1-.2-.1-.2-.1-.1 0-.2.1-.1.2h.1c.1 0 .2.1.3.1z" opacity=".5"/><path d="m73.6 140.8c0-.1.1-.3.1-.4s-.1-.3-.2-.3-.1 0-.2 0c-.2.1-.3.4-.2.6.1.1.3.2.5.1z" opacity=".5"/><path d="m74.1 139.3c0-.1-.1-.2-.1-.3-.1 0-.2 0-.2.1s.1.3.3.2z" opacity=".5"/><path d="m69.6 133.5c-.3-.5-.7-.9-1.2-1.3-.1-.1-.2-.1-.2-.1-.2 0-.4.1-.5.2-.3.3-.3.8-.1 1.2s.6.6 1.1.7c.2 0 .5 0 .7-.2s.3-.4.1-.6c-.1 0-.1.1-.1.2z" opacity=".5"/><path d="m71.1 151.5c0 .1-.1.1-.2 0-.1 0-.1-.1-.1-.2v-.1c0-.1.2-.2.3-.1.1 0 .1.2.1.3s-.2.1-.3.1z" opacity=".5"/><path d="m77.6 141.7c-.1-.1-.3 0-.4 0-.1.1-.3.1-.4.1l-.1-.1c0-.1.1-.1.2-.2.1 0 .1-.1.2-.2s.4-.2.6-.1c.1.1.1.2 0 .3s-.2.1-.3.1z" opacity=".5"/><path d="m74.4 140c-.1-.1-.3 0-.4 0-.1.1-.3.1-.4.1l-.1-.1c0-.1.1-.1.2-.2.1 0 .1-.1.2-.2s.4-.2.6-.1c.1.1.1.2 0 .3s-.2.1-.3.1z" opacity=".5"/><path d="m73.7 137.4c0-.1-.1-.2-.1-.3h-.1c-.1 0-.1.1-.1.2s.1.2.3.1c-.2.1-.1.1 0 0 0-.1 0-.1 0 0z" opacity=".5"/><path d="m80 160.7v.2c-.2-.1-.3-.3-.4-.5 0-.1-.1-.3 0-.3s.2 0 .2-.1c.2 0 .3-.2.4-.2s.1.2.1.2c0 .1-.1.2-.2.2-.1.1-.3.3-.4.4z" opacity=".5"/><path d="m76.1 141.7c-.1.1.1.2.2.2s.2 0 .3 0 .2 0 .3.1c0 .1.1.1.1.2l-.1.1c-.2.1-.4.3-.6.3s-.5-.1-.6-.3c-.1-.1-.1-.3 0-.4.2-.2.3-.2.4-.2z" opacity=".5"/><path d="m77.5 141.2c-.1.1.1.2.2.2s.2 0 .3 0 .2 0 .3.1c0 .1.1.1.1.2l-.1.1c-.2.1-.4.3-.6.3s-.5-.1-.6-.3c-.1-.1-.1-.3 0-.4.1-.2.3-.2.4-.2z" opacity=".5"/><path d="m77.8 143.4c-.1.1.1.2.2.2s.2 0 .3 0 .2 0 .3.1c0 .1.1.1.1.2l-.1.1c-.2.1-.4.3-.6.3s-.5-.1-.6-.3c-.1-.1-.1-.3 0-.4s.3-.2.4-.2z" opacity=".5"/><path d="m64.2 134.6c-.1.1.1.2.2.2h.3s.2 0 .3.1c0 .1.1.1.1.2l-.1.1c-.2.1-.4.3-.6.3s-.5-.1-.6-.3c-.1-.1-.1-.3 0-.4.1-.2.3-.3.4-.2z" opacity=".5"/><path d="m70.8 153.4c.1-.1.1-.3 0-.4s-.3-.1-.4-.1-.1.1-.1.1 0 .1.1.1c.1.2.2.3.4.3z" opacity=".5"/><path d="m69.3 144c0-.1.1-.3.1-.4s-.1-.3-.2-.3-.1 0-.2 0c-.2.1-.3.4-.2.6 0 .1.3.2.5.1z" opacity=".5"/><path d="m66.1 138.7c0-.1 0-.2 0-.2 0-.1-.1-.2-.2-.2s-.2.2-.3.2c-.1.1-.3 0-.4.1s0 .3.1.3c.1.1.3.1.4 0 .1 0 .2 0 .3-.1s.1-.2.1-.3z" opacity=".5"/><path d="m76.7 144.8c.6-.2 1-.7 1.1-1.3-.5-.4-1.1-.6-1.6-.4-.6.2-1 .8-.8 1.4.2.5 1.1.7 1.4.1z" opacity=".5"/><path d="m79 147.3c-.1-.1-.3.1-.4.2s-.2.2-.4.2c0 0-.1 0-.1-.1s.1-.2.1-.3c.1-.1.1-.1.1-.2.1-.2.3-.3.5-.3.1.1.1.2.1.3s-.1.2-.2.2z" opacity=".5"/><path d="m74.7 145.4c0-.1 0-.1-.1-.2-.1 0-.2.1-.2.1 0 .1 0 .2.1.2.1.1.2 0 .2-.1z" opacity=".5"/><path d="m77 147.6c0 .1-.1.1-.1.1-.1 0-.1-.1-.2-.1l-.1-.1c0-.1 0-.2.1-.3h.3l.1.1s0 .1-.1.1z" opacity=".5"/><path d="m65.2 134.2c.3-.5.4-1.2.1-1.7-.6 0-1.2.2-1.6.6-.4.5-.3 1.2.2 1.6.5.3 1.3-.1 1.2-.7z" opacity=".5"/><path d="m78.2 148.3c0-.6-.2-1.2-.5-1.8 0-.1-.1-.2-.2-.2-.2-.1-.4-.1-.6 0-.4.2-.7.7-.7 1.1 0 .5.3.9.7 1.2.2.1.5.2.7.2.3-.1.5-.3.4-.6-.1 0-.2 0-.2.1z" opacity=".5"/><path d="m74 144.3c.3-.5.4-1.2.1-1.7-.6 0-1.2.2-1.6.6-.4.5-.3 1.2.2 1.6.5.3 1.3-.1 1.2-.7z" opacity=".5"/><path d="m73.2 138.5c.1-.2.2-.5.1-.8-.1 0-.2.1-.3.2s-.2.2-.1.3c-.1.1.1.2.3.3 0-.1-.1 0 0 0z" opacity=".5"/><path d="m71.8 137.1c0-.1 0-.2 0-.2 0-.1-.1-.1-.2-.1-.2-.1-.4-.2-.5-.3.1.3.2.6.3 1v.1c0 .1-.1.1-.2.2s0 .3.1.4c.5.6.5-.7.5-1.1z" opacity=".5"/><path d="m78.9 146.6c0-.1 0-.2-.1-.3-.2.1-.4.2-.3.4 0 .2.3.4.4.2.1-.1.2-.2.3-.1z" opacity=".5"/><path d="m72.1 141.6v.2c-.2-.1-.3-.3-.4-.5 0-.1-.1-.3 0-.3s.2 0 .2-.1c.2 0 .3-.2.4-.2s.1.2.1.2c0 .1-.1.2-.2.2-.1.1-.3.3-.4.4z" opacity=".5"/><path d="m69.1 142.9c.1-.2-.2-.3-.3-.2s-.2.3-.2.5c.2 0 .5-.1.5-.3z" opacity=".5"/><path d="m69.6 139.3c0 .1-.1.1-.2 0-.1 0-.1-.1-.1-.2v-.1c0-.1.2-.2.3-.1.1 0 .1.2.1.3s-.2.1-.3.1z" opacity=".5"/><path d="m70.7 139.3c.2 0 .3-.2.3-.3-.1 0-.2 0-.3 0s-.1.1-.1.2.2.1.1.1z" opacity=".5"/><path d="m74.6 139.7c.2-.1.2-.3.2-.5-.2 0-.3 0-.5.1-.1 0-.2 0-.2.1-.1.1-.1.3 0 .4.1 0 .3 0 .5-.1z" opacity=".5"/><path d="m68.1 141.1c-.1.1-.2.2-.3.1-.1 0-.2-.1-.3-.2 0-.1 0-.2.1-.2h.1c.1.1.3.1.4.3 0-.1 0 0 0 0z" opacity=".5"/><path d="m65.7 140.8c-.1-.1-.3 0-.4 0-.1.1-.3.1-.4.1l-.1-.1c0-.1.1-.1.2-.2.1 0 .1-.1.2-.2s.4-.2.6-.1c.1.1.1.2 0 .3s-.2.1-.3.1z" opacity=".5"/><path d="m65.9 139.4c0-.1 0-.1 0-.2-.1 0-.2 0-.3.1s0 .2.1.2.2 0 .2-.1z" opacity=".5"/><path d="m72 139.2c-.1.1.1.2.2.2s.2 0 .3 0 .2 0 .3.1c0 .1.1.1.1.2l-.1.1c-.2.1-.4.3-.6.3s-.5-.1-.6-.3c-.1-.1-.1-.3 0-.4.1-.2.3-.3.4-.2z" opacity=".5"/><path d="m74.1 137c.1-.1.1-.3 0-.4s-.3-.1-.4-.1-.1.1-.1.1 0 .1.1.1c.1.2.2.3.4.3z" opacity=".5"/><path d="m71.2 144.2c-.2.2-.6 0-.7-.2.2-.1.4-.2.6-.2s.4.2.4.4c-.1.1-.2.1-.3.2z" opacity=".5"/><path d="m70.1 137.8c0-.1 0-.1 0-.2-.1 0-.2 0-.3.1s-.1.2 0 .2h.1c.1 0 .2-.1.2-.1z" opacity=".5"/><path d="m70.6 148.2c0-.1-.1-.2-.1-.3-.1 0-.2 0-.2.1s.1.2.3.2z" opacity=".5"/><path d="m71.5 145.9c0-.1-.1-.2-.1-.3-.1 0-.2 0-.2.1s.1.2.3.2z" opacity=".5"/><path d="m66.7 130.7c.1-.1 0-.2-.1-.3-.1 0-.2 0-.3-.1-.1 0-.2-.1-.3-.2 0-.1 0-.1 0-.2l.1-.1c.2-.1.4-.1.6-.1s.4.2.5.4c0 .2 0 .3-.2.4 0 .2-.2.2-.3.2z" opacity=".5"/><path d="m75.2 142.7c.2.5.5.9.8 1.3.1.1.1.1.2.1.1.1.3 0 .4-.1.3-.2.4-.7.3-1.1s-.5-.6-.8-.7c-.2-.1-.4-.1-.6.1-.2.1-.3.3-.3.4.1.1.2 0 .2 0z" opacity=".5"/><path d="m78.9 142.6c.1 0 .1-.1.2-.1 0-.1 0-.1 0-.2 0-.2 0-.4 0-.6-.2.2-.5.5-.7.7 0 0 0 0-.1.1-.1 0-.2-.1-.3-.1s-.2.1-.3.2c-.3.9.8.2 1.2 0z" opacity=".5"/><path d="m75.3 142.6c0-.1 0-.1 0-.2-.1 0-.2 0-.3 0-.1.1 0 .2 0 .2.2.2.3.2.3 0z" opacity=".5"/><path d="m77.8 141.4c.1 0 .3-.1.3-.2s0-.3-.1-.4c0 0-.1-.1-.2 0v.1c-.1.2-.1.4 0 .5z" opacity=".5"/><path d="m76 141.8c.3 0 .5-.1.7-.3-.1-.1-.2-.2-.3-.2s-.3 0-.3.1c-.2.1-.1.3-.1.4z" opacity=".5"/><path d="m74.8 141.5c0 .1-.1.1-.2.1 0-.2.1-.4.3-.6.1-.1.2-.2.3-.1.1 0 .1.1.2.2s.4.1.4.3c0 .1-.1.2-.2.2s-.2 0-.3 0c-.2-.1-.4-.1-.6-.2z" opacity=".5"/><path d="m77.7 142.7c.2.1.4 0 .6-.1-.1-.1-.2-.3-.3-.4 0-.1-.1-.1-.2-.2s-.3.1-.3.2c-.1.2 0 .4.2.5z" opacity=".5"/><path d="m76.8 140.2c-.1 0-.2.2-.1.3 0 .1.1.2.2.3s.1.2 0 .3c0 .1-.1.1-.1.1h-.1c-.2-.1-.4-.2-.5-.4s-.2-.4-.1-.6c.1-.1.2-.2.4-.2s.3 0 .3.2z" opacity=".5"/><path d="m74.7 147c.1 0 .3-.1.4-.1.1-.1.2-.2.2-.4 0-.1-.1-.1-.1-.2-.2-.1-.5-.1-.6.1-.2.2-.1.5.1.6z" opacity=".5"/><path d="m77.9 146.8c.3 0 .5-.1.7-.3-.1-.1-.2-.2-.3-.2s-.3 0-.3.1c-.1.1 0 .3-.1.4z" opacity=".5"/><path d="m74.4 141.1c-.1-.1-.3-.1-.4 0s-.3.1-.4 0l-.1-.1c0-.1.1-.1.2-.2.1 0 .1-.1.2-.2.2-.1.4-.1.6-.1.1.1.1.2 0 .3s-.2.1-.3.1z" opacity=".5"/><path d="m77 143.8.1-.1c0-.1-.1-.2-.2-.2s-.2 0-.2.1c0 0 0 .1.1.1.1.1.2.1.3.2z" opacity=".5"/><path d="m89.7 167.9c.3-.1.5-.3.5-.6-.1 0-.2-.1-.4-.1-.1 0-.2.1-.3.2 0 .2.2.4.2.5z" opacity=".5"/><path d="m90.2 168.9v.2c-.2-.1-.3-.3-.4-.5 0-.1-.1-.3 0-.3s.2 0 .2-.1c.2 0 .3-.2.4-.2s.1.2.1.2-.1.2-.2.2c-.1.1-.3.3-.4.4z" opacity=".5"/><path d="m82.7 173.7c0-.1 0-.2 0-.2 0-.1-.1-.2-.2-.2s-.2.2-.3.2c-.1.1-.3 0-.4.1s0 .3.1.3c.1.1.3.1.4 0 .1 0 .2 0 .3-.1s.1-.2.1-.3z" opacity=".5"/><path d="m87.3 167.1c.1.1.4.1.4-.1-.1-.1-.1-.1-.2-.1s-.2 0-.2.1c-.1.1 0 .2 0 .1z" opacity=".5"/><path d="m90.1 169.7c.2 0 .4-.1.5-.3-.1-.1-.3-.2-.4-.2s-.1-.1-.2-.1c-.2 0-.3.2-.2.3 0 .2.1.3.3.3z" opacity=".5"/><path d="m88.3 167.8c-.1 0-.1.2 0 .3s.2.1.3.2.2.2.2.3 0 .1-.1.2h-.1c-.2 0-.4 0-.6-.1s-.3-.3-.3-.5.1-.3.3-.3c.1-.2.3-.2.3-.1z" opacity=".5"/><path d="m91.3 167.3c.1 0 .2-.2.2-.3s-.1-.2-.3-.3c-.1 0-.1 0-.2 0v.1c.1.2.2.4.3.5z" opacity=".5"/><path d="m87.6 165.6c0-.1.1-.1.1-.2-.1-.1-.2-.1-.2-.1-.1 0-.2.1-.1.2h.1c.1 0 .2.1.3.1z" opacity=".5"/><path d="m85.9 162.9c0-.1.1-.3.1-.4s-.1-.3-.2-.3-.1 0-.2 0c-.2.1-.3.4-.2.6 0 .1.3.2.5.1z" opacity=".5"/><path d="m83.3 173.6c0 .1-.1.1-.2 0-.1 0-.1-.1-.1-.2v-.1c0-.1.2-.2.3-.1.1 0 .1.2.1.3s-.2.1-.3.1z" opacity=".5"/><path d="m80.9 158.1c-.1-.1-.3 0-.4 0-.1.1-.3.1-.4.1l-.1-.1c0-.1.1-.1.2-.2.1 0 .1-.1.2-.2s.4-.2.6-.1c.1.1.1.2 0 .3s-.2.1-.3.1z" opacity=".5"/><path d="m79.4 158.1c-.1.1.1.2.2.2s.2 0 .3 0 .2 0 .3.1c0 .1.1.1.1.2l-.1.1c-.2.1-.4.3-.6.3s-.5-.1-.6-.3c-.1-.1-.1-.3 0-.4.1-.2.3-.2.4-.2z" opacity=".5"/><path d="m80.7 157.6c-.1.1.1.2.2.2s.2 0 .3 0 .2 0 .3.1c0 .1.1.1.1.2l-.1.1c-.2.1-.4.3-.6.3s-.5-.1-.6-.3c-.1-.1-.1-.3 0-.4.2-.2.3-.2.4-.2z" opacity=".5"/><path d="m81 159.8c-.1.1.1.2.2.2s.2 0 .3 0 .2 0 .3.1c0 .1.1.1.1.2l-.1.1c-.2.1-.4.3-.6.3s-.5-.1-.6-.3c-.1-.1-.1-.3 0-.4.2-.1.3-.2.4-.2z" opacity=".5"/><path d="m83 175.6c.1-.1.1-.3 0-.4s-.3-.1-.4-.1-.1.1-.1.1 0 .1.1.1c.1.1.3.2.4.3z" opacity=".5"/><path d="m81.5 166.1c0-.1.1-.3.1-.4s-.1-.3-.2-.3-.1 0-.2 0c-.2.1-.3.4-.2.6.1.1.3.2.5.1z" opacity=".5"/><path d="m79.9 161.2c.6-.2 1-.7 1.1-1.3-.5-.4-1.1-.6-1.6-.4-.6.2-1 .8-.8 1.4.2.5 1.1.7 1.4.1z" opacity=".5"/><path d="m91.2 169.4c-.1-.1-.3.1-.4.2s-.2.2-.4.2c0 0-.1 0-.1-.1s.1-.2.1-.3c.1-.1.1-.1.1-.2.1-.2.3-.3.5-.3.1.1.1.2.1.3s-.1.2-.2.2z" opacity=".5"/><path d="m87 167.5c0-.1 0-.1-.1-.2-.1 0-.2.1-.2.1 0 .1 0 .2.1.2.1.1.2 0 .2-.1z" opacity=".5"/><path d="m89.3 169.7c0 .1-.1.1-.1.1s-.1-.1-.2-.1l-.1-.1c0-.1 0-.2.1-.3h.3l.1.1s0 .1-.1.1z" opacity=".5"/><path d="m90.5 170.4c0-.6-.2-1.2-.5-1.8 0-.1-.1-.2-.2-.2-.2-.1-.4-.1-.6 0-.4.2-.7.7-.7 1.1 0 .5.3.9.7 1.2.2.1.5.2.7.2.3-.1.5-.3.4-.6-.1 0-.2 0-.2.1z" opacity=".5"/><path d="m86.2 166.4c.3-.5.4-1.2.1-1.7-.6 0-1.2.2-1.6.6-.4.5-.3 1.2.2 1.6.5.3 1.3-.1 1.2-.7z" opacity=".5"/><path d="m91.2 168.8c0-.1 0-.2-.1-.3-.2.1-.4.2-.3.4 0 .2.3.4.4.2.1-.1.2-.2.3-.1z" opacity=".5"/><path d="m84.4 163.8v.2c-.2-.1-.3-.3-.4-.5 0-.1-.1-.3 0-.3s.2 0 .2-.1c.2 0 .3-.2.4-.2s.1.2.1.2c0 .1-.1.2-.2.2-.1.1-.3.3-.4.4z" opacity=".5"/><path d="m81.4 165c.1-.2-.2-.3-.3-.2s-.2.3-.2.5c.2 0 .4 0 .5-.3z" opacity=".5"/><path d="m83.5 166.3c-.2.2-.6 0-.7-.2.2-.1.4-.2.6-.2s.4.2.4.4c-.1.1-.2.1-.3.2z" opacity=".5"/><path d="m82.9 170.3c0-.1-.1-.2-.1-.3-.1 0-.2 0-.2.1s.1.2.3.2z" opacity=".5"/><path d="m83.8 168c0-.1-.1-.2-.1-.3-.1 0-.2 0-.2.1s.1.3.3.2z" opacity=".5"/><path d="m72.6 150.2c.2.5.5.9.8 1.3.1.1.1.1.2.1.1.1.3 0 .4-.1.3-.2.4-.7.3-1.1s-.5-.6-.8-.7c-.2-.1-.4-.1-.6.1-.2.1-.3.3-.3.4.1.1.2 0 .2 0z" opacity=".5"/><path d="m82.1 159c.1 0 .1-.1.2-.1 0-.1 0-.1 0-.2 0-.2 0-.4 0-.6-.2.2-.5.5-.7.7 0 0 0 0-.1.1-.1 0-.2-.1-.3-.1s-.2.1-.3.2c-.2.9.9.1 1.2 0z" opacity=".5"/><path d="m87.6 164.8c0-.1 0-.1 0-.2-.1 0-.2 0-.3 0-.1.1 0 .2 0 .2s.3.1.3 0z" opacity=".5"/><path d="m81 157.8c.1 0 .3-.1.3-.2s0-.3-.1-.4c0 0-.1-.1-.2 0v.1z" opacity=".5"/><path d="m79.2 158.2c.3 0 .5-.1.7-.3-.1-.1-.2-.2-.3-.2s-.3 0-.3.1c-.1.1-.1.3-.1.4z" opacity=".5"/><path d="m87 163.6c0 .1-.1.1-.2.1 0-.2.1-.4.3-.6.1-.1.2-.2.3-.1.1 0 .1.1.2.2s.4.1.4.3c0 .1-.1.2-.2.2s-.2 0-.3 0c-.2-.1-.4-.1-.6-.2z" opacity=".5"/><path d="m80.9 159.1c.2.1.4 0 .6-.1-.1-.1-.2-.3-.3-.4 0-.1-.1-.1-.2-.2s-.3.1-.3.2c0 .2.1.4.2.5z" opacity=".5"/><path d="m80.1 156.6c-.1 0-.2.2-.1.3 0 .1.1.2.2.3s.1.2 0 .3c0 .1-.1.1-.1.1h-.1c-.2-.1-.4-.2-.5-.4s-.2-.4-.1-.6c.1-.1.2-.2.4-.2.1-.1.3 0 .3.2z" opacity=".5"/><path d="m86.9 169.2c.1 0 .3-.1.4-.1.1-.1.2-.2.2-.4 0-.1-.1-.1-.1-.2-.2-.1-.5-.1-.6.1s0 .4.1.6z" opacity=".5"/><path d="m90.2 169c.3 0 .5-.1.7-.3-.1-.1-.2-.2-.3-.2s-.3 0-.3.1c-.1 0-.1.2-.1.4 0-.1 0-.1 0 0z" opacity=".5"/><path d="m86.7 163.3c-.1-.1-.3-.1-.4 0s-.3.1-.4 0l-.1-.1c0-.1.1-.1.2-.2.1 0 .1-.1.2-.2.2-.1.4-.2.6-.1.1.1.1.2 0 .3s-.2.1-.3.1z" opacity=".5"/><path d="m80.2 160.2.1-.1c0-.1-.1-.2-.2-.2s-.2 0-.2.1c0 0 0 .1.1.1.1.1.2.1.3.2z" opacity=".5"/></g><g fill="#b3acff" opacity=".2"><path d="m39.5 67.6c.3-.5.4-1.2.1-1.7-.6 0-1.2.2-1.6.6-.4.5-.3 1.2.2 1.6.5.3 1.3-.1 1.2-.7z" opacity=".5"/><path d="m43 75.6c.3-.1.5-.3.5-.6-.1 0-.2-.1-.4-.1-.1 0-.2.1-.3.2 0 .2.1.3.2.5 0-.1-.1-.1 0 0z" opacity=".5"/><path d="m43.5 76.5v.2c-.2-.1-.3-.3-.4-.5 0-.1-.1-.3 0-.3s.2 0 .2-.1c.2 0 .3-.2.4-.2s.1.2.1.2c0 .1-.1.2-.2.2-.1.1-.3.3-.4.4z" opacity=".5"/><path d="m38.1 63.8c.1-.2-.2-.3-.3-.2s-.2.3-.2.5c.2 0 .5-.1.5-.3z" opacity=".5"/><path d="m36 81.4c0-.1 0-.2 0-.2 0-.1-.1-.2-.2-.2s-.2.2-.3.2c-.1.1-.3 0-.4.1s0 .3.1.3c.1.1.3.1.4 0 .1 0 .2 0 .3-.1s.1-.2.1-.3z" opacity=".5"/><path d="m32.2 65.5c0 .1-.1.1-.2 0-.1 0-.1-.1-.1-.2v-.1c0-.1.2-.2.3-.1.1 0 .1.2 0 .4.1 0-.1 0-.2 0z" opacity=".5"/><path d="m40.5 74.7c.1.1.4.1.4-.1-.1-.1-.1-.1-.2-.1s-.2 0-.2.2c0 0 0 .1 0 0z" opacity=".5"/><path d="m43.4 77.4c.2 0 .4-.1.5-.3-.1-.1-.3-.2-.4-.2s-.1-.1-.2-.1c-.2 0-.3.2-.2.3-.1.1.1.2.3.3z" opacity=".5"/><path d="m34.2 66.8c-.2-.1-.2.1-.2.1 0 .1.1.1.2.1s.1-.1 0-.2z" opacity=".5"/><path d="m41.6 75.4c-.1 0-.1.2 0 .3s.2.1.3.2c.1 0 .1.1.1.2s0 .1-.1.2h-.1c-.2 0-.4 0-.6-.1s-.3-.3-.3-.5.1-.3.3-.3c.1-.1.3-.1.4 0z" opacity=".5"/><path d="m44.5 74.9c.1 0 .2-.2.2-.3s-.1-.2-.3-.3c-.1 0-.1 0-.2 0v.1c.2.3.2.4.3.5z" opacity=".5"/><path d="m41.4 69.2c-.2.2-.6 0-.7-.2.2-.1.4-.2.6-.2s.4.2.4.4c-.1.1-.2.1-.3.2z" opacity=".5"/><path d="m40.9 73.2c0-.1.1-.1.1-.2-.1-.1-.2-.1-.2-.1-.1 0-.2.1-.1.2h.1c.1 0 .2.1.3.1z" opacity=".5"/><path d="m39.1 70.5c0-.1.1-.3.1-.4s-.1-.3-.2-.3-.1 0-.2 0c-.2.1-.3.4-.2.6s.3.2.5.1z" opacity=".5"/><path d="m39.6 69.1c0-.1-.1-.2-.1-.3-.1 0-.2 0-.2.1s.1.2.3.2z" opacity=".5"/><path d="m35.1 63.3c-.3-.5-.7-.9-1.2-1.3-.1-.1-.2-.1-.2-.1-.2 0-.4.1-.5.2-.3.3-.3.8-.1 1.2s.6.6 1.1.7c.2 0 .5 0 .7-.2s.3-.4.1-.6c-.1 0-.1.1-.1.2z" opacity=".5"/><path d="m36.6 81.2c0 .1-.1.1-.2 0-.1 0-.1-.1-.1-.2v-.1c0-.1.2-.2.3-.1.1 0 .1.2 0 .4.1 0-.1 0-.2 0z" opacity=".5"/><path d="m43.1 71.5c-.1-.1-.3 0-.4 0-.1.1-.3.1-.4.1l-.1-.1c0-.1.1-.1.2-.2.1 0 .1-.1.2-.2s.4-.2.6-.1c.1.1.1.2 0 .3s-.2.1-.3.1z" opacity=".5"/><path d="m39.9 69.8c-.1-.1-.3 0-.4 0-.1.1-.3.1-.4.1l-.1-.1c0-.1.1-.1.2-.2.1 0 .1-.1.2-.2s.4-.2.6-.1c.1.1.1.2 0 .3s-.2.1-.3.1z" opacity=".5"/><path d="m39.2 67.1c0-.1-.1-.2-.1-.3h-.1c-.1 0-.1.1-.1.2s.1.2.3.1c-.2.1-.1.1 0 0z" opacity=".5"/><path d="m45.5 90.5v.2c-.2-.1-.3-.3-.4-.5 0-.1-.1-.3 0-.3s.2 0 .2-.1c.2 0 .3-.2.4-.2s.1.2.1.2c0 .1-.1.2-.2.2-.1.1-.3.3-.4.4z" opacity=".5"/><path d="m41.6 71.4c-.1.1.1.2.2.2s.2 0 .3 0 .2 0 .3.1c0 .1.1.1.1.2l-.1.1c-.2.1-.4.3-.6.3s-.5-.1-.6-.3c-.1-.1-.1-.3 0-.4.2-.1.3-.2.4-.2z" opacity=".5"/><path d="m43 71c-.1.1.1.2.2.2h.3s.2 0 .3.1c0 .1.1.1.1.2l-.1.1c-.2.1-.4.3-.6.3s-.5-.1-.6-.3c-.1-.1-.1-.3 0-.4.1-.2.3-.3.4-.2z" opacity=".5"/><path d="m43.3 73.2c-.1.1.1.2.2.2h.3s.2 0 .3.1c0 .1.1.1.1.2l-.1.1c-.2.1-.4.3-.6.3s-.5-.1-.6-.3c-.1-.1-.1-.3 0-.4.1-.2.3-.3.4-.2z" opacity=".5"/><path d="m29.7 64.3c-.1.1.1.2.2.2s.2 0 .3 0 .2 0 .3.1c0 .1.1.1.1.2l-.1.1c-.2.1-.4.3-.6.3s-.5-.1-.6-.3c-.1-.1-.1-.3 0-.4s.3-.2.4-.2z" opacity=".5"/><path d="m36.3 83.2c.1-.1.1-.3 0-.4s-.3-.1-.4-.1-.1.1-.1.1 0 .1.1.1c.1.2.2.3.4.3z" opacity=".5"/><path d="m34.8 73.7c0-.1.1-.3.1-.4s-.1-.3-.2-.3-.1 0-.2 0c-.2.1-.3.4-.2.6 0 .2.3.2.5.1z" opacity=".5"/><path d="m31.6 68.5c0-.1 0-.2 0-.2 0-.1-.1-.2-.2-.2s-.2.2-.3.2c-.1.1-.3 0-.4.1s0 .3.1.3c.1.1.3.1.4 0 .1 0 .2 0 .3-.1s.1-.2.1-.3z" opacity=".5"/><path d="m42.2 74.5c.6-.2 1-.7 1.1-1.3-.5-.4-1.1-.6-1.6-.4-.6.2-1 .8-.8 1.4.2.5 1.1.7 1.4.1z" opacity=".5"/><path d="m44.5 77.1c-.1-.1-.3.1-.4.2s-.2.2-.4.2c0 0-.1 0-.1-.1s.1-.2.1-.3c.1-.1.1-.1.1-.2.1-.2.3-.3.5-.3.1.1.1.2.1.3s-.1.2-.2.2z" opacity=".5"/><path d="m40.2 75.1c0-.1 0-.1-.1-.2-.1 0-.2.1-.2.1 0 .1 0 .2.1.2.1.1.2 0 .2-.1z" opacity=".5"/><path d="m42.5 77.4c0 .1-.1.1 0 0-.2.1-.2 0-.3 0l-.1-.1c0-.1 0-.2.1-.3h.3l.1.1s0 .1-.1.1z" opacity=".5"/><path d="m30.7 63.9c.3-.5.4-1.2.1-1.7-.6 0-1.2.2-1.6.6-.4.5-.3 1.2.2 1.6s1.3-.1 1.2-.7z" opacity=".5"/><path d="m43.7 78.1c0-.6-.2-1.2-.5-1.8 0-.1-.1-.2-.2-.2-.2-.1-.4-.1-.6 0-.4.2-.7.7-.7 1.1 0 .5.3.9.7 1.2.2.1.5.2.7.2.3-.1.5-.3.4-.6-.1 0-.2 0-.2.1z" opacity=".5"/><path d="m39.5 74c.3-.5.4-1.2.1-1.7-.6 0-1.2.2-1.6.6-.4.5-.3 1.2.2 1.6.5.3 1.3-.1 1.2-.7z" opacity=".5"/><path d="m38.7 68.2c.1-.2.2-.5.1-.8-.1 0-.2.1-.3.2s-.2.2-.1.3c-.1.2.1.2.3.3z" opacity=".5"/><path d="m37.3 66.8c0-.1 0-.2 0-.2 0-.1-.1-.1-.2-.1-.2-.1-.4-.2-.5-.3.1.3.2.6.3 1v.1c0 .1-.1.1-.2.2s0 .3.1.4c.5.7.5-.6.5-1.1z" opacity=".5"/><path d="m44.4 76.4c0-.1 0-.2-.1-.3-.2.1-.4.2-.3.4 0 .2.3.4.4.2.1-.1.2-.2.3-.1z" opacity=".5"/><path d="m37.6 71.4v.2c-.2-.1-.3-.3-.4-.5 0-.1-.1-.3 0-.3s.2 0 .2-.1c.2 0 .3-.2.4-.2s.1.2.1.2c0 .1-.1.2-.2.2-.1.1-.3.3-.4.4z" opacity=".5"/><path d="m34.6 72.6c.1-.2-.2-.3-.3-.2s-.2.3-.2.5c.2.1.5 0 .5-.3z" opacity=".5"/><path d="m35.2 69c0 .1-.1.1-.2 0-.1 0-.1-.1-.1-.2v-.1c0-.1.2-.2.3-.1.1 0 .1.2 0 .4.1 0-.1 0-.2 0z" opacity=".5"/><path d="m36.2 69c.2 0 .3-.2.3-.3-.1 0-.2 0-.3 0s-.1.1-.1.2.2.2.1.1z" opacity=".5"/><path d="m40.1 69.4c.2-.1.2-.3.2-.5-.2 0-.3 0-.5.1-.1 0-.2 0-.2.1-.1.1-.1.3 0 .4.1 0 .3 0 .5-.1z" opacity=".5"/><path d="m33.6 70.8c-.1.1-.2.2-.3.1-.1 0-.2-.1-.3-.2 0-.1 0-.2.1-.2h.1c.1.1.3.2.4.3z" opacity=".5"/><path d="m31.2 70.6c-.1-.1-.3 0-.4 0-.1.1-.3.1-.4.1l-.1-.1c0-.1.1-.1.2-.2.1 0 .1-.1.2-.2s.4-.2.6-.1c.1.1.1.2 0 .3s-.2.1-.3.1z" opacity=".5"/><path d="m31.4 69.1c0-.1 0-.1 0-.2-.1 0-.2 0-.3.1s0 .2.1.2c.1.1.2 0 .2-.1z" opacity=".5"/><path d="m37.5 68.9c-.1.1.1.2.2.2h.3s.2 0 .3.1c0 .1.1.1.1.2l-.1.1c-.2.1-.4.3-.6.3s-.5-.1-.6-.3c-.1-.1-.1-.3 0-.4s.3-.2.4-.2z" opacity=".5"/><path d="m39.6 66.8c.1-.1.1-.3 0-.4s-.3-.1-.4-.1-.1.1-.1.1 0 .1.1.1c.1.2.2.3.4.3z" opacity=".5"/><path d="m36.7 73.9c-.2.2-.6 0-.7-.2.2-.1.4-.2.6-.2s.4.2.4.4c-.1.1-.2.1-.3.2z" opacity=".5"/><path d="m35.6 67.6c0-.1 0-.1 0-.2-.1 0-.2 0-.3.1s-.1.2 0 .2h.1c.1 0 .2-.1.2-.1z" opacity=".5"/><path d="m36.1 77.9c0-.1-.1-.2-.1-.3-.1 0-.2 0-.2.1s.1.3.3.2z" opacity=".5"/><path d="m37 75.6c0-.1-.1-.2-.1-.3-.1 0-.2 0-.2.1 0 .2.1.3.3.2z" opacity=".5"/><path d="m32.2 60.4c.1-.1 0-.2-.1-.3-.1 0-.2 0-.3-.1-.1 0-.2-.1-.3-.2 0-.1 0-.1 0-.2l.1-.1c.2-.1.4-.1.6-.1s.4.2.5.4c0 .2 0 .3-.2.4 0 .3-.2.3-.3.2z" opacity=".5"/><path d="m40.7 72.5c.2.5.5.9.8 1.3.1.1.1.1.2.1.1.1.3 0 .4-.1.3-.2.4-.7.3-1.1s-.5-.6-.8-.7c-.2-.1-.4-.1-.6.1-.2 0-.3.3-.3.4.1.1.2 0 .2 0z" opacity=".5"/><path d="m44.4 72.3c.1 0 .1-.1.2-.1 0-.1 0-.1 0-.2 0-.2 0-.4 0-.6-.2.2-.5.5-.7.7 0 0 0 0-.1.1-.1 0-.2-.1-.3-.1s-.2.1-.3.2c-.3 1 .8.2 1.2 0z" opacity=".5"/><path d="m40.8 72.4c0-.1 0-.1 0-.2-.1 0-.2 0-.3 0-.1.1 0 .2 0 .2.2.2.3.1.3 0z" opacity=".5"/><path d="m43.3 71.2c.1 0 .3-.1.3-.2s0-.3-.1-.4c0 0-.1-.1-.2 0v.1c-.1.2-.1.3 0 .5z" opacity=".5"/><path d="m41.5 71.6c.3 0 .5-.1.7-.3-.1-.1-.2-.2-.3-.2s-.3 0-.3.1c-.2 0-.1.2-.1.4z" opacity=".5"/><path d="m40.3 71.3c0 .1-.1.1-.2.1 0-.2.1-.4.3-.6.1-.1.2-.2.3-.1.1 0 .1.1.2.2s.4.1.4.3c0 .1-.1.2-.2.2s-.2 0-.3 0c-.2-.1-.4-.1-.5-.1z" opacity=".5"/><path d="m43.2 72.4c.2.1.4 0 .6-.1-.1-.1-.2-.3-.3-.4 0-.1-.1-.1-.2-.2-.1 0-.3.2-.3.3-.1.2 0 .3.2.4z" opacity=".5"/><path d="m42.4 69.9c-.1 0-.2.2-.1.3 0 .1.1.2.2.3s.1.2 0 .3c0 .1-.1.1-.1.1h-.1c-.2-.1-.4-.2-.5-.4s-.2-.4-.1-.6c.1-.1.2-.2.4-.2.1 0 .2.1.3.2z" opacity=".5"/><path d="m40.2 76.8c.1 0 .3-.1.4-.1.1-.1.2-.2.2-.4 0-.1-.1-.1-.1-.2-.2-.1-.5-.1-.6.1-.2.2-.1.5.1.6z" opacity=".5"/><path d="m43.4 76.6c.3 0 .5-.1.7-.3-.1-.1-.2-.2-.3-.2s-.3 0-.3.1c-.1 0 0 .2-.1.4z" opacity=".5"/><path d="m39.9 70.9c-.1-.1-.3-.1-.4 0s-.3.1-.4 0l-.1-.1c0-.1.1-.1.2-.2.1 0 .1-.1.2-.2.2-.1.4-.1.6-.1.1.1.1.2 0 .3s-.2.1-.3.1z" opacity=".5"/><path d="m42.5 73.6c.1-.2 0-.3-.1-.3s-.2 0-.2.1c0 0 0 .1.1.1.1.1.2.1.2.1z" opacity=".5"/><path d="m55.2 97.7c.3-.1.5-.3.5-.6-.1 0-.2-.1-.4-.1-.1 0-.2.1-.3.2 0 .2.2.3.2.5z" opacity=".5"/><path d="m55.7 98.7v.2c-.2-.1-.3-.3-.4-.5 0-.1-.1-.3 0-.3s.2 0 .2-.1c.2 0 .3-.2.4-.2s.1.2.1.2-.1.2-.2.2c-.1.1-.3.3-.4.4z" opacity=".5"/><path d="m48.2 103.5c0-.1 0-.2 0-.2 0-.1-.1-.2-.2-.2s-.2.2-.3.2c-.1.1-.3 0-.4.1s0 .3.1.3c.1.1.3.1.4 0 .1 0 .2 0 .3-.1s.1-.2.1-.3z" opacity=".5"/><path d="m52.8 96.9c.1.1.4.1.4-.1-.1-.1-.1-.1-.2-.1s-.2 0-.2.2c-.1-.1 0 0 0 0z" opacity=".5"/><path d="m55.6 99.5c.2 0 .4-.1.5-.3-.1-.1-.3-.2-.4-.2s-.1-.1-.2-.1c-.2 0-.3.2-.2.3 0 .2.1.3.3.3z" opacity=".5"/><path d="m53.8 97.5c-.1 0-.1.2 0 .3s.2.1.3.2.2.2.2.3 0 .1-.1.2h-.1c-.2 0-.4 0-.6-.1s-.3-.3-.3-.5.1-.3.3-.3c.1-.2.3-.2.3-.1z" opacity=".5"/><path d="m56.8 97.1c.1 0 .2-.2.2-.3s-.1-.2-.3-.3c-.1 0-.1 0-.2 0v.1c.1.2.2.4.3.5z" opacity=".5"/><path d="m53.1 95.3c0-.1.1-.1.1-.2-.1-.1-.2-.1-.2-.1-.1 0-.2.1-.1.2h.1c.1 0 .2.1.3.1z" opacity=".5"/><path d="m51.4 92.7c0-.1.1-.3.1-.4s-.1-.3-.2-.3-.1 0-.2 0c-.2.1-.3.4-.2.6 0 .1.3.2.5.1z" opacity=".5"/><path d="m48.8 103.4c0 .1-.1.1-.2 0-.1 0-.1-.1-.1-.2v-.1c0-.1.2-.2.3-.1.1 0 .1.2 0 .4.1 0-.1 0-.2 0z" opacity=".5"/><path d="m46.4 87.9c-.1-.1-.3 0-.4 0-.1.1-.3.1-.4.1l-.1-.1c0-.1.1-.1.2-.2.1 0 .1-.1.2-.2s.4-.2.6-.1c.1.1.1.2 0 .3s-.2.1-.3.1z" opacity=".5"/><path d="m44.9 87.8c-.1.1.1.2.2.2h.3s.2 0 .3.1c0 .1.1.1.1.2l-.1.1c-.2.1-.4.3-.6.3s-.5-.1-.6-.3c-.1-.1-.1-.3 0-.4s.3-.2.4-.2z" opacity=".5"/><path d="m46.2 87.4c-.1.1.1.2.2.2h.3s.2 0 .3.1c0 .1.1.1.1.2l-.1.1c-.2.1-.4.3-.6.3s-.5-.1-.6-.3c-.1-.1-.1-.3 0-.4.2-.2.3-.3.4-.2z" opacity=".5"/><path d="m46.5 89.6c-.1.1.1.2.2.2h.3s.2 0 .3.1c0 .1.1.1.1.2l-.1.1c-.2.1-.4.3-.6.3s-.5-.1-.6-.3c-.1-.1-.1-.3 0-.4.2-.2.3-.3.4-.2z" opacity=".5"/><path d="m48.5 105.3c.1-.1.1-.3 0-.4s-.3-.1-.4-.1-.1.1-.1.1 0 .1.1.1c.1.2.3.3.4.3z" opacity=".5"/><path d="m47 95.9c0-.1.1-.3.1-.4s-.1-.3-.2-.3-.1 0-.2 0c-.2.1-.3.4-.2.6.1.1.3.2.5.1z" opacity=".5"/><path d="m45.4 90.9c.6-.2 1-.7 1.1-1.3-.5-.4-1.1-.6-1.6-.4-.6.2-1 .8-.8 1.4.2.5 1.1.7 1.4.1z" opacity=".5"/><path d="m56.7 99.2c-.1-.1-.3.1-.4.2s-.2.2-.4.2c0 0-.1 0-.1-.1s.1-.2.1-.3c.1-.1.1-.1.1-.2.1-.2.3-.3.5-.3.1.1.1.2.1.3s-.1.2-.2.2z" opacity=".5"/><path d="m52.5 97.2c0-.1 0-.1-.1-.2-.1 0-.2.1-.2.1 0 .1 0 .2.1.2.1.2.2.1.2-.1z" opacity=".5"/><path d="m54.8 99.5c0 .1-.1.1 0 0-.2.1-.2 0-.3 0l-.1-.1c0-.1 0-.2.1-.3h.3l.1.1s0 .1-.1.1z" opacity=".5"/><path d="m56 100.2c0-.6-.2-1.2-.5-1.8 0-.1-.1-.2-.2-.2-.2-.1-.4-.1-.6 0-.4.2-.7.7-.7 1.1 0 .5.3.9.7 1.2.2.1.5.2.7.2.3-.1.5-.3.4-.6-.1 0-.2 0-.2.1z" opacity=".5"/><path d="m51.7 96.2c.3-.5.4-1.2.1-1.7-.6 0-1.2.2-1.6.6-.4.5-.3 1.2.2 1.6.5.3 1.3-.1 1.2-.7z" opacity=".5"/><path d="m56.7 98.5c0-.1 0-.2-.1-.3-.2.1-.4.2-.3.4 0 .2.3.4.4.2.1-.1.2-.2.3-.1z" opacity=".5"/><path d="m49.9 93.5v.2c-.2-.1-.3-.3-.4-.5 0-.1-.1-.3 0-.3s.2 0 .2-.1c.2 0 .3-.2.4-.2s.1.2.1.2c0 .1-.1.2-.2.2-.1.1-.3.3-.4.4z" opacity=".5"/><path d="m46.9 94.8c.1-.2-.2-.3-.3-.2s-.2.3-.2.5c.2 0 .4-.1.5-.3z" opacity=".5"/><path d="m49 96.1c-.2.2-.6 0-.7-.2.2-.1.4-.2.6-.2s.4.2.4.4c-.1.1-.2.1-.3.2z" opacity=".5"/><path d="m48.4 100.1c0-.1-.1-.2-.1-.3-.1 0-.2 0-.2.1s.1.2.3.2z" opacity=".5"/><path d="m49.3 97.8c0-.1-.1-.2-.1-.3-.1 0-.2 0-.2.1s.1.2.3.2z" opacity=".5"/><path d="m38.1 80c.2.5.5.9.8 1.3.1.1.1.1.2.1.1.1.3 0 .4-.1.3-.2.4-.7.3-1.1s-.5-.6-.8-.7c-.2-.1-.4-.1-.6.1-.2.1-.3.3-.3.4.1.1.2 0 .2 0z" opacity=".5"/><path d="m47.6 88.7c.1 0 .1-.1.2-.1 0-.1 0-.1 0-.2 0-.2 0-.4 0-.6-.2.2-.5.5-.7.7 0 0 0 0-.1.1-.1 0-.2-.1-.3-.1s-.2.1-.3.2c-.2 1 .9.2 1.2 0z" opacity=".5"/><path d="m53.1 94.5c0-.1 0-.1 0-.2-.1 0-.2 0-.3 0-.1.1 0 .2 0 .2.1.2.3.2.3 0z" opacity=".5"/><path d="m46.5 87.6c.1 0 .3-.1.3-.2s0-.3-.1-.4c0 0-.1-.1-.2 0v.1z" opacity=".5"/><path d="m44.7 88c.3 0 .5-.1.7-.3-.1-.1-.2-.2-.3-.2s-.3 0-.3.1c-.1 0-.1.2-.1.4z" opacity=".5"/><path d="m52.5 93.4c0 .1-.1.1-.2.1 0-.2.1-.4.3-.6.1-.1.2-.2.3-.1.1 0 .1.1.2.2s.4.1.4.3c0 .1-.1.2-.2.2s-.2 0-.3 0c-.2-.1-.4-.1-.5-.1z" opacity=".5"/><path d="m46.4 88.8c.2.1.4 0 .6-.1-.1-.1-.2-.3-.3-.4 0-.1-.1-.1-.2-.2s-.3.1-.3.2c0 .3.1.4.2.5z" opacity=".5"/><path d="m45.6 86.3c-.1 0-.2.2-.1.3 0 .1.1.2.2.3s.1.2 0 .3c0 .1-.1.1-.1.1h-.1c-.2-.1-.4-.2-.5-.4s-.2-.4-.1-.6c.1-.1.2-.2.4-.2.1 0 .3.1.3.2z" opacity=".5"/><path d="m52.4 98.9c.1 0 .3-.1.4-.1.1-.1.2-.2.2-.4 0-.1-.1-.1-.1-.2-.2-.1-.5-.1-.6.1s0 .5.1.6z" opacity=".5"/><path d="m55.7 98.7c.3 0 .5-.1.7-.3-.1-.1-.2-.2-.3-.2s-.3 0-.3.1c-.1.1-.1.3-.1.4z" opacity=".5"/><path d="m52.2 93c-.1-.1-.3-.1-.4 0s-.3.1-.4 0l-.1-.1c0-.1.1-.1.2-.2.1 0 .1-.1.2-.2.2-.1.4-.1.6-.1.1.1.1.2 0 .3-.1.3-.2.3-.3.3z" opacity=".5"/><path d="m45.7 90c.1-.2 0-.3-.1-.3s-.2 0-.2.1c0 0 0 .1.1.1.1.1.2.1.2.1z" opacity=".5"/></g><g fill="#0848b3"><path d="m123.7 46.3c-.8-1.6-2-3-3.4-4.1-.2-.2-.5-.3-.8-.4-.5-.1-1.1.2-1.5.6-1 1-1.1 2.6-.5 3.8s1.9 2.1 3.3 2.3c.7.1 1.6 0 2.2-.4.6-.5.9-1.4.5-2-.2 0-.5.2-.4.5z"/><path d="m118.4 44.8c.1-.7-.1-1.5-.7-2-.7.2-1.3.8-1.5 1.5s.2 1.6 1 1.7c.7.1 1.4-.8 1-1.4z"/><path d="m114.3 39.6c.2-.2.4-.6.3-.9-.2 0-.3 0-.5.1-.1.1-.3.2-.2.4 0 .1.2.2.4.4 0-.1-.1 0 0 0z"/><path d="m115.3 40.5c.1.1.1.2.2.3-.3 0-.5-.2-.6-.4-.1-.1-.2-.3-.1-.4s.2-.1.2-.2c.2-.1.2-.4.4-.4.1 0 .2.1.2.3s0 .2-.1.3c-.1.2-.2.5-.3.7z"/><path d="m108 32.4c0-.2-.4-.2-.5-.1-.1.2-.1.4 0 .6.3 0 .6-.3.5-.5z" opacity=".5"/><path d="m102 37.1c0 .1-.1.2-.2.1-.1 0-.2-.1-.2-.2s-.1-.1-.1-.2.1-.3.3-.3c.1 0 .3.1.2.3 0 .1-.1.3-.3.3z"/><path d="m115.6 41.5c.2-.1.4-.3.5-.6-.2 0-.4-.1-.6-.1-.1 0-.2 0-.3 0-.2.1-.2.3-.1.5 0 .2.2.3.5.2z"/><path d="m104.9 37.8c-.1 0-.1 0-.2 0-.1.1-.1.2 0 .3s.2.1.3 0c0-.1 0-.3-.1-.3z" opacity=".5"/><path d="m115.8 38.1c.2-.1.2-.3.1-.5-.1-.1-.3-.2-.5-.2-.1 0-.2 0-.2.1s0 .1.1.1c.2.3.3.4.5.5z"/><path d="m128.2 53.2c.1 0 .1.1 0 .2s-.1.1-.2.1-.1 0-.2 0-.2-.2-.2-.3.1-.2.2-.3h.2c.1 0 .1.1.2.3z"/><path d="m112.2 37.8c-.1-.1-.1-.2-.2-.3-.1 0-.2.1-.2.2 0 .2.2.3.4.1z"/><path d="m123.7 40.7c-.6-.4-1.2-.8-1.9-.9-.1 0-.2 0-.3 0-.2 0-.4.3-.4.5-.2.5 0 1.1.4 1.5s1 .4 1.6.3c.3-.1.6-.3.7-.5.1-.3.1-.6-.2-.8-.1 0-.1.2-.1.2z"/><path d="m114.5 45.9c.1-.3-.1-.7-.3-.9-.1.1-.2.2-.3.3s-.1.3 0 .4c.1.2.4.1.6.1 0 .1-.1.1 0 .1z"/><path d="m112.2 45c0-.1-.1-.2-.1-.2-.1-.1-.2-.1-.3-.1-.3 0-.5 0-.8-.1.3.3.5.7.8 1 0 0 0 .1.1.1 0 .1-.1.2-.1.3 0 .2.1.3.3.4 1 .6.3-.9.1-1.4z"/><path d="m111.7 43.7c.1-.2.1-.5 0-.7-.2.1-.4.2-.6.3-.1 0-.2.1-.2.2-.1.2 0 .4.2.5.2 0 .4-.1.6-.3z"/><path d="m124.9 55.8c-.1 0-.1 0-.2 0-.1.1-.1.2 0 .3s.2.1.3 0 0-.3-.1-.3z"/><path d="m116.3 43.2c0-.2 0-.4-.1-.5-.1-.2-.3-.3-.4-.3s-.2.1-.2.1c-.2.2-.2.6 0 .7.1.3.5.2.7 0z"/><path d="m110.9 35.7c-.1-.1-.2-.2-.3-.3 0 0 0 0-.1 0 0 0-.1 0-.1.1-.1.1-.1.2 0 .3s.2.2.3.2h.2c0-.1 0-.2 0-.3-.1 0-.1 0 0 0z"/><path d="m120.7 47.8c.1-.3-.1-.7-.3-.9-.1.1-.2.2-.3.3s-.1.3 0 .4c.1.2.4.1.6.1-.1 0-.1.1 0 .1z"/><path d="m118.2 49.8c.2 0 .3-.4.1-.5-.1 0-.2.1-.3.1-.1.1-.1.2 0 .3s.2.1.3 0z"/><path d="m116.4 44.4c.2 0 .3-.4.1-.5-.1 0-.2.1-.3.1-.1.1-.1.2 0 .3s.2.1.3 0z"/><path d="m119.6 49.1c0 .1.2.2.3.2s.2-.2.4-.2c.1-.1.3-.1.4 0 .1 0 .1.1.1.2s0 .1-.1.2c-.1.2-.3.5-.6.6-.2.1-.6.1-.8 0-.1-.1-.2-.3-.2-.5.2-.3.3-.4.5-.5z"/><path d="m99.8 46.9c0 .1.2.2.3.2s.2-.2.4-.2c.1-.1.3-.1.4 0 .1 0 .1.1.1.2s0 .1-.1.2c-.1.2-.3.5-.6.6-.2.1-.6.1-.8 0-.1-.1-.2-.3-.2-.5.2-.4.3-.5.5-.5z"/><path d="m113.1 43.6c0-.1-.1-.1-.1-.2-.1 0-.2.1-.3.2s0 .3.1.2c0 0 .1 0 .1-.1.1-.1.2-.2.3-.3z"/><path d="m119.1 43.4c.2.2 0 .6-.2.6-.1-.1-.2-.2-.3-.3.1-.1.2-.2.5-.3z"/><path d="m98 23.5c0-.1-.1-.2-.1-.3-.1-.1-.2-.1-.3-.1-.2.1-.2.3-.3.4s-.3.1-.4.3.1.3.2.4c.2 0 .3 0 .5-.1.1-.1.3-.2.3-.3.1-.1.1-.3-.1-.4z" opacity=".5"/><path d="m120.5 42.3c-.1.1-.2.1-.3 0s-.1-.2-.1-.3 0-.1.1-.2.3-.1.4 0 .1.3-.1.5c0 0-.2 0-.3-.1z"/><path d="m116.8 40.6c-.2 0-.3.2-.4.4s-.2.4-.3.4h-.1c-.1-.1 0-.2.1-.4 0-.1 0-.2 0-.3 0-.2.2-.5.4-.5.1 0 .2.1.3.4 0 0 0 .2-.1.3z"/><path d="m114.6 41.9c0 .1 0 .2-.1.2s-.2 0-.2 0c-.1 0-.1-.1-.2-.1-.1-.1-.1-.3 0-.4s.2-.1.4-.1c.1 0 .1.1.1.1z"/><path d="m107 27.8c.7 0 1.5-.4 1.8-1.1-.4-.6-1-1.1-1.8-1.2-.7 0-1.5.6-1.5 1.3s1.1 1.2 1.6.7z"/><path d="m116.9 47.4c0-.2-.4-.2-.5-.1-.1.2-.1.4 0 .6.3 0 .6-.3.5-.5z"/><path d="m119.6 40c0-.1-.1-.1-.1-.2-.1 0-.2.1-.2.3 0 .1.1.2.3.2.1 0 .1-.2 0-.3z"/><path d="m116.3 42.2c-.3-.7-.8-1.3-1.4-1.8-.1-.1-.2-.2-.3-.2-.2-.1-.5.1-.7.2-.4.4-.5 1.1-.3 1.7s.8.9 1.4 1c.3.1.7 0 .9-.2.3-.2.4-.6.2-.9-.1 0-.2.1-.2.2z"/><path d="m107 31.1c.1-.7-.1-1.5-.7-2-.7.2-1.3.8-1.5 1.5s.2 1.6 1 1.7c.7.1 1.4-.8 1-1.4z"/><path d="m110.8 37.3c.1-.3-.1-.7-.3-.9-.1.1-.2.2-.3.3s-.1.3 0 .4c.1.2.4.1.6.1-.1.1-.1.1 0 .1z"/><path d="m108.5 36.3c0-.1-.1-.2-.1-.2-.1-.1-.2-.1-.3-.1-.3 0-.5 0-.8-.1.3.3.5.7.8 1 0 0 0 .1.1.1 0 .1-.1.2-.1.3 0 .2.1.3.3.4 1 .6.2-.9.1-1.4z"/><path d="m116.4 39.9c-.1-.1-.1-.2-.2-.3-.2.2-.3.4-.2.7.1.2.5.3.6.1.1-.1.1-.4.3-.3z"/><path d="m100.6 21.7c.1.1.1.2.2.3-.3 0-.5-.2-.6-.4-.1-.1-.2-.3-.1-.4s.2-.1.2-.2c.2-.1.2-.4.4-.4.1 0 .2.1.2.3 0 .1 0 .2-.1.3-.1.2-.2.5-.3.7z"/><path d="m97.8 24.6c0-.2-.4-.2-.5-.1-.1.2-.1.4 0 .6.3 0 .6-.2.5-.5z"/><path d="m107 39.9c0 .1-.1.2-.2.1-.1 0-.2-.1-.2-.2s-.1-.1-.1-.2.1-.3.3-.3c.1 0 .3.1.2.3 0 .1-.1.3-.3.3z" opacity=".5"/><path d="m108.3 39.4c.2 0 .3-.4.1-.5-.1 0-.2.1-.3.1-.1.1-.1.2 0 .3s.2.1.3 0z"/><path d="m106 42.7c0 .1-.1.3-.3.3-.1 0-.3 0-.4-.1s-.1-.2 0-.3h.1c.3 0 .4 0 .6.1z" opacity=".5"/><path d="m103.2 43.6c-.2-.1-.4.1-.5.2s-.3.3-.5.3c-.1 0-.1 0-.1-.1-.1-.1.1-.2.2-.3s.1-.2.1-.3c.1-.2.4-.4.6-.4.1.1.2.2.2.3s-.1.2-.2.3z" opacity=".5"/><path d="m102.7 41.8c0-.1-.1-.1-.1-.2-.1 0-.2.1-.3.2 0 .1.1.2.2.3.1-.1.2-.2.2-.3z" opacity=".5"/><path d="m109.7 38.7c0 .1.2.2.3.2s.2-.2.4-.2c.1-.1.3-.1.4 0 .1 0 .1.1.1.2s0 .1-.1.2c-.1.2-.3.5-.6.6-.2.1-.6.1-.8 0-.1-.1-.2-.3-.2-.5.2-.3.3-.5.5-.5z"/><path d="m111.1 35.2c.1-.2 0-.4-.2-.4-.2-.1-.4 0-.5.1s-.1.1-.1.2l.1.1z"/><path d="m100.8 25.1c-.2.3-.7.3-.9 0 .2-.2.4-.4.6-.5.3-.1.6.1.6.3-.1.1-.2.3-.3.4z"/><path d="m106.9 38c0-.1-.1-.1-.1-.2-.1 0-.2.1-.3.2s0 .3.1.2c0 0 .1 0 .1-.1.1-.1.2-.2.3-.3z" opacity=".5"/><path d="m118.3 44.9c0-.2 0-.4-.1-.5-.1-.2-.3-.3-.4-.3s-.2.1-.2.1c-.2.2-.2.6 0 .7.1.2.5.2.7 0z"/><path d="m108.7 44.9c-.1-.1-.1-.2-.2-.3-.1 0-.2.1-.2.2s.2.2.4.1z"/><path d="m124.5 52.3c0 .1-.1.2-.2.1-.1 0-.2-.1-.2-.2s-.1-.1-.1-.2.1-.3.3-.3c.1 0 .3.1.2.3 0 .1-.1.3-.3.3z"/><path d="m126 51.6c-1.8-.4-3.6-.4-5.4 0-.3.1-.6.2-.8.3-.4.3-.6 1-.5 1.5.1 1.4 1.3 2.5 2.6 2.9 1.3.3 2.8-.1 3.8-1.1.6-.5 1-1.2 1-2s-.5-1.6-1.2-1.7c-.2.2-.1.5.1.6z"/><path d="m134.2 52.5c.1 0 .2 0 .2.1s0 .2-.1.2c0 .1-.1.1-.1.1-.1.1-.3 0-.4 0-.1-.1-.1-.2-.1-.4 0-.1.1-.1.1-.1s.1 0 .2 0z"/><path d="m134.1 56.7c-.1 0-.1.1-.2.1 0 .1.1.2.3.2.1 0 .2-.1.2-.2-.1-.1-.2-.2-.3-.1z"/><path d="m125.2 54.9c-.2-.3-.6-.4-.9-.4 0 .2 0 .3.1.5.1.1.2.3.3.3.2 0 .3-.3.5-.4 0 0 0 .1 0 0z"/><path d="m131.1 54.8c.1.1 0 .2 0 .3s-.2.1-.3.1-.1 0-.2-.1-.1-.3 0-.4.3-.1.4 0 .1.3 0 .4z"/><path d="m102 27c-.1-.1-.1-.2-.2-.3-.1 0-.2.1-.2.2-.1.1.2.2.4.1z"/><path d="m115 43.5v.3s.1.2.2.2c.2 0 .3-.2.4-.3.2-.1.4 0 .5-.2.1-.1 0-.4-.1-.4-.2-.1-.3-.1-.5 0-.1 0-.3.1-.4.2s-.2.3-.1.4z"/><path d="m115.3 40.6c.3-.1.6-.4.7-.7-.1-.1-.3-.1-.4-.1-.2 0-.3.1-.4.2-.1.2.1.4.1.6.1-.1 0-.1 0 0z"/><path d="m111.1 43.6c-.1 0-.1-.1-.2-.1-.1.1-.2.2-.1.3 0 .1.2.2.3.1.1 0 .1-.2 0-.3z"/><path d="m179.8 138s7.1.6 16.5-2.1 21.2-25.4 19.6-28.8c-1.6-3.5-22.2 4.9-28.7 13.8-6.5 8.8-4.9 15.7-4.9 15.7l-2.4.5z"/></g><path d="m183.7 136.7s18.5-23.2 31.3-29.7c0 0-5.7 31.5-31.3 29.7z" fill="#28274e" opacity=".82"/><path d="m186.6 119.5c.5-.2.8-.6.9-1.2-.2-.1-.4-.1-.7-.1-.2 0-.5.2-.5.4-.1.3.2.6.3.9 0-.1-.1-.1-.2-.1z" fill="#0848b3"/><path d="m187.6 121.2c.1.1.1.3.1.5-.4-.1-.6-.5-.7-.9-.1-.2-.1-.5.1-.6.1-.1.3-.1.4-.1.3-.1.6-.5.8-.3.2.1.2.3.2.5-.1.2-.2.3-.3.4-.3.3-.5.5-.8.8z" fill="#0848b3"/><path d="m180.1 103.4c.1-.3-.4-.5-.6-.3-.3.2-.3.5-.4.9.4.1.9-.1 1.2-.4z" fill="#0848b3" opacity=".5"/><path d="m182 118.1c.2.2.7.1.7-.2-.1-.1-.3-.2-.4-.2-.2 0-.4.1-.4.2-.1.2.1.4.2.3z" fill="#0848b3"/><path d="m184 119.2c-.2.1-.1.4 0 .5l.6.3c.2.1.3.3.3.5 0 .1 0 .3-.1.3s-.2.1-.2.1c-.4 0-.8 0-1.2-.2s-.6-.6-.6-1c0-.3.2-.5.5-.7.2 0 .6.1.7.2z" fill="#0848b3"/><path d="m189.5 118.2c.3 0 .4-.3.4-.6-.1-.3-.3-.5-.5-.5-.1 0-.3 0-.3.1s0 .2 0 .2c.1.3.2.6.4.8z" fill="#0848b3"/><path d="m213.6 67.7c-.6-.9-1.3-1.7-2.3-2.3-.1-.1-.3-.2-.5-.2-.3 0-.7.2-.9.4-.5.6-.5 1.6-.1 2.3s1.2 1.1 2.1 1.2c.5 0 .9-.1 1.3-.4.3-.3.5-.9.2-1.2-.1 0-.3.2-.2.3z" fill="#0848b3"/><path d="m182.4 109.6c0-.2-.1-.4-.3-.6 0 0 0-.1-.1-.1s-.1 0-.2 0c-.2.1-.2.3-.2.4 0 .2.1.3.3.4.1 0 .2.1.3 0 .1.1.2 0 .2-.1-.1-.1-.1 0 0 0z" fill="#0848b3"/><path d="m187.1 114.9c-.1.2.1.4.3.4s.4-.1.6-.1.4.1.6.2c.1.1.2.2.1.3 0 .1-.1.1-.2.2-.3.3-.7.5-1.1.6s-.9-.1-1.1-.5c-.1-.3-.1-.6 0-.8.3-.2.5-.3.8-.3z" fill="#0848b3"/><path d="m181.4 118.8c0-.1-.1-.2-.1-.3-.2 0-.4.1-.4.3s.1.4.3.4c.1 0 .2-.2.2-.4z" fill="#0848b3"/><path d="m188.2 124.1c-.1-1.2-.5-2.3-1.1-3.3-.1-.2-.2-.3-.4-.4-.3-.2-.7-.2-1.1 0-.8.4-1.3 1.3-1.2 2.2s.6 1.7 1.4 2.2c.4.2.9.4 1.4.2.5-.1.9-.6.8-1.1-.1-.1-.3 0-.3.2z" fill="#0848b3"/><path d="m181.4 111.8c.3-.4.3-1 .1-1.5-.2.1-.4.2-.6.3-.2.2-.3.4-.2.6.1.3.5.4.8.4-.1.1-.1.1-.1.2z" fill="#0848b3"/><path d="m178.7 109.2c0-.1 0-.3-.1-.4s-.2-.2-.4-.2c-.4-.1-.7-.3-1-.5.2.6.4 1.2.6 1.8v.1c0 .2-.2.2-.3.4-.2.2 0 .5.2.7 1.2 1.4 1-1.1 1-1.9z" fill="#0848b3"/><path d="m183.8 84.5c.3.1.6-.3.5-.6-.2 0-.3 0-.5.1-.1.1-.3.3-.2.4 0 .2.3.2.4.1z" fill="#0848b3"/><path d="m183 109c.2-.2.1-.5-.1-.7s-.5-.2-.7-.1c-.1 0-.2.1-.2.2s.1.1.2.2c.2.2.5.3.8.4z" fill="#0848b3"/><path d="m181.5 121.9c.3-.1.5-.1.8-.3.2-.2.4-.5.3-.7 0-.1-.1-.2-.2-.3-.3-.2-.9-.1-1.1.2-.3.4-.2.9.2 1.1z" fill="#0848b3"/><path d="m185.5 115.8c.1-.1.2-.1.3-.2-.1-.2-.2-.3-.3-.4-.2-.1-.4.1-.3.3 0 .1.1.1.1.1.2.1.3.3.5.4z" fill="#0848b3"/><path d="m185.7 85.5s-.2-1.8-1.3-3.1c-2.3-2.7-6.6-6.6-8.4-11.4-2.6-7.1-2.1-12.7-1.3-13.5s7.2 3.9 10.1 9.8.9 12.8.2 14.7c0 0 1.4 1.5 2.3 1.8l-.5 2.1z" fill="#0848b3"/><path d="m174.7 57.5s7.6 9.2 8.8 14c1.3 4.8 1 8.9 1 8.9s-11.7-6.5-9.8-22.9z" fill="#28274e" opacity=".82"/><path d="m186.9 60.8c-.1-1.1-.4-2.1-.9-3.1-.1-.2-.2-.3-.3-.4-.3-.2-.7-.2-1 0-.8.3-1.2 1.2-1.2 2s.6 1.6 1.3 2c.4.2.9.4 1.3.3s.8-.5.8-1c-.1-.1-.3 0-.3.2z" fill="#0848b3"/><path d="m186.4 50.9c.1-.1.2-.3.1-.4 0-.1-.1-.2-.2-.4-.3-.3-.5-.6-.7-.9-.1.6-.2 1.3-.3 1.9v.1c-.1.1-.3.1-.5.2s-.2.4-.2.7c.4 1.8 1.4-.5 1.8-1.2z" fill="#0848b3"/></svg>