<svg enable-background="new 0 0 231 178.5" viewBox="0 0 231 178.5" xmlns="http://www.w3.org/2000/svg"><path d="m112.2 140.2 31.1-17.9-36.8-21.3-31.8 17.5z" fill="#f9fcf3"/><path d="m74.5 130h-25.1l-28.1-16.2 8.6-5-2.9-1.7 26.3-15.1 16.2 16.5-12.3 7z" fill="#9d90a8"/><path d="m73.5 93.3v26.8l-28.6-16.6v-26.8z" fill="#866061"/><path d="m73.5 78.4v14.9l-28.6-16.6v-14.8z" fill="#866061"/><path d="m73.5 119.1v.4l-28.6-16.6v-.3z" fill="#7a5859"/><path d="m73.5 118.7v.4l-28.6-16.5v-.4z" fill="#8f6667"/><path d="m73.5 116.9v.3l-28.6-16.5v-.4z" fill="#7a5859"/><path d="m73.5 116.4v.5l-28.6-16.6v-.4z" fill="#8f6667"/><path d="m73.5 114.6v.3l-28.6-16.5v-.3z" fill="#7a5859"/><path d="m73.5 114.1v.5l-28.6-16.5v-.5z" fill="#8f6667"/><path d="m73.5 112.3v.3l-28.6-16.5v-.3z" fill="#7a5859"/><path d="m73.5 111.9v.4l-28.6-16.5v-.5z" fill="#8f6667"/><path d="m73.5 110v.4l-28.6-16.6v-.3z" fill="#7a5859"/><path d="m73.5 109.6v.4l-28.6-16.5v-.4z" fill="#8f6667"/><path d="m73.5 107.8v.3l-28.6-16.5v-.3z" fill="#7a5859"/><path d="m73.5 107.3v.5l-28.6-16.5v-.5z" fill="#8f6667"/><path d="m73.5 105.5v.3l-28.6-16.5v-.3z" fill="#7a5859"/><path d="m73.5 105v.5l-28.6-16.5v-.5z" fill="#8f6667"/><path d="m73.5 103.2v.3l-28.6-16.5v-.3z" fill="#7a5859"/><path d="m73.5 102.8v.4l-28.6-16.5v-.4z" fill="#8f6667"/><path d="m73.5 101v.3l-28.6-16.5v-.4z" fill="#7a5859"/><path d="m73.5 100.5v.5l-28.6-16.6v-.4z" fill="#8f6667"/><path d="m73.5 98.7v.3l-28.6-16.5v-.3z" fill="#7a5859"/><path d="m73.5 98.2v.5l-28.6-16.5v-.5z" fill="#8f6667"/><path d="m73.5 96.4v.3l-28.6-16.5v-.3z" fill="#7a5859"/><path d="m73.5 95.9v.5l-28.6-16.5v-.5z" fill="#8f6667"/><path d="m73.5 94.1v.4l-28.6-16.6v-.3z" fill="#7a5859"/><path d="m73.5 93.7v.4l-28.6-16.5v-.4z" fill="#8f6667"/><path d="m73.5 91.9v.3l-28.6-16.5v-.4z" fill="#7a5859"/><path d="m73.5 91.4v.5l-28.6-16.6v-.4z" fill="#8f6667"/><path d="m73.5 89.6v.3l-28.6-16.5v-.3z" fill="#7a5859"/><path d="m73.5 89.1v.5l-28.6-16.5v-.5z" fill="#8f6667"/><path d="m73.5 87.3v.3l-28.6-16.5v-.3z" fill="#7a5859"/><path d="m73.5 86.9v.4l-28.6-16.5v-.5z" fill="#8f6667"/><path d="m73.5 85v.4l-28.6-16.6v-.3z" fill="#7a5859"/><path d="m73.5 84.6v.4l-28.6-16.5v-.4z" fill="#8f6667"/><path d="m73.5 82.8v.3l-28.6-16.5v-.3z" fill="#7a5859"/><path d="m73.5 82.3v.5l-28.6-16.5v-.5z" fill="#8f6667"/><path d="m73.5 80.5v.3l-28.6-16.5v-.3z" fill="#7a5859"/><path d="m73.5 80v.5l-28.6-16.5v-.5z" fill="#8f6667"/><path d="m73.5 78.4v.1l-28.6-16.5v-.1z" fill="#7a5859"/><path d="m137.4 41.6 31.2-18.1v41.7l-31.2 18z" fill="#e3604f"/><path d="m137.4 41.6 31.2-18.1v1.3l-31.2 18z" fill="#897998"/><path d="m71.2 51.2 76.7-44.3 22.2 15.8-97.6 56.3z" fill="#7e4c5d"/><path d="m71.2 51.2 76.7-44.3-6.4-.8-97.7 56.4z" fill="#482933"/><path d="m112 56.2v14.8l-38.5 22.3v-14.9z" fill="#e5dad5"/><path d="m112 69.7v.3l-38.5 22.2v-.3z" fill="#ccbeb8"/><path d="m112 69.2v.5l-38.5 22.2v-.5z" fill="#f2e7e1"/><path d="m112 67.4v.3l-38.5 22.2v-.3z" fill="#ccbeb8"/><path d="m112 67v.4l-38.5 22.2v-.5z" fill="#f2e7e1"/><path d="m112 65.1v.3l-38.5 22.2v-.3z" fill="#ccbeb8"/><path d="m112 64.7v.4l-38.5 22.2v-.4z" fill="#f2e7e1"/><path d="m112 62.9v.3l-38.5 22.2v-.3z" fill="#ccbeb8"/><path d="m112 62.4v.5l-38.5 22.2v-.5z" fill="#f2e7e1"/><path d="m112 60.6v.3l-38.5 22.2v-.3z" fill="#ccbeb8"/><path d="m112 60.1v.5l-38.5 22.2v-.5z" fill="#f2e7e1"/><path d="m112 58.3v.3l-38.5 22.2v-.3z" fill="#ccbeb8"/><path d="m112 57.9v.4l-38.5 22.2v-.5z" fill="#f2e7e1"/><path d="m112 56.2v.1l-38.5 22.2v-.1z" fill="#ccbeb8"/><path d="m73.5 81.5 38.5-22.2v-3.1l-38.5 22.2z" fill="#afa3b9"/><path d="m139.5 40.1-12.7-5.1-12.7 19.7v44.4l25.4-14.7z" fill="#f26654"/><path d="m126.8 35-12.7 19.7v4.1l12.7-19.8 10.6 4.2 1.3-.4.8-2.7z" fill="#897998"/><path d="m126.8 52.1c-3.3 1.9-6 6.5-6 10.3v32.8l12-6.9v-32.8c0-3.8-2.7-5.3-6-3.4z" fill="#801a29"/><path d="m130.7 54.3v30.9l-.9.5-9 5.2v-28.5c0-3.8 2.7-8.4 6-10.3 1.1-.6 2.2-.9 3.1-.8.5.7.8 1.7.8 3z" fill="#fcf4e0"/><path d="m129.3 85.5.5.2-9 5.2v-.5z" fill="#bda195"/><path d="m129.8 51.3c-.9-.1-1.9.2-3.1.8-1.8 1.1-3.5 2.9-4.5 5 .1-.1.2-.1.3-.2 3.3-1.9 6-.4 6 3.4v26.1l1.2-.7.9-.5v-30.9c.1-1.3-.2-2.3-.8-3z" fill="#897998"/><path d="m129.3 69.6v15.9l-8.5 4.9v-15.9z" fill="#c77f5d"/><path d="m126.9 85-5.3 3.1v-13l5.3-3.1z" fill="#748989"/><path d="m126.9 72v13l-.4-.2v-12.5z" fill="#7b444a"/><path d="m126.9 85-5.3 3.1v-.5l4.9-2.8z" fill="#e8a584"/><path d="m129.8 69.4v16.3l-.5-.2v-15.9z" fill="#694c51"/><path d="m129.8 85.7-9 5.2z" fill="#bda195"/><path d="m129.8 55.5v10.8l-9 5.2v-9.1c0-.6.1-1.2.2-1.8z" fill="#748989"/><path d="m129.8 54.6-8.5 4.9c.1-.2.1-.4.2-.6 1-2.8 3-5.5 5.3-6.8.5-.3 1-.5 1.5-.7.9.5 1.5 1.6 1.5 3.2z" fill="#748989"/><path d="m128.3 51.4c.6.6 1.1 1.6 1.1 2.9l-7.9 4.6c-.1.2-.1.4-.2.6l8.5-4.9c0-1.6-.6-2.7-1.5-3.2z" fill="#694c51"/><path d="m135.4 84.8-17.2 9.9 4.7 2.8 17.3-10z" fill="#bda195"/><path d="m140.2 87.5-17.3 10v2l17.3-10z" fill="#895b6b"/><path d="m130.7 85.2 2.1 1.2-12 6.9-2.1-1.2z" fill="#bda195"/><path d="m129.8 55.5v10.8l-.5-.2v-10.4z" fill="#694c51"/><path d="m129.8 66.3-9 5.2v-.5l8.5-4.9z" fill="#f3ebd8"/><path d="m129.8 54.6-8.5 4.9c.1-.2.1-.4.2-.6l7.9-4.6z" fill="#f3ebd8"/><path d="m112 53.5 3.3 1.9 12.7-19.7-14.5-8.4z" fill="#4e303a"/><path d="m137.4 38.9 3.3 1.9-12.7-5.1-14.5-8.4z" fill="#895b6b"/><path d="m47.7 114.6 26.8 15.4v-24.9l-26.8-15.5z" fill="#801a29"/><path d="m72.5 79-1.3-27.8-27.4 11.3z" fill="#4e303a"/><path d="m112 97.9 2.1 1.2v-44.4l-2.1-1.2z" fill="#801a29"/><path d="m123 77v25l-7.4 4.3-2.1-1.2-29 16.7v2.4l-10 5.8v-24.9z" fill="#f26654"/><path d="m74.5 106.1v-1l48.5-28.1v1z" fill="#897998"/><path d="m112 71-38.5 22.2-.5 12.7 50-28.9z" fill="#895b6b"/><path d="m123 77-8.9-5-2.1-1z" fill="#7e4c5d"/><path d="m55.6 82.9 17.9 10.3-.5 12.7-26.8-15.4z" fill="#4e303a"/><path d="m115.6 89.4v16.9l-2.1-1.2-29 16.7v-14.5z" fill="#fcf4e0"/><path d="m115.6 89.4-31.1 17.9v2.2l26.9-15.5v12.3l2.1-1.2v-12.3z" fill="#afa3b9"/><path d="m113.5 105.1 2.1 1.2v-16.9l-2.1 1.2z" fill="#801a29"/><path d="m103 63v9.8l-12.4 7.2v-9.9l5.2-3 .4-.2.4-.2 5.5-3.2.4-.3z" fill="#fcf4e0"/><path d="m104.3 62.2v11.3l-13.7 7.9v-11.3l5.2-3 .4-.2.4-.2 5.5-3.2.4-.3.5-.2z" fill="#fcf4e0"/><path d="m96.2 71.4v4.9l-5.6 3.2v-4.9l5.2-3z" fill="#748989"/><path d="m96.2 66.9v3.8l-5.6 3.2v-3.8l5.2-3z" fill="#748989"/><path d="m102.5 67.7-5.9 3.5v4.8l5.9-3.4z" fill="#748989"/><path d="m102.5 63.2v3.9l-5.9 3.4v-3.8l5.5-3.2z" fill="#748989"/><path d="m104.3 62.2v11.3l-1.3-.7v-9.8z" fill="#866061"/><path d="m104.3 73.5-13.7 7.9v-1.4l12.4-7.2z" fill="#f5f1ef"/><path d="m102.5 67.7v4.9l-.4-.2v-4.4z" fill="#694c51"/><path d="m102.5 72.6-5.9 3.4v-.4l5.5-3.2z" fill="#f3ebd8"/><path d="m102.1 63.5.4-.3v3.9l-.4-.2z" fill="#694c51"/><path d="m102.5 67.1-5.9 3.4v-.5l5.5-3.1z" fill="#f3ebd8"/><path d="m96.2 71.4v4.9l-.4-.3v-4.4z" fill="#694c51"/><path d="m96.2 76.3-5.6 3.2v-.5l5.2-3z" fill="#f3ebd8"/><path d="m95.8 67.1.4-.2v3.8l-.4-.2z" fill="#694c51"/><path d="m96.2 70.7-5.6 3.2v-.4l5.2-3z" fill="#f3ebd8"/><path d="m157.7 31.4v9.8l-12.4 7.2v-9.9l2.2-1.3.4-.2.4-.2 4.8-2.8.4-.2.4-.2 2.9-1.7.4-.2z" fill="#fcf4e0"/><path d="m159 30.7v11.2l-13.7 7.9v-11.3l2.2-1.3.4-.2.4-.2 4.8-2.8.4-.2.4-.2 2.9-1.7.4-.2.5-.3z" fill="#fcf4e0"/><path d="m153.5 38.3-5.2 3v4.9l5.2-3z" fill="#748989"/><path d="m153.5 33.8v3.9l-5.2 3v-3.9l4.8-2.8z" fill="#748989"/><path d="m147.9 41.5v4.9l-2.6 1.5v-4.9z" fill="#748989"/><path d="m147.9 37v3.9l-2.6 1.5v-3.9l2.2-1.3z" fill="#748989"/><path d="m157.2 36.2-3.3 1.9v4.9l3.3-2z" fill="#748989"/><path d="m157.2 31.7v3.8l-3.3 1.9v-3.8l2.9-1.7z" fill="#748989"/><path d="m159 30.7v11.2l-1.3-.7v-9.8z" fill="#801a29"/><path d="m159 41.9-13.7 7.9v-1.4l12.4-7.2z" fill="#f47e6e"/><path d="m157.2 36.2v4.8l-.4-.2v-4.4z" fill="#694c51"/><path d="m157.2 41-3.3 2v-.5l2.9-1.7z" fill="#f3ebd8"/><path d="m157.2 31.7v3.8l-.4-.2v-3.4z" fill="#694c51"/><path d="m157.2 35.5-3.3 1.9v-.4l2.9-1.7z" fill="#f3ebd8"/><path d="m153.5 38.3v4.9l-.4-.2v-4.5z" fill="#694c51"/><path d="m153.5 43.2-5.2 3v-.5l4.8-2.7z" fill="#f3ebd8"/><path d="m153.1 34 .4-.2v3.9l-.4-.3z" fill="#694c51"/><path d="m153.5 37.7-5.2 3v-.5l4.8-2.8z" fill="#f3ebd8"/><path d="m147.9 41.5v4.9l-.4-.2v-4.4z" fill="#694c51"/><path d="m147.9 46.4-2.6 1.5v-.5l2.2-1.2z" fill="#f3ebd8"/><path d="m147.5 37.2.4-.2v3.9l-.4-.3z" fill="#694c51"/><path d="m147.9 40.9-2.6 1.5v-.5l2.2-1.3z" fill="#f3ebd8"/><path d="m159 41.9-1.3-.7v-9.8l-9.4 5.4-.4.2v1.5l.4-.2v.7l4.8-2.8v-2.2l.4-.2v1.5l.4-.2v.7l1.6-.9v1.1h.8v.7l-2.4 1.4v.6l1.8-.9v3.7h.8v.4z" fill="#897998"/><path d="m145.3 40.7 1.8-1v1.2h.8l-.4-.3v-2.1-1.2l.2-.2-2.4 1.4z" fill="#897998"/><path d="m147.7 37.1.2-.1z" fill="#897998"/><path d="m153.5 43.2h-.8v-3.7l-4.4 2.5v-.7l4.8-2.8v4.5z" fill="#897998"/><path d="m147.9 46.4h-.8v-3.7l-1.8 1v-.7l2.2-1.2v4.4z" fill="#897998"/><path d="m115.3 55.4 12.7-19.7v1l-12.2 19z" fill="#70485a"/><path d="m140.7 40.8-12.7-5.1v1l12.3 4.9z" fill="#70485a"/><g fill="#897998"><path d="m113.5 27.3-4.7 26.5 1.2 3.6 2-1.2v-2.7z"/><path d="m132.8 86.4h-4.2l2.1-1.2z"/><path d="m128.6 86.4h-.9v-15.1l-6.9 4.1v-.9l8.5-4.9v15.9l-.7.4z"/><path d="m129.8 66.3-1.2.7h-.9v-9.8l-6.8 4c0-.2.1-.4.1-.7l8.4-4.8v10.3z"/><path d="m129.8 54.6-3.1 1.8h-.8s-1-1.3-2.7 0c-.4.3-.8.7-1 1 1.1-2.2 2.8-4.2 4.7-5.3.5-.3 1-.5 1.4-.6s.6.3.9.9.2 2 .2 2z"/><path d="m126.9 85h-.8v-11.9l-4.5 2.6v-.6l4.9-2.8v12.5l.4.4z"/><path d="m104.3 73.5h-2.5v-.4h-.9v-3.7l-4.3 2.4v-.6l5-2.9v-.7h-.8v-1.1l-4.2 2.4v-.8l-.4.3v-1.5l-.4.2v2.2l-5.2 2.9v-2.1l12.4-7.1v9.8z"/><path d="m96.2 76.3h-.8v-3.7l-4.8 2.7v-.7l5.2-3v4.4z"/></g><path d="m157.7 52.6v9.8l-12.4 7.2v-9.9l2.2-1.3.4-.2.4-.2 4.8-2.8.4-.2.4-.2 2.9-1.7.4-.3z" fill="#fcf4e0"/><path d="m159 51.8v11.3l-13.7 7.9v-11.3l2.2-1.3.4-.2.4-.2 4.8-2.8.4-.2.4-.2 2.9-1.7.4-.3.5-.2z" fill="#fcf4e0"/><path d="m153.5 59.5-5.2 3v4.9l5.2-3z" fill="#748989"/><path d="m153.5 55v3.8l-5.2 3.1v-3.9l4.8-2.8z" fill="#748989"/><path d="m147.9 62.7v4.9l-2.6 1.5v-4.9z" fill="#748989"/><path d="m147.9 58.2v3.9l-2.6 1.5v-3.9l2.2-1.3z" fill="#748989"/><path d="m157.2 57.4-3.3 1.9v4.9l3.3-2z" fill="#748989"/><path d="m157.2 52.8v3.9l-3.3 1.9v-3.8l2.9-1.7z" fill="#748989"/><path d="m159 51.8v11.3l-1.3-.7v-9.8z" fill="#801a29"/><path d="m159 63.1-13.7 7.9v-1.4l12.4-7.2z" fill="#f47e6e"/><path d="m157.2 57.4v4.8l-.4-.2v-4.4z" fill="#694c51"/><path d="m157.2 62.2-3.3 2v-.5l2.9-1.7z" fill="#f3ebd8"/><path d="m157.2 52.8v3.9l-.4-.2v-3.4z" fill="#694c51"/><path d="m157.2 56.7-3.3 1.9v-.4l2.9-1.7z" fill="#f3ebd8"/><path d="m153.5 59.5v4.9l-.4-.3v-4.4z" fill="#694c51"/><path d="m153.5 64.4-5.2 3v-.5l4.8-2.8z" fill="#f3ebd8"/><path d="m153.1 55.2.4-.2v3.8l-.4-.2z" fill="#694c51"/><path d="m153.5 58.8-5.2 3.1v-.5l4.8-2.8z" fill="#f3ebd8"/><path d="m147.9 62.7v4.9l-.4-.2v-4.4z" fill="#694c51"/><path d="m147.9 67.6-2.6 1.5v-.5l2.2-1.2z" fill="#f3ebd8"/><path d="m147.5 58.4.4-.2v3.9l-.4-.3z" fill="#694c51"/><path d="m147.9 62.1-2.6 1.5v-.5l2.2-1.3z" fill="#f3ebd8"/><path d="m159 63.1-1.3-.7v-9.8l-9.4 5.4-.4.2v1.5l.4-.2v.7l4.8-2.8v-2.2l.4-.2v1.5l.4-.3v.8l1.6-.9v1.1h.8v.7l-2.4 1.4v.6l1.8-.9v3.7h.8v.4z" fill="#897998"/><path d="m145.3 61.9 1.8-1.1v1.3h.8l-.4-.3v-2.2-1.2l.2-.1-2.4 1.4z" fill="#897998"/><path d="m147.7 58.3.2-.1z" fill="#897998"/><path d="m153.5 64.4h-.8v-3.7l-4.4 2.5v-.7l4.8-2.8v4.4z" fill="#897998"/><path d="m147.9 67.6h-.8v-3.7l-1.8 1v-.7l2.2-1.2v4.4z" fill="#897998"/><path d="m101 107.7v3.5l-10.2 5.9v-3.5l9.9-5.7z" fill="#f2ebd7"/><path d="m101 107.7v3.5l-.3-.2v-3.1z" fill="#b5ada9"/><path d="m101 111.2-10.2 5.9v-.4l9.9-5.7z" fill="#fcf4e0"/><path d="m100.7 108.4v-.5l-.4.2-9.5 5.5v.5l9.5-5.5v2.6h.7l-.3-.2z" fill="#afa3b9"/><path d="m89.7 114.2v3.6l-5.2 2.9v-3.5l4.8-2.8z" fill="#f2ebd7"/><path d="m89.7 114.2v3.6l-.4-.2v-3.2z" fill="#b5ada9"/><path d="m89.7 117.8-5.2 2.9v-.4l4.8-2.7z" fill="#fcf4e0"/><path d="m89.3 115v-.6l-.3.2-4.5 2.6v.5l4.5-2.5v2.6h.7l-.4-.2z" fill="#afa3b9"/><path d="m112.4 101.1v3.6l-10.3 5.9v-3.6l9.9-5.7z" fill="#f2ebd7"/><path d="m112.4 101.1v3.6l-.4-.2v-3.2z" fill="#b5ada9"/><path d="m112.4 104.7-10.3 5.9v-.4l9.9-5.7z" fill="#fcf4e0"/><path d="m112 101.9v-.6l-.4.2-9.5 5.5v.6l8.6-5v2.6h.7l1-.5-.4-.2z" fill="#afa3b9"/><path d="m101 103.1v3.6l-10.2 5.9v-3.6l9.9-5.7z" fill="#f2ebd7"/><path d="m101 103.1v3.6l-.3-.2v-3.2z" fill="#b5ada9"/><path d="m101 106.7-10.2 5.9v-.4l9.9-5.7z" fill="#fcf4e0"/><path d="m100.7 103.9v-.6l-.4.2-9.5 5.5v.6l9.5-5.5v2.6h.7l-.3-.2z" fill="#afa3b9"/><path d="m89.7 109.7v3.5l-5.2 3v-3.6l4.8-2.7z" fill="#f2ebd7"/><path d="m89.7 109.7v3.5l-.4-.2v-3.1z" fill="#b5ada9"/><path d="m89.7 113.2-5.2 3v-.4l4.8-2.8z" fill="#fcf4e0"/><path d="m89.3 110.4v-.5l-.3.2-4.5 2.5v.6l4.5-2.6v2.6h.7l-.4-.2z" fill="#afa3b9"/><path d="m112.4 96.6v3.5l-10.3 6v-3.6l9.9-5.7z" fill="#f2ebd7"/><path d="m112.4 96.6v3.5l-.4-.2v-3.1z" fill="#b5ada9"/><path d="m112.4 100.1-10.3 6v-.5l9.9-5.7z" fill="#fcf4e0"/><path d="m112 97.3v-.5l-.4.2-9.5 5.5v.6l8.6-5v2.6h.7l1-.6-.4-.2z" fill="#afa3b9"/><path d="m101 98.6v3.6l-10.2 5.9v-3.6l9.9-5.7z" fill="#f2ebd7"/><path d="m101 98.6v3.6l-.3-.3v-3.1z" fill="#b5ada9"/><path d="m101 102.2-10.2 5.9v-.5l9.9-5.7z" fill="#fcf4e0"/><path d="m100.7 99.4v-.6l-.4.2-9.5 5.5v2.2l9.5-5.5v1h.7l-.3-.3z" fill="#afa3b9"/><path d="m89.7 105.1v3.6l-5.2 3v-3.6l4.8-2.8z" fill="#f2ebd7"/><path d="m89.7 105.1v3.6l-.4-.2v-3.2z" fill="#b5ada9"/><path d="m89.7 108.7-5.2 3v-.5l4.8-2.7z" fill="#fcf4e0"/><path d="m89.3 105.9v-.6l-.3.3-4.5 2.5v2.2l4.5-2.6v1h.7l-.4-.2z" fill="#afa3b9"/><path d="m112.4 92v3.6l-10.3 5.9v-3.5l9.9-5.7z" fill="#f2ebd7"/><path d="m112.4 92v3.6l-.4-.2v-3.1z" fill="#b5ada9"/><path d="m112.4 95.6-10.3 5.9v-.4l9.9-5.7z" fill="#fcf4e0"/><path d="m112 92.8v-.5l-.4.2-9.5 5.5v2.2l8.6-5v1h.7l1-.6-.4-.2z" fill="#afa3b9"/><path d="m75.6 108.6v1.6l3.3-1.9v-1.6z" fill="#f36654"/><path d="m75.4 108.5-.2.3v1.9l3.4-2 .1-.3-3.1 1.8h-.2z" fill="#c5a4ac"/><path d="m75.4 108.5.2.1 3.3-1.9-.2-.1z" fill="#f47564"/><path d="m75.4 110.2v-1.7l.2.1v1.6z" fill="#a63333"/><path d="m118.9 85.3v1.6l3.3-1.9v-1.6z" fill="#f36654"/><path d="m118.8 85.2-.2.3v1.8l3.3-1.9.2-.3-3.2 1.8-.1-.1z" fill="#c5a4ac"/><path d="m118.8 85.2.1.1 3.3-1.9-.1-.1z" fill="#f47564"/><path d="m118.8 86.8v-1.6l.1.1v1.6z" fill="#a63333"/><path d="m117.6 88.4v1.6l3.4-1.9v-1.7z" fill="#f36654"/><path d="m117.5 88.3-.2.2v1.9l3.4-2 .1-.3-3.2 1.9-.1-.1z" fill="#c5a4ac"/><path d="m117.5 88.3.1.1 3.4-2h-.2z" fill="#f47564"/><path d="m117.5 89.9v-1.6l.1.1v1.6z" fill="#a63333"/><path d="m135.5 70.1v1.6l3.3-1.9v-1.6z" fill="#f36654"/><path d="m135.4 70-.2.3v1.8l3.3-2 .2-.3-3.2 1.9-.1-.1z" fill="#c5a4ac"/><path d="m135.4 70 .1.1 3.3-1.9-.1-.1z" fill="#f47564"/><path d="m135.4 71.6v-1.6l.1.1v1.6z" fill="#a63333"/><path d="m117.8 58.6v1.6l3.3-1.9v-1.6z" fill="#f36654"/><path d="m117.6 58.5-.2.3v1.8l3.4-1.9.1-.3-3.1 1.8-.2-.1z" fill="#c5a4ac"/><path d="m117.6 58.5.2.1 3.3-1.9-.2-.1z" fill="#f47564"/><path d="m117.6 60.1v-1.6l.2.1v1.6z" fill="#a63333"/><path d="m129.2 43.7v1.6l3.3-1.9v-1.6z" fill="#f36654"/><path d="m129 43.6-.2.3v1.8l3.4-1.9.2-.3-3.2 1.8-.2-.1z" fill="#c5a4ac"/><path d="m129 43.6.2.1 3.3-1.9-.1-.1z" fill="#f47564"/><path d="m129 45.2v-1.6l.2.1v1.6z" fill="#a63333"/><path d="m127.1 42.7v1.6l3.3-1.9v-1.7z" fill="#f36654"/><path d="m126.9 42.6-.2.2v1.9l3.4-2 .2-.3-3.2 1.9-.2-.1z" fill="#c5a4ac"/><path d="m126.9 42.6.2.1 3.3-2h-.1z" fill="#f47564"/><path d="m126.9 44.2v-1.6l.2.1v1.6z" fill="#a63333"/><path d="m134.2 73.1v1.6l3.3-1.9v-1.6z" fill="#f36654"/><path d="m134.1 73.1-.2.2v1.9l3.3-2 .2-.3-3.2 1.8h-.1z" fill="#c5a4ac"/><path d="m134.1 73.1h.1l3.3-1.9-.1-.1z" fill="#f47564"/><path d="m134.1 74.7v-1.6h.1v1.6z" fill="#a63333"/><path d="m164 60.9v1.6l3.3-1.9v-1.6z" fill="#f36654"/><path d="m163.8 60.9-.2.2v1.9l3.4-2 .2-.3-3.2 1.8h-.2z" fill="#c5a4ac"/><path d="m163.8 60.9h.2l3.3-1.9h-.1z" fill="#f47564"/><path d="m163.8 62.5v-1.6h.2v1.6z" fill="#a63333"/><path d="m146.8 73.9v1.6l3.3-1.9v-1.6z" fill="#f36654"/><path d="m146.7 73.8-.2.3v1.9l3.3-2 .2-.3-3.2 1.8-.1-.1z" fill="#c5a4ac"/><path d="m146.7 73.8.1.1 3.3-1.9-.1-.1z" fill="#f47564"/><path d="m146.7 75.4v-1.6l.1.1v1.6z" fill="#a63333"/><path d="m164.1 31.3v1.6l3.3-1.9v-1.6z" fill="#f36654"/><path d="m164 31.3-.3.2v1.9l3.4-2 .2-.3-3.2 1.8h-.1z" fill="#c5a4ac"/><path d="m164 31.3h.1l3.3-1.9h-.1z" fill="#f47564"/><path d="m164 32.9v-1.6h.1v1.6z" fill="#a63333"/><path d="m158.7 48.9v1.6l3.3-1.9v-1.6z" fill="#f36654"/><path d="m158.5 48.8-.2.3v1.8l3.4-2 .2-.3-3.2 1.9-.2-.1z" fill="#c5a4ac"/><path d="m158.5 48.8.2.1 3.3-1.9-.1-.1z" fill="#f47564"/><path d="m158.5 50.4v-1.6l.2.1v1.6z" fill="#a63333"/><path d="m142 52.5v1.6l3.3-1.9v-1.6z" fill="#f36654"/><path d="m141.9 52.5-.2.2v1.9l3.3-2 .2-.3-3.2 1.8h-.1z" fill="#c5a4ac"/><path d="m141.9 52.5h.1l3.3-1.9-.1-.1z" fill="#f47564"/><path d="m141.9 54.1v-1.6h.1v1.6z" fill="#a63333"/><path d="m143.7 53.7v1.6l3.3-1.9v-1.6z" fill="#f36654"/><path d="m143.6 53.6-.2.3v1.8l3.3-1.9.2-.3-3.2 1.8-.1-.1z" fill="#c5a4ac"/><path d="m143.6 53.6.1.1 3.3-1.9-.1-.1z" fill="#f47564"/><path d="m143.6 55.2v-1.6l.1.1v1.6z" fill="#a63333"/><path d="m162.7 64v1.6l3.3-1.9v-1.6z" fill="#f36654"/><path d="m162.6 63.9-.2.3v1.9l3.3-2 .2-.3-3.2 1.8-.1-.1z" fill="#c5a4ac"/><path d="m162.6 63.9.1.1 3.3-1.9-.1-.1z" fill="#f47564"/><path d="m162.6 65.5v-1.6l.1.1v1.6z" fill="#a63333"/><path d="m95.7 96.2v1.6l3.3-1.9v-1.6z" fill="#f36654"/><path d="m95.5 96.1-.2.3v1.8l3.4-2 .1-.3-3.1 1.9-.2-.1z" fill="#c5a4ac"/><path d="m95.5 96.1.2.1 3.3-1.9-.2-.1z" fill="#f47564"/><path d="m95.5 97.7v-1.6l.2.1v1.6z" fill="#a63333"/><path d="m80.6 123.3v1.6l3.4-1.9v-1.6z" fill="#f36654"/><path d="m80.5 123.2-.2.3v1.8l3.4-1.9.1-.3-3.2 1.8-.1-.1z" fill="#c5a4ac"/><path d="m80.5 123.2.1.1 3.4-1.9-.2-.1z" fill="#f47564"/><path d="m80.5 124.8v-1.6l.1.1v1.6z" fill="#a63333"/><path d="m78.8 122.1v1.6l3.3-2v-1.6z" fill="#f36654"/><path d="m78.7 122-.2.2v1.9l3.3-2 .2-.3-3.2 1.9-.1-.1z" fill="#c5a4ac"/><path d="m78.7 122 .1.1 3.3-2h-.1z" fill="#f47564"/><path d="m78.7 123.6v-1.6l.1.1v1.6z" fill="#a63333"/><path d="m73.1 110.1v1.6l-3.3-1.9v-1.6z" fill="#7a1927"/><path d="m73.2 110-.1.1-3.3-1.9.1-.1z" fill="#a63333"/><path d="m73.2 111.6v-1.6l-.1.1v1.6z" fill="#912727"/><path d="m65.4 118.5v1.6l-3.3-1.9v-1.6z" fill="#7a1927"/><path d="m65.5 118.5h-.1l-3.3-1.9.1-.1z" fill="#a63333"/><path d="m65.5 120.1v-1.6h-.1v1.6z" fill="#912727"/><path d="m63.9 115.7v1.6l-3.3-1.9v-1.6z" fill="#7a1927"/><path d="m64 115.6-.1.1-3.3-1.9.1-.1z" fill="#a63333"/><path d="m64 117.3v-1.7l-.1.1v1.6z" fill="#912727"/><path d="m67.5 117.9v1.6l-3.3-1.9v-1.7z" fill="#7a1927"/><path d="m67.7 117.8-.2.1-3.3-2h.2z" fill="#a63333"/><path d="m67.7 119.4v-1.6l-.2.1v1.6z" fill="#912727"/><path d="m58.9 100.3v1.6l-3.3-1.9v-1.6z" fill="#7a1927"/><path d="m59 100.3h-.1l-3.3-1.9.1-.1z" fill="#a63333"/><path d="m59 101.9v-1.6h-.1v1.6z" fill="#912727"/><path d="m136.3 112.8 4.9-2.8v-3.9l-4.9 2.8z" fill="#e6dbd6"/><path d="m136.3 112.8-12.3-7v-3.9l12.3 7z" fill="#8b8b8b"/><path d="m136.3 112.8h-5.3l-11.4-6.2 4.4-2.6v1.8z" fill="#9d90a8"/><path d="m128.9 99.1-4.9 2.8 12.3 7 4.9-2.8z" fill="#efefef"/><path d="m125.9 101.9 3-1.7 10.4 5.9-3 1.7z" fill="#b6c969"/><path d="m92.6 138.4 4.9-2.9v-3.8l-4.9 2.8z" fill="#e6dbd6"/><path d="m92.6 138.4-12.3-7v-3.9l12.3 7z" fill="#8b8b8b"/><path d="m92.6 138.4h-5.3l-11.4-6.2 4.4-2.6v1.8z" fill="#9d90a8"/><path d="m85.2 124.7-4.9 2.8 12.3 7 4.9-2.8z" fill="#efefef"/><path d="m82.2 127.5 3-1.8 10.4 6-3 1.7z" fill="#b6c969"/><path d="m156.9 92.3h-5.3l-4.8-2.5 14.6-8.5-10.2 7.7z" fill="#9d90a8"/><path d="m156.9 92.3 15.1-8.7v-3.9l-15.1 8.7z" fill="#e6dbd6"/><path d="m156.9 92.3-5.7-3.3v-3.8l5.7 3.2z" fill="#8b8b8b"/><path d="m166.3 76.4-15.1 8.8 5.7 3.2 15.1-8.7z" fill="#efefef"/><path d="m153.1 85.2 13.2-7.7 3.9 2.2-13.3 7.7z" fill="#b6c969"/><path d="m138.9 103.1 8-4.6v-.7l-8 4.6z" fill="#b39e97"/><path d="m138.9 102.4 8-4.6-8.8-5-8 4.6z" fill="#e8dbb3"/><path d="m138.9 103.1-8.8-5.1v-.6l8.8 5z" fill="#8f7a7d"/><path d="m148.8 108.7 8-4.6v-.6l-8 4.6z" fill="#b39e97"/><path d="m148.8 108.1 8-4.6-8.8-5.1-8 4.6z" fill="#e8dbb3"/><path d="m148.8 108.7-8.8-5v-.7l8.8 5.1z" fill="#8f7a7d"/><path d="m201.4 75.6h-7.3l-2.2 1 .8.8h-1.7l-2.2 1 .8.7h-1.7l-2.2 1 .8.8h-1.6l-2.2 1 .7.8h-1.6l-2.2 1 .8.8h-1.7l-2.2 1 .8.8h-1.7l-2.2 1 .8.7h-1.7l-2.2 1 .8.8h-1.7l-2.2 1 .8.8h-1.7l-2.1 1 .7.8h-1.6l-2.2 1 .8.8h-1.7l-2.2 1 .8.7h-1.7l-2.2 1 1 1.1h7.3l1.1-1.8h2l1.1-1.8h2l1-1.8h2.1l1-1.8h2.1l1-1.7h2.1l1-1.8h2.1l1-1.8h2l1.1-1.8h2l1-1.8h2.1l1-1.7h2.1l1-1.8h2.1l1-1.8h2.1z" fill="#9d90a8"/><path d="m193.5 78.7-5.7 3.3.3.2 5.4-3.2z" fill="#bd9769"/><path d="m193.5 79-5.4 3.2v.4l5.4-3.2z" fill="#d9b791"/><path d="m187.8 82 .3.2v.4l-.3-.2z" fill="#465971"/><path d="m193.5 76.9-5.7 3.3.3.1 5.4-3.1z" fill="#bd9769"/><path d="m193.5 77.2-5.4 3.1v.4l5.4-3.1z" fill="#d9b791"/><path d="m187.8 80.2.3.1v.4l-.3-.1z" fill="#465971"/><path d="m187.3 84.3v-7.3l1-2.2 1 1-1.4 8.9z" fill="#bd9769"/><path d="m187.9 84.7v-7.3l1-2.2 1 1v7.3z" fill="#ede6bc"/><path d="m188.3 74.8.6.4-1 2.2-.6-.4z" fill="#cdb08d"/><path d="m190.4 82.5v-7.3l1-2.2 1 1-1.4 8.9z" fill="#bd9769"/><path d="m191 82.9v-7.3l1-2.2 1 1v7.3z" fill="#ede6bc"/><path d="m191.4 73 .6.4-1 2.2-.6-.4z" fill="#cdb08d"/><path d="m201.7 74.1-6.2 3.4.3.2 5.9-3.3z" fill="#bd9769"/><path d="m201.7 74.4-5.9 3.3v.4l5.9-3.3z" fill="#d9b791"/><path d="m195.5 77.5.3.2v.4l-.3-.2z" fill="#465971"/><path d="m201.7 72.2-6.2 3.5.3.1 5.9-3.2z" fill="#bd9769"/><path d="m201.7 72.6-5.9 3.2v.4l5.9-3.3z" fill="#d9b791"/><path d="m195.5 75.7.3.1v.4l-.3-.1z" fill="#465971"/><path d="m193.5 80.7v-7.3l1-2.2 1 1-1.4 8.9z" fill="#bd9769"/><path d="m194.1 81.1v-7.3l1-2.2 1 1v7.3z" fill="#ede6bc"/><path d="m194.5 71.2.6.4-1 2.2-.6-.4z" fill="#cdb08d"/><path d="m196.5 78.9v-7.3l1.1-2.2 1 1.1-1.4 8.8z" fill="#bd9769"/><path d="m197.2 79.3v-7.3l1-2.2 1 1v7.3z" fill="#ede6bc"/><path d="m197.6 69.4.6.4-1 2.2-.7-.4z" fill="#cdb08d"/><path d="m199.6 77.1v-7.3l1-2.2 1.1 1.1-1.4 8.8z" fill="#bd9769"/><path d="m200.3 77.5v-7.3l1-2.2 1 1.1v7.3z" fill="#ede6bc"/><path d="m200.6 67.6.7.4-1 2.2-.7-.4z" fill="#cdb08d"/><path d="m181.1 85.9-5.7 3.3.3.1 5.4-3.1z" fill="#bd9769"/><path d="m181.1 86.2-5.4 3.1v.4l5.4-3.1z" fill="#d9b791"/><path d="m175.4 89.2.3.1v.4l-.3-.1z" fill="#465971"/><path d="m181.1 84-5.7 3.3.3.2 5.4-3.2z" fill="#bd9769"/><path d="m181.1 84.3-5.4 3.2v.4l5.4-3.2z" fill="#d9b791"/><path d="m175.4 87.3.3.2v.4l-.3-.2z" fill="#465971"/><path d="m175 91.4v-7.3l1-2.2 1 1.1-1.4 8.8z" fill="#bd9769"/><path d="m175.6 91.8v-7.3l1-2.2 1 1v7.3z" fill="#ede6bc"/><path d="m176 81.9.6.4-1 2.2-.6-.4z" fill="#cdb08d"/><path d="m178 89.7v-7.4l1.1-2.2 1 1.1-1.4 8.8z" fill="#bd9769"/><path d="m178.7 90v-7.3l1-2.2 1 1.1v7.3z" fill="#ede6bc"/><path d="m179.1 80.1.6.4-1 2.2-.7-.4z" fill="#cdb08d"/><path d="m189.3 81.2-6.2 3.5.3.2 5.9-3.3z" fill="#bd9769"/><path d="m189.3 81.6-5.9 3.3v.3l5.9-3.3z" fill="#d9b791"/><path d="m183.1 84.7.3.2v.3l-.3-.1z" fill="#465971"/><path d="m189.3 79.4-6.2 3.4.3.2 5.9-3.3z" fill="#bd9769"/><path d="m189.3 79.7-5.9 3.3v.4l5.9-3.3z" fill="#d9b791"/><path d="m183.1 82.8.3.2v.4l-.3-.2z" fill="#465971"/><path d="m181.1 87.8v-7.3l1-2.2 1 1.1-1.3 8.8z" fill="#bd9769"/><path d="m181.8 88.2v-7.3l1-2.2 1 1.1v7.3z" fill="#ede6bc"/><path d="m182.1 78.3.7.4-1 2.2-.7-.4z" fill="#cdb08d"/><path d="m184.2 86.1v-7.3l1-2.2 1 1-1.4 8.8z" fill="#bd9769"/><path d="m184.8 86.4v-7.3l1.1-2.2 1 1.1v7.3z" fill="#ede6bc"/><path d="m185.2 76.6.7.3-1.1 2.2-.6-.3z" fill="#cdb08d"/><path d="m187.3 84.3v-7.3l1-2.2 1 1-1.4 8.9z" fill="#bd9769"/><path d="m187.9 84.7v-7.3l1-2.2 1 1v7.3z" fill="#ede6bc"/><path d="m188.3 74.8.6.4-1 2.2-.6-.4z" fill="#cdb08d"/><path d="m168.8 93-5.7 3.3.3.2 5.4-3.2z" fill="#bd9769"/><path d="m168.8 93.3-5.4 3.2v.4l5.4-3.2z" fill="#d9b791"/><path d="m163.1 96.3.3.2v.4l-.3-.2z" fill="#465971"/><path d="m168.8 91.2-5.7 3.3.3.1 5.4-3.1z" fill="#bd9769"/><path d="m168.8 91.5-5.4 3.1v.4l5.4-3.1z" fill="#d9b791"/><path d="m163.1 94.5.3.1v.4l-.3-.1z" fill="#465971"/><path d="m162.6 98.6v-7.3l1-2.2 1 1-1.4 8.9z" fill="#bd9769"/><path d="m163.2 99v-7.4l1.1-2.2 1 1.1v7.3z" fill="#ede6bc"/><path d="m163.6 89.1.7.3-1.1 2.2-.6-.3z" fill="#cdb08d"/><path d="m165.7 96.8v-7.3l1-2.2 1 1-1.4 8.9z" fill="#bd9769"/><path d="m166.3 97.2v-7.3l1-2.2 1.1 1v7.3z" fill="#ede6bc"/><path d="m166.7 87.3.6.4-1 2.2-.6-.4z" fill="#cdb08d"/><path d="m177 88.4-6.2 3.4.3.2 5.9-3.3z" fill="#bd9769"/><path d="m177 88.7-5.9 3.3v.4l5.9-3.3z" fill="#d9b791"/><path d="m170.8 91.8.3.2v.4l-.3-.2z" fill="#465971"/><path d="m177 86.5-6.2 3.5.3.1 5.9-3.3z" fill="#bd9769"/><path d="m177 86.8-5.9 3.3v.4l5.9-3.3z" fill="#d9b791"/><path d="m170.8 90 .3.1v.4l-.3-.1z" fill="#465971"/><path d="m168.8 95v-7.3l1-2.2 1 1-1.4 8.9z" fill="#bd9769"/><path d="m169.4 95.4v-7.3l1-2.2 1 1v7.3z" fill="#ede6bc"/><path d="m169.8 85.5.6.4-1 2.2-.6-.4z" fill="#cdb08d"/><path d="m171.9 93.2v-7.3l1-2.2 1 1.1-1.4 8.8z" fill="#bd9769"/><path d="m172.5 93.6v-7.3l1-2.2 1 1v7.3z" fill="#ede6bc"/><path d="m172.9 83.7.6.4-1 2.2-.6-.4z" fill="#cdb08d"/><path d="m175 91.4v-7.3l1-2.2 1 1.1-1.4 8.8z" fill="#bd9769"/><path d="m175.6 91.8v-7.3l1-2.2 1 1v7.3z" fill="#ede6bc"/><path d="m176 81.9.6.4-1 2.2-.6-.4z" fill="#cdb08d"/><path d="m91.1 134.6.8.8h-1.7l-2.2 1 .8.8h-1.6l-2.2 1 .8.8h-1.7l-2.2 1 .8.7h-1.7l-2.2 1.1.8.7h-1.7l-2.2 1 .8.8h-1.7l-2.2 1 .8.8h-1.7l-2.2 1 .8.8h-1.6l-2.2 1 .8.7h-1.7l-2.2 1.1 1 1h7.3l1-1.8h2.1l1-1.8h2.1l1-1.8h2.1l1-1.8h2.1l1-1.7h2l1.1-1.8h2l1-1.8h2.1l1-1.8h2.1l1-1.7z" fill="#9d90a8"/><path d="m89.6 138.6-5.7 3.3.3.1 5.4-3.1z" fill="#bd9769"/><path d="m89.6 138.9-5.4 3.1v.4l5.4-3.1z" fill="#d9b791"/><path d="m83.9 141.9.3.1v.4l-.3-.1z" fill="#465971"/><path d="m89.6 136.7-5.7 3.3.3.2 5.4-3.2z" fill="#bd9769"/><path d="m89.6 137-5.4 3.2v.4l5.4-3.2z" fill="#d9b791"/><path d="m83.9 140 .3.2v.4l-.3-.2z" fill="#465971"/><path d="m83.4 144.1v-7.3l1-2.2 1.1 1.1-1.4 8.8z" fill="#bd9769"/><path d="m84.1 144.5v-7.3l1-2.2 1 1.1v7.3z" fill="#ede6bc"/><path d="m84.4 134.6.7.4-1 2.2-.7-.4z" fill="#cdb08d"/><path d="m86.5 142.4v-7.3l1-2.2 1 1-1.4 8.8z" fill="#bd9769"/><path d="m87.1 142.7v-7.3l1.1-2.2 1 1.1v7.3z" fill="#ede6bc"/><path d="m87.5 132.9.7.3-1.1 2.2-.6-.3z" fill="#cdb08d"/><path d="m97.8 133.9-6.2 3.5.3.2 5.9-3.3z" fill="#bd9769"/><path d="m97.8 134.3-5.9 3.3v.3l5.9-3.3z" fill="#d9b791"/><path d="m91.6 137.4.3.2v.3l-.3-.1z" fill="#465971"/><path d="m97.8 132.1-6.2 3.4.3.2 5.9-3.3z" fill="#bd9769"/><path d="m97.8 132.4-5.9 3.3v.4l5.9-3.3z" fill="#d9b791"/><path d="m91.6 135.5.3.2v.4l-.3-.2z" fill="#465971"/><path d="m89.6 140.6v-7.4l1-2.2 1 1.1-1.4 8.8z" fill="#bd9769"/><path d="m90.2 140.9v-7.3l1-2.2 1.1 1.1v7.3z" fill="#ede6bc"/><path d="m90.6 131 .6.4-1 2.2-.6-.4z" fill="#cdb08d"/><path d="m92.7 138.8v-7.3l1-2.2 1 1-1.4 8.9z" fill="#bd9769"/><path d="m93.3 139.2v-7.4l1-2.2 1 1.1v7.3z" fill="#ede6bc"/><path d="m93.7 129.3.6.3-1 2.2-.6-.3z" fill="#cdb08d"/><path d="m95.8 137v-7.3l1-2.2 1 1-1.4 8.9z" fill="#bd9769"/><path d="m96.4 137.4v-7.3l1-2.2 1 1v7.3z" fill="#ede6bc"/><path d="m96.8 127.5.6.4-1 2.2-.6-.4z" fill="#cdb08d"/><path d="m77.3 145.7-5.7 3.3.3.2 5.4-3.2z" fill="#bd9769"/><path d="m77.3 146-5.4 3.2v.4l5.4-3.2z" fill="#d9b791"/><path d="m71.6 149 .3.2v.4l-.3-.2z" fill="#465971"/><path d="m77.3 143.9-5.7 3.3.3.1 5.4-3.1z" fill="#bd9769"/><path d="m77.3 144.2-5.4 3.1v.4l5.4-3.1z" fill="#d9b791"/><path d="m71.6 147.2.3.1v.4l-.3-.1z" fill="#465971"/><path d="m71.1 151.3v-7.3l1-2.2 1 1-1.4 8.9z" fill="#bd9769"/><path d="m71.7 151.7v-7.3l1-2.2 1.1 1v7.3z" fill="#ede6bc"/><path d="m72.1 141.8.6.4-1 2.2-.6-.4z" fill="#cdb08d"/><path d="m74.2 149.5v-7.3l1-2.2 1 1-1.4 8.9z" fill="#bd9769"/><path d="m74.8 149.9v-7.3l1-2.2 1 1v7.3z" fill="#ede6bc"/><path d="m75.2 140 .6.4-1 2.2-.6-.4z" fill="#cdb08d"/><path d="m85.5 141.1-6.2 3.4.3.2 5.9-3.3z" fill="#bd9769"/><path d="m85.5 141.4-5.9 3.3v.4l5.9-3.3z" fill="#d9b791"/><path d="m79.3 144.5.3.2v.4l-.3-.2z" fill="#465971"/><path d="m85.5 139.2-6.2 3.5.3.2 5.9-3.3z" fill="#bd9769"/><path d="m85.5 139.6-5.9 3.3v.3l5.9-3.3z" fill="#d9b791"/><path d="m79.3 142.7.3.2v.3l-.3-.1z" fill="#465971"/><path d="m77.3 147.7v-7.3l1-2.2 1 1-1.4 8.9z" fill="#bd9769"/><path d="m77.9 148.1v-7.3l1-2.2 1 1v7.3z" fill="#ede6bc"/><path d="m78.3 138.2.6.4-1 2.2-.6-.4z" fill="#cdb08d"/><path d="m80.3 145.9v-7.3l1.1-2.2 1 1.1-1.4 8.8z" fill="#bd9769"/><path d="m81 146.3v-7.3l1-2.2 1 1v7.3z" fill="#ede6bc"/><path d="m81.4 136.4.6.4-1 2.2-.7-.4z" fill="#cdb08d"/><path d="m83.4 144.1v-7.3l1-2.2 1.1 1.1-1.4 8.8z" fill="#bd9769"/><path d="m84.1 144.5v-7.3l1-2.2 1 1.1v7.3z" fill="#ede6bc"/><path d="m84.4 134.6.7.4-1 2.2-.7-.4z" fill="#cdb08d"/><path d="m186 73.2h-4.2l-6-3.5h-4.7l-6 3.5 6.2 3.5h4.6l4.6-2.7h5.5z" fill="#9d90a8"/><path d="m189.9 59.9c-.1.1-.3.1-.4.1-.6-.1-.1-1.1-.1-1.5.1-.3.1-.6.2-.9.1-.4.3-.8.4-1.2v-.1s0 0-.1 0c-.1.1-.1.3-.2.4-.1.2-.2.4-.2.5-.1.4-.3.8-.4 1.2-.3 1.1-.9 2.1-1.5 3-.1.2-.3.5-.4.7-.2.4-.5.9-.5 1.3v.9c0 .2-.1.5-.1.7 0 .6.1 7.9.1 7.6.2-.7.2-8.2.4-8.9s.4-1.3.9-1.9c.2-.3.5-.7.8-.9.4-.3.9-.5 1.3-.7.4-.3.8-.7 1.1-1.1.6-.8 1.1-1.8 1.5-2.7.2-.4.3-.9.2-1.3-.4.6-.7 1.3-.9 2-.3.7-.6 1.3-1 1.9-.2.2-.7.7-1.1.9z" fill="#7c4f1f"/><path d="m186.8 72.5c0-.3-.1-7.4-.1-7.6 0-.3 0-.6 0-.9 0-.4.4-.9.6-1.3.1-.2.3-.5.4-.7.6-.9 1.2-2 1.5-3 .1-.4.2-.8.4-1.2 0-.1.1-.3.2-.4.1-.3.2-.7.3-1v-.1s0 0-.1 0c-.1.1-.1.3-.2.4-.1.2-.2.4-.2.5-.1.4-.3.8-.4 1.2-.3 1.1-.9 2.1-1.5 3-.1.2-.3.5-.4.7-.2.4-.5.9-.5 1.3v.9c0 .2-.1.5-.1.7 0 .6.1 7.9.1 7.5z" fill="#7c4f1f"/><path d="m182.6 58.9c.2.1.4.2.6 0 .2-.1.2-.4.1-.6 0-.2-.1-.3-.1-.5-.1-.7-.3-1.3-.5-2-.2-.9-.4-1.8-.4-2.7 0 0 .1 0 .1.1.2.7.4 1.4.5 2.1.1.4.2.9.3 1.3.1.2.1.4.2.6s.1.3.2.5c.1.4.3.7.4 1 .2.3.3.7.5 1 .2.5.5.9.7 1.3s.5.8.6 1.2v.9c0 .2.1.5.1.7.1.6.3 8 .5 8.6-.1-.4-.3-7.5-.4-7.9-.2-.7-.4-1.4-.7-2.1s-.5-1.3-1-1.8c-.2-.3-.5-.6-.8-.9-.3-.2-.7-.3-1-.5s-.6-.5-.8-.7c-.6-.7-1.3-1.5-1.3-2.4 0 .2.3.5.4.7.2.3.4.6.6.9.3.3.8 1 1.2 1.2z" fill="#612c07"/><path d="m182.8 55.7c.1.4.2.9.3 1.3.1.2.1.4.2.6s.1.3.2.5c.1.4.3.7.4 1 .2.3.3.7.5 1 .2.5.5.9.7 1.3s.5.8.6 1.2v.9.2c.1.3.2.6.3.9.1.4.3 7.5.4 7.9-.1-.6-.4-8-.5-8.6 0-.2-.1-.5-.1-.7 0-.3 0-.6 0-.9-.1-.4-.4-.9-.6-1.2-.3-.5-.5-.8-.7-1.3-.2-.4-.3-.7-.5-1s-.3-.7-.4-1c-.1-.2-.1-.3-.2-.5s-.1-.4-.2-.6c-.1-.4-.2-.8-.3-1.3-.1-.7-.3-1.4-.5-2.1 0 0 0-.1-.1-.1v.7c.3.6.4 1.2.5 1.8z" fill="#612c07"/><path d="m181.4 58.1c.1.1.2.2.3.4 0 .1.1.1.1.1.1.1.2.2.2.3.1.1.2.2.3.3.2.1.4.2.6 0 .1-.1.1-.2.1-.3-.2.2-.4.1-.6 0-.4-.3-.9-.9-1-1.1-.2-.3-.4-.6-.6-.9-.1-.2-.4-.5-.4-.7 0 .4.2.8.4 1.2.3.3.5.5.6.7z" fill="#aa7723"/><path d="m187.2 73.5c0 .1 0 .1 0 0v.2c-.1.2-.6.4-1 .4-.5 0-.9-.2-.9-.5v-.1c0-.1.1-.1.1-.2 0 0 .1-.1.1-.2 0 0 0-.1.1-.1.1-.4.1-10.4.2-12.7 0-.2 0-.3 0-.5 0-.5 0-1 0-1.5s0-1.1.1-1.6c0-.1 0-.2 0-.3s0-.3 0-.4 0-.2 0-.4c0-.1 0-.2 0-.4 0-.1 0-.2.1-.4 0-.1 0-.2.1-.3 0-.2.1-.5.1-.7 0-.1.1-.2.1-.2s.1 0 .1.1v.1c.1 1.8.2 3.7.3 5.5v3.5c0 .7 0 1.4.1 2 .1.9.1 6.7 0 7.2v.1.1.2.1c0 .1.1.2.1.3v.1l.1.1s0 0 .1.1c.1.3.1.3.1.4z" fill="#6e3d1c"/><path d="m186.4 54c-.2.7-.3 1.3-.3 1.9-.2 1.5-.1 3-.2 4.5-.1 2.3-.1 12.3-.2 12.7-.1.2-.3.4-.5.6v-.1c0-.1.1-.1.1-.2 0 0 .1-.1.1-.2 0 0 0-.1.1-.1.1-.4.1-10.4.2-12.7 0-.2 0-.3 0-.5 0-.5 0-1 0-1.5s0-1.1.1-1.6c0-.1 0-.2 0-.3s0-.3 0-.4 0-.2 0-.4c0-.1 0-.2 0-.4 0-.1 0-.2.1-.4 0-.1 0-.2.1-.3 0-.2.1-.5.1-.7 0-.1.1-.2.1-.2.1.2.1.2.2.3 0-.1 0-.1 0 0z" fill="#612c07"/><path d="m187.2 73.5c0 .1 0 .1 0 0v.2c-.1 0-.1 0-.1 0s-.1 0-.1-.1c-.1 0-.2-.1-.3-.2-.3-.3-.3-.6-.3-1 0-.5-.1-8.5-.1-9.2 0-1.2 0-2.3 0-3.5 0-1.3-.1-2.5-.2-3.8 0-.4 0-.8-.1-1.2 0-.2.1-.5.1-.7 0-.1.1-.2.1-.2s.1 0 .1.1v.1c.1 1.8.2 3.7.3 5.5v3.5c0 .7.1 8.7.1 9.2v.1.1.2.1c0 .1.1.2.1.3v.1l.1.1s0 0 .1.1c.2.1.2.1.2.2z" fill="#6e3d1c"/><path d="m186.7 61.4-7-4.1v-10.5l7 4.1z" fill="#4d6e4a"/><path d="m186.7 50.9-7-4.1 7.7-4.4 7 4.1z" fill="#d6e371"/><path d="m186.7 61.4 7.7-4.4v-10.5l-7.7 4.4z" fill="#c2dd76"/><path d="m188 49.7-6.1-3.5v-5.1l6.1 3.6z" fill="#4d6e4a"/><path d="m188 44.7-6.1-3.6 5.9-3.4 6.2 3.5z" fill="#d6e371"/><path d="m188 49.7 6-3.4v-5.1l-6 3.5z" fill="#c2dd76"/><path d="m188.8 58.4-1.8-1.1v-5l1.8 1z" fill="#4d6e4a"/><path d="m188.8 53.3-1.8-1 6-3.5 1.8 1.1z" fill="#d6e371"/><path d="m188.8 58.4 6-3.4v-5.1l-6 3.4z" fill="#c2dd76"/><path d="m64.4 141.8h-3.6l-5.2-3h-4l-5.1 2.9 5.2 3.1h4l4-2.3h4.7z" fill="#9d90a8"/><path d="m67.7 130.3c-.1 0-.2.1-.4.1-.5-.1-.1-1 0-1.3s.1-.5.2-.8c.1-.4.2-.7.3-1.1 0 0 0 0 0-.1 0 0 0 0-.1 0-.1.1-.1.3-.2.4-.1.2-.1.3-.2.5-.1.3-.2.7-.3 1-.3.9-.8 1.8-1.3 2.6-.1.2-.2.4-.3.6-.2.3-.4.7-.5 1.1v.8c0 .2-.1.4-.1.6 0 .5.1 6.8.1 6.5.1-.6.2-7.1.4-7.7s.4-1.1.8-1.6c.2-.3.4-.6.7-.8.3-.3.8-.4 1.1-.6.4-.2.7-.6.9-.9.6-.7 1-1.5 1.3-2.3.1-.4.3-.7.2-1.1-.3.5-.6 1.1-.8 1.7s-.5 1.1-.9 1.6c-.1.3-.5.7-.9.8z" fill="#7c4f1f"/><path d="m65.1 141.1v-.1c0-.2-.1-6.2-.1-6.4 0-.3 0-.5 0-.8 0-.4.3-.8.5-1.1l.3-.6c.5-.8 1-1.7 1.3-2.6.1-.3.2-.7.3-1 0-.1.1-.2.1-.3.1-.3.2-.6.3-.9 0 0 0 0 0-.1 0 0 0 0-.1 0-.1.1-.1.3-.2.4-.1.2-.1.3-.2.5-.1.3-.2.7-.3 1-.3.9-.8 1.8-1.3 2.6-.1.2-.2.4-.3.6-.2.3-.4.7-.5 1.1v.8c0 .2-.1.4-.1.6 0 .5.1 6.8.1 6.5.1-.1.2-.1.2-.2z" fill="#7c4f1f"/><path d="m61.4 129.5c.2.1.4.1.5 0s.1-.3.1-.5c0-.1-.1-.3-.1-.4-.1-.6-.3-1.1-.4-1.7-.2-.8-.3-1.5-.3-2.3h.1c.2.6.3 1.2.4 1.8.1.4.1.7.3 1.1.1.2.1.3.2.5.1.1.1.3.1.4.1.3.2.6.4.9.1.3.3.6.4.9.2.4.4.7.6 1.1.2.3.5.7.5 1.1v.8c0 .2.1.4.1.6.1.5.3 6.9.4 7.4-.1-.3-.3-6.4-.4-6.7-.2-.6-.3-1.2-.6-1.8-.2-.6-.4-1.1-.8-1.6-.2-.3-.4-.6-.7-.8-.2-.2-.6-.3-.8-.4-.3-.2-.5-.4-.7-.6-.5-.6-1.1-1.3-1.1-2.1 0 .2.2.4.3.6.2.3.4.5.5.8.3.1.7.7 1 .9z" fill="#612c07"/><path d="m61.7 126.7c.1.4.1.7.3 1.1.1.2.1.3.2.5.1.1.1.3.1.4.1.3.2.6.4.9.1.3.3.6.4.9.2.4.4.7.6 1.1.2.3.5.7.5 1.1v.8.2c.1.3.2.5.2.8.1.3.3 6.4.4 6.7-.1-.5-.3-6.9-.4-7.4 0-.2-.1-.4-.1-.6 0-.3 0-.5 0-.8s-.3-.8-.5-1.1c-.2-.4-.5-.7-.6-1.1-.1-.3-.3-.6-.4-.9s-.3-.6-.4-.9c0-.1-.1-.3-.1-.4-.1-.2-.1-.3-.2-.5-.1-.4-.2-.7-.3-1.1-.1-.6-.3-1.2-.4-1.8 0 0 0-.1-.1 0v.6c.1.5.3 1 .4 1.5z" fill="#612c07"/><path d="m60.5 128.8c.1.1.1.2.3.4l.1.1c.1.1.1.2.2.2.1.1.2.2.3.2.2.1.4.1.5 0s.1-.2.1-.3c-.1.1-.3.1-.5 0-.4-.2-.7-.8-.9-1-.2-.3-.4-.5-.5-.8-.1-.1-.3-.4-.3-.6 0 .4.2.7.3 1 .1.4.2.6.4.8z" fill="#aa7723"/><path d="m65.4 142c0 .1 0 .1 0 0v.1c-.1.2-.5.3-.9.3s-.7-.2-.8-.4v-.1c0-.1.1-.1.1-.2l.1-.1v-.1c.1-.3.1-8.9.2-10.9 0-.1 0-.3 0-.4 0-.4 0-.8 0-1.3s0-.9.1-1.4c0-.1 0-.2 0-.2 0-.1 0-.3 0-.4s0-.2 0-.3 0-.2 0-.3 0-.2 0-.3 0-.2.1-.3c0-.2.1-.4.1-.6 0-.1 0-.1.1-.1s.1 0 .1.1v.1c.1 1.6.2 3.1.2 4.7v3 1.8c.1.8.1 5.7 0 6.1v.1.1.2.1c0 .1.1.2.1.3v.1l.1.1s0 0 .1.1c.3 0 .3 0 .3.1z" fill="#6e3d1c"/><path d="m64.7 125.3c-.1.6-.2 1.1-.3 1.7-.1 1.3-.1 2.6-.2 3.9-.1 1.9-.1 10.5-.2 10.9-.1.2-.2.4-.4.5v-.1c0-.1.1-.1.1-.2l.1-.1v-.1c.1-.3.1-8.9.2-10.9 0-.1 0-.3 0-.4 0-.4 0-.8 0-1.3s0-.9.1-1.4c0-.1 0-.2 0-.2 0-.1 0-.3 0-.4s0-.2 0-.3 0-.2 0-.3 0-.2 0-.3 0-.2.1-.3c0-.2.1-.4.1-.6 0-.1 0-.1.1-.1.2-.1.3-.1.3 0 0-.1 0-.1 0 0 0-.1 0 0 0 0z" fill="#612c07"/><path d="m65.4 142c0 .1 0 .1 0 0v.1h-.1s-.1 0-.1-.1c-.1 0-.2-.1-.2-.1-.3-.2-.3-.5-.2-.9 0-.4-.1-7.3-.1-7.9 0-1 0-2 0-3 0-1.1-.1-2.2-.2-3.3 0-.3 0-.7-.1-1 0-.2.1-.4.1-.6 0-.1 0-.1.1-.1s.1 0 .1.1v.1c.1 1.6.2 3.1.2 4.7v3c0 .6.1 7.5.1 7.9v.1.1.2.1c0 .1.1.2.1.3v.1l.1.1s0 0 .2.1c0-.1 0-.1 0 0z" fill="#6e3d1c"/><path d="m65 131.6-6.1-3.5v-8.9l6.1 3.5z" fill="#4d6e4a"/><path d="m65 122.7-6.1-3.5 6.6-3.9 6.1 3.5z" fill="#d6e371"/><path d="m65 131.6 6.6-3.8v-9l-6.6 3.9z" fill="#c2dd76"/><path d="m66.1 121.6-5.3-3v-4.4l5.3 3.1z" fill="#4d6e4a"/><path d="m66.1 117.3-5.3-3.1 5.2-2.9 5.2 3z" fill="#d6e371"/><path d="m66.1 121.6 5.1-2.9v-4.4l-5.1 3z" fill="#c2dd76"/><path d="m66.8 129.1-1.6-1v-4.3l1.6.9z" fill="#4d6e4a"/><path d="m66.8 124.7-1.6-.9 5.1-3 1.7 1z" fill="#d6e371"/><path d="m66.8 129.1 5.2-3v-4.3l-5.2 2.9z" fill="#c2dd76"/><path d="m76.8 160.7-8.4-4.9v-.8l8.4 4.8z" fill="#8f7a7d"/><path d="m76.8 159.8-8.4-4.8 35.5-20.5 8.3 4.9z" fill="#e8dbb3"/><path d="m76.8 160.7 35.4-20.5v-.8l-35.4 20.4z" fill="#b39e97"/><path d="m143.3 122.3-8.3-4.9v-.8l8.3 4.8z" fill="#8f7a7d"/><path d="m143.3 121.4-8.3-4.8 71.8-41.5 8.4 4.9z" fill="#e8dbb3"/><path d="m143.3 122.3 71.9-41.5v-.8l-71.9 41.4z" fill="#b39e97"/><path d="m151.9 110.8c0-.1 0-.1-.1-.2h-6.3l1.2-.6h-1.1-.1c-.2 0-.5 0-.8.1-.2 0-.3 0-.5.1-.5.1-1 .2-1.5.2-.3.1-.6.1-.8.2 0 0 0 0-.1 0-.2.1-2.8 1.4-2.8 1.4-.1.1 0 .1.3.1h1.1l3.5-.7.7-.4h7.2c.1-.1.1-.1.1-.2z" fill="#9d90a8"/><path d="m152.4 101.5v9.2l-.5.3v-9.2z" fill="#c7805e"/><path d="m151.9 101.8v9.2l-.6-.3v-9.2z" fill="#7b444a"/><path d="m151.3 101.8v1.5l.6.2.5-.2v-1.5z" fill="#c4bccc"/><path d="m151.6 101.6.5-.3-.5-.3-.5.3z" fill="#f47b5a"/><path d="m154.8 100.3-.4.6-.5.7-.3.4h-.4v1.1l-3.4-1.9v-1.1-.1c0-.2.1-.4.1-.6 0-.1.1-.2.1-.3.2-.3.4-.5.6-.7.2-.1.3-.1.5-.1h.1c.3.1 3.6 2 3.6 2z" fill="#c7b0a1"/><path d="m154.7 100.3h-.3v1.6l-.5-.3-3.9-2.2c0-.1.1-.2.1-.3.2-.3.4-.5.6-.7.2-.1.3-.1.5-.1z" fill="#f4ebd8"/><path d="m155.1 102.2-1.8 1v-1.1c0-.7.4-1.4.9-1.7.5-.3.9 0 .9.7z" fill="#d9c0b0"/><path d="m152.5 102.7-.2-.1v-2.8l.2.1z" fill="#d62a11"/><path d="m153.4 101.5-1-.6v-1l1 .6-.4.3z" fill="#dc4a35"/><path d="m149.9 113.3-5.6-1.5-4 2.2 2.3 1.2 3.2.6z" fill="#c4bccc"/><path d="m144.6 114.5-.7-1.2.4-.2h.3c.3.2.5.5.5.8 0 .1 0 .3-.1.3z" fill="#171211"/><path d="m144 113.4.5-.3h.1c.3.2.5.5.5.8v.1l-.4.2s-.1 0-.1-.1l-.1-.1-.4-.6c-.1.1-.1 0-.1 0z" fill="#362b29"/><path d="m143.8 113.6c0 .3.2.7.5.8.3.2.5 0 .5-.3s-.2-.7-.5-.8-.5 0-.5.3z" fill="#413431"/><path d="m143.8 113.6c0 .3.2.6.5.8.3.1.5 0 .5-.3s-.2-.6-.5-.8c-.3-.1-.5 0-.5.3z" fill="#342927"/><path d="m143.9 113.7c0 .2.2.5.4.6s.4 0 .4-.2-.2-.5-.4-.6c-.3-.1-.4 0-.4.2z" fill="#51413e"/><path d="m143.9 113.7c0 .2.2.5.3.6.2.1.3 0 .3-.2s-.2-.5-.3-.6-.3 0-.3.2z" fill="#886d67"/><path d="m144.2 113.5c.2.1.3.4.3.6v.1l-.2.1h-.1c-.2-.1-.3-.4-.3-.6z" fill="#bf9891"/><path d="m144.4 113.7c.1.1.1.2.1.3l-.4.2c-.1-.1-.2-.2-.2-.3z" fill="#d2ffbf"/><path d="m144.4 113.7c.1.1.1.2.1.3l-.4.2c-.1-.1-.2-.2-.2-.3z" fill="#d2ffbf"/><path d="m144 113.7c0 .2.1.4.3.5s.3 0 .3-.2-.1-.4-.3-.5c-.2 0-.3 0-.3.2z" fill="#634f4b"/><path d="m144.1 113.7c0 .1.1.3.2.4s.2 0 .2-.1-.1-.3-.2-.4-.2 0-.2.1z" fill="#aa8881"/><path d="m144.2 113.8c0 .1 0 .1.1.2.1 0 .1 0 .1-.1s0-.1-.1-.2c-.1 0-.1.1-.1.1z" fill="#d9aea5"/><path d="m144.2 113.9c.1.1.1.1.1.1 0-.1 0-.1-.1-.1 0-.1 0-.1 0 0z" fill="#634f4b"/><path d="m144.6 114.5.2-.1c.1-.1.1-.2.1-.3 0-.3-.2-.7-.5-.8-.1-.1-.3-.1-.3 0h.3c.3.2.5.5.5.8 0 .1 0 .3-.1.3z" fill="#171211"/><path d="m144.6 114.5.1-.1c.1-.1.1-.2.1-.3 0-.3-.2-.7-.5-.8-.1-.1-.3-.1-.3 0h.3c.3.2.5.5.5.8 0 .1 0 .3-.1.3z" fill="#171211"/><path d="m146.2 115.2 3.6-2.1.6-6.5-3.2 1.8c-.1.1-.3.1-.4.1z" fill="#86a670"/><path d="m149.4 113.4-.2.1.6-7.1.2-.1z" fill="#385935"/><path d="m147.3 107.9.2-.2-.6 7.1-.2.1z" fill="#385935"/><path d="m143.7 107 .4 6c.1 0 .2 0 .3.1.3.2.6.7.6 1.1 0 .2 0 .3-.1.3l1.3.7.6-6.7c-.2 0-.3 0-.5-.1z" fill="#4d6e4a"/><path d="m143.7 106.4v.6l2.5 1.4c.1.1.3.1.5.1v-.4z" fill="#385935"/><path d="m146.7 108.6c.2 0 .3 0 .4-.1l3.2-1.8v-.6l-3.6 2.1z" fill="#385935"/><path d="m146.7 108.4c.2 0 .3 0 .5-.1l3.4-2c.1-.2.1-.5-.1-.7l-.4-.1-3.2 2.5c-.3 0-.3.2-.2.4z" fill="#86a670"/><path d="m143.5 106.7 2.7 1.5c.1.1.3.1.5.1-.1-.1 0-.3.1-.4l3.2-2.5-2.2-1.3c-.3-.2-.7-.2-.9 0l-3.2 1.8c-.2.2-.4.6-.2.8z" fill="#4d6e4a"/><path d="m143.7 106.4 2.6 1.4c.3.2.6.2.9 0l3.2-1.8c.2-.1.2-.4 0-.5l-2.6-1.5c-.3-.2-.6-.2-.9 0l-3.2 1.9c-.2.1-.2.4 0 .5z" fill="#c2dd76"/><path d="m144.7 106.3 1.8 1c.2.1.4.1.6 0l2.2-1.3c.1-.1.1-.3 0-.4l-1.8-1c-.2-.1-.4-.1-.6 0l-2.2 1.3c-.2.1-.2.3 0 .4z" fill="#385935"/><path d="m144.7 106.2 1.8 1c.2.1.4.1.6 0l2.2-1.3c.1-.1.1-.3 0-.4l-1.8-1c-.2-.1-.4-.1-.6 0l-2.2 1.3c-.2.1-.2.3 0 .4z" fill="#c2dd76"/><path d="m147.4 106.8 1.1-.7c.1-.1.2-.1.3 0l.3.2c.1 0 .1.1 0 .2l-1.1.7c-.1.1-.2.1-.3 0l-.3-.1c-.1-.2-.1-.3 0-.3z" fill="#385935"/><path d="m148.8 106.3h.1.1c.1 0 .1.1 0 .2l-1.1.7h-.1c-.1 0-.1-.1 0-.2z" fill="#c2dd76"/><path d="m148.9 109.7-1.1.7s-.3.5-.3.9l.5-.3v-.1l.1-.4z" fill="#e4d3c8"/><path d="m147.5 111.3v1.5l.3-1.1.4.7-.1-1.4z" fill="#e4d3c8"/><path d="m147.9 110c0 .1.1.2.2.1s.2-.2.2-.4c0-.1-.1-.2-.2-.1s-.2.3-.2.4z" fill="#e4d3c8"/><path d="m148.9 110s0 .1.1.2h.1s-.1.2-.2.3-.2 0-.2.1c-.1.1-.1.1-.1.1s0-.1-.1-.1-.1-.1-.1-.1c0-.1.3-.2.5-.5z" fill="#e4d3c8"/><path d="m148.2 111c0 .1 0 .1 0 0l.1 1.2.5-.3.2-1.4s0 0 0-.1zm.5-.1-.1.2v-.1zm0 0 .1-.1v.1zm.3-.1-.1.1v-.1zm0 .2-.1.1v-.1zm0 .2-.1.1.1-.1v-.2zm-.1.3-.1.1.1-.1v-.2zm0 .2-.1-.1.1-.1zm-.1.2.1-.2zm0-.8-.1.1v-.1zm0 .2-.1.1v-.1h.1v-.2zm0 .3-.1.1.1-.1v-.2zm0 .2v-.2zm-.1.2.1-.2zm-.2-.5.1-.1zm0-.2.1-.1v.1.1l-.1.1zm0 0 .1-.2v.1zm-.1.3.1-.1v.1.1l-.1.1zm0-.2.1-.1v.1zm0-.2.1-.1v.1zm0-.1.1-.1v.1z" fill="#e4d3c8"/><path d="m145.6 115.9-5.7-1.5-4 2.2 2.3 1.2 3.3.5z" fill="#9d90a8"/><path d="m140.2 117-.7-1.2.4-.2h.3c.3.2.5.5.5.8 0 .1 0 .3-.1.3z" fill="#171211"/><path d="m139.6 115.9.5-.3h.1c.3.2.5.5.5.8v.1l-.4.2s-.1 0-.1-.1c-.1 0-.1-.1-.1-.1l-.4-.6c-.1.2-.1.1-.1 0z" fill="#362b29"/><path d="m139.4 116.2c0 .3.2.7.5.8.3.2.5 0 .5-.3s-.2-.7-.5-.8c-.3-.2-.5 0-.5.3z" fill="#413431"/><path d="m139.4 116.2c0 .3.2.6.5.8.3.1.5 0 .5-.3s-.2-.6-.5-.8c-.3-.1-.5 0-.5.3z" fill="#342927"/><path d="m139.5 116.2c0 .2.2.5.4.6s.4 0 .4-.2-.2-.5-.4-.6c-.3-.1-.4 0-.4.2z" fill="#51413e"/><path d="m139.5 116.3c0 .2.2.5.3.6.2.1.3 0 .3-.2s-.2-.5-.3-.6-.3-.1-.3.2z" fill="#886d67"/><path d="m139.9 116.1c.2.1.3.4.3.6v.1l-.2.1h-.1c-.2-.1-.3-.4-.3-.6z" fill="#bf9891"/><path d="m140 116.2c.1.1.1.2.1.3l-.4.2c-.1-.1-.2-.2-.2-.3z" fill="#d2ffbf"/><path d="m140 116.2c.1.1.1.2.1.3l-.4.2c-.1-.1-.2-.2-.2-.3z" fill="#d2ffbf"/><path d="m139.6 116.3c0 .2.1.4.3.5s.3 0 .3-.2-.1-.4-.3-.5-.3 0-.3.2z" fill="#634f4b"/><path d="m139.7 116.3c0 .1.1.3.2.4s.2 0 .2-.1-.1-.3-.2-.4-.2-.1-.2.1z" fill="#aa8881"/><path d="m139.8 116.4c0 .1 0 .1.1.2.1 0 .1 0 .1-.1s0-.1-.1-.2c-.1 0-.1 0-.1.1z" fill="#d9aea5"/><path d="m139.8 116.4c0 .1 0 .1 0 0 .1.1.1.1.1.1s0-.1-.1-.1z" fill="#634f4b"/><path d="m140.2 117 .2-.1c.1-.1.1-.2.1-.3 0-.3-.2-.7-.5-.8-.1-.1-.3-.1-.3 0h.3c.3.2.5.5.5.8 0 .1 0 .3-.1.3z" fill="#171211"/><path d="m140.2 117 .1-.1c.1-.1.1-.2.1-.3 0-.3-.2-.7-.5-.8-.1-.1-.3-.1-.3 0h.3c.3.2.5.5.5.8 0 .1 0 .3-.1.3z" fill="#171211"/><path d="m141.8 117.8 3.6-2.1.6-6.5-3.2 1.8c-.1.1-.3.1-.4.1z" fill="#df7b63"/><path d="m145 115.9-.2.2.6-7.2.2-.1z" fill="#912e28"/><path d="m142.9 110.4.2-.1-.6 7.1-.2.1z" fill="#912e28"/><path d="m139.3 109.6.4 6c.1 0 .2 0 .3.1.3.2.6.7.6 1.1 0 .2 0 .3-.1.3l1.3.7.6-6.7c-.2 0-.3 0-.5-.1z" fill="#a6433d"/><path d="m139.3 109v.6l2.5 1.4c.1.1.3.1.5.1v-.4z" fill="#912e28"/><path d="m142.3 111.1c.2 0 .3 0 .4-.1l3.2-1.8v-.6l-3.6 2.1z" fill="#912e28"/><path d="m142.3 110.9c.2 0 .3 0 .5-.1l3.4-2c.1-.2.1-.5-.1-.7l-.4-.1-3.2 2.5c-.3.1-.3.3-.2.4z" fill="#df7b63"/><path d="m139.1 109.3 2.7 1.5c.1.1.3.1.5.1-.1-.1 0-.3.1-.4l3.2-2.5-2.2-1.3c-.3-.2-.7-.2-.9 0l-3.2 1.8c-.2.2-.4.6-.2.8z" fill="#a6433d"/><path d="m139.3 109 2.6 1.4c.3.2.6.2.9 0l3.2-1.8c.2-.1.2-.4 0-.5l-2.6-1.5c-.3-.2-.6-.2-.9 0l-3.2 1.9c-.2.1-.2.4 0 .5z" fill="#ffb269"/><path d="m140.3 108.8 1.8 1c.2.1.4.1.6 0l2.2-1.3c.1-.1.1-.3 0-.4l-1.8-1c-.2-.1-.4-.1-.6 0l-2.2 1.3c-.2.2-.2.4 0 .4z" fill="#912e28"/><path d="m140.3 108.7 1.8 1c.2.1.4.1.6 0l2.2-1.3c.1-.1.1-.3 0-.4l-1.8-1c-.2-.1-.4-.1-.6 0l-2.2 1.3c-.2.1-.2.3 0 .4z" fill="#ffb269"/><path d="m143 109.3 1.1-.7c.1-.1.2-.1.3 0l.3.2c.1 0 .1.1 0 .2l-1.1.7c-.1.1-.2.1-.3 0l-.3-.1c-.1-.1-.1-.2 0-.3z" fill="#912e28"/><path d="m144.4 108.8h.1.1c.1 0 .1.1 0 .2l-1.1.7h-.1c-.1 0-.1-.1 0-.2z" fill="#ffb269"/><path d="m144.5 112.3-1.1.7s-.3.5-.3.9l.5-.3v-.1l.1-.4z" fill="#e4d3c8"/><path d="m143.1 113.9v1.4l.3-1.1.4.8-.1-1.5z" fill="#e4d3c8"/><path d="m143.5 112.6c0 .1.1.2.2.1s.2-.2.2-.4c0-.1-.1-.2-.2-.1s-.2.3-.2.4z" fill="#e4d3c8"/><path d="m144.5 112.5s0 .1.1.2h.1s-.1.2-.2.3-.2 0-.2.1c-.1.1-.1.1-.1.1s0-.1-.1-.1-.1-.1-.1-.1c0-.1.3-.2.5-.5z" fill="#e4d3c8"/><path d="m143.8 113.6.1 1.2.5-.3.2-1.4s0 0 0-.1l-.8.6c.1-.1 0 0 0 0zm.5-.2-.1.2v-.1zm0 0 .1-.1v.1zm.3-.1-.1.1v-.1zm0 .3-.1.1v-.1zm0 .2-.1.1.1-.1v-.2zm-.1.2-.1.1.1-.1v-.2zm0 .2-.1-.1.1-.1zm-.1.3.1-.2zm0-.8-.1.1v-.1zm0 .2-.1.1v-.1h.1v-.2zm0 .2-.1.1.1-.1v-.2zm0 .2v-.2zm-.1.3.1-.2zm-.2-.5.1-.1zm0-.2.1-.1v.1.1l-.1.1zm0-.1.1-.2v.1zm-.1.4.1-.1v.1.1l-.1.1zm0-.2.1-.1v.1zm0-.2.1-.1v.1zm0-.2.1-.1v.1z" fill="#e4d3c8"/><path d="m44.5 138.6-34.5-20 3.4-2 33.3 18.1 1.4 3.6z" fill="#9d90a8"/><path d="m48.1 138.3-34.5-19.9v-11.8l34.5 20z" fill="#476645"/><path d="m48.1 126.6-34.5-20 4.9-2.7 34.5 19.9z" fill="#d6e371"/><path d="m48.1 138.3 4.9-2.8v-11.7l-4.9 2.8z" fill="#c2dd76"/></svg>