<?xml version="1.0" encoding="utf-8"?>
<!-- Generator: Adobe Illustrator 24.1.0, SVG Export Plug-In . SVG Version: 6.00 Build 0)  -->
<!DOCTYPE svg PUBLIC "-//W3C//DTD SVG 1.1//EN" "http://www.w3.org/Graphics/SVG/1.1/DTD/svg11.dtd" [
	<!ENTITY ns_extend "http://ns.adobe.com/Extensibility/1.0/">
	<!ENTITY ns_ai "http://ns.adobe.com/AdobeIllustrator/10.0/">
	<!ENTITY ns_graphs "http://ns.adobe.com/Graphs/1.0/">
	<!ENTITY ns_vars "http://ns.adobe.com/Variables/1.0/">
	<!ENTITY ns_imrep "http://ns.adobe.com/ImageReplacement/1.0/">
	<!ENTITY ns_sfw "http://ns.adobe.com/SaveForWeb/1.0/">
	<!ENTITY ns_custom "http://ns.adobe.com/GenericCustomNamespace/1.0/">
	<!ENTITY ns_adobe_xpath "http://ns.adobe.com/XPath/1.0/">
]>
<svg version="1.1" id="Layer_1" xmlns:x="&ns_extend;" xmlns:i="&ns_ai;" xmlns:graph="&ns_graphs;"
	 xmlns="http://www.w3.org/2000/svg" xmlns:xlink="http://www.w3.org/1999/xlink" x="0px" y="0px" viewBox="0 0 2500 630"
	 style="enable-background:new 0 0 2500 630;" xml:space="preserve">
<style type="text/css">
	.st0{fill:#FFFFFF;}
</style>
<metadata>
	<sfw  xmlns="&ns_sfw;">
		<slices></slices>
		<sliceSourceBounds  bottomLeftOrigin="true" height="630" width="2499.2" x="0.4" y="0"></sliceSourceBounds>
	</sfw>
</metadata>
<g>
	<path class="st0" d="M355.1,0c0,0,51.7,105.6,42.4,149.6c0,0,135.7,44,150.4,116.4C547.9,265.3,621.9,168.1,355.1,0z M302.7,158.1
		c13.1,27.8,19.3,57.8,27,88.7l-77.1-29.3c6.9-47-38.6-118-38.6-118L302.7,158.1L302.7,158.1z M165.4,230.6
		c8.5,22.4,18.5,50.9,23.1,75.6l-69.4-17c6.9-47-37-103.3-37-103.3L165.4,230.6L165.4,230.6z"/>
	<path class="st0" d="M317.3,118c0,0,310.8,218.2,331.6,303.1c15.4,64-29.3,122.6-29.3,122.6S595.7,377.1,0.4,630
		c60.1-67.1,93.3-153.5,84.1-246c-3.9-37.8-13.1-74-29.3-106.4l139.6,73.3c0,2.3,0,4.6,0.8,6.9c5.4,56.3,1.5,111.8-11.6,162.7
		c28.5-60.1,42.4-128.8,35.5-199.7c-3.9-43.2-14.7-84.1-31.6-121.1l148.8,99.5c0.8,4.6,0.8,10,1.5,14.7c6.2,62.5,0,123.4-16.2,178.9
		c34.7-64.8,52.4-140.3,44.7-218.2C361.3,217.5,344.3,165,317.3,118L317.3,118z"/>
</g>
<g>
	<path class="st0" d="M696.7,395.6c0,89.5,74,151.9,168.1,148.1c56.3-2.3,89.5-23.1,101-28.5V438h-11.6
		c-10.8,47-39.3,86.4-88.7,86.4c-60.9,0-108-59.4-108-128.8c0-69.4,47.8-128.8,108-128.8c49.4,0,77.9,38.6,88.7,86.4h11.6v-77.1
		c-11.6-5.4-44.7-25.4-101-28.5C770.7,243.7,696.7,306.1,696.7,395.6L696.7,395.6z M1140.1,247.5c-82.5,0-146.5,66.3-146.5,148.8
		c0,81.7,64,148.8,146.5,148.8c82.5,0,146.5-66.3,146.5-148.8C1286.6,313.8,1222.6,247.5,1140.1,247.5L1140.1,247.5z M1140.1,526.7
		c-51.7,0-86.4-60.9-86.4-131.1c0-69.4,34.7-131.1,86.4-131.1s86.4,60.9,86.4,131.1C1226.5,465,1191.8,526.7,1140.1,526.7z
		 M1622.8,308.4c0-23.9,24.7-43.2,50.1-44c27.8,0,55.5,12.3,70.2,66.3h7.7V266c-11.6-3.9-39.3-18.5-78.7-18.5
		c-47.8,0-95.6,29.3-95.6,84.1c0,97.9,134.2,79.4,134.2,145c0,33.2-20,48.6-50.9,48.6c-30.1,0-64.8-24.7-76.3-74h-10V522
		c12.3,3.9,44,22.4,84.8,22.4c70.9,0,105.6-47,105.6-89.5C1764.7,350.1,1622.8,381.7,1622.8,308.4L1622.8,308.4z M2156.4,283
		c0-6.2,3.9-11.6,8.5-14.6l18.5-10v-4.6h-110.3v4.6l18.5,10c5.4,3.1,8.5,8.5,8.5,14.6v225.9c0,6.2-3.9,11.6-8.5,14.7l-18.5,10v4.6
		h110.3v-4.6l-18.5-10c-5.4-3.1-8.5-8.5-8.5-14.7V283z M1288.9,253.7v4.6l18.5,10c5.4,3.1,8.5,8.5,8.5,14.6v225.9
		c0,6.2-3.9,11.6-8.5,14.7l-18.5,10v4.6h110.3v-4.6l-18.5-10c-5.4-3.1-8.5-8.5-8.5-14.7V283c0-3.9,1.5-6.9,3.1-10
		c1.5-2.3,3.9-3.1,6.9-3.1h35.5c21.6,0,44.7,25.4,44.7,57.1v16.2c0,31.6-20.8,53.2-44.7,53.2h-21.6c0,0,69.4,119.5,80.2,132.6
		c15.4,19.3,66.3,44.7,105.6,36.2c-38.6-20.8-74.8-87.1-104.9-142.7c-16.2-2.3-27-7.7-33.9-12.3c60.9,0,76.3-50.1,76.3-74.8
		c0-67.1-47-81-100.2-81h-130.3L1288.9,253.7L1288.9,253.7z M2206.6,253.7v4.6l18.5,10c5.4,3.1,8.5,8.5,8.5,14.6v225.9
		c0,6.2-3.9,11.6-8.5,14.7l-18.5,10v4.6h110.3v-4.6l-18.5-10c-5.4-3.1-8.5-8.5-8.5-14.7V283c0-3.9,1.5-6.9,3.1-10
		c1.5-2.3,3.9-3.1,6.9-3.1h35.5c21.6,0,44.7,25.4,44.7,57.1v16.2c0,31.6-20.8,53.2-44.7,53.2h-21.6c0,0,69.4,119.5,80.2,132.6
		c15.4,19.3,66.3,44.7,105.6,36.2c-38.6-20.8-74.8-87.1-104.9-142.7c-16.2-2.3-27-7.7-33.9-12.3c60.9,0,76.3-50.1,76.3-74.8
		c0-67.1-47-81-100.2-81h-130.3L2206.6,253.7L2206.6,253.7z M2040,523.6c-3.9-2.3-6.2-5.4-7.7-8.5l-104.9-261.4h-33.9l-104.9,261.4
		c-1.5,3.9-3.9,6.9-7.7,8.5l-18.5,10v4.6h84.8v-4.6l-16.2-8.5c-5.4-3.1-9.3-8.5-9.3-15.4c0-2.3,0.8-4.6,1.5-6.2l23.1-57.1h98.7
		l23.1,57.1c0.8,1.5,0.8,3.9,0.8,5.4c0,5.4-2.3,10-6.2,13.1c-0.8,0.8-1.5,0.8-2.3,1.5l-18.5,10v4.6h116.4v-4.6L2040,523.6
		L2040,523.6z M1853.4,425.7l40.9-101.8l40.9,101.8H1853.4z"/>
</g>
</svg>
