<?xml version="1.0" encoding="utf-8"?>
<!-- Generator: Adobe Illustrator 24.1.0, SVG Export Plug-In . SVG Version: 6.00 Build 0)  -->
<!DOCTYPE svg PUBLIC "-//W3C//DTD SVG 1.1//EN" "http://www.w3.org/Graphics/SVG/1.1/DTD/svg11.dtd" [
	<!ENTITY ns_extend "http://ns.adobe.com/Extensibility/1.0/">
	<!ENTITY ns_ai "http://ns.adobe.com/AdobeIllustrator/10.0/">
	<!ENTITY ns_graphs "http://ns.adobe.com/Graphs/1.0/">
	<!ENTITY ns_vars "http://ns.adobe.com/Variables/1.0/">
	<!ENTITY ns_imrep "http://ns.adobe.com/ImageReplacement/1.0/">
	<!ENTITY ns_sfw "http://ns.adobe.com/SaveForWeb/1.0/">
	<!ENTITY ns_custom "http://ns.adobe.com/GenericCustomNamespace/1.0/">
	<!ENTITY ns_adobe_xpath "http://ns.adobe.com/XPath/1.0/">
]>
<svg version="1.1" id="Layer_1" xmlns:x="&ns_extend;" xmlns:i="&ns_ai;" xmlns:graph="&ns_graphs;"
	 xmlns="http://www.w3.org/2000/svg" xmlns:xlink="http://www.w3.org/1999/xlink" x="0px" y="0px" viewBox="0 0 2500 816"
	 style="enable-background:new 0 0 2500 816;" xml:space="preserve">
<style type="text/css">
	.st0{fill:#FFFFFF;}
</style>
<metadata>
	<sfw  xmlns="&ns_sfw;">
		<slices></slices>
		<sliceSourceBounds  bottomLeftOrigin="true" height="816" width="2500" x="0" y="-0.1"></sliceSourceBounds>
	</sfw>
</metadata>
<path class="st0" d="M307.9,0.1h22.2c77.2,1.7,153.1,32.7,207.6,87.7c-20.1,20.6-40.7,40.3-60.4,60.8
	c-30.6-27.7-67.5-49.1-107.8-56.6c-59.6-12.6-123.7-1.3-173.7,32.7c-54.5,35.7-91.4,96.1-99.4,160.7c-8.8,63.8,9.2,130.9,50.8,180.4
	c39.8,48.2,100.7,78.4,163.6,80.5c58.7,3.4,120-14.7,162.8-55.8c33.6-28.9,49.1-73,54.1-115.8c-69.6,0-139.3,0.4-208.9,0v-86.4H612
	c15.1,92.7-6.7,197.1-77.2,263.4c-47,47-112,74.7-178.3,80.1c-64.2,6.3-130.5-5.9-187.5-36.9c-68.4-36.5-122.9-98.2-149.7-170.7
	C-5.9,357.5-6.3,282,17.2,214.8C38.6,153.6,79.7,99.5,132.6,61.7C183.3,24.4,245,3.8,307.9,0.1z"/>
<path class="st0" d="M1989.9,21.9h89.8v599c-29.8,0-60,0.4-89.8-0.4C1990.4,421.2,1989.9,221.5,1989.9,21.9L1989.9,21.9z"/>
<path class="st0" d="M811.7,229.5C867,219,927,230.8,972.7,263.9c41.5,29.4,70.5,75.5,79.3,125.8c11.3,58.3-2.9,122.1-40.7,168.2
	c-40.7,51.6-107.4,79.3-172.4,75.1c-59.6-3.4-117.4-33.1-152.7-81.8c-39.8-53.7-49.5-127.5-27.7-190.4
	C680.4,293.3,742,241.7,811.7,229.5 M824.2,309.2c-22.7,5.9-43.6,18.9-58.7,37.3c-40.7,48.7-38.2,127.9,6.7,173.2
	c25.6,26,64.2,38.2,99.8,31c33.1-5.9,62.1-28.1,78-57.5c27.7-49.9,19.7-118.7-22.7-157.7C900.2,310.5,860.3,300,824.2,309.2
	L824.2,309.2z"/>
<path class="st0" d="M1256.3,229.5c63.3-12.2,132.6,5.5,179.9,49.9c77.2,69.2,85.6,198.8,19.7,278.5c-39.8,50.3-104.4,78-168.2,75.1
	c-60.8-1.7-120.8-31.9-156.9-81.8c-40.7-54.9-49.5-130.5-26.4-194.6C1127.5,291.2,1187.9,241.3,1256.3,229.5 M1268.9,309.2
	c-22.7,5.9-43.6,18.9-58.7,36.9c-40.3,47.8-38.6,125.8,4.6,171.6c25.6,27.3,65.4,40.7,102.3,33.1c32.7-6.3,62.1-28.1,78-57.5
	c27.3-50.3,19.3-119.1-23.5-158.1C1344.4,310.1,1304.5,300,1268.9,309.2L1268.9,309.2z"/>
<path class="st0" d="M1633.4,253.8c48.2-30.2,112.4-38.6,164.4-12.6c16.4,7.1,29.8,19.3,42.8,31.5c0.4-11.3,0-23.1,0.4-34.8
	c28.1,0.4,56.2,0,84.7,0.4v370c-0.4,55.8-14.7,114.9-54.9,155.6c-44,44.9-111.6,58.7-172.4,49.5c-65-9.6-121.6-57-146.8-117
	c25.2-12.2,51.6-21.8,77.6-33.1c14.7,34.4,44.5,63.8,81.8,70.5s80.5-2.5,104.9-33.6c26-31.9,26-75.5,24.7-114.5
	c-19.3,18.9-41.5,35.7-68.4,41.9c-58.3,16.4-122.5-3.8-167.4-43.2c-45.3-39.4-72.1-100.3-69.6-160.7
	C1536.5,355.4,1575.1,289.5,1633.4,253.8 M1720.2,307.5c-25.6,4.2-49.5,18.5-65.9,38.2c-39.4,47-39.4,122.1,0.4,168.2
	c22.7,27.3,59.1,42.4,94.4,38.6c33.1-3.4,63.8-24.3,80.1-53.3c27.7-49.1,23.1-115.8-14.3-158.6
	C1791.9,314.3,1755,301.2,1720.2,307.5L1720.2,307.5z"/>
<path class="st0" d="M2187.5,275.2c50.3-47,127.9-62.9,192.5-38.2c61.2,23.1,100.3,81.4,120,141.4c-91,37.8-181.6,75.1-272.7,112.8
	c12.6,23.9,31.9,45.7,57.9,54.5c36.5,13,80.1,8.4,110.7-15.9c12.2-9.2,21.8-21.4,31-33.1c23.1,15.5,46.1,30.6,69.2,46.1
	c-32.7,49.1-87.7,83.5-146.8,88.9c-65.4,8-135.1-17.2-177.4-68.4C2102.3,482.9,2109.1,347.8,2187.5,275.2 M2232.4,352.8
	c-14.3,20.6-20.1,45.7-19.7,70.5c60.8-25.2,121.6-50.3,182.5-75.9c-10.1-23.5-34.4-37.8-59.1-41.5
	C2296.1,298.7,2254.6,320.1,2232.4,352.8z"/>
</svg>
