<?xml version="1.0" encoding="utf-8"?>
<!-- Generator: Adobe Illustrator 24.1.0, SVG Export Plug-In . SVG Version: 6.00 Build 0)  -->
<!DOCTYPE svg PUBLIC "-//W3C//DTD SVG 1.1//EN" "http://www.w3.org/Graphics/SVG/1.1/DTD/svg11.dtd" [
	<!ENTITY ns_extend "http://ns.adobe.com/Extensibility/1.0/">
	<!ENTITY ns_ai "http://ns.adobe.com/AdobeIllustrator/10.0/">
	<!ENTITY ns_graphs "http://ns.adobe.com/Graphs/1.0/">
	<!ENTITY ns_vars "http://ns.adobe.com/Variables/1.0/">
	<!ENTITY ns_imrep "http://ns.adobe.com/ImageReplacement/1.0/">
	<!ENTITY ns_sfw "http://ns.adobe.com/SaveForWeb/1.0/">
	<!ENTITY ns_custom "http://ns.adobe.com/GenericCustomNamespace/1.0/">
	<!ENTITY ns_adobe_xpath "http://ns.adobe.com/XPath/1.0/">
]>
<svg version="1.1" id="Layer_1" xmlns:x="&ns_extend;" xmlns:i="&ns_ai;" xmlns:graph="&ns_graphs;"
	 xmlns="http://www.w3.org/2000/svg" xmlns:xlink="http://www.w3.org/1999/xlink" x="0px" y="0px" viewBox="0 0 2500 603"
	 style="enable-background:new 0 0 2500 603;" xml:space="preserve">
<style type="text/css">
	.st0{fill:#FFFFFF;}
</style>
<metadata>
	<sfw  xmlns="&ns_sfw;">
		<slices></slices>
		<sliceSourceBounds  bottomLeftOrigin="true" height="602.9" width="2500" x="0" y="0"></sliceSourceBounds>
	</sfw>
</metadata>
<path class="st0" d="M754,65.3v7.9l19.8,22.6V250l-26.8,7.6v8.8h73.1v-9.1l-23.2-6.1l-5.8-7V115.6l128,152.4h11.3V84.8l27.1-8.2
	v-9.8h-74.1v11l23.5,5.8l5.8,7.3v121.9v-0.3h-1.5L786.9,65.3H754z M1028.3,269.8c-36.3,0-70.7-23.2-70.7-72.5
	c0-49.1,36.9-73.8,70.7-73.8c35.7,0,71.3,22.2,71.3,71.3C1099.6,242.1,1061.8,269.8,1028.3,269.8L1028.3,269.8z M1071.6,199.1
	c0-33.8-18.3-62.5-47.2-62.5c-25.9,0-39,22.6-39,56.4s16.2,63.4,46.6,63.4C1058.1,256.4,1071.6,232.9,1071.6,199.1z M1463.8,184.5
	c0-33.8-18.9-40.5-41.1-40.5c-18.6,0-30.8,14-30.8,14v86.9l5.8,7.3l19.5,6.7v7.6h-70.1v-7.9l19.8-7.6V105.5c0-26.2-6.7-33.5-21-33.5
	v-7l44.5-14.9h3c0,0-1.5,31.1-1.5,54.2v42.1c0,0,29-23.2,48.8-23.2c24.7,0,47.5,10.4,47.5,46.6v74.7l5.8,7.3l19.5,6.7v7.6h-70.1
	v-7.9l19.2-7.3L1463.8,184.5L1463.8,184.5z M1748.4,189c0,42.1,23.8,59.4,50.9,59.4c16.8,0,37.2-7,37.2-7l3,5.8
	c-7.3,7.3-27.4,22.6-52.7,22.6c-34.4,0-65.2-25.6-65.2-72.5c0-42.7,29.6-73.8,66.4-73.8c28.6,0,50.9,17.1,50.9,49.7
	c0,8.5-1.5,15.8-1.5,15.8H1748.4L1748.4,189z M1792.9,177.8c14.3-0.6,19.5-3.4,19.5-18c0-12.8-9.1-22.2-28.3-22.2
	c-20.1,0-35.7,17.7-35.7,42.1L1792.9,177.8z M1872.2,264.3c-2.1-0.9-7.6-4-7.9-10.4l-1.8-28.6h13.4c3.7,19.5,16.8,32.3,34.1,32.3
	c17.4,0,24.4-9.1,24.4-21c0-11.6-9.4-17.4-20.7-23.5l-15.2-7.9c-21.9-11.3-32.9-20.1-32.9-42.1c0-27.1,19.5-40.2,50-40.2
	c21.3,0,38.1,8.2,38.1,8.2l-4,35.4h-12.5c0-21.9-9.1-30.2-27.4-30.2c-12.5,0-23.8,4.9-23.8,16.8c0,9.8,4,14,27.7,26.2l13.7,7
	c24.7,12.8,31.7,23.2,31.7,43.6c0,24.7-24.7,39.6-48.8,39.6C1894.4,269.8,1880.7,268,1872.2,264.3L1872.2,264.3z M2109,189
	c0,42.1,23.8,59.4,50.9,59.4c16.8,0,37.2-7,37.2-7l3,5.8c-7.3,7.3-27.4,22.6-52.7,22.6c-34.4,0-65.2-25.6-65.2-72.5
	c0-42.7,29.6-73.8,66.4-73.8c28.6,0,50.9,17.1,50.9,49.7c0,8.5-1.5,15.8-1.5,15.8H2109L2109,189z M2153.5,177.8
	c14.3-0.6,19.5-3.4,19.5-18c0-12.8-9.1-22.2-28.3-22.2c-20.1,0-35.7,17.7-35.7,42.1L2153.5,177.8z M2480.2,252.1l-5.8-7.3l0.3-76.2
	c0-35.4-22.9-45.1-46.3-45.1c-19.8,0-47.8,23.2-47.8,23.2c0-12.8,0.6-24.1,0.6-24.1h-2.4l-43.9,15.8v7.3c16.8,0,21.3,14.9,21.3,42.4
	v63.4l-19.8,7.6v7.9h69.2l0.6-7.6l-19.5-6.7l-5.8-7.3v-86.6c0,0,10.7-14.3,29.6-14.3c19.5,0,39.9,7,39.9,40.5l-0.9,67l-19.2,7.3v7.9
	h69.2l0.6-7.6L2480.2,252.1L2480.2,252.1z M1643.3,268l-32.3-89.6l-36.9,89.6h-12.8l-36.3-110.6c-5.2-14-7.9-21.9-17.7-21.9v-8.5
	h59.4v8.5l-18,6.1l27.1,91.7l23.8-57.3l5.5-14.6l-8.2-23.5l-10.4-2.4v-8.5h57.6v9.1l-18.3,5.5l30.5,91.7l31.7-91.1l-20.4-7.3v-7.9
	h53.9v8.5c-12.5,1.5-18.3,4.9-28,29.6l-36.3,103H1643.3L1643.3,268z M1330.3,245.7c0,0-8.5,5.5-21,5.5c-13.7,0-25.9-7.6-25.6-26.2
	l1.2-78.9h44.8l0.6-4.9l3-24.7l-5.8-0.9l-4.3,9.4l-2.4,2.1l-35.4,0.9h-0.3V92.4l-17.4,3l-7.6,34.1l-24.7,2.4v11.9
	c13.7,0,24.7,1.2,24.7,14c0,13.1-1.2,53.6-1.2,70.1c0,30.8,11.9,42.4,31.4,42.4c16.8,0,30.8-7,43.3-17.1L1330.3,245.7L1330.3,245.7z
	 M2068.5,245.7c0,0-8.5,5.5-21,5.5c-13.7,0-25.9-7.6-25.6-26.2l1.2-78.9h44.5l0.6-4.9l3-24.7l-5.8-0.9l-4.3,9.4l-2.4,2.1l-35.4,0.9
	V92.4l-17.4,3l-7.6,34.1l-24.7,2.4v11.9c13.7,0,24.7,1.2,24.7,14c0,13.1-1.2,53.6-1.2,70.1c0,30.8,11.9,42.4,31.4,42.4
	c16.8,0,30.8-7,43.3-17.1L2068.5,245.7L2068.5,245.7z M1218.2,125c-0.3,0-5.2-1.8-14.9-1.8c-21,0-43,33.2-43,33.2
	c0-18.3,0.6-34.1,0.6-34.1h-2.4l-43,15.8v7.3c16.2,0,21.3,14.6,21.3,39.9v65.8l-19.8,7.6v7.9h69.2v-7.6l-19.5-6.7l-5.8-7.3v-64.6
	c0-19.8,15.5-31.1,32.6-31.1c3.4,0,7,0.9,10.1,1.8l4.6,7l5.5,0.3L1218.2,125L1218.2,125z M2320.8,125c-0.3,0-5.2-1.8-14.9-1.8
	c-21,0-43.3,33.2-43.3,33.2c0-18.3,0.6-34.1,0.6-34.1h-2.4l-43,15.8v7.3c16.2,0,21.3,14.6,21.3,39.9v65.8l-19.8,7.6v7.9h69.2v-7.6
	l-19.5-6.7l-5.8-7.3v-64.6c0-19.8,15.5-31.1,32.6-31.1c3.4,0,7,0.9,10.1,1.8l4.6,7l5.8,0.6L2320.8,125z"/>
<g>
	<path class="st0" d="M1380.9,454.8c0,42.1,23.8,59.4,50.9,59.4c16.8,0,37.2-7,37.2-7l3,5.8c-7.3,7.3-27.4,22.6-52.7,22.6
		c-34.4,0-65.2-25.6-65.2-72.5c0-42.7,29.6-73.8,66.4-73.8c28.6,0,50.9,17.1,50.9,49.7c0,8.5-1.5,15.8-1.5,15.8L1380.9,454.8
		L1380.9,454.8z M1425.1,443.5c14.3-0.6,19.5-3.4,19.5-18c0-12.8-9.1-22.2-28.3-22.2c-20.1,0-35.7,17.7-35.7,42.1L1425.1,443.5z
		 M1176.4,510.6l5.8,7.3l19.5,6.7l-0.6,7.6h-68.6v-7.9l19.8-7.6v-68.6c0-27.7-5.5-37.2-21.6-37.2v-7.3l43.9-15.8h2.4
		c0,0-0.9,20.7-0.9,42.7L1176.4,510.6L1176.4,510.6z M1270.3,392.6v7.9l-20.1,6.7l33.5,91.4l34.7-90.8l-21-7.3v-7.9h53.3v8.5
		c-7.9,0-17.4,4-28,29.6l-38.1,103h-14.3l-42.1-110.6c-6.7-15.8-14.3-21.9-23.8-21.9v-8.5H1270.3L1270.3,392.6z M1624.1,530.1
		c-2.1-0.9-7.6-4-7.9-10.4l-1.8-28.6h13.4c3.7,19.5,16.8,32.3,34.1,32.3c17.4,0,24.4-9.1,24.4-21c0-11.6-9.4-17.4-20.7-23.5
		l-15.2-7.9c-21.9-11.3-32.9-20.1-32.9-42.1c0-27.1,19.5-40.2,50-40.2c21.3,0,38.1,8.2,38.1,8.2l-4,35.4H1689
		c0-21.9-9.1-30.2-27.4-30.2c-12.5,0-23.8,4.9-23.8,16.8c0,9.8,4,14,27.7,26.2l13.7,7c24.7,12.8,31.7,23.2,31.7,43.9
		c0,24.7-24.7,39.6-48.8,39.6C1646.3,535.6,1632.9,533.7,1624.1,530.1L1624.1,530.1z M1937.7,423.1c-7-15.8-14.3-21.9-23.8-21.9
		v-8.5h65.2v7.9l-20.1,6.7l34.7,91.4l31.7-90.8l-21-7.3v-7.9h56.1v8.5c-7.9,0-18.9,4-28.6,29.6l-35,96
		c-19.5,51.2-43.3,78.3-79.5,76.2l-3.7-29.6c0,0,8.2,2.1,23.2,0.9c17.4-1.2,34.4-18.9,41.8-42.1L1937.7,423.1L1937.7,423.1z
		 M1097.8,517.9l-5.8-7.3l0.3-76.2c0-35.4-22.9-45.1-46.3-45.1c-19.8,0-47.8,23.2-47.8,23.2c0-12.8,0.6-24.1,0.6-24.1h-2.4
		l-43.9,15.8v7.3c16.8,0,21.3,14.9,21.3,42.4v63.4l-19.8,7.6v7.9h69.2l0.6-7.6l-19.5-6.7l-5.8-7.3v-86.6c0,0,10.7-14.3,29.6-14.3
		c19.5,0,39.9,7,39.9,40.5l-0.9,67l-19.2,7.3v7.9h69.2l0.6-7.6L1097.8,517.9L1097.8,517.9z M1902.7,511.5c0,0-8.5,5.5-21,5.5
		c-13.7,0-25.9-7.6-25.6-26.2l1.2-78.9h38.1l0.6-4.9l3-24.7l-5.8-0.9l-4.3,9.4l-2.4,2.1l-29,1.5v-36l-17.4,3l-7.6,34.1l-24.7,2.4
		V410c13.7,0,24.7,1.2,24.7,14s-1.2,53.6-1.2,70.1c0,30.8,11.9,42.4,31.4,42.4c16.8,0,30.8-7,43.3-17.1L1902.7,511.5L1902.7,511.5z
		 M1597.3,390.8c-0.3,0-5.2-1.8-14.9-1.8c-21,0-43,33.2-43,33.2c0-18.3,0.6-34.1,0.6-34.1h-2.4l-43,15.8v7.3
		c16.2,0,21.3,14.6,21.3,39.9V517l-19.8,7.6v7.9h69.2v-7.6l-19.5-6.7l-5.8-7.3v-64.6c0-19.8,15.5-31.1,32.6-31.1
		c3.4,0,7,0.9,10.1,1.8l4.6,7l5.8,0.6L1597.3,390.8L1597.3,390.8z M1163.9,365.2c-3.4,0-18.9-17.1-18.9-20.4
		c0-3,15.2-20.4,18.9-20.4c4,0,18.9,17.4,18.9,20.4S1167.3,365.2,1163.9,365.2z M1779.5,510.6l5.8,7.3l19.5,6.7l-0.6,7.6h-68.6v-7.9
		l19.8-7.6v-68.6c0-27.7-5.5-37.2-21.6-37.2v-7.3l44.2-15.8h2.4c0,0-0.9,20.7-0.9,42.7L1779.5,510.6L1779.5,510.6z M922.2,465.2
		c0,52.1-37.2,69.5-72.8,69.5c-53.3,0-75.3-25-75.3-71.6v-87.8c0-25.6-7-31.4-27.1-32.3v-10.1h82.3v9.1l-28,8.8v99
		c0,59.7,24.1,68.6,51.5,68.6c28.6,0,50.3-13.4,50.3-61.9V351.2l-27.1-8.2v-9.4h72.5v10.7l-20.4,3.4l-5.8,7.3V465.2z M1767,365.2
		c-3.4,0-18.9-17.1-18.9-20.4c0-3,15.2-20.4,18.9-20.4c4,0,18.9,17.4,18.9,20.4S1770.4,365.2,1767,365.2z"/>
</g>
<g>
	<path class="st0" d="M340.7,375.9l28.3,37.5l-18.3-36.9c4.9,0,9.4-0.6,13.4-1.2l25,22.6L373,373.7c0.9-0.3,1.2-0.3,1.2-0.3
		l-0.6-2.4c0,0-0.9,0.3-2.1,0.6c-2.1,0.6-5.5,1.2-9.8,1.8c-3.7,0.3-7.6,0.9-11.9,0.9h-0.3c-3.7,0-7.6-0.3-11-0.9
		c-1.8-0.3-3.7-0.9-5.2-1.2c-0.6-0.3-1.2-0.3-1.5-0.6c-3.4-0.9-7.3-1.5-11.6-1.5h-3c-4,0.3-7.9,0.9-11.6,1.8
		c-0.6,0.3-1.5,0.6-2.1,0.9c-0.9,0.3-1.8,0.9-2.4,1.2c-2.4-1.5-5.5-2.4-9.1-3c-0.6,0-1.2-0.3-1.8-0.3c-2.7-0.3-5.5-0.6-8.2-0.6h-3.4
		c-0.9,0-1.8,0.3-2.7,0.3c-2.4,0.3-4.9,0.9-7,1.5c-1.8,0.6-3.7,0.9-5.5,1.2c-2.4,0.3-5.2,0.6-7.9,0.9h-2.1c-2.7,0-5.5-0.3-7.9-0.3
		c-3.4-0.3-6.4-0.6-9.1-1.2c-3.7-0.6-6.7-1.2-8.5-1.8c-1.2-0.3-1.8-0.6-1.8-0.6l-0.6,2.4c0,0,0.3,0,0.6,0.3l-20.1,21.9l27.7-20.4
		c3,0.6,6.7,1.2,10.7,1.5l-18.6,34.7l28-34.4c3,0,6.1-0.3,9.1-0.6l-14.6,46.9l26.8-49.7c1.2-0.3,2.7-0.3,4-0.6l-6.7,57.9l18-57.6
		c0.9,0,1.8,0.3,2.7,0.6l4.6,60l6.4-57.6c0.9-0.6,2.1-0.9,3-1.2l15.5,57l-4.6-58.8h3.4l25.6,52.1l-14-50.6
		C335.2,374.9,338,375.6,340.7,375.9L340.7,375.9z"/>
</g>
<g>
	<path class="st0" d="M507.1,298.1c0-115.2-93.3-208.5-208.5-208.5S90.2,182.9,90.2,298.1s93.3,208.5,208.5,208.5
		C413.9,506.9,507.1,413.3,507.1,298.1L507.1,298.1z M298.7,501.7c-56.1,0-107-22.9-143.8-59.7c-36.9-36.6-59.7-87.5-59.7-143.8
		c0-56.1,22.9-107,59.7-143.8s87.8-59.7,143.8-59.7s107,22.9,143.8,59.7s59.7,87.8,59.7,143.8s-22.9,107-59.7,143.8
		S354.7,501.7,298.7,501.7z"/>
	<path class="st0" d="M299.3,0.1C134.1,0.1,0,134.2,0,299.4s134.1,299.3,299.3,299.3s299.3-134.1,299.3-299.3S464.8,0.1,299.3,0.1z
		 M503.8,504.2c-52.4,52.4-124.6,84.7-204.5,84.7s-152.1-32.3-204.5-84.7S10.1,379.5,10.1,299.7S42.4,147.6,94.8,95.2
		s124.6-85,204.5-85s152.1,32.3,204.5,84.7s84.7,124.6,84.7,204.5C588.5,379.5,556.2,451.7,503.8,504.2z"/>
	<path class="st0" d="M443.4,299.7c0-80.2-64.9-145.4-145.4-145.4c-80.2,0-145.4,64.9-145.4,145.4c0,80.2,64.9,145.4,145.4,145.4
		C378.2,444.7,443.4,379.8,443.4,299.7z M298.1,439.9c-38.7,0-73.8-15.8-99.4-41.1c-25.3-25.3-41.1-60.3-41.1-99s15.8-73.8,41.1-99
		s60.3-41.1,99.4-41.1c38.7,0,73.8,15.5,99,41.1c25.3,25.3,41.1,60.3,41.1,99s-15.8,73.8-41.1,99S336.8,439.9,298.1,439.9z"/>
	<path class="st0" d="M368.5,367c-3,0.6-7,1.2-11.9,1.8c-2.1,0.3-4.6,0.3-6.7,0.3h-2.7c-4.6-0.3-9.1-0.9-13.4-2.1h-0.6
		c-0.9-0.3-2.1-0.6-3-0.9c-3-0.6-6.7-0.9-10.1-0.9h-3.4c-4.6,0.3-8.8,0.9-12.5,2.1h-0.3c-1.2,0.3-2.1,0.9-3.4,1.5
		c-4.6-2.7-12.2-4-19.2-4h-3.4c-3.7,0.3-7.3,0.9-10.1,1.8c-1.2,0.3-2.4,0.9-4,0.9c-1.5,0.3-3.4,0.6-5.2,0.9
		c-2.1,0.3-4.3,0.3-6.7,0.3c-1.8,0-3.7,0-5.5-0.3c-1.8,0-4-0.3-5.8-0.6c-2.7-0.3-5.5-0.6-7.9-1.2c-0.9-0.3-1.8-0.3-2.7-0.6
		c-3.7-0.6-5.8-1.2-5.8-1.2l-0.6,2.4c0,0,1.8,0.6,4.6,1.2c2.4,0.6,5.8,1.2,9.8,1.8l7.3,0.9c2.1,0.3,4.6,0.3,6.7,0.3h4.3
		c2.1,0,4.3-0.3,6.4-0.9c1.8-0.3,3.7-0.9,5.5-1.5c2.1-0.6,4.9-1.2,7.6-1.5h4.9c3,0,6.1,0.3,9.1,0.9h0.6c3.4,0.6,6.4,1.8,8.5,3
		l0.6,0.6l0.6-0.6c0.6-0.3,1.2-0.9,2.1-1.2c0.3-0.3,0.9-0.3,1.2-0.6c3.4-1.2,7.6-2.1,11.9-2.1h3c4,0,7.9,0.6,11,1.2
		c0.6,0.3,1.2,0.3,1.5,0.3c1.2,0.3,2.4,0.9,3.7,1.2c4,0.9,7.9,1.2,12.2,1.5h1.5c3.4,0,6.4-0.3,9.1-0.6c4.6-0.6,8.2-1.2,11-1.8
		c2.1-0.6,3.4-0.9,3.7-0.9l-0.6-2.4C372.7,366.1,371.2,366.4,368.5,367L368.5,367z M253,458.5c0,0,0.6,4,3,6.1
		c4.9,4,10.4,4.9,10.4,4.9s0.3-4.3-6.4-8.2C254.5,458.2,253,458.5,253,458.5L253,458.5z M237.7,454.8c0,0,0.3,4,2.7,6.1
		c4.6,4.3,10.1,5.2,10.1,5.2s0.6-4-5.8-8.2C239.2,454.5,237.7,454.8,237.7,454.8z M221.6,449c0,0,0,4,2.4,6.1
		c4.3,4.3,9.8,5.5,9.8,5.5s0.6-4-5.2-8.5C223.4,448.7,221.6,449,221.6,449z M205.4,440.5c0,0-0.3,4,1.5,6.4c4,4.6,9.1,6.1,9.1,6.1
		s1.2-4-4.3-8.5C206.9,440.2,205.4,440.5,205.4,440.5z M267.9,462.7c0,0,1.2,4,4,5.8c5.5,3.7,11,3.7,11,3.7s-0.6-4.3-7.6-7.3
		C269.4,462.1,267.9,462.7,267.9,462.7z M238.6,468.2c-8.2-0.3-11.9,3-11.9,3s4.6,2.1,11.9,1.5c4-0.3,7.9-3,7.9-3
		S245.6,468.5,238.6,468.2z M255.7,472.8c-8.2-0.3-11.6,2.7-11.6,2.7s4.9,2.4,11.9,1.8c4-0.3,7.3-3,7.3-3S262.7,473.1,255.7,472.8z
		 M274.6,475.8c-8.2,0-11.9,3.4-11.9,3.4s4.9,2.1,11.9,1.2c4-0.6,7.6-3.4,7.6-3.4S281.6,476.1,274.6,475.8z"/>
	<path class="st0" d="M405,439.9c-4.3,1.8-5.8,4-6.4,5.5c-32.9,18-64.3,27.1-92.3,28l-3.7,0.6c1.2-2.4,4.3-6.7,0.9-7.6
		c-3.4-0.9-5.5,7.3-4,7.9h-0.3c-0.6-3.4-1.8-10.7-3.4-7c-0.3,1.2-5.8,0.9,0.3,6.7c-42.4-1.8-71.3-14.3-95.4-27.7
		c-0.6-1.5-2.1-3.7-6.4-5.5c-5.8-2.4-7.3-1.5-7.3-1.5s0.6,3.7,3.7,5.5c3.7,2.1,7.3,2.7,9.4,3c24.4,13.4,53.9,26.2,97.2,28
		c-0.6,2.1-5.8,5.5-2.1,6.1c5.2,0.9,4.6-5.5,7-3s1.8,3.4,3.7,2.4c1.5-0.9-0.6-4.3-2.7-5.8l4-0.6c28.3-0.9,60-10.1,93.3-28.3
		c1.8-0.3,5.8-0.6,9.4-3c2.7-1.8,3.4-5.5,3.4-5.5S410.8,437.4,405,439.9L405,439.9z M219.7,462.1c-6.4,0.6-7.3,2.1-7.3,2.1
		s2.4,3,5.8,3c6.1,0.3,11-2.4,11-2.4S227.1,461.5,219.7,462.1z M204.2,454.2c-6.4-0.6-7.6,0.6-7.6,0.6s1.8,3.4,4.9,4.3
		c5.8,1.5,11-0.3,11-0.3S211.5,454.8,204.2,454.2L204.2,454.2z"/>
	<path class="st0" d="M332.8,468.2c0,0,5.5-0.6,10.7-4.6c2.7-2.1,3.4-6.1,3.4-6.1s-1.5-0.6-7.3,2.7
		C332.5,463.9,332.8,468.2,332.8,468.2z M348.3,464.2c0,0,5.5-0.9,10.1-4.9c2.4-2.1,2.7-6.1,2.7-6.1s-1.5-0.3-7,3
		C348,460.3,348.3,464.2,348.3,464.2z M365.1,459.4c0,0,5.5-0.9,10.1-5.2c2.4-2.4,2.4-6.1,2.4-6.1s-1.8-0.3-7,3.4
		C364.5,455.1,365.1,459.4,365.1,459.4L365.1,459.4z M387.4,443.5c-5.8,4.6-4.6,8.5-4.6,8.5s5.5-1.5,9.4-6.1
		c2.1-2.4,1.8-6.4,1.8-6.4S392.2,439.6,387.4,443.5L387.4,443.5z M315.4,471.6c0,0,5.5,0,11-3.4c3-1.8,4.3-5.8,4.3-5.8
		s-1.5-0.6-7.6,1.8C316,467.3,315.4,471.6,315.4,471.6z M352.3,468.5c0,0,4,2.7,7.9,3.4c7.3,0.9,11.9-1.2,11.9-1.2
		s-3.7-3.4-11.9-3.4C353.2,467.3,352.3,468.5,352.3,468.5z M342.3,472.5c-7,0.3-7.9,1.2-7.9,1.2s3.7,2.7,7.3,3
		c7,0.6,11.9-1.5,11.9-1.5S350.5,472.2,342.3,472.5L342.3,472.5z M314.8,476.4c0,0,3.7,3,7.6,3.4c7,1.2,11.9-0.9,11.9-0.9
		s-3.4-3.4-11.6-3.7C315.7,475.5,314.8,476.4,314.8,476.4z M378.5,460.3c-7.3,0.6-8.8,4.3-8.8,4.3s5.2,1.8,11.3,0.3
		c3.4-0.9,5.2-4,5.2-4S384.9,460,378.5,460.3L378.5,460.3z M394.1,452.4c-7.3,0.3-8.8,4.3-8.8,4.3s5.2,1.8,11,0.6c3-0.6,5.2-4,5.2-4
		S400.5,452.1,394.1,452.4L394.1,452.4z M126.5,442.9c-1.8-2.4-2.7-4.3-3.7-5.5c-0.3-0.3-0.6-0.6-0.9-0.6c-0.6,0-0.6,0.3-0.9,0.3
		c-0.3,0.3-0.6,0.6-0.6,0.9c0,1.2,1.5,2.4,1.2,4c0,0.9-0.3,1.8-1.8,2.7l-21.6,15.5c-0.3,0.3-0.3,0.3-0.6,0.3c0-0.3,0.3-0.9,0.3-1.2
		l9.1-41.1c0.3-0.9,0.3-1.5,0.3-2.1s0-0.9-0.3-1.5c-0.3-0.3-0.6-0.3-0.9-0.3c-0.9,0-1.5,0.6-2.7,1.5l-30.8,21.9
		c-0.9,0.6-1.8,0.9-2.4,0.9c-1.2,0-1.8-1.2-3.4-1.2c-0.3,0-0.6,0-0.9,0.3s-0.6,0.6-0.6,0.9s0,0.6,0.3,0.9c0.9,1.2,2.7,3.4,4,5.2
		c1.2,1.5,2.1,3.4,3.4,4.9c0.3,0.3,0.6,0.6,0.9,0.6s0.6,0,0.6-0.3c0.3-0.3,0.6-0.9,0.6-1.2c0-1.5-1.2-2.7-1.2-4.9c0-1.5,0.6-3,3-4.9
		l21.6-15.5l-10.1,45.4c0,0.3-0.3,0.9-0.3,1.8c0,0.3,0,0.6,0.3,0.9c0.6,0.9,1.5,1.5,1.8,2.4c0.6,0.6,0.9,1.8,1.5,2.7
		c0.3,0.3,0.6,0.6,1.2,0.6c0.3,0,0.3,0,0.6-0.3c0.3-0.3,0.6-0.6,0.6-1.2c0-1.2-1.2-2.4-1.2-4.6c0-1.8,0.9-4.6,5.8-7.9l19.5-14
		c2.1-1.5,3.7-2.1,4.9-2.1c2.1,0,2.7,1.8,4.6,2.1c0.3,0,0.6,0,0.9-0.3c0.3-0.3,0.6-0.6,0.6-0.9s0-0.6-0.3-0.9
		C130.1,447.2,128,444.7,126.5,442.9L126.5,442.9z M78,413.7c9.8-4,15.8-11.9,15.8-21.3c0-3-0.6-6.4-1.8-9.4
		c-4.3-10.4-12.5-16.5-22.2-16.5c-3.4,0-6.7,0.6-10.4,2.1c-9.4,4-14.9,12.2-14.9,21.6c0,3,0.6,6.4,1.8,9.8
		c4,9.8,12.5,15.5,22.2,15.5C71.9,415.5,75,414.9,78,413.7z M50.6,400.2c-0.9-2.4-1.2-4.6-1.2-7c0-8.8,6.4-16.8,14.9-20.1
		c3-1.2,5.8-1.8,8.5-1.8c7,0,12.8,4,15.2,10.1c0.9,2.4,1.2,4.9,1.2,7c0,8.8-6.7,16.8-15.2,20.4c-2.7,1.2-5.5,1.8-8.2,1.8
		C59.1,410.3,53.3,407.3,50.6,400.2L50.6,400.2z M74.4,350.3c1.5,0,2.4,0.9,3,1.8s0.9,2.1,2.1,2.1h0.3c0.6,0,1.2-0.6,1.2-1.2
		c-0.3-2.4-0.9-4.9-1.5-7.3c-0.9-5.5-0.9-6.7-0.9-7.3c0-0.3,0-1.5-1.2-1.5h-0.3c-1.8,0.6-1.2,2.4-1.5,4.3c-0.3,1.8-0.6,3-3,3.4
		l-13.7,2.1c-0.3,0-0.6,0.3-0.9,0.3c-0.3,0-0.3,0-0.6-0.9c-0.3-2.7-0.6-4.3-0.6-5.2c0-1.5,0.3-1.5,2.4-3.4l10.1-8.8
		c3-2.7,5.8-5.5,5.8-9.8v-1.5c0-0.3-0.3-1.2-0.6-2.4c-0.3-0.9-0.3-2.1-1.5-2.4h-0.3c-0.6,0-0.9,0.9-0.9,1.2
		c-0.3,1.2,0.3,3.4-4.3,7.6l-14,12.8c-2.4-3.7-6.4-6.1-11-6.1h-1.8c-8.2,1.2-9.8,7.9-9.8,12.5c0,2.7,0.6,4.9,0.6,5.2
		c0.6,3.4,1.2,7,1.8,10.7c0.3,1.8,0.3,2.4,0.3,3v1.2c0.3,0.9,0.6,1.5,1.5,1.8c1.8-0.6,1.2-2.4,1.5-3.7c0.3-1.2,0.6-2.4,3.4-3
		l32.9-5.2C73.8,350.3,74.1,350.3,74.4,350.3L74.4,350.3z M53.9,346.9l-16.5,2.4h-0.6c-1.2,0-1.2-0.6-1.5-2.7
		c-0.3-0.9-0.3-2.1-0.3-3c0-4.9,2.1-9.1,8.2-10.1c0.6,0,1.2-0.3,1.8-0.3c5.8,0,7.3,4.9,7.9,7.3c0.3,1.8,0.9,4.3,0.9,5.5V346.9
		L53.9,346.9z M36.9,308.8c0.6,0,0.9-0.3,1.2-1.2h-0.3h0.3c0-1.5-1.5-1.5-1.8-1.8c-3.4-1.5-4-1.2-4-4.3v-0.9l0.3-10.7H35l33.8,1.5
		c1.5,0,2.1,0.9,2.7,2.4c0.6,1.2,0.3,2.7,1.8,3c0.3,0,0.6,0,0.9-0.3c0.3-0.3,0.3-0.6,0.3-0.9h-0.3h0.3v-2.4c0-1.2,0-3.4,0.3-6.4
		c0-1.8,0.3-3.7,0.6-5.2c0-1.2-1.2-1.2-1.5-1.2c-1.8,0.3-1.5,1.8-2.1,3c-0.3,1.2-0.9,2.1-3,2.1h-0.3l-33.2-1.5c-1.2,0-2.1,0-2.4-0.3
		v-0.6v-1.5l0.3-9.4c0.3-3,1.2-3.4,2.1-3.7c0.6,0,1.2,0,1.8-0.3c0.6,0,1.2-0.6,1.2-1.5c0-1.2-1.2-1.2-1.5-1.2h-5.5
		c-0.6,0-1.5,0-1.8,0.6c-0.6,0.6-0.6,1.2-0.6,1.8c0,1.2,0,7.3-0.6,19.2c-0.3,8.2-0.9,13.4-0.9,18.6c0.3,1.8,2.4,1.8,3,1.8
		L36.9,308.8z M32.3,250C32.3,250,32.6,250,32.3,250c1.8-0.3,1.8-1.5,2.4-2.4c0.6-0.9,1.5-1.8,2.7-1.8h0.9l32.3,8.8
		c3.7,0.9,3.4,2.4,3.7,4v0.6c0,0.6,0,1.8,1.2,2.1h0.6c0.6,0,1.2-0.3,1.2-0.9c0-0.6,0-0.9,1.2-5.5c0.9-3.4,2.4-7.9,2.7-8.5v-0.6
		c0-0.3,0-0.9-0.9-1.2h-0.3c-1.5,0.3-1.8,1.5-2.4,2.7s-1.5,2.1-2.7,2.1h-0.9l-15.5-4.3h-0.6l6.4-23.2c0.3,0,0.6,0.3,0.9,0.3
		l14.9,4.3c1.8,0.6,1.8,1.5,2.1,2.4c0.3,0.9-0.3,2.4,1.2,3h0.6c1.5,0,1.5-1.5,1.5-1.8c0.3-1.2,0.6-3,1.5-7c0.6-2.1,1.5-4,1.8-5.8
		v-0.3c0-0.9-0.6-1.2-0.9-1.2h-0.3c-1.5,0.3-1.5,1.5-2.4,2.4c-0.6,1.2-1.5,1.8-2.7,1.8c-0.3,0-0.6,0-0.9-0.3l-33.2-9.1
		c-2.4-0.6-2.4-2.1-2.4-3.4V207c0-0.6,0-1.5-0.9-1.8h-0.3c-0.6,0-1.5,0.6-1.8,2.1c-0.3,1.2-0.3,2.4-0.9,4.6
		c-0.3,1.2-1.5,4.3-2.1,6.4v0.9c0,0.6,0.6,1.2,0.9,1.2h0.3c1.2-0.3,1.5-1.2,2.1-2.1c0.6-0.9,1.2-1.5,2.4-1.5c0.3,0,0.6,0,1.2,0.3
		l12.8,3.7c0.3,0,0.6,0,0.9,0.3c0,0,0.3,0,0.3,0.3l-6.4,22.9v0.3h-0.6l-13.7-3.7c-2.7-0.9-2.4-2.1-2.7-3.7v-0.3c0-0.6,0-1.5-0.9-1.8
		h-0.3c-0.6,0-1.2,0.6-1.5,1.5c-0.6,2.1-0.9,4-1.5,5.8c-0.6,2.4-1.5,4.6-2.1,6.7v0.6C31.4,249.1,31.7,250,32.3,250z M51.2,187.5
		c0.3,0,0.3,0.3,0.6,0.3c1.5-0.3,2.1-2.1,4.6-2.1h0.9l37.8,6.1c3,0.6,4.9,0.9,6.1,0.9c0.6,0,1.2-0.3,1.5-0.6
		c0.3-0.3,0.3-0.6,0.3-0.9c0-0.6-0.3-1.2-0.9-1.8l-11.6-15.5l18.3,2.7c0.9,0,1.5,0.3,2.1,0.3s1.2-0.3,1.5-0.6
		c0.3-0.3,0.3-0.6,0.3-0.9c0-0.9-0.6-1.8-1.2-2.4l-25.3-34.7c-1.5-2.1-1.8-3.4-1.8-4v-0.9c0-0.3-0.3-0.9-0.6-1.2
		c-0.3,0-0.6-0.3-0.9-0.3c-0.6,0-0.9,0.6-1.2,0.9c-0.9,1.2-1.5,3-2.4,4.9c-0.9,1.2-1.8,2.4-2.4,3.7c0,0.3-0.3,0.3-0.3,0.6
		c0,0.6,0.3,0.9,0.9,1.2c0.3,0,0.3,0.3,0.6,0.3c1.5-0.3,2.7-2.1,4-2.1c0.3,0,0.6,0,0.9,0.3c0.6,0.3,0.9,0.6,1.5,1.2l18.9,25.3
		c0.6,0.9,0.9,1.5,1.2,1.8h-1.8l-14.3-2.1c-0.9,0-2.4-0.6-2.7-0.9c-0.3-0.3-0.9-0.6-1.5-1.5l-6.7-9.4c-2.1-3-2.4-4.3-2.4-5.2v-0.9
		c0-0.3-0.3-0.9-0.9-1.2h-0.3c-0.3,0-0.6,0.3-0.9,0.6c-0.6,0.9-0.9,1.8-2.1,4.3c-0.6,1.2-1.5,2.1-2.4,3.4c0,0.3-0.6,0.6-0.6,1.2
		c0,0.3,0,0.6,0.6,0.9c0.3,0,0.6,0.3,0.6,0.3c1.5-0.3,2.4-1.8,3.7-1.8c0.3,0,0.6,0,0.9,0.3c0.3,0.3,1.2,0.9,1.5,1.5l4.9,6.7
		c0,0.3,0.3,0.3,0.3,0.6h-0.9l-9.1-1.5c-0.9,0-1.2-0.3-1.8-0.6s-0.6-0.6-0.6-1.2v-1.2c0-0.3,0-0.9-0.6-1.2c-0.3-0.3-0.6-0.3-0.9-0.3
		s-0.6,0-0.9,0.3c-0.9,1.2-1.5,2.7-3,5.5c-0.3,0.6-2.4,3.7-3.7,5.5c-0.3,0.3-0.3,0.6-0.3,0.9c0,0.3,0.3,0.9,0.6,1.2
		c0.3,0.3,0.6,0.3,0.9,0.3c2.4-0.3,2.4-3.7,5.5-3.4h0.6l16.8,2.4c0.9,0,1.8,0.3,1.8,0.3c0.3,0,0.9,0.9,1.8,1.8l7.3,10.1
		c0.3,0.3,0.3,0.3,0.3,0.6h-1.2L60,180.8c-0.6,0-1.2-0.3-1.5-0.3c-0.6-0.3-0.6-0.9-0.6-1.5v-1.2c0-0.3,0-0.9-0.6-1.2
		c-0.3-0.3-0.6-0.3-0.9-0.3c-0.3,0-0.9,0.3-0.9,0.6c-0.9,1.5-1.5,2.7-2.1,4.3c-0.9,1.5-2.1,3-3,4.9c-0.3,0.3-0.3,0.9-0.3,1.2
		C50.3,186.6,50.6,187.2,51.2,187.5L51.2,187.5z M96,121.4c0.9,0,1.8-0.6,2.1-0.9c0.9-0.6,1.5-0.9,2.1-0.9c1.5,0,3,1.2,4.3,2.7
		l21,21c1.8,1.8,2.7,3,2.7,4v0.6c-0.6,1.5-0.9,2.1-0.9,3c0,0.3,0,0.6,0.3,0.9s0.6,0.6,0.9,0.6c0.6,0,0.9-0.3,1.2-0.6
		c1.8-1.8,3.7-4,5.5-5.8c3.4-3.7,7-6.7,10.7-10.4c1.8-1.8,3-3,3-5.8v-0.6c0-2.4-0.6-5.2-2.4-7.3c-0.3,0-0.3-0.3-0.9-0.6
		c-0.3,0-0.6,0-0.6,0.3c-0.3,0.3-0.3,0.6-0.3,0.9v2.1c0,2.7-0.9,7.6-7.9,14.6c-1.5,1.5-2.7,2.1-3.4,2.1c-0.6,0-1.5-0.9-3-2.4
		l-8.5-8.5l-0.9-0.9l0.3-0.3l6.7-7c0.9-0.9,1.8-1.2,2.4-1.2c1.5,0,2.7,1.8,4.6,1.8c0.3,0,0.6,0,0.9-0.3c0.3-0.3,0.3-0.6,0.3-0.9
		s-0.3-0.9-0.6-0.9l-3.7-3.7l-4.6-4.6c-0.3-0.3-0.9-0.6-1.5-0.6c-0.3,0-0.6,0-0.9,0.3s-0.3,0.6-0.3,0.9c0.3,1.2,1.5,2.1,1.2,4
		c0,0.9-0.3,2.1-1.8,3.7l-5.2,4.3l-1.2,1.2c0,0-0.3-0.3-1.2-0.9l-8.5-8.5c-1.5-1.5-2.1-2.1-1.8-2.4c0-0.3,0.9-1.5,3.4-4
		c1.8-1.8,6.1-6.4,8.2-6.4h0.3c1.2,0,2.1,2.1,4,2.4c0.3,0,0.6,0,0.9-0.3c0-0.3,0.3-0.3,0.3-0.9c0-1.2-0.9-2.4-4.9-6.4
		c-0.6-0.3-0.9-0.9-1.5-0.9c-0.3,0-0.6,0-0.9,0.3c-1.5,1.5-5.5,5.8-6.4,6.7c-1.8,1.8-4.6,4.3-13.1,12.8c-0.9,0.9-1.5,1.5-1.5,2.1
		c0,0.3,0.3,0.6,0.3,0.9C95.4,121.1,95.7,121.4,96,121.4L96,121.4z M150.2,98.5c6.7,0,14-4.6,19.5-4.3c2.1,0,4,0.6,5.5,2.7
		c1.2,1.5,1.5,3.4,1.5,5.2c0,3.7-2.4,7.3-5.8,9.4c-2.7,1.8-5.5,2.4-7.9,2.4c-3.7,0-7-1.8-8.2-2.7c-0.9-0.6-1.2-1.2-2.1-1.5
		c-0.3,0-0.6,0-0.9,0.3c-0.3,0.3-0.6,0.6-0.6,1.2s0.3,1.2,0.9,1.8l6.1,6.1c0.6,0.3,0.9,0.3,1.5,0.3c2.4,0,7-1.2,10.4-3.7
		c7.6-5.2,10.1-10.7,10.1-15.2c0-3-0.9-5.5-2.1-7.3c-3-4.3-6.7-5.8-10.4-5.8c-6.7,0-14,4.3-19.2,4.3c-2.1,0-3.7-0.6-5.2-2.7
		c-0.9-1.5-1.2-2.7-1.2-4c0-3,2.1-6.1,5.2-8.2c2.4-1.5,4.9-2.4,7.3-2.4s4.9,0.6,7,2.4c0.3,0.3,1.2,0.9,2.1,0.9c0.3,0,0.6,0,0.6-0.3
		c0.3-0.3,0.6-0.6,0.6-1.2c0-0.6-0.3-0.9-0.6-0.9l-5.8-6.7c-0.3-0.3-0.6-0.6-1.2-0.6c-0.3,0-0.6,0-0.9,0.3c-0.9,0.9-0.6,1.5-0.6,1.2
		c0,0.3-4-0.3-10.4,4.3c-4.3,3-7.3,7.3-7.3,12.2c0,2.4,0.6,4.6,2.1,7C143.2,97,146.9,98.5,150.2,98.5L150.2,98.5z M176.2,66.2
		c0.3,0.6,0.6,0.9,1.2,0.9h0.3c0.6-0.3,0.9-0.9,0.9-1.5v-0.9c0-0.9-0.3-1.8-0.3-2.4c0-1.5,0.3-1.8,3-3l9.8-4.3
		c0.3,0.3,0.9,1.5,0.9,2.1l13.4,31.1c0.3,0.3,0.3,0.9,0.3,1.2c0,2.1-2.7,2.7-3,4.9v0.6c0.3,0.3,0.6,0.9,1.2,0.9c0.3,0,0.6,0,0.6-0.3
		c0.6-0.3,1.5-0.9,8.2-3.7c1.8-0.6,3.4-1.2,4.9-1.8c0.6-0.3,0.9-0.6,0.6-1.2c0-0.3-0.3-0.6-0.3-0.6c-0.3-0.6-0.9-0.9-1.5-0.9
		c-0.9,0-1.8,0.3-2.7,0.3s-1.8-0.3-2.7-2.1l-13.1-30.5c-0.6-1.5-0.9-2.1-0.9-2.4h0.3c0.3-0.3,0.9-0.3,1.5-0.6l8.5-3.7
		c1.2-0.6,1.8-0.6,2.4-0.6c1.2,0,1.5,0.6,2.1,1.2c0.3,0.6,0.6,1.8,1.8,1.8h0.6c0.6-0.3,0.9-0.6,0.9-1.2c0-0.6-0.3-0.9-0.3-1.2
		l-2.4-4.6c-0.3-0.9-0.9-1.5-1.8-1.5c-0.3,0-0.9,0-1.5,0.3c-1.2,0.6-6.7,3-17.4,7.6c-7.6,3.4-12.5,5.2-17.1,7
		c-0.6,0.3-0.9,0.9-0.9,1.5c0,0.9,0.3,1.5,0.6,2.1L176.2,66.2L176.2,66.2z M228.3,39.1h0.9c2.7,0,3.4,2.4,4,5.2l6.1,29
		c0.3,1.2,0.6,2.4,0.6,3.4s-0.3,1.5-0.9,2.1c-1.5,1.2-2.4,1.2-2.7,2.7c0,0.6,0.6,0.9,1.2,0.9h0.6c2.7-0.6,5.2-1.2,7.6-1.8
		c4.9-1.2,9.8-1.8,14.6-2.7c2.7-0.6,4.6-0.9,6.1-3.7c0.9-1.8,2.1-4,2.1-6.1v-1.2c0-0.3-0.3-0.9-1.2-1.2H267
		c-0.9,0.3-0.6,0.9-1.2,1.5c-1.2,2.1-4.3,6.4-15.2,8.8c-1.2,0.3-1.8,0.3-2.4,0.3c-2.1,0-1.8-0.9-2.7-4.3l-2.4-11.9
		c0-0.6-0.3-0.9-0.3-1.2s0-0.3,0.6-0.3l9.4-1.8h1.2c1.5,0,2.1,0.9,2.7,2.1c0.6,0.9,0.6,2.4,2.1,2.7h0.3c0.6,0,1.2-0.6,1.2-1.2v-0.3
		c-0.3-1.8-0.9-3.4-1.2-4.9c-0.3-2.1-0.6-4.3-1.2-6.4c-0.3-0.6-0.3-1.5-1.5-1.5H256c-1.5,0.6-0.9,2.1-1.2,3.4c-0.3,1.2-0.9,2.4-4,3
		l-7,1.5c-0.9,0.3-1.5,0.3-1.5,0.3c-0.3,0,0,0.3-0.6-1.5l-2.4-11.9c-0.3-1.2-0.3-2.1-0.3-2.4c0-0.9,0.6-0.9,5.2-2.1
		c1.8-0.3,5.2-1.2,7.9-1.2c1.2,0,2.1,0.3,2.7,0.6c0.3,0.3,0.6,1.2,0.9,2.1c0.3,0.9,0.6,2.1,1.8,2.1h0.3c0.6-0.3,1.2-0.9,0.9-2.4
		c0-1.2-0.3-3-0.9-6.4c-0.3-0.6-0.3-1.5-1.5-1.8H256c-2.1,0.3-7.9,1.8-9.1,2.1c-2.7,0.6-6.1,0.9-18,3.7c-1.5,0.3-2.4,0.6-2.7,1.8
		v0.3C226.7,39.1,227.7,39.1,228.3,39.1L228.3,39.1z M274.3,29c0.3,1.8,2.1,1.5,3.4,1.8c1.2,0.3,2.4,0.9,2.4,3.7l0.3,33.2
		c0,2.1-0.9,2.7-2.1,3.4c-0.9,0.6-2.4,0.6-2.7,2.1c0,0.6,0.6,1.2,1.2,1.2c2.4,0,4.9-0.3,7.3-0.3h1.8c3.7,0,4.9,0.3,5.5,0.3h0.3
		c0.3,0,0.9,0,1.2-0.6h0.3v-0.6c-0.3-1.8-2.4-1.8-4-2.1c-1.5-0.6-3-0.9-3-3.7l-0.3-13.7v-0.6c0-0.3-0.3-0.3,1.2-0.6h3
		c4,0,2.7,0,4.9,3l7.3,11.3c2.4,3.7,5.2,7.3,10.4,7.3h2.4c0.6-0.3,1.5,0,2.1-0.6h0.3v-0.6v0.3v-0.3c0-0.6-0.6-1.2-0.9-1.2
		c-1.2-0.3-3.4,0-7-5.5L299,50.4c4.3-2.1,7.6-6.4,7.6-11.6c-0.3-11-10.1-11.9-14.3-11.9h-1.8c-3.4,0-7,0.3-11,0.3h-0.6
		c-2.4,0-2.1-0.3-3.4-0.3h-0.3C275.2,27.5,274.3,27.8,274.3,29C274.3,28.7,274.3,28.7,274.3,29C274.3,28.7,274.3,28.7,274.3,29
		C274.3,28.7,274.3,28.7,274.3,29C274.3,28.7,274.3,28.7,274.3,29C274.3,28.7,274.3,29,274.3,29L274.3,29z M286.2,32.4
		c0-2.1,0.6-1.5,3-1.8h0.3c6.1,0,11.6,2.4,11.6,9.8v0.3c0,7.3-5.8,8.5-8.2,8.5h-3.7c-0.9,0-1.8,0-2.1-0.3c-0.3,0-0.3,0-0.6-0.3
		L286.2,32.4L286.2,32.4z M324.3,74.8c0.6,0,4,0.6,6.1,0.9c3,0.6,4.9,1.2,6.4,1.5h0.3c0.9,0,1.2-0.9,1.2-1.2v-0.3
		c-0.3-1.5-1.8-1.5-2.7-2.1c-1.2-0.6-1.8-1.2-1.8-2.7c0-0.3,0-0.9,0.3-1.2l5.5-26.2v-0.6c0.3,0.3,0.3,0.9,0.6,0.9l20.7,36.6
		c1.2,1.8,1.8,2.4,2.4,2.7h0.3c1.2-0.3,1.2-1.5,1.8-3l7.9-36.9c0.6-2.1,1.2-2.4,2.1-2.7c0.9-0.3,2.1,0,2.7-1.5v-0.3
		c0-0.6-0.6-1.2-0.9-1.2c-1.5-0.3-4.3-0.6-6.4-1.2c-2.1-0.3-3.7-1.2-5.8-1.5h-0.3c-0.6,0-1.2,0.3-1.2,0.9v0.3c0.3,1.5,1.8,1.8,3,2.4
		c1.2,0.9,2.4,1.8,2.4,4.6c0,0.6,0,1.5-0.3,2.1l-5.5,26.2l-23.2-40.2c-0.3-0.3-0.6-1.8-1.8-2.1c-0.9-0.3-2.1-0.3-3-0.3
		c-0.9-0.3-1.8-0.6-3-0.9h-0.3c-0.3,0-1.2,0-1.5,0.9v0.3c0.3,1.8,1.8,1.5,3,2.4c1.2,0.9,2.4,2.4,2.7,6.1c0,1.2-0.3,2.7-0.6,4.6
		l-5.2,23.5c-0.9,4.3-2.4,5.2-3.7,5.5s-3-0.3-3.7,1.5v0.3C323.1,74.1,323.7,74.8,324.3,74.8L324.3,74.8z M416.9,108.6
		c4.3,2.4,7.9,3.7,11,3.7c9.4,0,14-8.8,15.5-10.7l10.7-17.1c1.5-2.4,2.7-2.7,3.7-2.7h1.5c0.6,0,1.2-0.3,1.5-0.9
		c0-0.3,0.3-0.3,0.3-0.6c0-0.6-0.3-0.9-0.6-1.2c-1.2-0.6-2.1-0.9-3.4-1.5c-2.1-1.2-4.3-2.7-6.4-4.3h-0.6c-0.3,0-0.9,0-1.2,0.6
		c-0.3,0.3-0.3,0.6-0.3,0.9c0.3,2.1,3,2.7,3,5.2c0,0.6-0.3,1.5-0.9,2.7l-11,18c-2.7,4.3-6.4,8.2-11.9,8.2c-2.4,0-5.2-0.9-8.5-2.7
		c-4.9-3-7.6-7-7.6-11.9c0-2.4,0.9-5.2,2.7-8.2l12.2-19.8c0.9-1.2,1.5-1.5,2.1-1.5c0.9,0,1.8,0.6,2.7,0.6c0.3,0,0.9-0.3,1.2-0.6
		v-0.6c-0.3-1.2-1.5-1.8-1.8-1.8c-1.8-1.2-3.7-1.8-5.5-3c-1.5-0.9-2.7-1.8-4.3-3c-0.3-0.3-0.9-0.3-1.5-0.3c-0.3,0-0.6,0-0.9,0.6
		c0,0.3-0.3,0.6-0.3,0.9c0.3,2.1,3,3,2.7,4.6c0,0.3,0,0.6-0.3,1.2l-11.6,18.6c-2.4,3.7-4,7.9-4,12.2
		C405.6,97.9,408.7,103.4,416.9,108.6L416.9,108.6z M452.6,121.1c-2.4,2.1-4,2.7-5.2,2.7c-1.5,0-2.4-1.2-4-1.2
		c-0.3,0-0.9,0.3-0.9,0.6c-0.3,0-0.3,0.3-0.3,0.9c0,0.3,0.3,0.6,0.6,1.2c0.3,0.3,3,2.4,4.6,4.3c2.1,2.1,3.4,3.7,4.6,4.9
		c0.3,0.3,0.6,0.3,0.9,0.3c0.6,0,0.9-0.3,0.9-0.6c0.3-0.3,0.3-0.6,0.3-0.9c-0.3-1.5-2.1-2.7-1.8-4.3c0-0.6,0.3-1.5,1.5-2.7
		l18.9-18.6c0.3-0.3,0.3-0.3,0.6-0.3v1.2l-3.4,41.4v0.9c0,1.5,0.3,2.1,0.6,2.4c0,0.3,0.3,0.3,0.6,0.3c0.9,0,1.5-0.9,2.4-1.8
		l26.8-26.5c0.9-0.9,1.8-1.2,2.4-1.2c0.9,0,1.8,0.6,3,0.6c0.3,0,0.6-0.3,0.9-0.3c0.3-0.3,0.3-0.6,0.3-0.9c0-0.3-0.3-0.6-0.3-0.9
		c-1.2-1.2-3.4-3-4.9-4.6s-2.4-3-4-4.3c-0.3-0.3-0.6-0.3-0.9-0.3s-0.6,0.3-0.9,0.3c-0.3,0.3-0.3,0.6-0.3,0.9c0.3,1.8,2.1,3,2.1,5.5
		c0,1.2-0.6,2.7-2.4,4.6l-18.9,18.9l2.7-46.3v-1.5c0-0.3,0-0.9-0.3-1.2c-0.9-0.9-1.8-1.2-2.4-1.8c-0.6-0.6-1.2-1.5-1.8-2.4
		c-0.3-0.3-0.6-0.6-1.2-0.6c-0.3,0-0.6,0-0.6,0.3c-0.3,0.3-0.6,0.6-0.3,0.9c0,1.5,1.8,2.7,1.8,5.2c0,1.8-0.9,4.3-4.6,7.9
		L452.6,121.1L452.6,121.1z M516,146.1L488.5,165c-1.2,0.9-2.4,1.2-3,1.2c-1.8,0-2.4-1.8-4.3-2.1c-0.3,0-0.6,0-0.9,0.3
		c-0.3,0.3-0.6,0.6-0.6,1.2c0,0.6,0.3,0.9,0.6,1.2c0.6,0.9,1.5,1.8,3.7,4.9c1.5,2.1,3,4.6,4,6.1c0.3,0.6,0.6,1.2,1.5,1.2
		c0.3,0,0.6,0,0.6-0.3c0.3-0.3,0.6-0.9,0.6-1.2c0-1.2-1.2-2.7-1.2-4.3c0-0.6,0.3-1.5,1.2-2.1l29-19.8c0.9-0.6,1.5-0.9,2.1-0.9
		c1.5,0,2.4,1.8,4,2.1c0.3,0,0.6,0,0.6-0.3c0.3-0.3,0.6-0.6,0.6-0.9c0-0.6-0.3-0.9-0.6-1.2c-1.2-1.8-2.4-3.4-3.7-4.9
		c-1.2-1.8-2.4-4-4-6.1c-0.3-0.3-0.6-0.6-0.9-0.6c-0.3,0-0.6,0.3-0.9,0.3c-0.3,0.3-0.6,0.6-0.6,0.9c0,1.2,0.9,2.4,0.9,3.7
		C517.5,144.2,517.2,145.2,516,146.1L516,146.1z M505.3,202.1c-0.9,0.9-2.7,2.4-3,4v0.6c0.3,0.9,1.2,0.9,2.1,0.9h2.7l41.8-1.2h0.3
		c3.7,0,2.7,1.2,4.6,1.8h0.6c0.6-0.3,0.9-0.6,0.9-1.2c0-0.3,0-0.6-0.3-0.9c-0.3-0.9-0.9-1.5-2.4-4.6c-0.6-1.2-0.9-2.7-1.5-4
		c-0.3-0.6-0.6-0.9-1.2-0.9c-0.3,0-0.6,0-0.6,0.3c-0.6,0.3-0.9,0.9-0.6,1.2c0,0.9,0.3,1.8,0.3,2.4c0,0.6,0,0.9-0.9,1.2
		c-0.9,0.6-3,0.9-4.3,0.9l-30.2,1.2H512c0-0.3,1.2-1.5,3.4-3.7l19.8-21.6c0.3-0.3,1.2-1.2,1.8-1.5c0.3,0,0.6-0.3,0.6-0.3
		c0.9,0,1.5,1.2,3,1.2h0.6c0.6-0.3,0.6-0.9,0.6-1.2c0-0.3,0-0.3-0.3-0.6c-0.3-0.9-1.5-3-2.4-4.6c-0.9-1.8-1.5-3.7-2.1-5.5
		c-0.3-0.6-0.6-0.9-1.2-0.9c-0.3,0-0.6,0-0.6,0.3c-0.6,0.3-0.9,0.9-0.9,1.2c0,0.6,0.3,1.2,0.3,2.1c0,0.9-0.3,1.8-1.2,3L505.3,202.1
		L505.3,202.1z M557.4,224.7c0,2.7-2.4,3-5.2,4l-29,6.7c-1.5,0.3-2.4,0.6-3.4,0.6s-1.5-0.3-1.8-0.9c-1.5-1.5-1.5-2.4-2.7-2.7
		c-0.6,0-1.2,0.9-1.2,1.2v0.6c0.6,2.4,1.5,5.2,2.1,7.6c1.2,4.9,1.8,9.8,3,14.6c0.6,2.7,0.9,4.6,4,6.1c1.8,0.9,4,1.8,6.1,2.1h1.2
		c0.3,0,0.9,0,1.2-1.2v-0.3c-0.3-0.9-0.9-0.6-1.5-1.2c-2.1-1.2-6.4-4-9.1-14.9c-0.3-1.2-0.3-2.1-0.3-2.7c0-2.1,0.9-1.8,4-2.7
		l11.6-2.7c0.6,0,0.9-0.3,1.2-0.3s0.3,0,0.3,0.3l2.1,9.4v1.2c0,1.5-0.9,2.1-1.8,2.7c-0.9,0.6-2.4,0.6-2.7,2.1v0.3
		c0,0.6,0.6,0.9,1.2,0.9h0.3c1.8-0.3,3.4-0.9,4.9-1.2c2.1-0.6,4.3-0.9,6.4-1.2c0.6-0.3,1.5-0.3,1.5-1.5v-0.3
		c-0.6-1.5-2.1-0.9-3.4-1.2s-2.4-0.9-3.4-4l-1.5-7c-0.3-0.9-0.3-1.5-0.3-1.5c0-0.3-0.3,0,1.5-0.6l11.9-2.7c1.2-0.3,2.1-0.6,2.4-0.6
		c0.9,0,0.9,0.6,2.1,5.2c0.3,1.8,1.5,5.5,1.5,8.2c0,1.2-0.3,2.1-0.6,2.4c-0.3,0.3-1.2,0.6-2.1,0.9c-0.9,0.3-1.8,0.6-2.1,1.8v0.3
		c0,0.6,0.9,0.9,2.1,0.9c1.2,0,3-0.3,6.4-0.9c0.6-0.3,1.5-0.3,1.8-1.5v-0.3c-0.3-2.1-2.1-7.9-2.4-9.1c-0.6-2.7-1.2-6.1-4-18
		c-0.3-1.5-0.6-2.4-1.8-2.4h-0.3c-1.2,0.3-1.2,1.5-1.2,2.1v0.6C557.4,224.4,557.4,224.4,557.4,224.7L557.4,224.7z M562.9,275
		l-33.2,0.9h-0.3c-2.1,0-2.7-0.9-3.4-1.8c-0.6-0.9-0.6-2.4-2.1-2.7c-0.6,0-1.2,0.6-1.2,1.2c0,2.4,0.3,4.9,0.6,7.3v7.9
		c0,0.3,0.3,1.2,1.2,1.5c2.1-0.3,1.8-2.4,2.1-4c0.6-1.5,0.9-3,3.4-3l13.7-0.3h0.6c0.3,0,0.3-0.3,0.6,1.2v3.7c0,3,0,2.4-3,4.6
		l-11.3,7.6c-3.7,2.4-7,5.2-7,10.4v0.3c0,0.3,0,1.2,0.3,2.4c0.3,0.9,0,1.8,1.2,2.4c0.6,0,1.2-0.6,1.2-1.2c0.3-1.2,0-3.4,5.2-7
		l15.5-11c2.1,4.3,6.4,7.6,11.6,7.6h0.3c10.4-0.3,11.6-9.8,11.6-14v-2.4c0-3.4-0.3-7-0.6-11v-1.2v-2.7c0-1.2-0.6-1.8-1.5-2.1h-0.3
		c-1.5,0.3-1.2,2.1-1.5,3.4C566.3,273.8,565.6,274.7,562.9,275z M566.9,285c0,6.1-2.4,11.3-9.8,11.6h-0.3c-7.3,0-8.2-5.5-8.5-8.2
		v-4.3v-1.8V282l16.5-0.6c1.8,0,1.5,0.6,1.8,3C566.9,284.4,566.9,284.7,566.9,285L566.9,285z M557.1,326.5c-0.9-0.3-1.8-0.3-2.4-0.3
		c-7.3,0-10.7,6.1-13.4,11.6c-2.7,5.8-5.2,11-9.8,11h-1.2c-5.5-0.9-7.9-5.5-7.9-10.4c0-0.9,0-1.8,0.3-2.4c1.5-8.5,8.5-11,11.3-11.3
		c1.2,0,2.4,0,3-1.5v-0.3c0-1.2-1.2-1.5-2.4-1.5h-0.3l-8.5,0.3c-2.1,0.6-4.9,5.8-6.1,10.7c-0.3,1.8-0.6,3.7-0.6,5.5
		c0,10.7,6.4,15.2,11.6,15.8c0.9,0.3,1.8,0.3,2.7,0.3c7.6,0,11-6.1,13.7-11.6c2.7-5.8,4.9-11,9.4-11h1.2c4.6,0.9,6.4,4.6,6.4,8.8
		c0,0.9,0,1.5-0.3,2.4c-0.9,5.5-4.3,9.4-10.1,10.4c-0.6,0.3-2.1,0-2.7,1.5v0.3c0,0.9,0.9,1.2,1.5,1.2l8.8,0.6h0.3
		c0.6,0,1.2-0.6,1.5-1.2v-0.3c0-0.9-0.6-1.2-0.6-1.2c0-0.3,2.7-2.7,4.3-10.4c0.3-1.2,0.3-2.4,0.3-3.4
		C567.8,333.8,564.4,327.7,557.1,326.5z M558.6,374.3h-0.3c-1.2,0.3-1.5,1.2-2.1,2.1c-0.6,0.9-1.2,1.5-2.4,1.5c-0.3,0-0.9,0-1.2-0.3
		l-31.7-10.4c-3-1.2-3.4-2.4-3.4-3.7v-1.5c0-0.6-0.3-1.5-0.9-1.8H516c-0.9,0-1.2,0.6-1.5,1.5c-0.3,0.9-0.6,2.1-1.8,6.1
		c-0.9,2.7-1.8,5.2-2.4,6.7c0,0.3-0.3,0.9-0.3,1.2c0,0.6,0.6,1.2,0.9,1.2h0.3c1.5-0.3,1.8-1.5,2.4-2.4c0.6-0.9,1.5-1.8,2.4-1.8
		c0.3,0,0.6,0,0.9,0.3l33.2,11c2.1,0.9,2.4,1.8,2.4,3v1.2c0,0.6,0,1.2,0.9,1.5h0.6c0.9,0,1.2-0.6,1.2-1.5c0.6-1.8,0.9-4,1.5-5.8
		c0.6-2.1,1.8-4.3,2.4-6.7v-0.6C559.6,374.6,558.9,374.3,558.6,374.3z M546.8,404.2l-5.2-3.7c-0.3-0.3-0.6-0.3-0.6-0.3
		c-0.3,0-0.9,0-1.2,0.6c0,0.3-0.3,0.6-0.3,0.6c0,0.9,0.9,1.5,1.2,1.8c1.8,1.8,2.4,2.4,2.4,3.4c0,0.6-0.3,1.5-0.9,2.7l-4.9,9.4
		c-0.3,0-1.8-0.9-2.1-0.9L505,402.1c-1.2-0.6-1.5-1.5-1.5-2.4s0.3-1.8,0.3-2.7c0-0.6,0-1.2-0.6-1.5c-0.3,0-0.6-0.3-0.9-0.3
		c-0.6,0-0.9,0.3-1.2,0.9c-0.3,0.6-0.6,1.5-4,7.9l-2.7,4.6c0,0.3-0.3,0.3-0.3,0.6c0,0.9,0.9,1.2,0.9,1.2c0.3,0,0.3,0.3,0.6,0.3
		c2.1-0.3,2.4-3,4.6-3c0.6,0,1.2,0.3,2.1,0.6l29.6,15.5c0.9,0.6,1.5,0.9,1.8,0.9l0.3,0.3l-0.9,1.8l-4.3,8.2
		c-1.2,2.1-2.1,2.4-2.7,2.4c-0.9,0-1.8-0.6-2.7-0.9c-0.6,0-1.2,0.3-1.2,0.9c0,0.3-0.3,0.6-0.3,0.6c0,1.2,0.9,1.2,1.5,1.5l4.9,2.1
		c0.6,0.3,0.9,0.3,1.5,0.3c0.9,0,1.5-0.6,1.8-1.5c0.6-1.2,3-6.7,8.5-17.1c4-7.3,6.4-11.9,8.8-16.2c0-0.3,0.3-0.3,0.3-0.6
		C548.6,405.1,547.4,404.5,546.8,404.2L546.8,404.2z M520.2,453.3c-1.5,0.3-2.4,2.1-4.6,2.1h-0.6l-20.4-2.4c-0.9,0-2.4-0.3-3-0.9
		L479.4,442c-0.9-0.9-1.2-1.5-1.2-2.1c0-1.2,1.2-2.4,1.2-3.7c0-0.3-0.3-0.9-0.6-1.2c-0.3-0.3-0.6-0.3-0.9-0.3
		c-0.6,0-0.9,0.6-1.2,0.6c-0.3,0.6-1.5,2.4-3.4,4.6c-1.5,1.8-4,4.6-4.9,5.5c-0.3,0.6-0.9,0.9-0.9,1.5c0,0.3,0.3,0.6,0.3,0.9
		c0.3,0.3,0.6,0.3,0.9,0.3c1.8-0.3,2.7-1.8,4.6-1.8c0.6,0,1.5,0.3,2.4,1.2l12.5,10.1c0.6,0.3,0.3,0.9,1.2,2.7l5.2,16.2
		c0.6,1.5,1.2,3,1.2,4.6v0.6c0,0.3-0.3,0.9-0.3,1.5c0,0.3,0,0.9,0.6,1.2c0.3,0.3,0.6,0.3,0.9,0.3c0.3,0,0.6,0,0.9-0.3
		c1.2-1.5,2.1-3,3.4-4.6c0.9-1.2,2.1-2.1,3.4-3.7c0.3-0.3,0.6-0.9,0.6-1.5c0-0.3-0.3-0.9-0.6-1.2c-0.3-0.3-0.6-0.3-0.9-0.3
		c-1.8,0.3-2.7,2.4-4,2.4c-0.3,0-0.6,0-0.9-0.3c-1.2-0.9-1.5-2.1-1.8-3l-4.3-12.2c-0.3-0.6-0.3-0.9-0.3-1.2h1.2l14.6,1.8
		c0.9,0,1.8,0.3,2.4,0.6c0.3,0.3,0.3,0.3,0.3,0.9c0,0.6-0.3,1.5-0.3,2.4c0,0.3,0,0.9,0.6,1.2c0.3,0.3,0.6,0.3,0.6,0.3
		c0.9,0,1.2-0.6,1.5-0.9c0.6-0.6,1.5-2.1,2.7-3.7c2.7-3.4,3.7-4.3,4.9-5.5c0.3-0.3,0.3-0.6,0.3-0.9c0-0.6-0.3-0.9-0.6-1.2
		C520.8,453.6,520.5,453.3,520.2,453.3z M171,501.1l-7.9,5.2l-6.7-5.5l2.4,8.2l-7,4.6l8.5,0.9l2.7,8.2l3-7.9l8.2,0.6l-6.7-5.5
		L171,501.1z M249.3,519.1C249.3,519.1,249.3,518.8,249.3,519.1C249.3,518.8,249.3,518.8,249.3,519.1c-1.2,0-4,1.5-7.9,2.1
		c-3.4,0.3-4.9-0.3-5.8,1.5v0.3c0,0.6,0.3,1.2,0.9,1.2h4c1.2,0.3,1.2,0.6,1.2,1.2c0,0.6-0.3,1.5-0.6,2.4l-8.2,29
		c-0.6,2.1-1.8,2.4-3,2.4c-0.9,0-2.1-0.3-3-0.3c-0.6,0-1.2,0.3-1.5,0.9v0.3c0,0.9,0.9,1.2,1.5,1.5c1.8,0.6,5.5,1.2,7.6,1.8
		c2.4,0.6,4.3,1.5,6.4,2.1c0.6,0.3,1.2,0.3,1.8,0.3c0.3,0,1.2-0.3,1.2-0.9v-0.3c-0.3-1.5-1.8-1.5-3-2.1c-1.2-0.6-2.4-1.2-2.4-3.4
		c0-0.6,0-1.2,0.3-2.1l9.1-32.6c0.6-2.1,1.2-2.7,1.5-4V520C250.2,519.7,249.9,519.1,249.3,519.1L249.3,519.1z M294.1,536.8v-1.2
		c0-6.7-4.6-10.4-11-11h-0.9c-6.4,0-11.9,4.6-12.5,11.3v0.6c0,3.7,1.8,7.3,5.2,9.4c-4.9,2.1-8.2,6.1-8.5,11.9v1.2
		c0,7.6,5.8,12.8,12.5,13.4h1.2c7.6,0,13.7-5.5,14.3-13.4v-1.2c0-5.5-2.7-9.4-7.3-12.2C290.7,544.1,293.8,541,294.1,536.8
		L294.1,536.8z M289.2,560.2v0.6c-0.3,5.2-3.7,8.5-8.5,8.5h-0.9c-5.5-0.3-8.8-6.4-8.8-11.6v-0.9c0.3-4.9,4.9-9.1,7.3-8.8
		C279.8,548.7,289.2,553.5,289.2,560.2L289.2,560.2z M289.8,536.5c-0.3,4.3-2.7,6.7-6.1,6.7h-0.6c-3.7-0.3-8.5-3.7-8.5-8.5V534
		c0.3-4,3-6.4,7-6.4h0.6c4.6,0.3,7.6,3.7,7.6,7.9V536.5z M320.6,539.2h-2.1c-1.5,0.3-3,0.6-4.6,1.2l0.6-8.5c0-1.2,0.6-1.2,2.7-1.5
		l7-0.9c2.1-0.3,3.7,0,4.6-1.8c0.3-0.9,1.8-4.9,1.8-6.1c0-0.6-0.6-0.9-0.9-0.9h-0.3c-1.8,0.6-0.9,2.4-4,2.7l-11,1.5
		c-2.7,0.3-3,2.1-3,4l-0.9,16.5v0.3c0,0.9,0.6,1.2,1.2,1.2h0.3c1.2-0.3,3.4-0.9,4.9-1.2h2.1c7.3,0,8.8,5.5,9.1,8.8v2.1
		c0,7.3-5.2,11.9-11.3,12.8h-2.1c-2.4,0-3.7-0.6-4.3-0.6c-0.6,0-0.9,0.6-0.9,1.2v0.3c0.6,1.2,2.4,1.8,6.4,2.1c0.9,0,1.8,0,3-0.3
		c12.2-1.5,15.2-11.6,15.2-18v-2.4C333.1,543.8,327.6,539.2,320.6,539.2L320.6,539.2z M376.1,555.4c-1.2,0-2.4,0.6-3.7,0.6
		s-2.4-0.6-3.4-3.4l-10.7-31.7c-0.6-2.1-0.6-3-0.9-4.3c-0.3-0.3-0.3-1.2-1.2-1.2H356c-0.6,0.6-0.6,0.9-1.8,2.1
		c-0.9,1.2-1.8,2.4-3.4,4c-2.4,2.1-3.7,2.4-4,4v0.6c0.3,0.6,0.9,0.9,1.2,0.9h0.3c0.9-0.3,2.4-2.1,3.4-2.1c0.3,0,0.6-0.3,0.9-0.3
		c0.9,0,1.2,0.9,1.8,2.7l9.4,27.7c0.3,0.6,0.3,0.9,0.3,1.5c0,1.5-0.9,2.1-1.8,2.7c-0.9,0.6-2.4,0.6-2.7,2.1v0.3
		c0,0.6,0.6,0.9,1.2,0.9c0.3,0,0.6,0,1.2-0.3c1.8-0.6,5.2-2.1,7.3-2.7c2.1-0.9,4.3-1.2,6.4-1.8c0.9-0.3,2.1-0.3,2.4-1.8v-0.3
		C377.3,555.7,376.7,555.4,376.1,555.4L376.1,555.4z M445,499l-6.4,5.8l-8.2-4.6l3.7,8.5l-6.4,5.5l8.2-0.9l3.4,7.9l2.4-8.5l8.5-1.2
		l-7.3-4.3L445,499z M169.5,387.1c-0.9,0-1.8,0.6-2.7,0.6c-0.9,0-1.5-0.3-2.4-1.5c-0.9-1.2-0.9-3.7-0.9-6.1s0.3-4.9,0.3-7.3
		c0-2.7-0.3-4.9-1.2-6.7c-2.1-3.4-4.3-4.9-5.8-4.9c-0.3,0-0.6,0-0.9,0.3c-0.3,0-0.6,0.3-0.6,0.9c0,0.3,0,0.3,0.3,0.6
		c0.6,0.6,1.8,1.2,2.4,2.1c0.3,0.9,0.9,1.5,0.9,3v0.6c-0.3,2.7-0.3,4.6-0.3,5.8v0.9c-3.4-3.4-7.3-5.2-11.6-5.2c-3,0-6.1,0.9-9.1,2.7
		c-5.5,3-8.2,8.5-8.2,14c0,3,0.9,6.1,2.4,8.8c3.4,5.5,8.8,8.8,14.6,8.8c2.7,0,5.8-0.9,8.5-2.4c5.2-3,8.2-7.6,8.8-12.5
		c0.9,0.3,1.8,0.6,3,0.6c0.9,0,2.1-0.3,3-0.9c0.3-0.3,0.9-0.6,0.9-1.2c0-0.3,0-0.6-0.3-0.9C170.1,387.4,169.8,387.1,169.5,387.1
		L169.5,387.1z M151.5,399.3c-2.4,1.5-4.9,2.1-7.3,2.1c-3.7,0-7-1.5-9.4-5.5c-1.2-2.1-1.8-4.3-1.8-6.4c0-5.2,3.4-10.4,8.2-13.4
		c2.7-1.5,5.2-2.1,7.6-2.1c4,0,7.3,1.8,9.4,5.2c1.2,2.1,1.8,4.3,1.8,6.4C159.7,391.1,156.3,396.3,151.5,399.3z M146.9,350.9
		c0-1.8-0.3-4-0.9-6.4c-2.4-7.6-7.3-9.8-11.3-9.8c-2.7,0-4.9,0.9-5.8,0.9l-13.4,4c-0.6,0.3-1.2,0.3-1.5,0.3c-1.8,0-1.2-1.2-3-1.5
		h-0.3c-0.6,0.3-0.6,0.9-0.6,1.2v0.3c0.3,0.9,0.6,1.5,0.9,2.4c0.6,1.5,0.9,3.4,1.2,5.2c0.3,0.6,0.6,0.6,0.9,0.9h0.3
		c0.9-0.3,0.9-1.2,0.9-1.5v-1.5c0-0.9,0-1.8,2.1-2.4l14-4.3c1.5-0.3,3-0.6,4.3-0.6c3.4,0,6.7,1.5,8.2,7c0.3,1.2,0.6,2.7,0.6,4
		c0,4-2.1,7.3-7,8.8l-15.5,4.6h-0.9c-0.6,0-0.9-0.3-1.2-0.9c-0.3-0.3-0.6-1.2-1.5-1.2H117c-0.6,0.3-0.6,0.9-0.6,1.2
		c0,0.6,0.3,1.2,0.3,1.2c0.3,1.5,0.9,2.7,1.5,4c0.3,1.2,0.6,2.1,0.9,3.4c0.3,0.3,0.3,0.9,1.2,1.2h0.3c0.9-0.3,0.9-1.2,0.9-1.5v-1.2
		c0-0.9,0-1.2,0.9-1.5l14.6-4.3C141.7,361.2,146.9,357.9,146.9,350.9z M135.9,323.1c1.2,0.6,1.5,0.9,1.8,1.5s0.3,1.2,1.2,1.5
		c0.3,0,0.9-0.3,1.2-0.6v-0.3c0-1.2-0.3-2.4-0.3-3.7v-0.9v-1.5V318V317c0-0.3-0.6-0.9-1.2-0.9h-0.3c-1.2,0.3-0.9,1.5-0.9,2.1
		c-0.3,0.6-0.3,1.2-1.5,1.2h-0.3c-0.3,0-0.9,0-1.2-0.3l-6.4-2.4c-0.6-0.3-0.6-0.6-0.6-1.5l-0.6-10.1v-0.3c0-0.9,0.3-0.9,1.2-1.2
		l3.7-1.5c1.2-0.6,3.4-1.5,4-1.5c0.3,0,0.6,0.3,0.9,0.9c0.3,0.6,0.3,1.5,1.5,1.5c0.9-0.3,0.9-1.2,0.9-1.5v-0.3
		c0-1.2-0.3-2.4-0.3-3.7c0-1.8,0-3.7-0.3-5.5c0-0.3,0-1.2-0.9-1.2h-0.3c-1.2,0.3-0.9,1.5-0.9,2.1c0,0.9-0.3,1.5-0.9,2.1
		c-1.5,0.9-3.4,1.8-4.9,2.4l-22.6,10.7c-0.3,0.3-1.5,0.3-2.1,1.5v0.3c0.6,1.2,1.5,0.9,7,3L135.9,323.1L135.9,323.1z M123.1,306.1
		C123.4,306.1,123.4,306.1,123.1,306.1C123.4,306.1,123.4,306.1,123.1,306.1l0.6,9.1l-10.7-4.3L123.1,306.1z M107.3,283.5
		c1.5-0.3,1.5-1.5,1.5-1.5c0.6-1.2,1.2-1.5,2.1-1.5c0.6,0,1.2,0,1.8,0.3l20.4,3c2.1,0.3,3,0.6,3,1.5c0.6,1.2,0.3,2.1,1.2,2.4h0.3
		c0.9,0,0.9-0.9,0.9-1.2c0.3-1.8,0.3-3.7,0.6-5.5c0.3-3.4,1.2-6.7,1.5-10.1c0-0.9,0.3-1.5,0.3-2.1c0-0.9-0.3-2.1-1.2-3
		c-0.9-1.2-2.4-2.7-4.3-3h-0.3c-0.3,0-0.6,0-0.9,0.6v0.3c0.3,0.9,0.9,1.2,1.5,2.4c0.6,1.2,1.5,3.4,1.5,6.4c0,1.2,0,2.4-0.3,4
		c-0.6,2.4-0.6,2.4-1.5,2.4c-0.3,0-1.2,0-2.1-0.3l-8.2-1.2c-0.9,0-0.9,0-0.9-0.3l0.9-6.7c0.3-1.5,0.9-1.8,1.8-1.8
		c0.9-0.3,2.1,0.3,2.7-1.2v-0.3c0-0.6-0.6-1.2-0.9-1.2c-1.2-0.3-2.4-0.3-3.7-0.3c-1.5-0.3-2.7-0.6-4.6-0.6h-0.3
		c-0.3,0-1.2,0-1.2,0.9c0.3,1.2,1.2,1.2,1.8,1.5c0.6,0.3,1.2,0.9,1.2,2.4v0.9l-0.6,4.9c0,0.6,0,0.9-0.3,0.9h-0.9l-8.2-1.2
		c-2.1-0.3-1.8,0-2.1-0.9c0-0.6,0.3-1.5,0.3-3c0.3-1.8,0.9-6.4,2.1-7h2.1c0.6,0,1.5-0.3,1.5-0.9c-0.3-1.2-1.2-1.5-5.8-2.1h-0.6
		c-0.3,0-1.2,0.3-1.2,0.9c-0.3,1.5-0.6,5.5-0.9,6.4c-0.3,1.8-0.9,4.3-2.1,12.5v0.9C106.1,282.6,106.7,283.5,107.3,283.5L107.3,283.5
		z M128,254.9c2.1,0.6,4.3,1.2,6.1,1.2c6.7,0,12.5-4.3,14.9-11c1.5-4.3,2.1-7.6,2.1-9.8c0-3-0.6-4.3-0.9-4.6l-4-2.4
		c-0.3,0-0.3-0.3-0.6-0.3c-0.3,0-0.9,0.3-0.9,0.6v0.3c0,0.6,0.3,0.9,0.6,1.2c0.9,0.6,2.7,4,2.7,7.9c0,1.5-0.3,3.4-0.9,5.2
		c-2.1,5.5-6.7,7.9-12.2,7.9c-2.1,0-4.3-0.3-6.4-1.2c-6.1-2.1-9.4-6.1-9.4-11.3c0-1.5,0.3-3,0.9-4.9c1.8-5.2,5.5-7,11-8.2h0.3
		c0.6,0,1.2,0,1.8-0.9v-0.3c-0.6-1.5-2.1-1.2-4-2.1c-1.8-0.6-2.7-0.9-3.4-0.9c-0.3,0-0.9,0.3-0.9,0.6v0.9c0,0.6-4.6,2.1-7.3,10.1
		c-0.6,1.8-0.9,4-0.9,5.8C116.1,246,120.7,252.4,128,254.9L128,254.9z M127.7,210.7c0.3,0,0.6,0.3,0.6,0.3c1.5-0.3,2.1-2.1,3-1.8
		c0.3,0,0.3,0,0.6,0.3l12.8,8.2c2.7,1.8,5.5,3,8.5,3c3.7,0,7.6-2.1,11.3-7.6c1.8-3,2.7-5.5,2.7-7.9c0-6.4-5.8-9.8-7.3-10.7
		l-11.9-7.6c-1.5-1.2-1.8-1.8-1.8-2.4v-1.2c0-0.3-0.3-0.9-0.6-1.2c-0.3,0-0.3-0.3-0.6-0.3c-0.6,0-0.9,0.3-0.9,0.6
		c-0.6,0.9-0.9,1.5-1.2,2.1c-0.9,1.5-2.1,2.7-3,4.3c-0.3,0.3,0,0.3,0,0.6c0,0.3,0,0.6,0.6,0.9c0.3,0.3,0.6,0.3,0.6,0.3
		c1.8-0.3,2.1-2.1,3.4-2.1c0.3,0,0.9,0,1.8,0.6l12.2,7.9c3,1.8,5.5,4.6,5.5,7.9c0,1.8-0.6,3.7-2.1,5.8c-2.1,3-4.9,5.2-7.9,5.2
		c-1.8,0-3.7-0.6-5.8-1.8l-13.7-8.8c-0.9-0.6-0.9-0.9-0.9-1.2c0-0.6,0.3-1.2,0.3-1.8c0-0.3-0.3-0.9-0.6-0.9c0,0-0.3-0.3-0.6-0.3
		c-1.2,0.3-1.2,1.2-1.5,1.2c-0.9,1.2-1.5,2.4-2.1,3.7c-0.6,0.9-1.5,1.8-2.1,2.7c-0.3,0.3-0.3,0.6-0.3,1.2
		C127.4,210.1,127.4,210.4,127.7,210.7L127.7,210.7z M154.5,172.9c0.9,0,1.2-0.6,2.4-0.6c1.2,0,3,0.6,6.4,4.3
		c3.4,3.4,6.1,7.3,10.7,13.1c0.9,1.2,1.2,1.8,1.2,2.4c0,0.9-0.6,1.2-0.9,2.1c0,0.3,0.3,0.6,0.3,0.9c0.3,0.3,0.6,0.3,0.9,0.3
		s0.6,0,0.6-0.3c0.6-0.6,0.9-1.2,2.7-2.7c0.9-0.9,2.4-2.1,3-2.4c0.3-0.3,0.6-0.6,0.9-1.2c0-0.3,0-0.6-0.3-0.6
		c-0.3-0.3-0.6-0.3-0.9-0.3c-1.2,0-1.8,0.9-2.7,0.9c-0.6,0-1.5-0.3-3-1.8l-9.8-11.6l20.1,7.9c0.3,0,0.9,0.6,1.5,0.6
		c0.3,0,0.6,0,0.6-0.3c0.3-0.3,0.3-0.6,0.3-0.9c0-0.9-0.6-2.1-0.6-2.4l-6.1-20.4c0-0.3-0.3-0.6-0.3-0.9c0.3,0,0.3,0.3,0.6,0.6
		l12.2,12.5c0.6,0.6,0.6,1.2,0.6,1.5c0,0.6-0.6,1.2-0.6,2.1c0,0.3,0,0.6,0.3,0.9c0,0,0.3,0.3,0.6,0.3c0.3,0,0.6,0,0.9-0.3l2.7-2.7
		c1.2-1.2,2.4-2.1,3.4-2.7c0.3-0.3,0.6-0.6,0.9-1.2c0-0.3,0-0.6-0.3-0.6c-0.3-0.3-0.6-0.6-0.9-0.6c-1.2,0.3-1.8,0.9-2.4,0.9
		c-0.3,0-0.9,0-1.5-0.9l-15.5-15.8c-1.2-1.2-1.5-2.1-1.5-2.7c0-0.9,0.9-1.2,0.9-2.4c0-0.3,0-0.6-0.3-0.9c-0.3-0.3-0.6-0.3-0.9-0.3
		s-0.6,0-0.6,0.3c-0.6,0.6-0.6,0.9-1.5,1.5c0,0-1.2,0.9-1.8,1.2c-0.3,0.3-0.3,0.6-0.3,0.9c0,0.6,0.3,1.2,0.3,1.5l6.7,23.2
		c0.3,0.9,0.3,1.5,0.6,1.8c-0.3,0-0.3-0.3-0.9-0.3l-23.5-9.4c-0.3,0-0.6-0.6-1.5-0.6c-0.3,0-0.6,0-0.9,0.3c-0.6,0.6-1.2,1.2-1.5,1.8
		c-0.6,0.6-1.2,0.9-1.8,1.5c-0.3,0.3-0.6,0.6-0.6,0.9s0,0.6,0.3,0.6C153.9,172.6,154.5,172.9,154.5,172.9L154.5,172.9z M211.2,162.2
		c-0.6,0.9-0.9,2.1-0.9,3.4c0,0.9,0.3,2.1,0.6,3c0.3,0.3,0.6,0.9,1.2,0.9c0.3,0,0.6,0,0.6-0.3c0.3-0.3,0.6-0.6,0.6-0.9
		c0-0.9-0.3-1.8-0.3-2.7s0.3-1.5,1.5-2.4c1.2-0.6,2.7-0.9,4.9-0.9c3,0,6.7,0.3,9.8,0.3c2.1,0,4-0.3,5.5-0.9c3.4-1.8,4.9-4.3,5.2-5.5
		c0-0.3,0-0.6-0.3-0.6c0-0.3-0.3-0.6-0.9-0.6c-0.3,0-0.3,0-0.6,0.3c-0.6,0.6-1.2,1.8-2.1,2.1c-0.6,0.3-1.5,0.6-2.7,0.6h-0.9
		c-3.4-0.3-5.5-0.3-6.7-0.3c3.7-3.4,5.5-7.6,5.5-12.2c0-2.7-0.9-5.8-2.4-8.8c-3-5.8-8.5-8.8-14.3-8.8c-2.7,0-5.8,0.6-8.5,2.1
		c-5.8,3-9.1,8.8-9.1,14.9c0,2.7,0.6,5.5,2.1,8.2C201.8,158.3,206.3,161.6,211.2,162.2L211.2,162.2z M206,133.3
		c2.1-1.2,4-1.5,6.1-1.5c5.5,0,10.7,3.7,13.4,8.8c1.2,2.4,1.8,4.9,1.8,7.3c0,4.3-2.1,7.6-5.8,9.4c-2.1,1.2-4,1.5-6.1,1.5
		c-5.5,0-10.7-3.7-13.7-8.8c-1.2-2.1-1.8-4.9-1.8-7C200.5,138.8,202.1,135.4,206,133.3z M232.8,120.5h0.9c0.9,0,1.5,0,1.5,0.9
		l4,14.6c1.5,5.5,4.6,10.7,11.9,10.7c1.8,0,3.7-0.3,5.8-0.9c8.2-2.1,10.1-7.3,10.1-11.6c0-2.4-0.6-4.6-0.9-5.5l-3.7-13.4
		c-0.3-0.6-0.3-1.2-0.3-1.5c0-1.8,1.2-1.5,1.8-3v-0.3c-0.3-0.6-0.9-0.9-1.2-0.9h-0.3c-0.9,0.3-1.5,0.6-2.4,0.9
		c-1.5,0.3-3.4,0.6-5.2,1.2c-0.6,0.3-0.6,0.6-0.9,1.2v0.3c0.3,0.9,1.2,1.2,1.5,0.9h1.2c0.9,0,1.8,0,2.4,2.1l3.7,14
		c0.3,1.2,0.6,2.7,0.6,4c0,3.7-1.5,7-7.3,8.5c-1.2,0.3-2.4,0.6-3.7,0.6c-4.3,0-7.3-2.1-8.8-7.3l-4.3-15.5v-0.9
		c0-0.6,0.3-0.9,0.9-1.2c0.3-0.3,1.2-0.3,1.5-1.5v-0.3c-0.3-0.6-0.9-0.9-1.2-0.6c-0.6,0-1.2,0.3-1.2,0.3c-1.5,0.3-2.7,0.9-4,1.2
		c-1.2,0.3-2.1,0.3-3.4,0.6c-0.3,0.3-0.9,0-1.2,1.2v0.3C231.3,120.5,232.2,120.5,232.8,120.5z M276.4,110.7c1.8,0.3,2.1,1.8,2.1,4
		l1.2,20.4v1.2c0,1.2-0.3,1.8-0.6,2.1c-1.2,0.9-1.8,0.6-2.1,1.8c0,0.9,0.9,1.2,1.2,1.2c1.8,0,3.7-0.3,5.5-0.6
		c3.4-0.3,6.7-0.3,10.4-0.3c1.8,0,3.4,0,4.9-2.1c0.9-1.2,2.1-2.7,2.1-4.6v-0.3c0,0,0-0.9-0.9-1.2h-0.3c-0.9,0.6-0.9,1.2-2.4,2.4
		c-1.5,1.2-4.3,2.4-9.4,2.7h-0.9c-2.7-0.3-1.8-0.3-2.1-3l-0.6-8.2v-0.6v-0.3h0.3l6.7-0.3h0.3c1.5,0,1.5,0.6,1.8,1.5
		c0.3,0.6,0,2.1,1.5,2.4c0.6,0,1.2-0.6,1.2-1.2c0-1.2-0.3-2.4-0.3-3.7c0-1.5,0-3-0.3-4.6c0-0.3,0-1.2-1.2-1.5h-0.3
		c-1.2,0.6-0.6,1.5-1.2,2.1c-0.3,0.6-0.9,1.5-3,1.5L285,122h-1.2v-0.9l-0.6-8.2v-1.2c0-1.2-0.3-0.9,3.7-1.2c0.9,0,2.1-0.3,3.7-0.3
		s3.4,0.3,3.7,0.9c0.3,0.3,0.3,0.9,0.3,1.5s0.3,1.5,1.2,1.8c0.9-0.3,1.2-0.9,1.2-3.7v-2.4c0-0.6,0-1.5-1.2-1.5h-0.3
		c-1.2,0-5.5,0.6-6.4,0.6c-1.8,0-4.3,0-12.8,0.6c-1.2,0-2.1,0.3-2.1,1.2C274.9,111,276.1,110.4,276.4,110.7L276.4,110.7z
		 M358.4,152.8c2.7,1.2,5.2,1.8,7.3,1.8c5.2,0,7.9-3,9.1-5.5c0.6-1.5,0.9-2.7,0.9-4c-0.3-8.2-12.2-11.6-11.9-16.5
		c0-0.6,0-0.9,0.3-1.5c0.9-2.1,2.7-3,4.6-3c1.2,0,2.4,0.3,3.7,0.9c3.4,1.5,5.2,4,5.2,7.6v1.2c0,0.6,0,1.2,0.6,1.5h0.6
		c0.6,0,0.9-0.6,1.2-0.9l1.8-5.8v-0.6c0-0.6-0.3-0.9-0.6-0.9h-0.6c-0.3,0-0.6,0-0.6,0.3c-0.3-0.3-1.5-2.4-6.4-4.6
		c-1.8-0.6-3.4-1.2-5.2-1.2c-3.4,0-6.7,1.5-8.2,5.2c-0.6,1.2-0.9,2.4-0.9,3.7c0.3,7.9,12.2,11.3,11.9,16.5c0,0.6,0,1.2-0.3,1.8
		c-1.2,2.7-3.4,3.7-5.8,3.7c-1.2,0-2.7-0.3-4-0.9c-4.6-2.1-5.8-6.1-5.8-8.5v-0.9c0-0.6,0.3-0.9,0.3-1.2s-0.3-0.9-0.6-1.2h-0.6
		c-0.9,0-1.2,0.9-1.5,1.5l-1.2,5.8v0.3C352.3,148.8,355.1,151.3,358.4,152.8z M389.5,170.1c3,2.1,5.8,3,8.2,3
		c6.4,0,9.8-5.5,10.7-6.7l8.2-11.6c1.2-1.5,1.8-1.5,2.4-1.5h1.2c0.3,0,0.9-0.3,1.2-0.6c0-0.3,0.3-0.3,0.3-0.6s-0.3-0.6-0.6-0.9
		c-0.6-0.6-1.5-0.9-2.1-1.2c-1.5-0.9-2.7-2.1-4.3-3c-0.3,0-0.3-0.3-0.6-0.3c-0.3,0-0.6,0-0.9,0.3c-0.3,0.3-0.3,0.6-0.3,0.6
		c0.3,1.5,1.8,2.1,1.8,3.4c0,0.6-0.3,0.9-0.6,1.8l-8.5,11.9c-1.8,2.7-4.6,5.2-7.9,5.2c-1.8,0-3.7-0.6-6.1-2.1
		c-3-2.1-4.9-4.9-4.9-7.9c0-1.8,0.6-4,2.1-6.1l9.4-13.1c0.6-0.9,0.9-0.9,1.2-0.9c0.6,0,1.2,0.3,2.1,0.6c0.3,0,0.6-0.3,0.9-0.6
		c0-0.3,0.3-0.3,0.3-0.6c-0.3-1.2-1.2-1.2-1.2-1.5c-1.2-0.9-2.4-1.5-3.7-2.4c-0.9-0.6-1.8-1.5-2.7-2.1c-0.3-0.3-0.6-0.3-1.2-0.3
		c-0.3,0-0.6,0-0.9,0.3c0,0.3-0.3,0.6-0.3,0.6c0.3,1.5,1.8,2.1,1.8,3c0,0.3,0,0.3-0.3,0.6l-8.8,12.5c-1.8,2.7-3.4,5.8-3.4,8.8
		C382.2,162.5,384,166.5,389.5,170.1L389.5,170.1z M410.2,181.7c-1.2,0-1.5-0.9-3-1.2c-0.3,0-0.6,0-0.9,0.3c0,0-0.3,0.3-0.3,0.9
		c0,0.3,0.3,0.6,0.3,0.9l3,3c1.5,1.5,2.1,2.7,2.7,3.7c0.3,0.3,0.6,0.3,0.9,0.3s0.6-0.3,0.9-0.3c0.3-0.3,0.3-0.6,0.3-0.9
		c-0.3-1.2-1.2-1.8-1.2-3c0-0.6,0.3-0.9,0.9-1.8l13.7-12.2v0.3l-3.7,29v1.2c0,0.6,0,1.2,0.3,1.5c0,0.3,0.3,0.3,0.6,0.3
		c0.9,0,1.2-0.6,1.8-1.2l19.5-17.4c0.6-0.6,1.2-0.6,1.5-0.6c0.6,0,1.2,0.6,2.1,0.6c0.3,0,0.6,0,0.9-0.3s0.3-0.3,0.3-0.9
		c0-0.3,0-0.6-0.3-0.6c-0.9-0.9-2.1-2.1-3-3.4c-0.9-0.9-1.5-2.1-2.4-3.4c-0.3-0.3-0.6-0.3-0.9-0.3s-0.6,0-0.6,0.3
		c-0.3,0.3-0.3,0.6-0.3,0.9c0,1.2,1.2,2.1,1.2,3.7c0,0.9-0.3,1.8-1.8,3l-13.4,11.9l4-31.4c0,0,0.3-0.6,0.3-1.2c0-0.3,0-0.6-0.3-0.9
		c-0.6-0.6-1.2-0.9-1.5-1.5c-0.3-0.6-0.6-1.2-1.2-1.8c-0.3-0.3-0.6-0.3-0.9-0.6c-0.3,0-0.3,0-0.6,0.3c-0.3,0.3-0.3,0.6-0.3,0.9
		c0,1.2,1.2,1.8,1.2,3.4c0,1.2-0.6,2.7-3.4,5.5l-12.5,11C411.7,181.4,410.8,181.7,410.2,181.7L410.2,181.7z M453.2,199.1h0.9
		c0.9-0.3,1.5-0.3,2.1-0.3s0.9,0.3,1.8,1.8l3.4,6.4c-0.3,0.3-0.9,0.6-1.2,0.6l-20.7,11.3c-0.3,0.3-0.6,0.3-0.9,0.3
		c-1.2,0-1.8-1.5-3.4-1.8h-0.6c-0.3,0-0.6,0.6-0.6,0.9c0,0.3,0,0.6,0.3,0.6c0.3,0.3,0.6,0.9,3,5.5c0.6,1.2,0.9,2.4,1.5,3.4
		c0,0.3,0.6,0.6,0.9,0.6s0.6-0.3,0.6-0.3c0.3-0.3,0.6-0.6,0.6-1.2c0-0.9-0.3-1.5-0.3-2.1s0.3-0.9,1.2-1.8l20.1-11
		c0.6-0.3,1.2-0.6,1.5-0.6c0,0,0.3,0.3,0.6,0.9l3,5.8c0.3,0.9,0.6,1.2,0.6,1.8c0,1.2-1.5,0.9-1.8,2.7c0,0.3,0,0.3,0.3,0.6
		c0.3,0.3,0.6,0.6,0.9,0.6c0.6,0,0.9-0.3,0.9-0.3l3-1.8c0.6-0.3,0.9-0.6,1.2-1.5c0-0.3,0-0.6-0.3-1.2c-0.6-0.9-2.7-4.3-6.7-11.6
		c-2.7-5.2-4.3-8.2-6.1-11.3c-0.3-0.6-0.6-0.6-1.2-0.6s-1.2,0.3-1.5,0.6l-4,1.5c-0.3,0.3-0.6,0.6-0.6,1.2v0.6
		C452.3,198.8,452.9,199.1,453.2,199.1z M489.8,302.4v-0.3v-2.4c0-0.6-0.6-1.2-1.2-1.2c-1.2,0.3-0.9,1.5-1.2,1.8
		c-0.3,0.6-0.3,0.9-0.9,0.9h-0.6c-0.6,0-1.8-0.3-2.4-0.6l-19.8-7c-0.3,0-0.6-0.3-0.6-0.3c0.3-0.3,1.5-0.6,2.7-1.2l18.3-8.8
		c0.3-0.3,0.9-0.3,1.5-0.3s0.6,0.3,0.9,0.6c0.3,0.3,0.3,0.9,1.2,1.2c0.9,0,0.9-0.9,1.2-1.2c0-0.6-0.3-2.4-0.3-3.7v-0.9v-2.4v-0.9
		c0-0.6-0.6-1.2-1.2-1.2c-1.2,0.3-0.9,1.2-1.2,1.8s-0.6,1.2-1.5,1.8l-25.9,12.2c-0.9,0.6-2.7,0.6-3,2.4v0.3c0.6,1.2,2.1,1.2,3,1.8
		l27.1,10.1c1.5,0.6,1.8,0.9,1.8,1.2c0,0.3,0.3,1.2,1.2,1.2c0.6,0,1.2-0.6,1.2-1.2C490.1,304.9,489.8,304.5,489.8,302.4L489.8,302.4
		z M487.9,316.4c-1.5,0.3-1.5,1.5-1.5,1.5c-0.6,1.2-1.2,1.5-2.1,1.5c-0.6,0-1.2,0-1.8-0.3l-20.4-3c-2.1-0.3-3-0.6-3-1.5
		c-0.6-1.2-0.3-2.1-1.2-2.4h-0.3c-0.9,0-1.2,0.9-1.2,1.2c-0.3,1.8-0.3,3.7-0.6,5.5c-0.3,3.4-1.2,6.7-1.8,10.1c0,0.9-0.3,1.5-0.3,2.1
		c0,0.9,0.3,1.8,1.2,3c0.9,1.2,2.4,2.7,4.3,3h0.3c0.3,0,0.9,0,1.2-0.9v-0.3h-0.3c-0.3-0.6-0.9-0.9-1.5-2.1s-1.5-3-1.5-6.4
		c0-1.2,0-2.4,0.3-4.3c0.6-2.4,0.6-2.4,1.5-2.4c0.6,0,1.2,0,2.1,0.3l8.2,1.2c0.9,0,0.9,0,0.9,0.3l-0.9,6.7c-0.3,1.5-0.9,1.8-1.8,1.8
		h-0.6c-0.6,0-1.5,0-1.8,1.2v0.3c0,0.6,0.6,1.2,0.9,1.2c1.2,0.3,2.4,0.3,3.7,0.6l4.6,0.9h0.3c0.3,0,1.2,0,1.2-0.9
		c-0.3-1.2-1.2-0.9-1.8-1.5c-0.6-0.3-1.2-0.9-1.2-2.4v-0.9l0.6-4.9c0-0.6,0-0.9,0.3-0.9h0.9l8.2,1.2c2.1,0.3,1.8,0.3,2.1,0.9
		c0,0.6-0.3,1.5-0.3,3c-0.3,1.8-0.9,6.4-2.1,7h-2.1c-0.6,0-1.2,0.3-1.5,0.9v0.3c0.3,1.2,0.9,1.5,5.8,2.4h0.6c0.3,0,0.9-0.3,1.2-0.9
		c0.3-1.5,0.6-5.5,0.9-6.4c0.3-1.8,0.9-4.3,2.1-12.5v-0.9C488.8,317.3,488.5,316.4,487.9,316.4L487.9,316.4z M482.1,349.7h-0.3
		c-1.2,0.3-1.2,1.2-1.8,1.5c-0.3,0.6-0.6,0.9-1.5,0.9c-0.3,0-0.9,0-1.2-0.3l-21.6-7.9c-1.5-0.6-1.5-1.2-1.5-2.1
		c-0.3-0.6,0.3-1.8-0.9-2.4h-0.3c-0.3,0-0.9,0.3-0.9,0.6c-0.6,1.5-0.9,3.4-1.5,4.9c-1.2,3.7-1.8,4.3-1.8,4.9c0,0-0.3,0.3-0.3,0.6
		s0.3,0.9,0.6,0.9h0.3c1.2-0.3,1.5-1.2,2.1-1.8c0.6-0.9,1.2-1.5,1.8-1.5c0.3,0,0.6,0,0.9,0.3l8.8,3.4c0.6,0.3,0.6,0,0.6,0.3v0.6
		c-1.8,4.9-0.9,3.7-4,4.6l-9.1,2.1c-3,0.6-6.1,1.8-7.3,5.2c0,0.3-0.6,1.8-0.6,2.7c0,0.3,0,0.6,0.6,0.9h0.3c1.8-0.6,0.6-2.4,6.1-3.7
		l12.5-3c0.3,3.4,2.4,6.7,5.8,7.9c1.2,0.3,2.1,0.6,3,0.6c6.4,0,8.5-7.9,8.5-8.2c0.9-2.1,1.5-4.6,2.4-7c0.9-2.1,0.9-1.8,1.2-2.7v-0.6
		C482.8,350.6,482.8,350,482.1,349.7L482.1,349.7z M477,359.1c-1.2,3.4-3.4,5.8-6.4,5.8c-0.9,0-1.5-0.3-2.7-0.6c-3.4-1.2-4-3-4-4.9
		c0-0.9,0.3-1.8,0.3-2.4c0.3-0.9,0.6-2.1,0.9-3c0.3-0.3,0.3-0.9,0.6-0.9l10.7,4c0.9,0.3,0.6,0.3,0.9,0.6
		C477.6,357.9,477.3,358.5,477,359.1z M442.8,374.6c-0.3-0.6-0.6-1.2-0.6-1.5c0-0.6,0.3-1.2,0.3-1.8c0-0.3,0-0.6-0.6-0.9
		c-0.3,0-0.3-0.3-0.6-0.3s-0.6,0.3-0.9,0.6c-0.6,0.9-1.2,2.1-1.8,3c-0.6,0.9-1.5,1.8-2.1,3c0,0.3-0.6,0.6-0.6,1.2
		c0,0.3,0.3,0.9,0.6,0.9s0.3,0.3,0.6,0.3c1.5-0.3,1.8-1.8,2.7-1.5c0.3,0,0.6,0,0.9,0.3c0.3,0.3,0.9,0.6,0.9,0.9l3.7,5.8
		c0,0.3,0.3,0.3,0.3,0.6c0,0.3-0.3,0.6-0.6,1.2l-5.5,8.2c-0.3,0.6-0.6,0.6-0.9,0.6h-0.9l-4-0.9c-1.2-0.3-3.7-0.6-4.3-0.9
		c-0.3-0.3-0.3-0.3-0.3-0.6c0-0.6,0.3-1.2,0.3-1.8c0-0.3,0-0.9-0.6-1.2c-0.3,0-0.3-0.3-0.6-0.3c-0.9,0-1.2,0.9-1.2,0.9
		c-0.6,0.9-1.2,2.1-1.8,3c-0.9,1.5-2.1,3-3,4.6c0,0.3-0.3,0.3-0.3,0.9c0,0.3,0.3,0.6,0.6,0.9c0,0,0.3,0.3,0.6,0.3
		c1.8-0.3,1.8-2.1,3.7-2.1s3.7,0.6,5.2,0.9l24.7,4.6c0.3,0,0.9,0.3,1.5,0.3c0.3,0,0.6,0,0.9-0.3c0-0.3,0.3-0.3,0.3-0.6
		c0-0.9-0.9-1.8-3.7-6.4L442.8,374.6L442.8,374.6z M442.8,395.7l4.9-7.6l6.1,9.8L442.8,395.7z M266.4,300.3c1.2,0,1.8-1.2,1.8-1.2
		v-5.8c0.3,0,0.9,0.3,1.5,0.3h0.3c3.4-0.6,4.9-2.7,4.9-6.1v-0.9c-0.3-2.1-1.2-6.1-4.6-6.1h-0.9c-4,0.9-4.9,4-4.9,6.7v12.2
		c0,0,0,0.3,0.3,0.3C265.8,300.3,266.1,300.3,266.4,300.3L266.4,300.3z M270.3,282.9c1.5-0.3,2.1,2.7,2.1,4.6c0.3,2.4-0.6,3.7-2.1,4
		c-2.1,0.6-1.8-2.1-2.1-3.7C267.9,286,268.2,283.2,270.3,282.9L270.3,282.9z M266.7,241.2c0-0.6-0.3-0.9-0.6-1.5
		c-0.3-0.3-0.9-0.6-1.2-0.6c-2.1,0.3-3.7,3.4-4,4.6l-0.3,0.6h0.6C263.9,244.2,266.7,243.3,266.7,241.2z M266.4,245.4v0.6
		c1.8,2.7,3,8.8,3.4,9.8c0,0.3-0.3,0.6-0.3,1.2c-0.3,1.2-1.5,2.1-2.1,2.7l-0.3,0.3l0.3,0.3c0,0,0.6,0.6,1.8,0.6c0.6,0,0.9,0,1.5-0.6
		c0.9-0.9,1.8-1.5,2.1-2.1l0.3-0.3v-0.3l-0.3-0.3c-0.6,0.3-0.3,0-0.6,0.3c1.5-4.3,4.3-11.6,4.3-11.6v-0.3l-0.3-0.3
		c0,0-0.6-0.6-1.5-0.6c-0.3,0-0.9,0-1.5,0.6c0,0-0.9,3.4-1.8,5.5c-0.6-2.7-1.2-4.9-1.2-4.9s-0.9-1.5-2.1-1.5
		C267.3,244.5,266.7,244.8,266.4,245.4L266.4,245.4z M281.3,297.2c0.6,0,1.2-0.6,1.8-1.5c0.9-1.8,1.5-6.4,1.5-10.1
		c0-3-0.3-5.2-1.2-6.1c-0.3-0.3-0.6-0.3-0.9-0.3c-1.2,0-2.7,1.2-3.4,1.8v-0.6c0-0.3-0.6-0.6-1.2-0.6c-0.3,0-0.9,0.3-1.2,0.9
		c0,0-0.3,4.6-0.3,7.9v2.7c0.6,0.9,1.2,1.5,1.8,1.5s0.9-0.6,1.2-0.9c0.3-3-0.3-7.6,1.5-8.5h0.3c0,0,0.3,0,0.3,0.6
		c0.3,0.6,0.3,1.5,0.3,2.4c0,2.7-0.6,6.4-1.5,9.4C280.4,295.7,280.1,296.9,281.3,297.2L281.3,297.2z M289.5,291.1
		c-0.6,0.3-1.5,0.3-2.4,0.3h-0.3v0.3c0,0-0.6,0.6-0.6,1.5c0,0.6,0.3,1.2,1.2,1.5c4.9-0.6,6.1-2.7,6.4-4v-0.3c0-2.4-3.4-4.3-3.7-4.6
		c0-0.9,0.3-0.9,0.6-0.9c0.6,0,1.2,0.3,2.1,0.3h0.3c0.6-0.3,0.9-0.9,0.9-1.5c0-0.9-0.9-1.5-0.9-1.5c-0.6,0-6.1-0.3-6.1,4.3
		c0,3,4,4,3.7,4.6C290.4,290.5,290.1,290.8,289.5,291.1L289.5,291.1z M291.7,253.7c0,0-0.3,0.3-0.9,0.6s-1.5,0.3-2.4,0.3H288v0.3
		c0,0-0.6,0.6-0.6,1.5c0,0.6,0.3,1.2,1.2,1.5c4.9-0.6,6.4-2.7,6.4-4v-0.3c-0.3-2.4-3.4-4.3-3.7-4.6c0-0.9,0.3-0.9,0.6-0.9
		c0.6,0,1.2,0.3,2.1,0.3h0.3c0.6-0.3,0.9-0.9,0.9-1.5c0-0.9-0.9-1.5-0.9-1.5c-0.6,0-6.1-0.3-6.1,4.3
		C288.3,251.8,292,253,291.7,253.7L291.7,253.7z M332.2,294.5c0.3,0.9,0.9,1.5,1.5,1.5s1.2-0.6,1.5-0.9c0.9-3,1.2-7.9,3-7.6
		c0.3,0,0.6,0.3,0.6,1.5c0,2.4-1.5,7-3.4,10.4v0.6c0,0.3,0,1.2,0.9,1.5c0.6,0,1.2-0.3,2.1-1.2c2.4-2.7,4.3-9.8,4.3-13.7
		c0-0.9,0-1.8-0.6-2.4c-0.3-0.3-0.6-0.6-1.2-0.6c-1.2,0-2.7,0.9-3.4,1.5v-1.2c0,0-0.6-0.6-1.5-0.6c-0.3,0-0.9,0.3-1.5,0.6
		S332.2,292.4,332.2,294.5L332.2,294.5z M338.6,315.8c-1.8,0-3.7,2.7-4.6,4l-0.3,0.6h1.8c2.4,0,4.6-0.6,4.9-2.4c0-0.3,0-0.9-0.3-1.2
		C339.8,316.1,339.2,315.8,338.6,315.8L338.6,315.8z M327.9,296.6c0.9,0,1.5-0.6,1.5-0.6l0.3-0.3l-1.2-15.5h-0.3
		c0,0-0.9-0.9-1.8-0.9c-0.6,0-1.2,0.6-1.2,1.2c0,0,0.6,4,0.6,4.3c-0.3,0.9-3.4,7.3-5.8,10.4l-0.3,0.3l0.3,0.3
		c0.6,0.6,1.2,0.6,1.8,0.6c0.9,0,1.5-0.6,1.5-0.6s1.2-2.7,3-6.1v5.8C327,296.3,327.6,296.6,327.9,296.6L327.9,296.6z M322.4,254
		c0,1.5,0.3,3.4,1.8,4c0.3,0.3,0.6,0.3,0.9,0.3c0.9,0,1.8-0.6,2.4-0.9c0,0.6,0.3,1.2,1.2,1.2c0.6,0,1.8-0.3,3.4-1.2h0.3v-1.8
		l-0.6,0.3h-0.6c0-0.3,0.3-0.9,0.3-1.2l1.5-7.9l-0.3-0.3c0,0-0.6-0.3-1.2-0.3c-0.6,0-1.2,0.3-1.8,0.6c0,0-0.3-0.3-0.6-0.3
		c-0.6,0-0.9,0.3-2.4,0.9c-2.1,0.9-3.7,3.7-4.3,5.8L322.4,254L322.4,254z M325.8,252.1c0.6-1.8,1.8-3.4,4.3-3.4
		c-0.3,4.6-1.5,6.1-3.7,6.7C325.2,255.5,325.5,253,325.8,252.1L325.8,252.1z M277,249.1c-0.3,0.9-0.3,1.5-0.3,2.4
		c0,2.7,1.5,4.6,3.7,4.9h0.9c3,0,4.9-2.1,5.8-5.5c0-0.6,0.3-1.2,0.3-1.8c0-2.1-0.9-4.9-3.4-5.2h-1.2
		C278.9,243.6,277.6,246.3,277,249.1z M280.1,249.4c0.3-2.1,2.1-4,3.4-3.7c1.5,0.3,1.2,2.4,0.6,4.6c-0.6,2.4-1.8,3.7-3.4,3.4
		S279.5,250.9,280.1,249.4z M340.4,245.4l0.6,0.3v-0.6c-0.3-1.5-1.5-5.2-3.7-5.2c-0.3,0-0.9,0.3-1.2,0.6c-0.6,0.6-0.9,1.2-0.9,1.8
		C335.5,243.6,338,244.8,340.4,245.4L340.4,245.4z M337.7,260.4c1.5,0,2.7-1.2,2.7-3.4v-0.9l-0.9,0.6c-0.6,0.6-0.9,0.6-0.9,0.6
		s-0.3,0-0.3-0.6v-0.3c0-1.8,2.1-8.8,2.1-8.8l0.3-0.6l-3.4-0.3h-0.6v0.9c0,1.8-1.8,6.7-1.8,9.4v0.9
		C335.5,259.4,336.5,260.4,337.7,260.4z M317,280.5h0.9c2.1,0,3-2.1,3.4-3v-0.6c0-1.2-0.9-2.7-2.4-3h-0.9c-0.9,0.3-1.2,0.9-1.2,1.8
		c0,0.3,0,0.6,0.3,1.2c0.3,0.9,1.2,0.9,1.5,1.2c0,0.3-0.6,1.5-0.9,1.8L317,280.5L317,280.5z M334.3,323.4v0.9c0,1.8-1.8,6.4-1.8,9.1
		v0.9c0.3,1.2,1.5,1.8,2.4,1.8c1.5,0,2.7-1.2,2.7-3.4V332l-0.6,0.6c-0.6,0.6-0.9,0.6-1.2,0.6c0,0-0.3,0-0.3-0.6v-0.3
		c0-1.8,2.1-8.2,2.1-8.2l0.3-0.6l-3.4-0.3L334.3,323.4L334.3,323.4z M355.4,331.4c0,0-0.3,0.3-0.9,0.6c-0.6,0.3-1.5,0.3-2.4,0.3
		h-0.3v0.3c0,0-0.6,0.6-0.6,1.5c0,0.6,0.3,1.2,1.2,1.5c4.9-0.6,6.4-2.7,6.4-4v-0.3c-0.3-2.4-3.4-4.3-3.7-4.6c0-0.9,0.3-0.9,0.6-0.9
		c0.6,0,1.2,0.3,2.1,0.3h0.3c0.6-0.3,0.9-0.9,0.9-1.5c0-0.9-0.9-1.5-0.9-1.5c-0.6,0-6.1-0.3-6.1,4.3
		C352,329.8,355.7,330.8,355.4,331.4L355.4,331.4z M311.5,257.6c0.9,0,1.2-0.6,1.5-0.6c0-0.3,0.6-1.5,0.9-2.4
		c0.3-0.6,0.3-1.2,0.6-1.5v-0.3c0.9,0.9,1.8,3,2.1,4.3c0.3,0.3,0.6,0.3,1.2,0.3c1.2,0,1.5-0.9,1.8-0.9v-0.6c-0.6-3-2.1-5.2-2.1-5.5
		c0.9-0.9,5.2-2.4,5.2-5.2c0-0.6-0.3-0.9-0.9-0.9c-1.2,0-4,2.1-5.5,3.4c0.3-0.6,0.6-1.5,0.6-2.1s-0.3-1.5-1.2-1.5h-0.3
		c-3,0.6-5.2,11.6-5.5,12.5v0.3h0.3C310.9,257.6,311.2,257.6,311.5,257.6L311.5,257.6z M344.4,290.8h-0.6v2.4h0.3
		c0.9,0.3,1.5,0.6,2.7,0.6c0.6,0,1.5,0,2.4-0.3h0.3v-2.7H349c-1.2,0.3-1.5,0.3-1.8,0.3C347.1,291.4,346.8,291.1,344.4,290.8
		L344.4,290.8z M350.2,324.1c-0.3-0.3-0.6-0.6-1.5-0.6c-0.6,0-1.2,0.3-1.8,0.6c-0.3,0-0.3-0.3-0.6-0.3c-0.6,0-0.9,0.3-2.4,0.9
		c-2.1,0.9-3.7,3.7-4.3,5.8v0.9c0,1.5,0.3,3.4,1.8,4.3c0.3,0.3,0.6,0.3,0.9,0.3c0.9,0,1.8-0.6,2.4-0.9c0,0.6,0.3,1.2,1.2,1.2
		s1.8-0.3,3.4-1.2h0.3v-1.8l-0.6,0.3h-0.6c0-0.3,0.3-0.9,0.3-1.2L350.2,324.1L350.2,324.1z M343.2,332.9c-1.5,0.3-1.2-2.4-0.9-3.4
		c0.6-1.8,1.8-3.4,4.3-3.4C346.2,331.1,345.3,332.6,343.2,332.9z M311.2,295.1c0.3,0.3,0.6,0.3,0.9,0.3c0.9,0,1.8-0.6,2.4-0.9
		c0,0.6,0.3,1.2,1.2,1.2c0.9,0,1.8-0.3,3.4-1.2h0.3v-1.8l-0.6,0.3h-0.6c0-0.3,0.3-0.9,0.3-1.2l1.5-7.9l-0.3-0.3c0,0-0.6-0.3-1.2-0.3
		s-1.2,0.3-1.8,0.6c-0.3,0-0.3-0.3-0.6-0.3c-0.6,0-1.2,0.3-2.4,0.9c-2.1,0.9-3.7,3.4-4,5.8v0.9C309.3,292.4,309.9,294.2,311.2,295.1
		L311.2,295.1z M313,289c0.6-1.8,1.8-3.4,4.3-3.4c-0.3,4.6-1.5,6.1-3.7,6.7C312.1,292.7,312.4,289.9,313,289L313,289z M318.5,312.8
		c-6.1,0.3-8.2,5.8-9.1,11.9c0,0.9-0.3,1.5-0.3,2.4c0,4.3,1.8,7,4.9,7c4.6,0,7-3,8.2-9.4c0.3-1.8,0.6-3.4,0.6-4.9
		C323.1,315.8,321.5,312.8,318.5,312.8L318.5,312.8z M314.5,330.8c-3,0-1.5-6.7-1.5-6.7h5.5C317.6,328.6,316.3,330.8,314.5,330.8z
		 M319.1,321.9h-5.5c0.9-4.6,2.1-6.7,4-6.7C320.6,315.2,319.1,321.9,319.1,321.9z M331.6,321.6c-0.6-0.3-1.2-0.3-1.8-0.3
		c-3.4,0-5.5,2.1-6.4,5.8c-0.3,0.9-0.3,1.5-0.3,2.4c0,3.4,2.7,4.9,6.1,4.9h0.6l0.6-2.1v-0.6h-0.6c-0.6,0-3-0.3-3.4-1.8v-0.3h0.9
		c1.2,0,2.7-0.3,3.4-1.8v-0.6l-3.7-0.6c0.6-2.4,3.7-2.4,4.3-2.4h0.3l0.3-0.3c0.3-0.3,0.3-0.6,0.3-0.9
		C332.2,321.9,331.6,321.6,331.6,321.6L331.6,321.6z M284.3,319.8h-1.2c-3.7,0-4.9,2.7-5.5,5.5c-0.3,0.9-0.3,1.5-0.3,2.4
		c0,2.7,1.5,4.6,3.4,4.9h0.6c3,0,4.6-1.8,5.5-5.5c0-0.6,0.3-1.2,0.3-1.8C287.4,322.8,286.8,320.1,284.3,319.8L284.3,319.8z
		 M284.3,326.5c-0.6,2.4-1.8,3.7-3,3.4c-1.8-0.3-1.2-2.7-0.9-4.3c0.3-2.1,1.8-3.7,3-3.4C285,322.5,284.7,324.7,284.3,326.5z
		 M254.2,317c0-0.6-0.3-0.9-0.6-1.5c-0.3-0.3-0.6-0.6-1.2-0.6c-1.8,0.3-3,3.4-3.7,4.9l-0.3,0.6h0.6
		C251.7,319.8,254.2,318.9,254.2,317z M236.2,259.1h0.9c3,0,4.9-2.1,5.8-5.5c0-0.6,0.3-1.2,0.3-1.8c0-2.1-0.9-4.9-3.4-5.2h-1.2
		c-4,0-5.2,2.7-5.8,5.5c-0.3,0.9-0.3,1.5-0.3,2.4C232.5,257.3,234.1,259.1,236.2,259.1L236.2,259.1z M235.9,252.4
		c0.3-2.1,2.1-4,3.4-3.7c1.5,0.3,1.2,2.4,0.6,4.6c-0.6,2.4-1.8,3.7-3.4,3.4C235,256.7,235.6,254.3,235.9,252.4z M240.5,245.1
		l1.2,0.3l-0.6-1.2c0-0.3-0.3-0.9-0.3-1.2v-0.3c0.3-0.3,1.2,0,1.8-0.6c0.3-0.3,0.6-0.9,0.6-1.5c0-0.6-0.3-0.9-0.6-1.5
		c-0.6-0.3-0.9-0.6-1.5-0.6c-1.5,0-2.4,1.2-2.7,2.4v0.6C238.6,242.7,238.9,244.5,240.5,245.1z M234.1,296.6c2.7-0.3,4.3-6.1,4.9-9.1
		h0.6c-0.3,2.1-0.9,4.6-0.9,6.7c0,1.2,0.6,2.7,2.1,2.7c1.2,0,2.1-0.6,1.8-1.5c0-1.2-0.9-2.7-0.9-4.6v-0.6c0-0.9,0.3-1.8,0.3-2.4h1.2
		c0.9,0,2.1,0,2.1-1.2c0.3-0.3,0.3-0.6,0.3-0.9c0-0.9-0.9-1.2-0.9-1.5l-10.7,0.3v0.3c0,0-0.9,1.5-0.9,2.7c0,0.3,0.3,0.9,0.6,0.9
		s0.6,0,0.9-0.3h1.5c0,2.4,0,2.7-1.8,4.6c-0.6,0.3-2.4,1.2-2.4,2.7c0,0.3,0,0.6,0.3,0.9C232.8,296,233.5,296.6,234.1,296.6
		L234.1,296.6z M241.1,333.2c-0.6,0-1.2,0.6-1.5,0.6c-0.3-0.9-1.2-3-1.2-5.5V328c0.9-1.8,4.3-4.6,4.3-6.4c0-0.3-0.3-0.9-0.6-1.2
		h-0.6c-1.2,0.3-1.8,1.5-3,3c0-1.2-0.3-3-1.5-3.4c-0.3,0-0.9-0.3-1.2-0.3c-0.9,0-1.8,0.3-2.1,1.2l0.9,0.3h0.6c0.6,0,0.9,2.7,1.2,5.5
		c-1.2,1.8-5.5,5.8-5.5,7.9c0,0.3,0,0.6,0.6,0.9h0.6c1.5,0,2.1-1.5,4.3-4.3c0,1.8,0.3,4.9,2.4,4.9h0.3c1.2-0.3,3-0.9,3-2.1
		c0-0.3,0-0.6-0.3-0.6C241.4,333.2,241.4,332.9,241.1,333.2L241.1,333.2z M260.6,272.9c-2.1,0.3-3,4-3,5.5v0.6l0.6-0.3
		c2.4-0.9,4.6-2.1,4.6-4c0-0.6-0.3-1.2-0.9-1.8C261.2,273.2,260.9,272.9,260.6,272.9L260.6,272.9z M292.6,324.1
		c0.6,0,1.2,0.3,2.1,0.3h0.3c0.6-0.3,0.9-0.9,0.9-1.5c0-0.9-0.9-1.5-0.9-1.5c-0.6,0-6.1-0.3-6.1,4.3c0.3,3,4,4,3.7,4.6
		c0,0-0.3,0.3-0.9,0.6c-0.6,0.3-1.5,0.3-2.4,0.3h-0.3v0.3c0,0-0.6,0.6-0.6,1.5c0,0.6,0.3,1.2,1.2,1.5c5.2-0.6,6.4-2.7,6.4-4v-0.3
		c-0.3-2.4-3.4-4.3-3.7-4.6C292.3,324.1,292.3,324.1,292.6,324.1L292.6,324.1z M243.5,295.4l-0.3,0.3l0.3,0.3
		c0.6,0.6,1.2,0.6,1.8,0.6c0.9,0,1.5-0.6,1.5-0.6s1.2-2.7,2.7-6.1v5.8c0.3,0.9,0.9,1.2,1.2,1.2c0.9,0,1.5-0.6,1.5-0.6h0.3l-1.2-15.5
		c0,0-0.9-0.9-1.8-0.9c-0.6,0-1.2,0.6-1.2,1.2c0,0,0.6,4,0.6,4.3C249,286,245.9,292.7,243.5,295.4L243.5,295.4z M247.8,259.4
		c0.9,0,1.5-0.6,1.5-0.6s1.2-2.7,3-6.1v5.5c0.3,0.9,0.9,1.2,1.2,1.2c0.9,0,1.5-0.6,1.5-0.6v-0.3l-1.2-15.5c0,0-0.9-0.9-1.8-0.9
		c-0.6,0-1.2,0.6-1.2,1.2l0.6,4.3c-0.3,0.9-3.4,7.3-5.8,10.4l-0.3,0.3l0.3,0.3C246.6,259.4,247.2,259.4,247.8,259.4L247.8,259.4z
		 M277.9,322.2c0,0,0.3-0.3,0.3-0.9s-0.3-1.2-0.9-1.8l-0.3-0.3l-0.3,0.3c-0.9,0.3-6.1,0.9-6.1,0.9h-0.3c-0.3,0.3-0.6,0.9-0.6,1.5
		c0,0.6,0.3,1.2,0.6,1.2v0.3l2.1-0.3c-0.3,2.7-0.9,8.8-0.9,8.8v0.3h0.9c0.6,0,1.8-0.3,2.1-1.5c0-0.6,0.6-6.7,0.6-8.5H277.9z"/>
	<path class="st0" d="M259.7,259.1h0.9c3,0,4.9-2.1,5.8-5.5c0-0.6,0.3-1.2,0.3-1.8c0-2.1-0.9-4.9-3.4-5.2h-1.2
		c-3.7,0-5.2,2.7-5.5,5.5c-0.3,0.9-0.3,1.5-0.3,2.4C256,257,257.5,258.8,259.7,259.1L259.7,259.1z M259.4,252.1
		c0.3-2.1,2.1-4,3.4-3.7c1.5,0.3,1.2,2.4,0.6,4.6c-0.6,2.4-1.8,3.7-3,3.4C258.1,256.4,258.7,254,259.4,252.1L259.4,252.1z
		 M252.7,323.7c-0.3-0.3-0.6-0.6-1.5-0.6c-0.6,0-1.2,0.3-1.8,0.6c0,0-0.3-0.3-0.6-0.3c-0.6,0-0.9,0.3-2.4,0.9
		c-2.1,0.9-3.4,3.7-4,5.8v0.9c0,1.5,0.3,3.4,1.8,4.3c0.3,0.3,0.6,0.3,0.9,0.3c0.9,0,1.5-0.6,2.1-0.9c0,0.6,0.3,1.2,1.2,1.2
		c0.6,0,1.8-0.3,3.4-1.2h0.3v-1.8l-0.6,0.3h-0.6c0-0.3,0.3-0.9,0.3-1.2L252.7,323.7z M246.6,333.2c-1.2,0.3-1.2-2.4-0.6-3.4
		c0.6-1.8,1.8-3.7,4-3.4C249.3,331.1,248.4,332.6,246.6,333.2L246.6,333.2z"/>
	<path class="st0" d="M427.9,333.5l-54.2-19.8V310l58.2-1.5l-58.2-9.4v-3.4l57.3-12.8l-57.3,1.8v-4l51.8-22.6l-51.8,11.6v-6.4
		l41.8-28.6L373.6,253v-11.6l27.4-27.7l-27.4,18.9v-18l-1.5,0.3c-0.6,0-1.2,0.3-2.1,0.3l13.1-19.5l-20.4,20.7
		c-4.3,0.6-8.8,0.9-13.7,0.9h-2.1l14.9-35.7l-23.2,34.7c-1.8-0.3-3.4-0.6-4.9-1.2c-1.2-0.3-2.7-0.6-4-0.9l9.1-42.4l-17.4,41.8h-0.9
		c-2.4,0-4.9,0-7.3,0.6l0.9-47.2l-10.4,49.7c-0.6,0.3-1.5,0.6-2.1,0.9c-1.2-0.6-2.7-1.5-4.3-1.8l-8.5-49.4L288,214
		c-1.8-0.3-3.7-0.3-5.5-0.3h-2.4l-16.2-43l7.6,44.2c-0.9,0.3-1.5,0.3-2.4,0.6c-1.8,0.6-4,1.2-6.1,1.5l-22.9-37.2l14.3,38.1h-0.9
		c-4.6,0-9.1-0.3-13.4-0.9l-21.6-23.8l13.7,22.2c-4-0.9-6.4-1.5-6.4-1.5l-1.5-0.3v14.9l-24.4-18.3l24.4,26.5v12.8l-39.6-18.9
		l39.6,29.3v7l-50.6-13.4l50.6,24.1v4.3l-57-3.7l57,14.9v3l-58.5,7.3l58.5,3.7v3.4l-55.5,18l55.5-7v4.9l-47.5,26.2l47.5-15.5v8.2
		L189,374.9l35.4-16.8v2.1l0.9,0.3c0,0,3.7,0.9,8.8,2.1c3.4,0.6,7.3,1.5,11.9,1.8c1.2,0,2.1,0.3,3.4,0.3c1.8,0,3.7,0.3,5.5,0.3
		c2.4,0,5.2-0.3,7.6-0.6c1.2-0.3,2.4-0.3,3.4-0.6c1.5-0.3,3-0.6,4.3-1.2c3.4-1.2,8.2-1.8,13.1-1.8c6.7,0,13.4,1.2,17.1,3.7l0.6,0.6
		l0.6-0.6c3.7-2.4,11-4,18-3.7c3.7,0,7,0.3,9.8,0.9c0.6,0,0.9,0.3,1.5,0.3c0.9,0.3,1.8,0.3,2.4,0.6c3.7,1.2,7.9,1.8,12.2,2.1h7.6
		c4.9-0.3,9.4-0.9,13.4-1.5c2.4-0.3,4.6-0.9,6.4-1.2l0.9-0.3v-3l32.3,19.5l-32.3-29v-9.4l45.4,16.8l-45.4-27.1v-5.5L427.9,333.5
		L427.9,333.5z M299.6,362.1c-4.6-2.4-10.7-3.4-16.8-3.4c-5.2,0-10.4,0.6-14,2.1c-4.3,1.5-9.4,2.1-14.3,2.1c-7,0-14.3-1.2-19.5-2.1
		c-4-0.9-6.7-1.5-8.2-1.8V217.4c4,0.9,15.2,3.4,26.8,3.4c5.8,0,11.3-0.6,16.5-2.4c3-1.2,7.6-1.8,12.5-1.8c6.4,0,13.4,1.2,17.4,3.4
		L299.6,362.1L299.6,362.1z M371.5,360.3c-5.5,1.2-14,2.7-22.6,2.7c-5.2,0-10.7-0.6-14.9-2.1c-3.7-1.2-9.1-2.1-14.6-2.1
		c-6.1,0-12.5,0.9-17.1,3V220.4c3.7-2.7,11.3-4,18.3-4c4.9,0,9.4,0.6,12.5,1.8c4.9,1.8,10.7,2.4,16.2,2.4c8.2,0,16.8-1.2,22.2-2.4
		V360.3L371.5,360.3z"/>
	<path class="st0" d="M259.1,322.5c-4,0-4.9,4.3-4.9,7c0,0.9-1.2,10.1-1.2,10.7c0,0,0,0.3,0.3,0.3c0,0.3,0.6,0.6,0.9,0.6
		c0.9,0,1.5-0.9,1.5-0.9l0.9-5.5c0.3,0.3,0.9,0.3,1.2,0.6h0.3c3,0,4.6-2.4,4.9-6.1v-0.9C262.7,326.2,262.1,322.5,259.1,322.5
		L259.1,322.5z M260.3,329.8c-0.3,2.4-0.9,3.4-2.1,3.7c-1.8,0.3-1.5-2.4-1.2-4c0-2.1,0.6-4.6,2.4-4.6
		C260.6,325.3,260.6,328,260.3,329.8L260.3,329.8z M268.2,332.3c0,0-0.6-0.6-0.6-1.5v-0.9c0-2.4,0.6-7.6,0.6-7.6v-0.6l-3.4,0.3h-0.6
		l0.3,0.6v1.2c0,1.8-0.3,4.9-0.3,7c0,0.9,0,1.8,0.3,2.1c0.3,0.9,1.2,1.5,2.1,1.5c1.5,0,2.7-0.9,3-2.4l0.3-1.5l-0.9,1.2
		C268.5,332,268.2,332.3,268.2,332.3L268.2,332.3z M261.2,281.7c-1.2,0-2.7,1.2-3.4,1.8v-0.6c0-0.3-0.6-0.6-1.2-0.6
		s-0.9,0.3-1.5,0.9v3.7c0,2.7,0,6.1,0.3,7c0.6,0.9,1.2,1.5,1.8,1.5s0.9-0.6,1.2-1.2v-2.1v-1.5c0-2.1,0.3-4.3,1.2-4.9h0.3
		c0,0,0.3,0,0.3,0.9c0.3,0.6,0.3,1.5,0.3,2.7c0,2.7-0.6,6.1-1.2,8.8c0,0.3,0,1.5,1.2,1.8c0.6,0,1.2-0.6,1.8-1.5
		c0.9-1.8,1.2-5.8,1.2-9.4c0-3.4-0.3-6.1-1.2-7C261.8,281.7,261.5,281.4,261.2,281.7L261.2,281.7z"/>
</g>
</svg>
