<?xml version="1.0" encoding="utf-8"?>
<!-- Generator: Adobe Illustrator 24.1.0, SVG Export Plug-In . SVG Version: 6.00 Build 0)  -->
<!DOCTYPE svg PUBLIC "-//W3C//DTD SVG 1.1//EN" "http://www.w3.org/Graphics/SVG/1.1/DTD/svg11.dtd" [
	<!ENTITY ns_extend "http://ns.adobe.com/Extensibility/1.0/">
	<!ENTITY ns_ai "http://ns.adobe.com/AdobeIllustrator/10.0/">
	<!ENTITY ns_graphs "http://ns.adobe.com/Graphs/1.0/">
	<!ENTITY ns_vars "http://ns.adobe.com/Variables/1.0/">
	<!ENTITY ns_imrep "http://ns.adobe.com/ImageReplacement/1.0/">
	<!ENTITY ns_sfw "http://ns.adobe.com/SaveForWeb/1.0/">
	<!ENTITY ns_custom "http://ns.adobe.com/GenericCustomNamespace/1.0/">
	<!ENTITY ns_adobe_xpath "http://ns.adobe.com/XPath/1.0/">
]>
<svg version="1.1" id="Layer_1" xmlns:x="&ns_extend;" xmlns:i="&ns_ai;" xmlns:graph="&ns_graphs;"
	 xmlns="http://www.w3.org/2000/svg" xmlns:xlink="http://www.w3.org/1999/xlink" x="0px" y="0px" viewBox="0 0 2500 503"
	 style="enable-background:new 0 0 2500 503;" xml:space="preserve">
<style type="text/css">
	.st0{fill:#FFFFFF;}
</style>
<metadata>
	<sfw  xmlns="&ns_sfw;">
		<slices></slices>
		<sliceSourceBounds  bottomLeftOrigin="true" height="502.6" width="2499.6" x="0" y="0.2"></sliceSourceBounds>
	</sfw>
</metadata>
<path class="st0" d="M2485.8,35.8V35c-0.4-6.3-0.4-13.8-0.4-22.2v-1.7l-1.7,0.4c-2.1,0.4-12.6,0.4-22.2,0.4h-31
	c-6.3,0-12.1,0-19.3-0.4h-0.8c-1.3,0.8-1.7,2.5-1.7,3.4c0,1.3,0.4,2.5,1.3,3.4l3.4,0.4c8.4,0.8,8.8,2.1,8.8,19.7v60.3
	c0,17.6-0.4,18.8-8.8,19.7l-4.6,0.4l-0.4,0.4c-0.8,0.8-1.3,2.5-0.8,3.8c0,1.3,0.8,2.1,1.7,2.5h0.8c8-0.4,13.4-0.4,20.9-0.4
	c6.7,0,12.6,0,22.2,0.4h0.8c1.3-0.4,1.7-2.1,1.7-3.4c0-1.3-0.4-2.5-1.3-3.4l-6.3-0.8c-8.4-0.8-9.2-1.7-9.2-19.7V75.6
	c0-3.4,0-3.4,4.2-3.4h11.3c5.9,0,10.5,0,12.6,0.8c2.5,0.8,3.8,2.1,4.6,5.4l1.7,7.1l0.4,0.4c1.7,1.3,5,1.3,6.3-0.4l0.4-0.4v-0.4
	c0-1.7,0-4.2-0.4-6.3c0-2.9-0.4-6.7-0.4-9.6c0-3.4,0-7.1,0.4-10.1c0-2.5,0.4-5,0.4-6.7v-0.4l-0.4-0.4c-0.8-1.3-2.5-1.3-3.4-1.3
	c-1.3,0-2.5,0.4-3.4,1.3l-1.7,7.1c-0.8,4.2-2.1,4.6-3.4,5c-1.7,0.4-7.1,0.8-13.8,0.8H2443c-4.2,0-4.2,0-4.2-3.4V25.3
	c0-5.4,0-5.4,3.8-5.4h10.1c7.1,0,12.6,0,15.9,0.8c7.1,1.7,9.2,6.7,10.9,15.1v0.4l0.4,0.4c0.8,0.4,1.7,0.8,2.5,0.8
	C2483.7,37.5,2485.3,37.1,2485.8,35.8z M2373.1,68.5c0-28.5-18.4-59.1-59.5-59.1c-34.8,0-61.1,26-61.1,60.7
	c0,28.9,20.9,58.2,61.1,58.2C2347.5,128.4,2373.1,102.4,2373.1,68.5z M2353.8,73.5c0,34.8-20.5,46.9-38.1,46.9
	c-34.8,0-44-35.2-44-55.7c0-35.2,20.9-47.3,39-47.3C2342.5,17.4,2353.8,47.5,2353.8,73.5z M2216.5,359.6
	c0,72.5,54,136.5,143.2,136.5c77.9,0,139.9-59.1,139.9-140.7c0-70.8-46.9-138.2-139.9-138.2C2277.2,217.6,2216.5,279.1,2216.5,359.6
	z M2257.1,346.6c0-88.4,54.4-116.9,96.3-116.9c77.1,0,106.4,71.6,106.4,138.2c0,79.2-46.1,115.6-94.2,115.6
	C2286,484,2257.1,406.5,2257.1,346.6L2257.1,346.6z M2167.9,18.2c0.8-0.8,1.3-2.1,1.3-3.4s-0.8-2.5-1.7-2.9l-0.4-0.4h-0.4
	c-11.7,0.8-18.8,0.8-31.4,0h-0.8c-0.8,0.4-1.7,1.3-1.7,2.5c-0.4,1.3,0,2.9,1.3,3.8l0.4,0.4l3.4,0.4c3.4,0.4,5.4,1.3,5.9,1.7
	c-0.4,2.5-6.3,13.4-10.1,20.1l-0.8,1.3c-4.2,8-8.8,16.3-14.7,26.4c-4.6-8-8.8-16.8-13-25.1l-5-10.1c-1.3-2.5-5-10.9-5-12.1
	c0-0.4,0.8-0.8,5.9-1.7l2.5-0.4l0.4-0.4c0.8-0.8,1.3-2.5,0.8-4.2c-0.4-1.3-0.8-2.1-2.1-2.5h-0.8c-4.2,0.4-10.1,0.4-18,0.4
	s-13.8,0-19.3-0.4h-0.8c-0.8,0.4-1.3,1.3-1.7,2.5c-0.4,1.3,0,2.9,0.8,3.8l0.4,0.4l5,0.8c4.6,0.8,6.7,1.3,12.1,12.1l19.7,38.5
	c4.6,9.2,5,10.9,5,20.1v8.4c0,18-0.4,19.3-8.8,20.1l-5.9,0.4l-0.4,0.4c-0.8,0.8-1.3,2.5-0.8,3.8c0.4,1.3,0.8,2.1,1.7,2.5h0.8
	c9.2-0.4,15.1-0.4,21.8-0.4c6.7,0,13,0,22.6,0.4h0.8c0.8-0.4,1.3-1.3,1.7-2.5c0-1.3,0-2.5-0.8-3.8l-0.4-0.4l-6.7-0.4
	c-8-0.4-8.8-1.7-8.8-20.1v-8.8c0-12.6,0.4-13.8,7.5-26.4l10.5-18.4c0.8-1.7,1.7-3.4,2.9-4.6c6.7-11.7,11.3-19.7,18.4-20.9
	L2167.9,18.2L2167.9,18.2z M2109.2,223.4c-6.7-1.7-28.1-5.9-51.1-5.9c-60.7,0-100.5,18.8-127.7,47.3c-25.1,26.4-36.4,61.1-36.4,95.5
	c0,35.6,13,67.4,37.3,91.3c31,31.4,75,44.8,122.7,44.8c21.8,0,50.7-5,72-10.5c7.5-2.1,15.1-3.8,19.7-3.8c1.7-1.3,1.7-3.8,0.4-5
	c-7.1-2.9-9.6-12.6-9.6-28.5v-22.6c0-20.5,0.4-31.8,17.2-33.9l6.3-0.8c2.9-2.5,2.5-8.4-0.4-10.1c-13.4,0.8-26.8,1.3-42.7,1.3
	c-23.9,0-46.1-0.4-57.8-1.3c-2.9,1.3-3.4,8.4,0,10.1l17.6,2.1c25.1,2.9,26.4,5.4,26.4,39v15.9c0,13-2.1,20.1-4.2,23
	c-4.6,6.7-19.3,12.1-44.4,12.1c-80.8,0-121-60.7-121-138.2c0-60.3,34.3-116,112.2-116c41,0,71.2,13.8,82.5,57.4
	c2.5,2.5,9.6,2.1,10.9-1.3c-3.8-24.3-5.9-45.2-5.9-58.2C2129.3,228,2116.8,225.1,2109.2,223.4L2109.2,223.4z M2040.5,9.4V8.6
	c-0.4-1.3-2.5-1.3-2.9-1.3c-0.4,0-0.8,0-1.7,0.4h-0.4l-0.4,0.4c-2.1,3.8-2.9,4.2-12.1,4.2h-69.5c-7.5,0-10.9-0.4-11.7-4.2V7.7
	l-0.4-0.4c-0.4-0.4-1.3-0.8-2.5-0.8c-0.4,0-1.7,0-2.5,0.4l-0.4,0.4v0.4c-1.3,6.7-3.8,17.2-6.3,24.7v0.4l0.4,0.4
	c0.8,2.1,4.6,2.9,6.3,1.7h0.4v-0.4c1.7-3.8,3.4-7.5,7.1-11.3c3.8-3.4,12.1-3.8,19.7-3.8h9.2c3.8,0,3.8,0,3.8,4.2v75
	c0,18-0.8,18.8-9.2,19.7l-5.9,0.4h-0.4c-0.8,0.4-1.7,1.7-1.7,3.4c0,1.3,0.4,2.5,1.7,2.9h0.8c10.5-0.4,16.3-0.4,23.5-0.4
	c6.7,0,12.1,0,21.8,0.4h0.8c1.3-0.8,1.7-2.5,1.7-3.4c0-1.3-0.4-2.5-1.3-3.4l-5.9-0.8c-8.4-0.8-8.8-1.7-8.8-19.7V22.4
	c0-1.7,0-3.4,0.4-3.8c0.4-0.4,2.1-0.4,3.4-0.4h11.7c8.8,0,15.1,1.3,18.8,3.8c1.7,1.3,2.9,5.4,3.8,11.3v0.4l0.4,0.4
	c0.4,0.8,1.7,1.3,2.9,1.3c1.7,0,2.9-0.8,3.4-1.7v-0.8C2037.2,29.9,2038.4,16.1,2040.5,9.4L2040.5,9.4z M1887.3,98.6V38.7
	c0-18.4,0.4-19.7,9.2-20.1l4.6-0.4h0.4c0.8-0.4,1.3-1.7,1.3-3.4c0-0.4-0.4-2.5-1.7-3.4h-0.8c-8,0.4-13.8,0.4-20.9,0.4
	c-7.1,0-13,0-20.9-0.4h-0.8c-1.3,0.8-1.7,2.5-1.7,3.4c0,1.3,0.4,2.5,1.3,3.4h0.4l4.6,0.4c8.4,0.8,9.2,1.7,9.2,20.1v59.9
	c0,18-0.4,18.8-9.2,20.1l-4.6,0.4l-0.4,0.4c-0.8,0.8-1.3,2.5-0.8,3.8c0,1.3,0.8,2.1,1.7,2.5h0.8c8.4-0.4,14.2-0.4,20.9-0.4
	c6.7,0,12.1,0,20.9,0.4h0.8c1.3-0.8,1.7-2.5,1.7-3.4c0-1.3-0.4-2.5-1.3-3.4l-4.6-0.8C1887.7,117.9,1887.3,116.6,1887.3,98.6z
	 M1859.6,479.8c-17.2-2.1-22.6-8-34.3-42.7L1770,275c-5.9-17.6-12.6-36.4-17.6-54c-0.8-2.9-3.8-3.8-5.9-3.8
	c-4.6,5-11.3,12.6-20.9,15.5c1.3,6.3-1.3,14.2-6.7,28.5l-41,108.9c-16.8,45.2-28.1,71.2-35.6,90c-5.4,14.7-14.7,18.8-24.3,19.7
	l-13.4,1.3c-2.5,2.1-1.7,8.4,0.8,10.1c10.9-0.4,25.5-1.3,38.5-1.3c18.8,0.4,31.4,0.4,41.9,1.3c3.8-1.7,3.8-8,0.8-10.1l-13.4-1.3
	c-9.6-0.8-11.7-3.4-11.7-8c0-4.6,2.9-15.5,8.8-33.5l14.2-42.3c2.9-8.4,5-9.6,15.5-9.6h60.7c12.1,0,13.8,1.3,16.3,10.1l17.6,54.9
	c3.4,9.6,5,16.8,5,21.4c0,4.2-5.4,6.3-14.2,7.1l-11.7,1.3c-2.9,2.1-2.5,8.4,0.8,10.1c11.7-0.4,26.8-1.3,46.5-1.3
	c18,0,32.2,0.4,48.6,1.3c2.1-1.7,2.9-8,0-10.1L1859.6,479.8L1859.6,479.8z M1755.7,370h-49.4c-11.3,0-11.7-0.4-8.4-9.6l25.5-69.9
	c4.6-12.1,8.4-21.8,9.6-23.9h0.8c2.5,5,5.9,15.9,9.2,25.5l21.8,65.8C1768.3,368.4,1767.5,370,1755.7,370L1755.7,370z M1772.1,34.5
	c0-6.3,2.5-17.2,18.8-17.2c14.7,0,19.3,9.6,21.8,18l0.4,0.4c0.4,0.8,1.3,0.8,2.5,0.8s2.9-0.4,3.8-1.7l0.4-0.4
	c0-6.7-1.3-16.3-2.9-20.9l-1.3-0.8h-0.8c-1.3,0-3.4-0.4-5.4-0.8c-4.2-1.3-10.5-2.1-15.9-2.1c-21.4,0-35.6,12.1-35.6,30.2
	c0,15.5,11.7,25.5,18.8,30.2l15.9,9.6c11.7,7.5,13,15.1,13,22.6c0,8.8-6.3,18-19.7,18c-17.2,0-24.3-13-27.6-24.3v-0.4
	c-0.4-0.8-1.3-1.3-2.5-1.3c-1.3,0-2.5,0.4-3.8,1.7l-0.4,0.4V97c0.4,7.5,2.5,20.1,4.6,23.9v0.4h0.4c3.4,2.1,12.6,6.3,26.8,6.3
	c22.2,0,36.9-13,36.9-32.2c0-13.4-7.1-24.3-21.8-33.5l-13.4-8.4C1780.9,50.9,1772.1,44.2,1772.1,34.5L1772.1,34.5z M1729.8,126.3
	c0.8-0.4,1.3-1.7,0.8-2.5c0-0.8-0.8-1.7-1.7-2.1h-0.4c-4.2-0.4-8-2.1-10.9-4.6c-11.7-9.6-20.9-23.9-33.5-44.4
	c-0.8-1.3-0.8-2.1-0.8-2.5c5.4-2.5,21.4-10.5,21.4-28.9c0-14.2-8-21.4-14.7-24.7c-8.4-4.6-19.3-5-28.5-5c-15.5,0-27.2,0.4-37.7,1.3
	h-0.4c-0.8,0.4-1.7,1.7-1.7,2.9s0.4,2.9,1.3,3.4h0.4l5.9,0.8c5.4,0.8,6.3,1.7,6.3,18.4v60.3c0,17.6-0.4,18.8-8.8,19.7l-4.6,0.4
	l-0.4,0.4c-0.8,1.3-0.8,2.5-0.8,3.8c0.4,1.3,0.8,2.1,1.7,2.5h0.8c7.5-0.4,13.4-0.4,20.9-0.4c7.1,0,12.6,0,20.1,0.4h0.8
	c1.3-0.4,1.7-2.1,1.7-2.9c0-1.7-0.4-2.9-0.8-3.4l-0.4-0.4l-3.8-0.4c-8.8-1.3-8.8-2.1-8.8-19.7V77.3c0-2.5,0-2.5,6.7-2.5
	c6.3,0,8.8,1.7,10.9,4.6c2.5,3.8,5.4,8.4,8.4,13c2.9,4.6,5.9,9.2,8,12.6c11.7,16.3,20.1,21.8,35.6,21.8
	C1724.7,127.1,1727.7,127.1,1729.8,126.3L1729.8,126.3z M1679.1,63.9c-4.6,3.8-11.3,4.2-16.3,4.2c-7.5,0-10.1-0.4-10.5-0.4v-44
	c0-3.8,0-4.2,9.6-4.2c18.8,0,25.5,13.4,25.5,24.7C1687,53.4,1684.5,59.7,1679.1,63.9z M1592.4,101.6v-0.8c-0.8-1.7-2.5-2.5-3.8-2.5
	c-0.8,0-1.7,0.4-2.1,0.8l-0.4,0.4c-4.6,9.6-9.2,14.7-11.3,15.5c-3.8,1.7-8.8,2.5-20.9,2.5c-13.8,0-17.6-1.7-19.3-3.4
	c-2.5-2.5-2.9-8-2.9-16.8V73.5c0-3.4,0-3.4,4.2-3.4h9.6c5.9,0,10.1,0,12.6,0.8c2.5,0.4,3.4,2.1,4.2,5.4l1.7,6.7l0.4,0.4
	c0.8,0.8,1.7,1.3,3.4,1.3s2.9-0.4,3.4-1.7v-0.8c0-1.7,0-3.8-0.4-6.3c0-2.9-0.4-6.7-0.4-10.1c0-3.4,0.4-7.1,0.4-10.5
	c0-2.5,0.4-5,0.4-6.7v-0.8c-0.4-0.8-1.7-1.7-3.4-1.7c-1.3,0-2.5,0.4-3.4,1.3l-1.7,7.5c-0.8,3.8-1.7,4.6-3.4,5
	c-1.7,0.4-6.7,0.8-13.8,0.8h-9.6c-4.2,0-4.2,0-4.2-3.4V25.3c0-5.4,0-5.4,3.8-5.4h12.1c7.1,0,12.6,0,15.9,0.8
	c7.5,2.1,9.2,6.7,11.7,14.2l0.4,0.8l0.4,0.4c0.4,0.8,1.7,1.3,2.9,1.3c1.3,0,2.9-0.4,3.4-1.7l0.4-0.4l-0.4-2.5
	c-0.8-9.6-1.7-18-2.5-20.5l-0.4-1.3l-1.3,0.4c-1.7,0.4-12.1,0.4-22.2,0.4h-31.4c-6.3,0-12.1,0-19.7-0.4h-0.8
	c-1.3,0.8-1.7,2.5-1.7,3.4c0,1.7,0.4,2.5,1.3,3.4l3.4,0.4c8.8,0.8,9.2,2.1,9.2,19.7v60.3c0,18-0.8,18.8-9.2,19.7l-5.9,0.4l-0.4,0.4
	c-0.8,0.8-1.3,2.5-0.8,3.8c0,1.3,0.8,2.1,1.7,2.5h0.8c9.6-0.4,15.5-0.4,22.6-0.4h15.1c14.7,0,29.3,0,44.8,0.4h0.8l0.4-0.8
	C1586.9,120.4,1591.6,107.4,1592.4,101.6z M1477.2,17.8c1.3-0.8,1.3-2.1,1.3-3.4s-0.8-2.1-1.7-2.5h-0.8c-5.4,0.4-10.9,0.4-16.3,0.4
	c-6.7,0-13,0-17.2-0.4h-0.8c-0.8,0.4-1.7,1.7-1.7,2.9s0.4,2.5,1.3,3.4l0.4,0.4l3.4,0.4c5.9,0.8,6.3,2.1,6.3,2.1c0,1.3,0,2.9-1.3,6.3
	c-2.9,7.1-10.9,26.4-15.5,37.7c-1.3,2.9-2.9,6.7-4.6,10.9c-3.4,7.5-7.1,16.8-10.5,23.9c-8-18.4-15.1-36.4-22.6-55.3
	c-5-12.1-7.5-20.9-8.4-23c0.4-0.4,1.7-1.3,6.7-2.1l2.9-0.4l0.4-0.4c0.8-0.8,1.3-2.1,1.3-3.4s-0.8-2.5-1.7-2.9h-0.8
	c-7.5,0.4-13.4,0.4-20.1,0.4c-7.1,0-12.6,0-17.2-0.4h-0.4l-0.4,0.4c-0.8,0.4-1.7,1.7-1.7,2.9s0.4,2.5,1.3,3.4l0.4,0.4l3.4,0.4
	c6.7,0.8,8.8,3.8,12.6,13l29.7,72.9c3.4,8.8,6.3,16.3,7.5,22.2v0.8l0.4,0.4c0.8,0.4,2.1,0.4,2.9,0.4c0.8,0,1.7-0.4,2.5-0.8l0.4-0.4
	v-0.4c2.9-9.2,10.9-28.9,17.6-43.6l9.2-20.5c8-17.6,14.2-31,18.8-38.5c2.1-3.4,4.2-5,7.5-5.4L1477.2,17.8L1477.2,17.8z
	 M1367.9,251.5c-30.6,23.9-50.7,62-50.7,106.8c0,51.9,25.1,88.8,57.4,111c29.3,19.7,64.1,26.8,100.5,26.8c26,0,54.9-5.9,63.7-9.2
	c4.6-1.7,9.2-3.4,14.2-4.2c5.9-7.5,16.3-34.3,19.3-55.3c-1.7-2.9-7.5-3.8-10.5-1.7c-9.2,23.9-32.2,57.8-84.2,57.8
	c-66.2,0-119.8-46.9-119.8-131.5c0-83.3,52.4-122.3,113.9-122.3c58.2,0,76.6,31.4,82.5,58.6c2.9,2.5,8.8,2.1,10.9-0.8
	c-3.4-24.7-5-49.8-5.4-59.1c-3.8,0.4-6.3-0.4-11.3-1.7c-18.8-5.4-49.4-9.6-71.2-9.6C1434.5,217.6,1397.2,228.9,1367.9,251.5
	L1367.9,251.5z M1316.4,98.6V38.7c0-18,0.4-19.7,9.2-20.1l4.6-0.4h0.4c0.8-0.4,1.3-1.7,1.3-3.4c0-0.4-0.4-2.5-1.7-3.4h-0.8
	c-8,0.4-13.8,0.4-20.9,0.4c-7.1,0-13,0-20.9-0.4h-0.8c-1.3,0.8-1.7,2.5-1.7,3.4c0,1.7,0.4,2.5,1.3,3.4h0.4l4.6,0.4
	c8.4,0.8,9.2,2.1,9.2,20.1v59.9c0,18-0.4,18.8-9.2,20.1l-4.6,0.4l-0.4,0.4c-0.8,0.8-1.3,2.5-0.8,3.8c0,1.3,0.8,2.1,1.7,2.5h0.8
	c8.4-0.4,14.2-0.4,20.9-0.4s12.6,0,20.9,0.4h0.8c1.3-0.8,1.7-2.5,1.7-3.4c0-1.3-0.4-2.5-1.3-3.4l-4.6-0.8
	C1316.8,117.9,1316.4,116.6,1316.4,98.6z M1231.8,428.7V285c0-42.7,0.8-49.4,24.7-51.5l10.1-0.8c2.5-1.7,1.7-8.8-0.8-10.1
	c-20.1,0.8-33.9,1.3-49.8,1.3c-16.8,0-30.6-0.4-50.7-1.3c-2.5,1.3-3.4,8.4-0.8,10.1l10.1,0.8c23.9,2.1,24.7,8.8,24.7,51.5v143.2
	c0,42.7-0.8,48.2-24.7,51.1l-10.1,1.3c-2.5,2.5-1.7,8.8,0.8,10.1c20.1-0.8,33.9-1.3,50.7-1.3c15.9,0,29.7,0.4,49.8,1.3
	c2.5-1.3,3.4-8.4,0.8-10.1l-10.1-1.3C1232.6,476.8,1231.8,471.4,1231.8,428.7L1231.8,428.7z M1252.7,17.8c0.8-0.8,1.3-2.1,1.3-3.4
	s-0.8-2.1-1.7-2.9l-0.4-0.4h-0.4c-5.4,0.4-10.1,0.4-17.2,0.4c-5.9,0-11.3,0-19.7-0.4h-0.8c-0.8,0.4-1.7,1.3-2.1,2.5
	c-0.4,1.7,0,2.9,1.3,3.8l0.4,0.4l3.4,0.4c5.9,0.8,8.8,1.7,9.6,2.9c2.1,3.4,3.4,15.5,3.4,33.9v40.6c-5.9-5.9-11.7-13-19.7-21.4
	l-23.5-26.4c-16.8-18.4-26-31-28.1-36.4l-0.4-0.8h-0.8c-2.1,0.4-4.6,0.4-7.5,0.4s-11.7,0-18.8-0.4h-0.8c-0.8,0.4-1.7,1.3-1.7,2.5
	c-0.4,1.3,0,2.9,0.8,3.8l0.4,0.4l3.4,0.4c4.6,0.4,8,1.7,9.6,3.8c3.4,3.4,3.4,6.7,3.4,11.3v49.8c0,8,0,27.2-2.1,32.7
	c-0.4,0.8-1.7,2.1-6.3,2.5l-5,0.4l-0.4,0.4c-0.8,0.8-1.3,2.1-0.8,3.4c0.4,1.3,0.8,2.5,1.7,2.9l0.4,0.4h0.4
	c5.9-0.4,10.5-0.4,17.6-0.4c5.9,0,11.3,0,19.7,0.4h0.4l0.4-0.4c0.8-0.4,1.3-1.3,1.7-2.5c0-1.3,0-2.5-0.8-3.4l-0.4-0.4l-5.9-0.4
	c-4.2-0.4-6.7-1.3-7.5-2.5c-1.7-3.4-2.9-15.5-2.9-33.9V45.4c0-2.9,0-6.3,0.4-8.4c2.5,2.9,7.1,8.4,11.3,13c2.9,3.4,5.4,6.3,7.1,8
	l39,44.4c13,14.7,19.3,22.2,21.4,25.1l0.4,0.4h0.8c2.1,0,3.8-0.8,4.6-2.9v-0.8c-0.4-2.1-0.4-8.8-0.4-29.3V52.6
	c0-8.8,0-26.4,2.5-31.8c0-0.4,2.1-1.7,8.4-2.9L1252.7,17.8L1252.7,17.8z M1102.4,17.8c0.8-0.8,1.3-2.1,0.8-3.4
	c0-0.8-0.8-2.1-1.7-2.5h-0.8c-5.9,0.4-10.5,0.4-17.6,0.4c-6.3,0-12.6,0-19.3-0.4h-0.4l-0.4,0.4c-0.8,0.4-1.3,1.7-1.7,2.5
	c0,1.3,0,2.5,0.8,3.4l0.4,0.4l4.6,0.4c3.8,0.4,6.3,1.3,7.5,2.9c2.1,3.4,2.9,15.5,2.9,33.9v19.3c0,19.7-5.4,43.6-32.2,43.6
	c-22.2,0-32.7-13.8-32.7-43.6V38.3c0-18,0.4-19.3,8.8-19.7l4.2-0.4h0.4c0.8-0.4,1.3-1.7,1.3-2.9s-0.4-2.5-1.7-3.4h-0.8
	c-8,0.4-13.4,0.4-20.5,0.4c-6.7,0-13,0-20.9-0.4h-0.8c-1.3,0.4-1.7,2.1-1.7,3.4s0.4,2.5,1.3,2.9h0.4l4.6,0.4
	c8.4,0.8,8.8,2.1,8.8,19.7v39.8c0,20.1,4.2,32.7,13.4,40.6c7.5,6.3,18.4,9.6,32.2,9.6c13.4,0,26-5,33.1-12.6
	c8-8.8,12.1-22.2,12.1-41V55.9c0-8.4,0-28.5,2.1-33.5c0.8-1.7,3.8-2.9,7.1-3.4l4.6-0.4L1102.4,17.8L1102.4,17.8z M909.3,232.7
	c2.5-1.7,1.7-8.8-0.8-10.1c-17.2,0.8-31,1.3-46.9,1.3c-17.2,0-31-0.8-50.7-1.3c-2.5,1.3-3.4,8.4-0.8,10.1l10.5,0.8
	c20.9,1.7,23.9,8.4,23.9,50.7v144.9c0,42.3-0.8,46.5-23.5,50.3l-6.7,1.3c-2.5,2.5-1.7,8.8,0.8,10.1c15.9-0.4,29.3-1.3,46.9-1.3
	c15.9,0,29.3,0.4,51.1,1.3c2.5-1.3,3.4-8.4,0.8-10.1l-11.7-1.3c-22.6-2.5-24.7-8-24.7-50.3v-56.5c0-12.1,0.8-13,20.1-13h115.2
	c19.3,0,20.1,0.8,20.1,13v57c0,42.3,0,46.5-24.7,50.3l-7.5,1.3c-2.5,2.5-1.7,8.8,0.8,10.1c17.6-0.8,32.2-1.3,48.6-1.3
	c15.9,0,29.3,0.4,48.6,1.3c2.5-1.3,3.4-8.4,0.8-10.1l-9.6-1.3c-23.5-2.9-24.3-8-24.3-50.3V284.2c0-42.3,0.8-48.2,24.3-50.7l8.4-0.8
	c2.5-1.7,1.7-8.8-0.8-10.1c-18,0.8-31.8,1.3-47.7,1.3c-16.3,0-30.2-0.4-48.6-1.3c-2.5,1.3-3.4,8.4-0.8,10.1l7.5,0.8
	c23.9,2.5,24.7,8.4,24.7,50.7v46.5c0,12.6-0.8,13-20.1,13H897.1c-19.3,0-20.1-0.4-20.1-13v-46.5c0-42.3,0.8-48.2,24.3-50.7
	L909.3,232.7L909.3,232.7z M892.9,101.6v-0.8c-0.8-1.7-2.5-2.5-3.8-2.5c-0.8,0-1.7,0.4-2.1,0.8l-0.4,0.4
	c-4.6,9.6-9.2,14.7-11.3,15.5c-3.8,1.7-8.8,2.5-20.9,2.5c-13.8,0-17.6-1.7-19.3-3.4c-2.5-2.5-2.9-8-2.9-16.8V73.5
	c0-3.4,0-3.4,4.2-3.4h9.6c5.9,0,10.1,0,12.6,0.8c2.5,0.4,3.4,2.1,4.2,5.4l1.7,6.7l0.4,0.4c0.4,0.8,1.7,1.3,3.4,1.3s2.9-0.4,3.4-1.7
	v-0.8c0-1.7,0-3.8-0.4-6.3c0-2.9-0.4-6.7-0.4-10.1c0-3.4,0-7.1,0.4-10.5c0-2.5,0.4-5,0.4-6.7v-0.8c-0.4-0.8-1.7-1.7-3.4-1.7
	c-1.3,0-2.5,0.4-3.4,1.3l-1.7,7.5c-0.8,3.8-1.7,4.6-3.4,5c-1.7,0.4-6.7,0.8-13.8,0.8h-9.6c-4.2,0-4.2,0-4.2-3.4V25.3
	c0-5.4,0-5.4,3.8-5.4h12.1c7.1,0,12.6,0,15.9,0.8c7.5,2.1,9.2,6.7,11.7,14.2l0.4,0.8l0.4,0.4c0.4,0.8,1.7,1.3,2.9,1.3
	c1.3,0,2.9-0.4,3.4-1.7l0.4-0.4l-0.4-2.5c-0.8-9.6-1.7-18-2.5-20.5l-0.4-1.3l-1.3,0.4c-1.7,0.4-12.1,0.4-22.2,0.4h-31.4
	c-6.3,0-12.1,0-19.7-0.4h-0.8c-1.3,0.8-1.7,2.5-1.7,3.4c0,1.3,0.4,2.5,1.3,3.4l3.4,0.4c8.8,0.8,9.2,2.1,9.2,19.7v60.3
	c0,18-0.8,18.8-9.2,19.7l-5.9,0.4l-0.4,0.4c-0.8,0.8-1.3,2.5-0.8,3.8c0,1.3,0.8,2.1,1.7,2.5h0.8c9.6-0.4,15.5-0.4,22.6-0.4h15.1
	c14.7,0,29.3,0,44.8,0.4h0.8l0.4-0.8C887.5,120.4,891.7,107.4,892.9,101.6L892.9,101.6z M752.6,99V38.7c0-18,0.4-18.8,8.8-19.7
	l3.4-0.4h0.4c0.8-0.4,1.3-1.7,1.3-3.4c0-0.4-0.4-2.5-1.7-3.4h-0.8c-8,0.4-13.8,0.4-19.7,0.4c-7.1,0-13,0-20.1-0.4h-0.8
	c-1.3,0.8-1.7,2.5-1.7,3.4c0,1.7,0.4,2.5,1.3,3.4l3.8,0.4c8.4,0.8,9.2,2.1,9.2,19.7V58c0,4.2,0,4.2-7.1,4.2h-48.2
	c-7.1,0-7.1,0-7.1-4.2V38.7c0-18,0.4-18.8,8.8-19.7l3.4-0.4h0.4c0.8-0.4,1.3-1.7,1.3-3.4c0-0.4-0.4-2.5-1.7-3.4h-0.8
	c-7.5,0.4-13.4,0.4-19.3,0.4c-4.2,0-8.4,0-12.6-0.4c-2.5,0-5.4,0-8.8-0.4h-0.8c-1.3,0.8-1.7,2.5-1.7,3.4c0,1.7,0.4,2.5,1.3,3.4h0.4
	l4.6,0.4c7.5,0.4,8.8,2.1,8.8,19.7v60.3c0,17.6-0.4,18-8.8,19.7l-3.4,0.4l-0.4,0.4c-0.8,0.8-1.3,2.5-0.8,3.8c0,1.3,0.8,2.1,1.7,2.5
	h0.8c2.5,0,4.6,0,6.7-0.4c3.8,0,8-0.4,12.6-0.4c6.3,0,11.7,0,21.4,0.4h0.8c1.3-0.4,1.7-2.1,1.7-3.4c0-1.3-0.4-2.5-1.3-3.4l-5.4-0.8
	c-8-0.8-9.2-1.7-9.2-19.7V73.9c0-4.2,0-4.2,7.1-4.2h48.2c7.1,0,7.1,0,7.1,4.2v23.9c0,18,0,18.4-9.2,19.7l-3.8,0.4l-0.4,0.4
	c-0.8,0.8-1.3,2.5-0.8,3.8c0,1.3,0.8,2.1,1.7,2.5h0.8c8-0.4,13.8-0.4,20.1-0.4c6.7,0,12.6,0,20.1,0.4h0.8c1.3-0.8,1.7-2.5,1.7-3.4
	c0-1.3-0.4-2.5-1.3-3.4l-4.6-0.8C753.1,117.9,752.6,116.6,752.6,99L752.6,99z M614.8,9.4V9l-0.4-0.4c-0.8-1.3-2.5-1.3-2.9-1.3
	c-0.4,0-0.8,0-1.7,0.4h-0.4L609,8.2c-2.1,3.8-2.9,4.2-12.1,4.2h-69.5c-7.5,0-10.9-0.4-11.7-4.2V7.7l-0.4-0.4
	c-0.4-0.4-1.3-0.8-2.5-0.8c-0.4,0-1.7,0-2.5,0.4l-0.4,0.4v0.4c-1.3,6.7-3.8,17.2-6.3,24.7v0.4l0.4,0.4c0.8,2.1,4.6,2.9,6.3,1.7h0.4
	v-0.4c1.7-3.8,3.4-7.5,7.1-11.3c3.8-3.4,12.1-3.8,19.7-3.8h9.2c3.8,0,3.8,0,3.8,4.2v75c0,18-0.8,18.8-9.2,19.7l-5.9,0.4h-0.4
	c-0.8,0.4-1.7,1.7-1.7,3.4c0,1.3,0.4,2.5,1.7,2.9h0.8c10.5-0.4,16.3-0.4,23.5-0.4c6.7,0,12.1,0,21.8,0.4h0.8
	c1.3-0.4,1.7-2.1,1.7-3.4c0-1.3-0.4-2.5-1.3-3.4l-5.9-0.8c-8.4-0.8-8.8-1.7-8.8-19.7V22.4c0-1.7,0-3.4,0.4-3.8
	c0.4-0.4,2.1-0.4,3.4-0.4H583c8.8,0,15.1,1.3,18.8,3.8c1.7,1.3,2.9,5.4,3.8,11.3v0.4l0.4,0.4c0.4,0.8,1.7,1.3,2.9,1.3
	c1.7,0,2.9-0.8,3.4-1.7v-0.8C611.9,29.9,612.7,16.1,614.8,9.4z M500.5,358.3c0,51.9,25.1,88.8,57.4,111
	c29.3,19.7,64.1,26.8,100.5,26.8c26,0,54.9-5.9,63.7-9.2c4.6-1.7,9.2-3.4,14.2-4.2c5.9-7.5,16.3-34.3,19.3-55.3
	c-1.7-2.9-7.5-3.8-10.5-1.7c-9.2,23.9-32.2,57.8-84.2,57.8c-66.2,0-119.8-46.9-119.8-131.5c0-83.3,52.4-122.3,113.9-122.3
	c58.2,0,76.6,31.4,82.5,58.6c2.9,2.5,8.8,2.1,10.9-0.8c-3.4-24.7-5-49.8-5.4-59.1c-3.8,0.4-6.3-0.4-11.3-1.7
	c-18.8-5.4-49.4-9.6-71.2-9.6c-41.9,0-79.2,11.3-108.9,34.3C520.6,275.4,500.5,313.9,500.5,358.3L500.5,358.3z M395.8,290.5V9.8
	C170-11.9,0,9.8,0,9.8v280.6c18,190.1,196,212.8,197.7,212.3C229.5,496.9,379,467.2,395.8,290.5z M63.7,360.4c3.8,2.5,8,3.4,11.7,5
	c4.6,12.6,0,25.1-2.5,19.7C67.9,376.7,66.2,369.2,63.7,360.4L63.7,360.4z M63.7,222.6c-0.8-0.4-25.1,15.5-41.5,8
	c12.1-6.7,53.2-33.1,64.5-40.2c5.4,1.3,7.5-0.8,9.2-2.1c-4.2,0.4-18.8,2.5-11.3-10.5c2.9,11.3,23,0.8,30.2-0.8
	c20.1-4.6,20.1,16.8,18.4,26c-0.8,3.4,6.3,5.9,9.6,5c-5.9,14.2-15.5,0.8-16.8,6.3c-0.4,2.1-7.1,3.8-7.1,9.2c0,7.5,2.9,3.4,3.4,9.2
	c0.4,5.4-2.5,1.3-1.7,7.1c0.8,9.6,16.8-1.3,23.5,1.3c3.4,1.3,5.4,4.2,8.8,3.8c0.8-0.8,0.4-4.6,0.4-5.9c-0.4-2.9-5.9-3.4-8.8-7.5
	c-2.1-3.8,2.5-14.7,5.4-17.6c3.8,18,20.5,12.6,23.5,31.4c1.7,5.4-5.9,11.3,0,20.1c-4.6,4.2-9.6,24.7-0.4,34.8
	c-1.7,4.2-3.8,14.7,4.6,20.5c-2.9,5.9-2.1,13.4,0,20.5c-5,0-4.2-28.9-35.2-30.2c-0.8-0.4-0.8,3.4,0,5c3.8,6.7,8.8,6.3,7.5,21.4
	c-0.4,5.4-3.4-0.8-5-2.5c-3.8-3.4-6.7-3.8-8.4-14.7c-12.6,10.1-11.3,21.8-10.5,28.1c0,0-2.9-7.5-5.9-15.5c0-0.4,13-15.9,15.1-19.7
	c26.4-47.3-16.8,15.1-17.2,15.1c-2.5-5.4-4.2-10.1-5.9-11.3c0.4-0.8,7.5-8.8,10.9-15.5c20.1-42.3-12.1,14.2-13.4,13
	c-2.5-2.1-4.6-5-5.9-3.8c-0.4,6.3-2.1,5.4-1.7,12.1c-3.4,4.6-10.5,11.7-15.5,15.1c0,0-1.3-11.7-0.8-12.1
	c2.5-2.9,12.6-13.8,14.7-17.2C133.6,256.5,85,321,85,320.6c-0.4-2.1-2.9-5.4-5.9-8.4c0,0,10.9-14.7,13.4-20.1
	c20.1-41.5-16.3,18.4-16.8,18c-0.8-0.4-0.8-0.4-2.1-0.8c-0.8-0.4,1.3-12.1,2.5-18.8c2.9-13.8-4.6-2.5-6.7,19.3
	c-1.7,0.4-6.3,0.8-8,2.5c1.3,5.9,2.5,1.3,5,7.1c2.9,6.7-4.2,17.6,2.1,26c2.5,2.9,2.5,2.5,2.1,4.6c-3.8-0.4-5.9-0.4-8.4,2.9
	c-4.6-20.9-4.6-31-3.4-52.4c0.4-9.6,3.8-24.3,2.1-24.7c-1.3-0.4-23.5,56.5-28.5,67.4c-10.1-3.4,5-52.4,23.9-76.2
	c2.1-7.1-10.1,8-16.8,13.8c-6.3,5.4-14.7,12.6-23.5,10.1C27.6,278.7,54,256.1,57,250.2c2.5-5-18,15.1-39.4,7.5
	C31,250.7,63.7,234.3,63.7,222.6z M102.6,329c0,5-0.4,8.8,1.3,14.2c2.5,8,1.3,5.4-2.1,2.9c-2.5-2.9-5-5.4-6.3-8.8
	C95.1,334.8,96.7,334.8,102.6,329z M154.5,201.7c-3.4-5.4,3.8-10.5,3.8-10.5c0,15.1,19.3,4.6,29.3,9.6c2.5,1.3,4.2,3.4,5,5.4
	C181.8,198.7,161.7,213.8,154.5,201.7z M41.5,81c-17.2,0-16.8-26,0-26C58.2,55.5,58.2,81,41.5,81z M41.5,132.6c-17.6,0-17.6-26,0-26
	C58.2,107,58.2,132.6,41.5,132.6z M73.7,76.8H58.6V62.2h15.1C73.7,62.2,73.7,76.8,73.7,76.8z M73.7,128.4H58.6v-14.7h15.1
	C73.7,113.7,73.7,128.4,73.7,128.4z M195.2,153.9c0,0-15.5-8.4-33.9-9.6c-18-1.7-54,12.6-81.7,10.9V33.7c0,0,31.4,4.2,44.4-0.8
	c44-17.2,71.2,2.1,71.2,2.1L195.2,153.9L195.2,153.9z M225.3,173.6c0.8,4.6-3.4,5.9-3.4,5.9c6.7,1.7,9.6-2.5,10.9-5
	c2.5,10.5-8,11.3-11.3,11.7c0,0,5.4,1.7,5.9,5c0.8,8.8,6.3,8,7.5,7.5c0,1.3-2.1,6.3-8.4,1.7c-1.3,1.3,1.7,2.9,2.5,7.1
	c0.8,5.4,0.4,10.9,7.1,14.2c-3.8,3.4-8.8-5-9.2-4.2c-0.4,1.3,5.4,4.2-1.3,19.7c-2.9-1.7-1.3-1.3-4.6-5.4c-2.5-2.1-3.8-2.9-1.7,0.8
	c3.8,5,4.6,15.9,3.4,18.8c-3.4-1.3-2.5-3.8-6.3-7.5c-0.4,1.7,1.3,8.8,5,12.1c6.7,5.9,9.2,13.4,9.2,14.7c0.4,5.4-1.3,13-1.7,20.1
	c-3.4-0.4-5.9-9.6-6.7-9.2c-0.8,0.4,0.4,8.8,6.7,14.7c2.9,8.8,1.7,13.4,0.8,13.4c-0.8,0.4-4.2-8.8-6.3-7.1
	c8.8,22.2,2.5,29.7,0.4,36.4c-1.7-7.1-2.5-12.1-5-20.1c-4.6,3.8-5.9,9.2-11.7,14.2c0-8.8-5-30.6-9.2-35.6c0-0.4-7.5,19.3-10.9,28.1
	c-4.2,11.3-5,25.5,0,36.4c-10.9-15.1-11.7-43.6-2.5-47.3c0.8-2.1-0.4-8.8-2.5-8c-0.4,3.4,0,5.9-2.9,9.2c-7.1-2.1-3.8-10.9-3.4-13.4
	c9.2-10.9,3.4-13.4,2.9-13.4c-0.8,2.5-1.7,5.4-4.6,6.7c-5.9-10.1-2.1-26,9.2-38.1c0.4-4.6-5,3.4-8.4,2.9c-0.8-8.4,2.1-23.5,18-23.9
	c-2.9-0.8-4.6-1.3-5.4-3.8c4.6-0.8,19.7-1.7,17.2-13.8c-1.3,1.3-1.7,3.4-5.9,5.9c-2.5,1.7-5.4,1.7-7.1-0.4c7.1-2.1,4.6-10.9-4.6-8.4
	c-2.9,0.8-6.7-2.1-7.1-5.4c2.1,2.1,6.3,0.4,8.4-0.8c10.1-6.7,16.3,2.9,18,5c0.4,0,4.6-9.6-10.1-12.1c-1.3-3.4-4.6-9.2-14.2-8.8
	c-3.4-11.3-13-5.9-12.6-0.4c-10.5-7.5,0-17.2,4.2-18.8c2.9,0.4,2.1,9.6,7.5,8c1.3-0.4-4.2-6.3-2.1-9.2c4.6-2.5,4.6,3.4,7.1,1.3
	c1.3-4.2,5.9-6.3,9.6-6.7C206.9,167.3,215.3,179,225.3,173.6L225.3,173.6z M321.2,155.6c-23,1.7-71.2-11.7-83.3-11.7
	c-25.1,0-37.3,9.6-37.3,9.6V35c0,0,33.1-15.5,57.4-6.7c29.3,10.9,63.7,5.9,63.7,5.9L321.2,155.6z M351.8,108.7
	c12.6-1.7,14.7,13.4,14.7,13.4c-3.4-2.5-9.6-3.8-13.8-0.8c-14.2,9.2-27.2,9.2-27.2,9.2v-23C325.9,107.4,328.4,112.4,351.8,108.7z
	 M366.9,77.3c0-0.8-0.4-1.7-0.4-3.4c-0.4-2.5-7.1-3.8-11.7-1.7c-6.7,2.9-23,12.1-28.9,10.5v-23c14.7,6.3,20.5,0.4,25.1,0.4
	c14.7,0,15.1,13.4,15.1,13.4C366.9,75.6,366.9,76.8,366.9,77.3L366.9,77.3z M350.6,315.6c-4.2,1.3-15.5,5.4-18.4,10.1
	c1.3-24.7-6.3-48.6-8.8-54.4c-5-11.3,2.1,26.4,2.5,35.2c0,0.4-40.6-52.4-15.9-11.7c6.3,10.5,16.3,17.6,16.3,17.6
	c0,7.1-0.4,12.6-1.7,16.8c-2.5,2.1-55.3-70.4-26-20.1c3.8,6.3,24.7,25.1,24.7,25.5c-1.3,2.9-3.8,7.1-7.1,10.1
	c-0.4-0.4-12.1-9.2-12.1-9.6c-0.8-5.4-0.8-10.9-8-7.1c0,0-26-30.2-13.8-9.2c5.4,9.2,8.8,10.5,10.1,12.1c0,0-4.2,5.4-5.4,11.3
	c-0.4,2.5-22.6-24.3-13.8-7.5c2.9,5.4,13,11.3,12.6,11.7c-0.8,3.4-2.1,6.7-3.4,9.2c-1.3,2.9-20.9,18.4-20.9,18.4s3.8-12.1,12.1-18.4
	c4.6-3.4,4.6-2.5,8-4.6c0-1.7-1.7-4.6-4.2-5.4c-2.9-0.8-12.1,0.8-12.1,0.8c0.8-4.6-3.4-14.7-2.9-25.5c-3.4,0.4-9.6,5.9-10.9,8.8
	c-1.3,18-5,12.6-8.8,25.5c-4.2-5.4,0.4-13.4-3.8-18.4c-5.4-7.1-6.3-11.7-7.1-20.5c1.3-0.8,6.7-6.7,1.7-19.3c-0.8-20.1,8-27.6-8-41.5
	c1.3-0.4,2.5-10.5,2.5-10.5c11.7,6.3,9.2-7.1,13.8-10.1c7.1-4.2,5.9-8.8,2.5-14.2c20.9,5.9-0.8,20.1,8.4,20.5
	c6.7,0,11.3-1.7,14.2-6.3c3.4-5-0.4-8,8.4-15.5c0.8-0.8,3.4-5.9-3.8-7.5c-1.7-0.4,0-6.3,0-6.3c-5.4,4.6-7.5,11.3-16.3,7.1
	c-4.6-2.1-7.5,0-9.6,0.8c0,0-0.8-3.8,2.9-5c10.1-3.4,12.1-7.1,11.7-9.2c-1.3-5-1.7,0-1.3-5.4c0-2.1,2.5-5,4.6-7.5
	c6.7-8,11.3-5,13-4.2c3.8-2.9,4.6-2.9,8.4-4.2c6.3-2.5,19.7,1.7,27.2,5c3.8,1.7,8,2.5,12.1,1.7c0,2.1-1.7,3.4-2.9,3.8
	c-2.5,0.8-5,0-5,1.7c0,0.8,3.4,1.3,5.4,1.7c11.3,2.9,25.5,13,15.9,10.9c-1.3-0.4,6.7,5.9,13,13.8l21.4,20.5
	c-0.8,1.3-8.4,0-31.8-21.8c-3.4,2.9,28.5,27.2,41.9,52.8c-1.3,0.8-17.6-5-23.5-11.3c-9.2-9.6-19.7-33.5-23.9-30.2
	c-0.4,0,17.2,28.1,26.4,44.4c4.6,8.4,8,20.5,8.4,29.3c1.3,44.4-5.4,41-5.4,41c-10.5-35.2-15.5-75.8-30.6-94.7
	C327.1,238.9,349.7,279.1,350.6,315.6L350.6,315.6z M304.5,355.8c-4.6,4.2-8,5.4-6.7,3.4c1.3-2.1,2.1-4.2,2.5-5.9
	C300.7,352.9,304.5,355.8,304.5,355.8z M301.1,350.3c0.8-3.8,0.8-6.3,1.7-9.6c0.4-1.3,0.4-1.3,0.4-2.5c0-0.4,10.1,8.4,10.9,8.8
	c-2.5,3.4-4.6,4.2-7.1,6.7C304.9,352,301.1,350.3,301.1,350.3L301.1,350.3z M334.2,361.7c-14.2,13.8-35.2,8.8-51.9,16.3
	c-15.1,5.4-26,19.7-41.9,23c-4.6,1.7-5.4,3.8-2.5,3.8c1.7,0,11.3,10.1,26.8,2.1c5-2.5,21.4-11.7,23.9-12.1
	c-8.8,8.4-13,15.5-20.9,20.1c-4.6,2.5-24.3,9.6-43.6,5.9c-8.4-1.7-15.1,6.3-13,5.9c4.6-1.3,9.6-0.4,13,3.4
	c5.4,4.2,13.8,10.1,20.5,1.7c2.5-2.5,13.4-8.4,23.9,2.1c-10.9-0.4-10.1,19.3-31,17.2c-8,0-25.1-18-29.7-12.1
	c-8.8,9.6,18.4,18.8,6.7,31.4c-10.9,10.9-23.5-8.8-23.5-8.8c6.7,2.9,18.8,4.6,13.4-6.3c-2.1-4.2-6.3-8-6.3-15.9
	c-0.8-3.8-25.5,31.4-41.5,15.5c-6.3-6.3-19.3-20.1-31-25.1c31-2.5,35.6,9.6,36.9,11.7c10.1,13.4,18.8,0,20.9-2.5
	c3.4-3.8,8-8.8,6.3-9.6c-12.1-5.9-25.5-6.7-36-2.1c21.8-30.2,39-2.1,39-2.1c2.5,1.7-0.4-18-22.2-18.8c-13.4-0.8-25.5,11.3-34.8,11.3
	c-7.5,0-30.6-15.5-36-29.3c13.4,10.1,30.6,15.9,41,9.2c20.1-11.7,45.2,5.9,46.5,3.8c-5.4-4.2-18.4-21.4-52.8-11.7
	c-13.4,7.5-18.8-5.9-27.2-5.9c13.8-12.1,23.5-5.9,28.5-5.9c1.3,0-5.9-5.9-10.5-6.3c-38.1-3.8-62-14.2-62-14.2s3.4-7.5,19.3-2.1
	c0,0-14.7-8.8-14.7-20.5c0.4-7.1,3.8-14.7-1.7-20.5c22.2-0.8,6.3,29.7,21.8,37.7c0.4,0-4.6-7.5,2.5-13c3.4,9.2,10.9,13.8,16.8,15.1
	c1.3-0.8,2.9-3.4,2.9-3.4c-5.9-9.6-6.7-20.9-5-33.5h0.4c1.3,0,3.4,4.6,5,7.5c3.4,6.7,2.9,16.8,9.6,25.1c3.4,4.6,5.9,9.2,8.8,11.3
	c1.3-3.4,0.4-8.8,0-10.1c-0.8-5-4.2-14.2,5-22.2c4.2,12.1,9.6,8.4,10.5,14.2c1.3,8,0.8,6.7,0,13c0.4,8.4,8.4,10.9,15.1,16.3
	c15.5,8.4,26,13,32.7,23.9c3.4-18.4-46.1-21.8-39.8-57.4c-0.8-14.2,1.7-15.1-8.4-23.9c19.7,0.4,30.6,33.1,31.8,39
	c2.1,10.9,8.8,11.3,17.6,25.5c1.3,0.4-16.3-37.7,4.6-70.8c0,0,7.1,17.2,3.8,28.1c-2.1,6.7,0,14.2,0.4,18.4c0.4,4.2-0.8-15.5,14.2-26
	c0.8,7.5,8,19.3,1.3,31.8c-8.4,15.1-8.8,9.6-9.2,28.5c0.8-0.4,2.9-13,8.8-20.1c12.1-15.1,3.4-23,15.1-36c0.8,6.7,2.5,3.8,3.4,9.6
	c1.7,13-12.1,27.2-9.2,26.8c3.4-0.4,9.2-3.4,10.9-13.4c0,0,5,9.2,0.4,12.1c-8.4,5.4-10.1,11.3-8.8,18c6.7-8,15.9-16.8,14.2-28.1
	c0.8-6.7,8-9.6,9.6-25.5c0.4-2.5,2.9-5.9,5.4-7.1c-1.3,8.8,5.9,18-2.1,28.9c1.7,0.8,8.4-8.4,18-5c-19.7,3.4-13.8,24.7-28.9,34.3
	c-4.6,2.9-3.8,6.3-5,6.7c13.4-0.8,23.9-16.8,25.5-18c13.4-9.2,16.3-10.5,21.8-25.1c2.1-5.4,0.4-8,8-15.5c3.4,7.5-1.7,23-2.5,26.4
	c-2.5,7.1-10.9,13.4-9.2,13.4c36-15.9,35.6-26.8,44.4-38.1c2.5-4.2,15.5-11.7,20.1-12.6c0,2.1-5,5.9-5,10.5c-0.4,8-2.9,13-7.1,19.3
	c2.1,2.9,6.7-5.4,10.9-1.3C341.3,351.2,338.8,357.9,334.2,361.7L334.2,361.7z M340.5,359.6c-2.1,10.5-5.9,20.1-12.1,29.3
	c-4.6,6.3-6.3-5.9-2.5-18C331.3,368.4,336.7,364.2,340.5,359.6z M312.9,92.8c-0.8-0.4-2.5-0.8-3.8-0.8s-1.7,1.7-0.4,2.1
	c0.8,0.4,2.5,0.4,4.2,0.4C314.1,94.9,313.7,93.2,312.9,92.8z M308.7,97.8c0.8,0.4,2.5,0.4,4.2,0.4c0.8,0,0.8-1.7,0-2.1
	s-2.5-0.4-3.8-0.8C307.8,96.1,307.4,97.4,308.7,97.8z M308.7,120.8c-0.8-0.8-2.9-2.5-5-4.2c-1.3,0.8-3.4,2.5-5,3.4
	c-1.3-1.3-2.5-2.9-4.6-4.6c-1.3,0.8-5,4.2-6.7,5.4c2.5,0,5.9,0.8,5.9,2.9v14.7c1.3,0.4,2.9,0,5,0v-15.5c0.8-0.4,1.7-0.8,2.1-1.3
	c0.8,0.4,3.4,3.4,4.6,4.2c0.8-0.8,3.4-2.9,4.6-3.8C311.2,120.8,309.9,120,308.7,120.8L308.7,120.8z M302.4,102.8
	c1.3-2.5,3.4-6.3,2.9-9.2c0-3.8-2.5-8.8-7.5-10.9c-6.7,2.5-10.9,7.5-10.9,13.8c0,3.8,2.9,11.3,9.6,11.3
	C298.2,106.2,300.3,104.1,302.4,102.8z M298.2,104.1c-1.3-0.4-5.9-4.2-6.7-6.7c-1.3-3.8-1.3-7.5,2.5-10.1c2.9,1.3,6.7,4.2,6.7,6.7
	C301.1,97.8,300.3,102,298.2,104.1z M298.2,76l5-5.4c0,0-2.1-1.7-3.4-3.4c0-1.3,0-11.7,0.4-12.1c-3.8-3.4-6.3-3.8-8-3.4
	c-2.9,0.4-5.9,4.2-6.7,5.4c-0.8,0.8-0.4,2.1,0,2.5s1.3,0.8,2.1,1.3c0,0-0.4,0-0.4-0.4c-1.3,1.3-3.4,5-3.4,7.5s2.5,6.3,3.8,7.5
	c1.7-1.3,4.2-3.4,8-4.2C296.1,73.9,297,75.2,298.2,76L298.2,76z M295.3,63.9c-2.5-0.8-7.1-2.9-8.8-4.6c-0.4-0.4-0.4-0.4,0-1.3
	c1.3-1.7,2.5-2.9,3.4-2.9c0.8,0,5.4,2.5,5.4,3.8L295.3,63.9L295.3,63.9z M295.3,71c-1.3,0-2.5,0.4-3.8,1.3c-1.3-1.3-4.6-5-2.1-9.6
	c-0.4,0-0.8-0.4-0.8-0.4c2.1,1.3,5,2.5,7.1,2.9v4.2C295.3,69.7,295.3,70.6,295.3,71z M281.5,49.6c-1.3,0-8.8,0-8.8-0.4
	c-0.4-1.7-0.8-3.8,0.4-6.3c0.8-1.3-0.4-2.1-1.3-0.4c-0.4,1.3-4.2,6.7-8.4,8.4c-2.1,0.8,2.5,2.5,2.1,2.5c0,5,0.8,12.6,1.7,15.9
	c0.8,1.7,2.9,4.6,4.2,3.8c0.8-0.4,2.9-4.6,3.4-5c1.3-0.8,0-2.5-0.8-1.7c-0.8,0.8-1.7-0.4-2.1-1.3c-0.4-0.8-1.3-12.1-0.8-12.1
	c0,0,9.2-1.3,10.1-1.3C282.3,51.3,282.3,49.6,281.5,49.6L281.5,49.6z M256.7,70.1l3.8-5c-2.5-0.4-3.8-0.8-5.9-2.9V50l-3.8-3.8h-1.3
	l-5.9,5.4c-0.4,0.8,0.8,0.8,1.7,0l4.2,2.5V66c0.4,1.3,1.7,2.9,3.4,4.6C253,70.6,256.7,70.1,256.7,70.1z M253.4,43.3l2.1-1.7v-2.9
	l-2.9-2.9l-2.9,2.5v3.4l1.7,1.7C251.3,43.3,253.4,43.3,253.4,43.3z M243.8,39.6c-1.7,0-6.7,0.4-8.8,0.4c-2.1,0.4-2.1,1.3-0.4,1.3
	c1.7,0,2.1,0.4,2.5,2.5c0.8,2.1-2.9,11.7-4.2,14.2c-1.3-1.7-5-10.5-5-11.7c0-0.8,1.7-1.7,2.5-2.1c1.7-0.4,1.7-1.7,0.4-1.7
	c-3.4-0.4-14.2-1.3-16.3-1.7c-1.3,0-2.1,1.7-0.4,1.7c1.7,0,3.8-0.4,5.4,2.5c2.1,3.4,9.2,18.4,10.9,24.7c0.8-1.3,8-21.8,8.4-23.9
	c0.4-2.1,2.1-4.2,4.2-4.6C245.9,40.8,245.4,40,243.8,39.6L243.8,39.6z M210.3,89c0,8.4,3.4,9.2,7.5,11.3c3.8,2.1,9.6,1.7,14.2,0.4
	c1.7-0.4,2.5-0.4,2.5,0.8c0,0.8,1.3,0.8,1.3,0v-8.8c0-0.8-1.3-0.8-1.3,0c0,1.3,0,1.7-1.3,3.4c-3.4,4.6-11.3,4.6-15.5-1.3
	c-1.3-2.1-2.9-4.6-1.3-5s6.7,0.4,10.1,0.8c2.1,0,6.7,0.4,7.1,0.8c0.4,0.4,1.3,0.8,1.3,0v-5.4c0-0.8-0.8-0.4-1.3,0s-5.4,1.3-7.5,1.7
	c-2.1,0.4-8.4,0.8-9.6,0.4c-1.7-0.4-1.3-3.8,0.4-5.9c4.2-5.9,13-5.4,16.3-0.4c1.3,1.7,1.3,2.1,1.3,3.4c0,0.8,1.3,0.8,1.3,0V75.2
	c0-0.8-1.3-0.8-1.3,0c0,0.4-1.3,0.8-2.9,0.4c-2.5-0.8-10.5,0.4-14.2,2.1C215.3,79.8,210.3,84,210.3,89L210.3,89z M211.9,104.1
	c0,2.5,0.8,23,0.8,26c0,1.7,2.1,3.4,4.2,4.6c0.8-1.3,2.9-4.2,5-5.4c0.8-0.8,0.4-1.3-0.4-1.3c-1.7,0.8-3.4,0-3.4-1.7v-22.2
	C216.5,104.5,213.2,104.5,211.9,104.1L211.9,104.1z M229.1,121.2c-1.3,1.3-3.8,4.6-3.8,7.1s1.3,5,2.9,6.3c2.5-1.7,4.2-4.2,8.4-5.9
	c0.4,2.1,2.1,2.1,3.4,3.4c0.8-1.3,4.6-5.4,5.4-6.3c0.8-0.8,0.4-1.7-0.8-0.8c-1.3,0.8-2.1,0.4-3.8-1.7c0-1.3,0-10.1,0.4-10.5
	c-1.7-1.7-3.4-4.2-5.4-4.2c-2.9,0.4-6.7,5.4-7.5,6.7c-0.8,0.8,0,4.6,0.4,5C228.7,121.2,229.1,121.2,229.1,121.2L229.1,121.2z
	 M231.2,122.9c1.7,0.8,2.5,0.4,5,0v3.8c-1.3,0.8-2.5,1.7-4.2,2.1C230.8,127.9,229.1,127.1,231.2,122.9z M229.9,115.4
	c1.3-1.7,1.7-2.1,2.5-2.1c0.8,0,3.8,2.1,3.8,3.4v4.6c-2.1,0.4-3.8,0.4-6.3-1.7C229.5,119.6,229.5,116.2,229.9,115.4z M247.9,112
	c-2.1,0.8,2.5,2.5,2.1,2.5c0,5-1.3,13.4,0.8,15.9c1.3,1.7,3.4,2.5,5,2.1c1.7-0.4,3.8-3.8,4.2-4.2c1.3-0.8,0-1.7-0.8-0.8
	c-0.8,0.8-3.8,0.4-3.8-0.8c-0.4-0.8-0.4-12.1,0-12.1h3.8c0.8,0,0.8-2.1,0-2.1c-1.3,0-3.8-0.4-3.8-0.8c-0.4-0.8,0-4.2,0.8-5.9
	c0.8-1.3-0.4-2.1-1.3-0.8C254.6,107,251.3,110.4,247.9,112z M248.8,89c0,4.6-2.1,9.6-5,12.1c4.6-1.3,5.4-4.2,8-7.1
	c1.3,2.1,4.2,4.6,5.9,5.9c1.3-0.8,5-5,5.9-5.9c-2.9-0.8-8-3.4-9.2-6.7c-0.8-2.1-0.8-3.4,0.4-5c0.8,1.3,7.5,4.2,10.5-0.8
	c-3.4-1.3-5.9-3.4-7.1-5c-0.8,0.8-3.8,3.8-5.4,4.6c-0.4-1.7-2.9-3.4-5-3.8c-0.8,0.8-5.9,4.6-8,5.4c-0.8,0.4-0.4,1.7,0.4,1.7
	c0.8-0.4,2.5-1.7,4.2-2.5C246.3,82.7,248.4,84.8,248.8,89L248.8,89z M271,89.8c0.4-2.9,2.5-4.2,3.4-5c1.3,1.3,2.5,2.9,4.6,2.9
	s3.8-0.8,4.6-1.7c-1.7-1.3-5-5-5.9-5.9c-1.7,0.8-10.1,5-10.5,10.1c-0.8,7.1,1.3,8.4,4.2,12.6c1.7,2.1,4.6,2.5,5.9,2.1
	c1.3-0.8,6.7-5.9,7.1-6.7c0.4-0.4-0.4-1.3-0.8-0.4c-0.8,0.4-0.4,0.8-1.3,0.8c-0.8,0-4.6,0.8-6.7-0.4C273.5,97,270.1,94,271,89.8z
	 M267.2,112.4c-1.3,1.3-3.4,2.5-5,4.6c1.7,0,2.9,0.4,3.8,2.1c0.8,1.7,0,8,0.4,10.5c0,2.5,1.7,2.9,3.4,5c2.1-0.4,7.1-2.5,8.8-3.8
	c0,2.1,2.5,4.2,3.8,4.6c0.8-1.3,2.1-1.7,3.4-2.9c-1.3-0.8-1.3-1.3-1.7-2.9c-0.4-1.7,0-8.8,0-11.7c-1.3-1.7-2.9-3.8-5-5l-5,5
	c1.7-0.4,4.6,0.4,4.6,1.7c0,1.7,0.4,5.4,0,8.4c-0.4,2.9-8.4,1.7-8.4-0.4c0-2.1,0.4-8,0.4-10.5C269.7,115,269.3,114.1,267.2,112.4
	L267.2,112.4z M215.3,182.8c-4.6-0.8-8-4.2-12.1-5.9c-5.9-2.1-11.7,2.1-11.7,2.9c0,1.7,1.7,2.5,6.3-0.4c-3.8,4.2,0.4,7.5,0.4,7.5
	c-1.7-0.4-3.8-0.8-5-1.7c-0.4,1.7,1.7,2.1,2.9,2.9C203.6,191.6,208.6,184.1,215.3,182.8L215.3,182.8z M202.3,187
	c0,0,2.1-2.1,2.1-3.8c0-2.1-2.1-3.8-2.1-3.8c1.7,0.4,5.9,2.9,7.5,3.8L202.3,187z M160,128.4l2.1-2.5c-2.5-0.4-1.3-0.4-2.5-1.7v-10.1
	l-3.4-4.6H155l-5,4.6c-1.3,1.3,0,1.7,1.3,0.4l3.4,1.7v10.9c0.4,1.3,1.3,1.7,2.9,3.4L160,128.4L160,128.4z M161.2,93.6
	c1.7,5,5.9,6.3,8.8,6.7c0.8-1.7,2.5-4.2,3.4-5.4c1.3-1.7,0-2.9-0.8-0.8c-0.8,1.7-4.6,0-5.9-1.7c-2.1-1.7-2.9-6.3-1.7-8
	c1.7-1.7,3.8-0.8,6.7-0.8c1.7,0,2.1-1.7,2.5-2.5c-0.8-0.4-2.1-1.3-4.2-2.1c-1.7,1.3-4.6,3.4-5.9,4.6
	C162.5,84.4,159.6,88.6,161.2,93.6L161.2,93.6z M168.4,120c-1.7,2.1-3.4,3.8-3.4,6.7c0,2.5,0.8,5,3.4,6.3c2.1-1.7,5-3.8,8-4.2
	c1.3,1.7,3.4,2.9,4.6,3.8c0.8-0.8,3.8-3.4,4.6-4.2c0.8-0.8,0-1.7-0.8-0.8c-0.4,0.8-2.5,0.4-2.9-0.8c0-1.3-0.8-12.1-0.4-13
	c-1.7-1.7-4.6-5.9-6.3-5.9c-2.9,0.4-6.7,4.2-7.5,5.4C166.7,115,167.5,119.6,168.4,120z M175.9,121.2c-2.1,0-3.8-0.4-6.3-2.5
	c-0.4-0.4-0.8-2.9-0.4-3.8c0.8-1.7,0.8-2.1,1.7-2.1s5,2.5,4.6,3.8C175.9,117.5,175.9,119.1,175.9,121.2z M170.5,121.2
	c2.1,1.3,2.9,1.3,5.4,0.8v2.9c0,0.4,0.4,0.8,0.4,1.7c-1.3,0.4-2.9,0.8-4.2,1.3C170.9,127.1,166.7,124.6,170.5,121.2L170.5,121.2z
	 M186,100.7l2.1-2.5c-2.5-0.4-2.5-0.4-3.8-1.7V84.8l-2.1-3.4h-1.3l-5,5c-1.3,1.3,0,1.7,1.3,0.4l2.5,1.7v10.9
	c0.4,1.3,1.3,1.7,2.9,3.4L186,100.7L186,100.7z M181.8,59.7c-0.8,0-2.5,1.7,3.4,2.5C186.4,62.2,187.6,60.1,181.8,59.7z M181.8,55.9
	c-0.8,0-2.5,2.9,3.4,2.5C186.4,58.4,187.2,56.3,181.8,55.9z M183,74.3l-2.5-2.5l-2.5,2.5v3.4l1.7,1.7h1.7l2.1-1.7L183,74.3L183,74.3
	z M177.6,49.2c-1.7-1.3-3.8-4.2-8-4.2s-9.2,3.8-10.9,6.3c-2.1,3.4,0.4,6.3,3.4,8.4c-1.7,1.7-4.2,3.8-6.3,5.9
	c0.8,0.8,5.9,3.4,8.8,3.4c4.2,0,8-2.1,10.5-4.2c4.2-3.4,2.9-7.1-1.7-9.6c-0.4-0.4-0.8-0.4-1.3-0.4C174.7,52.1,177.2,50,177.6,49.2
	L177.6,49.2z M166.7,58.4c1.3,0.8,2.9,1.3,4.6,2.1c2.5,1.3,1.3,3.8-1.3,5c-2.5,1.3-7.1-2.1-8-3.4C162.9,61.4,164.6,60.1,166.7,58.4
	L166.7,58.4z M171.3,52.1c-0.4,0.4-1.7,1.3-2.5,2.1h-2.1c-2.1-0.4-3.4-2.1-4.2-3.4c-0.8-1.3,1.7-2.5,2.9-2.5
	C166.7,49.2,169.6,50.5,171.3,52.1L171.3,52.1z M153.3,61.8c-6.3,1.7-9.2-3.4-10.1-5c2.5-2.5,7.1-7.1,9.6-9.2
	c-1.7-1.7-2.5-4.2-5.9-4.6c-2.9,0-9.2,3.4-10.5,11.3c-1.3,8,6.3,12.1,12.1,12.1c2.1,0,4.2-2.5,5.4-2.9
	C157.1,62.2,156.2,60.9,153.3,61.8L153.3,61.8z M142.8,55.5c-1.7-5-0.8-7.1,2.1-9.6c0.8,1.7,2.5,2.9,3.8,3.8
	C147,51.3,144.1,54.6,142.8,55.5z M135.3,50.9c1.3-1.3,0-1.7-0.8-0.8c-0.8-0.8-2.5-2.9-3.8-3.8c-0.8,0.8-3.4,2.5-5,2.9
	c-0.8-1.3-2.5-1.3-4.6-2.9c-1.3,0.8-3.8,2.9-5,4.6c2.5,0.8,4.2,0.8,4.6,2.9v14.2c1.3,0.4,2.9,0,4.6,0V51.7c0.8-0.4,1.3-0.8,1.7-1.3
	c0.8,0.4,2.5,2.9,3.4,3.4C131.9,53.4,134.4,51.7,135.3,50.9L135.3,50.9z M115.2,78.1c-2.9,0.4-6.7,3.4-8,6.3c-0.4,1.3,0,5,0.8,5.4
	c0.4,0.4,0.8,0.4,0.8,0.8c-1.7,1.7-3.4,3.4-3.4,5.9s2.1,4.6,4.6,5.9c1.3-2.1,3.4-3.4,5.9-3.8c0,2.1,0.8,3.4,2.1,4.2
	c0.8-0.8,4.6-4.2,5.4-5c0.8-0.8,0-1.7-0.8-0.8c-0.4,0.4-1.7-0.4-2.1-0.8c0-1.3,0-12.1,0.4-12.6C118.5,81.5,116.9,77.7,115.2,78.1z
	 M115.6,89.4c-2.9,2.1-4.2,2.1-6.3-0.4c-1.3-1.3-0.8-3.4-0.4-4.6c0.8-1.7,2.5-2.9,3.4-2.9s3.4,2.9,2.9,4.6
	C115.2,86.5,115.2,88.2,115.6,89.4z M115.6,94.9v1.7c-0.4,0-1.3,0.4-2.1,0.8c-1.3-0.8-6.7-2.9-2.9-5.4c2.1,1.3,2.9,0.4,5-0.8V94.9z
	 M113.1,71.4c-0.4-0.4-1.3-1.3-1.3-2.1v-8.4c0-0.8-1.7-0.8-1.7,0c0,1.3,0,3.4-0.8,5c-2.9,4.6-8.8,6.3-12.6,0.8
	c-1.3-1.7-1.7-4.6-1.7-6.7c-0.4-2.5,1.7-6.3,2.1-6.3c5-6.7,12.1-1.7,12.6,0.8c0.4,1.7,0.8,4.2,0.8,5s1.7,0.8,1.7,0V47.9
	c0-0.8-1.3-0.8-1.3,0c0,1.7-0.8,1.7-2.1,1.3c-2.5-0.8-8.4-2.1-11.3,0c-2.9,1.7-7.1,5.9-7.1,10.9c0,8.4,3.4,8.8,6.7,11.3
	c3.4,2.1,8,0.8,12.1-0.4c1.7-0.4,2.1,0.4,2.9,1.7C112.7,73.9,113.9,72.7,113.1,71.4z M90,83.1c-2.9,4.2-4.6,11.3,0.4,15.5
	c2.5,2.1,4.2,3.4,9.2,2.5c0.8-2.1,1.3-2.5,2.9-4.6c-3.4,0.4-5.9,0-8.4-1.7c-5-3.8-3.4-10.1-2.1-12.1c2.5-3.8,6.3,1.7,7.1,2.5
	c0.8-1.3,2.5-2.5,3.8-3.8c-1.3-2.1-2.5-3.8-3.8-5C96.8,77.3,92.1,80.2,90,83.1z M92.1,120.8c-1.3,8,6.3,12.6,10.1,14.2
	c0.8-1.7,2.5-4.6,4.6-6.7c1.3-1.7,0-2.1-1.3-0.8c-1.7,1.7-6.7,0-8-2.1c2.5-1.7,8.4-7.1,11.3-9.2c-1.7-1.7-4.6-5.9-5-8
	C101.4,109.1,93.4,112.4,92.1,120.8z M99.7,112c0.8,1.7,2.9,5.4,4.2,5.9c-1.7,1.7-6.3,4.6-7.5,5.4C94.2,120.8,93,116.2,99.7,112z
	 M116,109.5c-1.7,1.3-2.9,2.9-5,4.6c0.8,1.3,2.9,2.5,2.9,4.6V133h4.2c-0.4-1.7,0-14.2,0-15.9c1.3-0.8,1.3-1.3,2.5-2.1
	c0.8,0.8,2.9,1.3,2.9,2.5c0,1.3,0.4,7.1,0,9.6c-0.4,2.5-0.4,4.6,1.3,7.1c1.3-1.3,5-4.2,6.3-5c0.8-0.8,0.4-1.3-0.8-0.8
	c-1.3,0.4-1.3,0.4-1.3-0.4c0-1.3-0.4-8-0.8-12.1c0-4.2-2.1-5.4-3.4-5.9c-1.3,1.3-3.8,2.9-5.4,4.2C118.1,113.3,117.3,111.6,116,109.5
	z M132.8,99c1.3-1.3,2.5-2.9,2.9-3.4c1.3-0.8,0-1.7-0.8-0.8c-0.8,0.8-2.5-0.8-2.9-1.3c-0.4-0.8-1.7-10.5-1.3-10.5
	c0,0,6.3-0.8,6.7-0.8s0.8-2.1,0-2.1c-0.8,0-5.4,0.8-5.9,0s-0.8-4.6,0.8-7.5c0.8-1.3,0-2.5-0.4-1.3c-0.4,1.3-4.2,7.1-6.7,8.4
	c-2.1,0.8-1.7,1.3-0.4,1.7c0.8,0,2.1,1.3,2.1,1.3c0,5-0.8,10.9,0.8,13.4C129,98.6,131.5,100.3,132.8,99z M153.7,101.6
	c-0.8,1.7-2.1,2.9-4.2,3.8c1.3,1.3,2.9,2.5,4.2,3.4c1.3-1.7,2.5-2.9,4.2-4.2C156.2,104.1,154.5,103.2,153.7,101.6z M144.1,96.1
	c2.1,0,5,0.8,8.4,0.8c4.2-0.4,7.5-6.7,5.4-11.7c-1.7-4.6-6.7-3.8-10.5-5c-3.4-0.8-4.6-2.9-0.8-5.4c4.2-2.5,9.2,1.7,9.6,2.5
	c0.8,1.3,1.3,1.3,1.3-0.4c0-3.8-0.4-1.7-0.8-5.4c0-1.3-1.3-1.3-1.3,0c0,1.3-1.7,0.8-2.9,0.8c-1.3,0-4.6-0.4-7.5,1.3
	c-2.1,1.3-6.3,4.6-3.8,8.8c1.3,2.5,9.6,4.2,11.7,5.9c2.1,1.3,2.5,5,0.4,6.7c-2.5,2.1-9.2,0.4-10.5-0.8c-1.3-1.7-2.1-2.9-2.1-4.6
	c-0.4-1.7-1.7-1.7-1.7,0c0,1.7,0.4,7.1,0.8,8.8c0.4,1.3,1.7,0.8,1.7,0C142.8,96.5,143.2,96.1,144.1,96.1L144.1,96.1z M135.3,113.7
	c-1.7,1.3,1.7,2.9,1.7,2.9c0,5-0.4,10.1,1.3,12.6c1.3,1.7,4.2,2.5,5,1.3c0.4-1.7,2.9-4.6,3.8-5c0.8-0.8,0-1.7-0.8-0.8
	c-1.7,2.1-2.9,0.8-4.2-0.4c-0.8-0.8-0.8-7.5-0.4-8c0,0,3.4-0.4,4.2-0.4c0.4,0,0.4-2.1,0-2.1c-0.8,0-3.8,0-4.2-0.4
	c-0.4-0.8,0.4-5.4,0.8-7.5c0-1.7-0.8-2.1-1.3-0.4C140.3,106.2,137.4,112,135.3,113.7L135.3,113.7z"/>
</svg>
