<?xml version="1.0" encoding="utf-8"?>
<!-- Generator: Adobe Illustrator 24.1.2, SVG Export Plug-In . SVG Version: 6.00 Build 0)  -->
<svg version="1.1" id="Layer_1" xmlns="http://www.w3.org/2000/svg" xmlns:xlink="http://www.w3.org/1999/xlink" x="0px" y="0px"
	 viewBox="0 0 844 202" style="enable-background:new 0 0 844 202;" xml:space="preserve">
<style type="text/css">
	.Drop_x0020_Shadow{fill:none;}
	.Outer_x0020_Glow_x0020_5_x0020_pt{fill:none;}
	.Blue_x0020_Neon{fill:none;stroke:#8AACDA;stroke-width:7;stroke-linecap:round;stroke-linejoin:round;}
	.Chrome_x0020_Highlight{fill:url(#SVGID_1_);stroke:#FFFFFF;stroke-width:0.3629;stroke-miterlimit:1;}
	.Jive_GS{fill:#FFDD00;}
	.Alyssa_GS{fill:#A6D0E4;}
	.st0{fill-rule:evenodd;clip-rule:evenodd;fill:#C33C54;}
	.st1{fill:#0D1B48;}
</style>
<linearGradient id="SVGID_1_" gradientUnits="userSpaceOnUse" x1="-255" y1="-182" x2="-255" y2="-183">
	<stop  offset="0" style="stop-color:#656565"/>
	<stop  offset="0.618" style="stop-color:#1B1B1B"/>
	<stop  offset="0.6292" style="stop-color:#545454"/>
	<stop  offset="0.9831" style="stop-color:#3E3E3E"/>
</linearGradient>
<g>
</g>
<g>
</g>
<g>
	<path class="st0" d="M194.8878,98.6923v12.4884h16.3998c8.9347,0,16.4272-7.4932,16.4272-16.4283
		c0-8.9183-7.4799-16.3994-16.3986-16.3994h-0.0141c-8.9273,0-16.4143,7.4878-16.4143,16.4139V98.6923L194.8878,98.6923z
		 M211.3021,26.9711h0.0141c37.28,0,67.7805,30.5018,67.7805,67.7814v0.0011c0,37.2953-30.5127,67.8092-67.8091,67.8092h-16.3998
		v-30.8296h16.3998c20.2794,0,36.9804-16.7014,36.9804-36.9808c0-20.2625-16.6889-36.9514-36.9518-36.9514h-0.0141
		c-20.2715,0-36.9674,16.6955-36.9674,36.9659v3.9254v33.0409v30.8296h-30.8285V94.7669
		C143.5063,57.4795,174.0144,26.9711,211.3021,26.9711z"/>
</g>
<g>
</g>
<g>
</g>
<g>
	<path class="st1" d="M378.6011,143.8604h-53l-8.7998,25.7998h-36l51.7998-140.3999h39.3999l51.8003,140.3999h-36.3999
		L378.6011,143.8604z M369.8013,117.8604l-17.6001-52l-17.7998,52H369.8013z"/>
	<path class="st1" d="M556.7002,41.0601c11.7998,9.4688,19.4312,22.269,22.8999,38.3999h-36.2002
		c-2.6685-6.5312-6.7686-11.6655-12.2998-15.3999C525.5659,60.3291,519,58.46,511.3999,58.46c-10,0-18.0684,3.6689-24.1997,11
		C481.0659,76.7944,478,86.5947,478,98.8604c0,12.2686,3.0659,22.0342,9.2002,29.2998
		c6.1313,7.2686,14.1997,10.8999,24.1997,10.8999c7.6001,0,14.166-1.8657,19.7002-5.6001
		c5.5312-3.731,9.6313-8.7998,12.2998-15.1997h36.2002c-3.4688,16-11.1001,28.7686-22.8999,38.2998
		C544.8999,166.0947,530,170.8604,512,170.8604c-13.7344,0-25.7998-3.0312-36.1997-9.1001
		c-10.4004-6.0659-18.4346-14.5659-24.1001-25.5c-5.6689-10.9312-8.5-23.3999-8.5-37.3999s2.8311-26.4658,8.5-37.4004
		c5.6655-10.9312,13.6997-19.4312,24.1001-25.5c10.3999-6.0654,22.4653-9.0996,36.1997-9.0996
		C530,26.8604,544.8999,31.5947,556.7002,41.0601z"/>
	<path class="st1" d="M643.3984,55.46v29.6001h47.7988v25.8003h-47.7988v31.3999h53.7988v27.3999h-87.9995V28.2603h87.9995V55.46
		H643.3984z"/>
	<path class="st1" d="M822.8955,150.46c-3.7998,6.269-9.4004,11.269-16.7998,15c-7.4004,3.7344-16.3691,5.6001-26.9004,5.6001
		c-15.8691,0-28.9346-3.8657-39.2002-11.6001c-10.2686-7.731-15.8682-18.5312-16.7998-32.3999h36.4004
		c0.5312,5.3345,2.4307,9.5347,5.6992,12.6001c3.2656,3.0688,7.4316,4.6001,12.5,4.6001c4.4004,0,7.8662-1.2002,10.4004-3.6001
		c2.5312-2.3999,3.7998-5.6001,3.7998-9.6001c0-3.6001-1.1689-6.6001-3.5-9c-2.334-2.3999-5.2344-4.3657-8.7002-5.8999
		c-3.4688-1.5312-8.2686-3.3657-14.3994-5.5c-8.9346-3.0654-16.2344-6.0312-21.9004-8.8999
		c-5.6689-2.8657-10.5342-7.1313-14.5996-12.8003c-4.0693-5.6655-6.1006-13.0312-6.1006-22.0996
		c0-8.4004,2.1318-15.666,6.4004-21.8003c4.2656-6.1313,10.166-10.8311,17.7002-14.1001c7.5312-3.2656,16.165-4.8999,25.8994-4.8999
		c15.7314,0,28.2314,3.7344,37.5,11.2002c9.2656,7.4688,14.5,17.7344,15.7002,30.7998h-37
		c-0.6689-4.6655-2.3682-8.3657-5.0996-11.1001c-2.7344-2.731-6.4346-4.0996-11.1006-4.0996c-4,0-7.2344,1.0684-9.6992,3.1997
		c-2.4688,2.1343-3.7002,5.269-3.7002,9.3999c0,3.3345,1.0996,6.1689,3.2998,8.5c2.2002,2.3345,4.9658,4.2344,8.2998,5.7002
		c3.3311,1.4688,8.1318,3.3345,14.4004,5.6001c9.0654,3.0688,16.4658,6.1001,22.2002,9.1001c5.7305,3,10.665,7.3687,14.7998,13.0996
		c4.1309,5.7344,6.2002,13.2002,6.2002,22.4004C828.5957,137.3291,826.6953,144.1943,822.8955,150.46z"/>
</g>
<g>
	<path class="st1" d="M115.8936,150.7754c-3.8003,6.269-9.4004,11.269-16.8003,15c-7.3999,3.7344-16.3687,5.6001-26.8999,5.6001
		c-15.8687,0-28.9346-3.8657-39.2002-11.6001c-10.2686-7.731-15.8687-18.5312-16.7998-32.3999h36.3999
		c0.5312,5.3345,2.4312,9.5347,5.7002,12.6001c3.2656,3.0688,7.4312,4.6001,12.5,4.6001c4.3999,0,7.8657-1.2002,10.3999-3.6001
		c2.5312-2.3999,3.7998-5.6001,3.7998-9.6001c0-3.6001-1.1685-6.6001-3.5-9c-2.334-2.3999-5.2344-4.3657-8.6997-5.8999
		c-3.4688-1.5312-8.269-3.3657-14.3999-5.5c-8.9346-3.0654-16.2344-6.0312-21.9004-8.8999
		C30.8247,99.21,25.959,94.9443,21.8936,89.2754c-4.0688-5.6655-6.1001-13.0312-6.1001-22.0996
		c0-8.4004,2.1313-15.666,6.3999-21.8003c4.2656-6.1313,10.1655-10.8311,17.7002-14.1001
		c7.5312-3.2656,16.1655-4.8999,25.8999-4.8999c15.731,0,28.231,3.7344,37.5,11.2002c9.2656,7.4688,14.5,17.7344,15.6997,30.7998
		h-37c-0.6685-4.6655-2.3687-8.3657-5.0996-11.1001c-2.7344-2.731-6.4346-4.0996-11.1001-4.0996c-4,0-7.2344,1.0684-9.7002,3.1997
		c-2.4688,2.1343-3.6997,5.269-3.6997,9.3999c0,3.3345,1.0996,6.1689,3.2998,8.5c2.2002,2.3345,4.9658,4.2344,8.2998,5.7002
		c3.3315,1.4688,8.1313,3.3345,14.4004,5.6001c9.0654,3.0688,16.4653,6.1001,22.1997,9.1001
		c5.7314,3,10.6655,7.3687,14.8003,13.0996c4.1309,5.7344,6.1997,13.2002,6.1997,22.4004
		C121.5933,137.6445,119.6934,144.5098,115.8936,150.7754z"/>
</g>
<g>
</g>
<g>
</g>
<g>
</g>
<g>
</g>
<g>
</g>
<g>
</g>
<g>
</g>
<g>
</g>
<g>
</g>
<g>
</g>
<g>
</g>
<g>
</g>
<g>
</g>
<g>
</g>
<g>
</g>
</svg>
