<?xml version="1.0" encoding="UTF-8"?>
<svg width="21px" height="21px" viewBox="0 0 21 21" version="1.1" xmlns="http://www.w3.org/2000/svg" xmlns:xlink="http://www.w3.org/1999/xlink">
    <!-- Generator: Sketch 62 (91390) - https://sketch.com -->
    <title>Shape</title>
    <desc>Created with Sketch.</desc>
    <g id="Page-1" stroke="none" stroke-width="1" fill="none" fill-rule="evenodd">
        <g id="light" transform="translate(-129.000000, -1.000000)" fill="#C33C54">
            <path d="M137,12.0978868 L137,14 L139.497913,14 C140.85879,14 142,12.8587077 142,11.4977991 C142,10.1394493 140.860709,9 139.502269,9 L139.500122,9 C138.140372,9 137,10.1404698 137,11.5 L137,12.0978868 L137,12.0978868 Z M139.500101,1 L139.502284,1 C145.27614,1 150,5.72401924 150,11.497762 L150,11.4979324 C150,17.2741067 145.274251,22 139.497855,22 L136.957885,22 L136.957885,17.2252122 L139.497855,17.2252122 C142.63869,17.2252122 145.225309,14.6385538 145.225309,11.4977465 C145.225309,8.35955667 142.640564,5.7748343 139.502284,5.7748343 L139.500101,5.7748343 C136.360489,5.7748343 133.77466,8.36057886 133.77466,11.5 L133.77466,12.1079454 L133.77466,17.2252122 L133.77466,22 L129,22 L129,11.5 C129,5.72504143 133.725052,1 139.500101,1 Z" id="Shape"></path>
        </g>
    </g>
</svg>